<?xml version="1.0" encoding="utf-8"?>
<!-- Generator: Adobe Illustrator 24.1.2, SVG Export Plug-In . SVG Version: 6.00 Build 0)  -->
<svg version="1.1" id="Layer_1" xmlns="http://www.w3.org/2000/svg" xmlns:xlink="http://www.w3.org/1999/xlink" x="0px" y="0px"
	 viewBox="0 0 500 500" style="enable-background:new 0 0 500 500;" xml:space="preserve">
<style type="text/css">
	.st0{display:none;fill:none;stroke:#00AEEF;stroke-width:6;stroke-miterlimit:10;}
	.st1{display:none;fill:none;stroke:#009BFF;stroke-width:6;stroke-miterlimit:10;}
	.st2{display:none;fill:none;stroke:#009BFF;stroke-width:5;stroke-miterlimit:10;}
	.st3{display:none;fill:#009BFF;}
	.st4{fill:#F7F5F0;stroke:#404040;stroke-miterlimit:10;}
	.st5{fill:#F7F5F0;stroke:#404040;stroke-width:1.5;}
	.st6{fill:#F7F5F0;stroke:#404040;stroke-width:1.5;stroke-miterlimit:10;}
	.st7{fill:#EF3E26;stroke:#404040;stroke-width:1.5;stroke-miterlimit:10;}
	.st8{fill:#F7F5F0;stroke:#404040;stroke-width:0.5;}
</style>
<path class="st0" d="M125.9,228.7"/>
<line class="st1" x1="124.9" y1="228.1" x2="227.9" y2="169.8"/>
<line class="st2" x1="130.4" y1="225.2" x2="217.4" y2="152"/>
<path class="st3" d="M180.7,190.4c6.1-3.5,11.3-8.3,17-12.4c1.6-1.2,3.3-2.2,5-3.2c1-0.6,0.1-2.1-0.9-1.6c-6.2,3.4-11.3,8.3-17,12.4
	c-1.6,1.2-3.3,2.2-5,3.2C178.8,189.4,179.7,191,180.7,190.4z"/>
<g>
	<path class="st4" d="M291.6,227.1c0-0.3,0-0.8,0-1.1h0c-0.1,0.3-0.2,0.6-0.3,0.9l-0.4,1.2h-0.2l-0.4-1.2c-0.1-0.3-0.2-0.7-0.3-0.9
		h0c0,0.3,0,0.7-0.1,1.1l-0.1,1h-0.3l0.2-2.4l0.4,0l0.4,1.2c0.1,0.3,0.2,0.6,0.2,0.8h0c0.1-0.2,0.2-0.5,0.3-0.8l0.5-1.2l0.4,0
		l0.1,2.4h-0.3L291.6,227.1z"/>
	<path class="st4" d="M294,227.3c0,0.6-0.5,0.9-0.9,0.9c-0.5,0-0.8-0.4-0.8-0.9c0-0.6,0.4-0.9,0.9-0.9
		C293.7,226.4,294,226.8,294,227.3z M292.6,227.3c0,0.4,0.2,0.7,0.5,0.7c0.3,0,0.5-0.3,0.5-0.7c0-0.3-0.1-0.7-0.5-0.7
		C292.8,226.7,292.7,227,292.6,227.3z"/>
	<path class="st4" d="M294.4,226.9c0-0.2,0-0.3,0-0.5h0.3l0,0.3h0c0.1-0.2,0.3-0.3,0.6-0.3c0.2,0,0.6,0.1,0.6,0.8l0,1h-0.3l0-1
		c0-0.3-0.1-0.5-0.4-0.5c-0.2,0-0.4,0.1-0.4,0.3c0,0,0,0.1,0,0.1l0,1.1h-0.3L294.4,226.9z"/>
	<path class="st4" d="M298,227.4c0,0.6-0.5,0.9-0.9,0.9c-0.5,0-0.8-0.4-0.8-0.9c0-0.6,0.4-0.9,0.9-0.9
		C297.7,226.5,298,226.9,298,227.4z M296.6,227.4c0,0.4,0.2,0.7,0.5,0.7c0.3,0,0.5-0.3,0.5-0.7c0-0.3-0.1-0.7-0.5-0.7
		C296.8,226.7,296.6,227.1,296.6,227.4z"/>
</g>
<g>
	<path class="st4" d="M242.8,265.1c0-0.3,0-0.7,0-1h0c-0.1,0.3-0.2,0.6-0.3,0.9l-0.4,1.2h-0.2l-0.4-1.2c-0.1-0.3-0.2-0.7-0.3-0.9h0
		c0,0.3,0,0.7-0.1,1.1l-0.1,1h-0.3l0.2-2.4l0.4,0l0.4,1.2c0.1,0.3,0.2,0.6,0.2,0.8h0c0.1-0.2,0.1-0.5,0.3-0.8l0.4-1.2l0.4,0l0.1,2.4
		h-0.3L242.8,265.1z"/>
	<path class="st4" d="M244.9,265.8c0,0.1,0,0.3,0,0.4h-0.3l0-0.2h0c-0.1,0.1-0.3,0.3-0.5,0.2c-0.4,0-0.5-0.3-0.5-0.5
		c0-0.4,0.4-0.6,1.1-0.6v0c0-0.1,0-0.4-0.4-0.4c-0.2,0-0.3,0-0.5,0.1l-0.1-0.2c0.1-0.1,0.4-0.1,0.6-0.1c0.5,0,0.7,0.4,0.6,0.7V265.8
		z M244.6,265.3c-0.4,0-0.7,0-0.7,0.4c0,0.2,0.1,0.3,0.3,0.3c0.2,0,0.4-0.1,0.4-0.3c0,0,0-0.1,0-0.1L244.6,265.3z"/>
	<path class="st4" d="M246.9,263.7l0,2.1c0,0.1,0,0.3,0,0.5h-0.3l0-0.3h0c-0.1,0.2-0.3,0.3-0.6,0.3c-0.4,0-0.7-0.4-0.7-0.9
		c0-0.6,0.4-0.9,0.8-0.9c0.3,0,0.4,0.1,0.5,0.3h0l0-1L246.9,263.7z M246.6,265.2c0,0,0-0.1,0-0.1c0-0.2-0.2-0.4-0.4-0.4
		c-0.3,0-0.5,0.3-0.5,0.7c0,0.4,0.2,0.6,0.5,0.6c0.2,0,0.4-0.1,0.5-0.4c0,0,0-0.1,0-0.1V265.2z"/>
	<path class="st4" d="M247.6,265.5c0,0.4,0.3,0.6,0.6,0.6c0.2,0,0.4,0,0.5-0.1l0.1,0.2c-0.1,0-0.3,0.1-0.6,0.1
		c-0.5,0-0.9-0.4-0.8-0.9c0-0.5,0.3-0.9,0.8-0.9c0.6,0,0.7,0.5,0.7,0.8c0,0.1,0,0.1,0,0.1L247.6,265.5z M248.5,265.2
		c0-0.2-0.1-0.5-0.4-0.5c-0.3,0-0.5,0.3-0.5,0.5L248.5,265.2z"/>
	<path class="st4" d="M249.2,265.1c0-0.2,0-0.4,0-0.5h0.3l0,0.3h0c0.1-0.2,0.3-0.4,0.5-0.4c0,0,0.1,0,0.1,0v0.3c0,0-0.1,0-0.1,0
		c-0.2,0-0.4,0.2-0.4,0.4c0,0,0,0.1,0,0.1l0,0.9h-0.3L249.2,265.1z"/>
	<path class="st4" d="M251.6,265.9c0,0.1,0,0.3,0,0.4h-0.3l0-0.2h0c-0.1,0.1-0.3,0.3-0.5,0.3c-0.4,0-0.5-0.3-0.5-0.5
		c0-0.4,0.4-0.6,1.1-0.6v0c0-0.1,0-0.4-0.4-0.4c-0.2,0-0.3,0-0.4,0.1l-0.1-0.2c0.1-0.1,0.4-0.1,0.6-0.1c0.5,0,0.7,0.4,0.6,0.7
		L251.6,265.9z M251.3,265.4c-0.3,0-0.7,0-0.7,0.4c0,0.2,0.1,0.3,0.3,0.3c0.2,0,0.4-0.1,0.4-0.3c0,0,0-0.1,0-0.1V265.4z"/>
</g>
<g>
	<g>
		<path class="st5" d="M195.3,181.9l-0.6,0.3l-0.3-0.3v0c-4.9-0.8-9.8-1.5-13.3-1.9c-2.1-0.3-3.7-0.4-4.5-0.4l0,0l-0.2,1.1l-1.1,0.9
			l0,0.7l1.6,2l0.5-0.3l0.2,0.2l0.4,2.3l1.5-0.2l0.2,0.9l-0.6,0.9l0.4,1.2l-0.8,0.4l0,0.4l0.2,0.3l-1.1,0.2l-0.3,0.7l0.3,0.9
			l0.4,0.3l1.2,0.2c0,0,0.4,1.6-0.1,1.8c-0.4,0-1,0-1,0l0.7,1.8l-0.2,0.5l-0.4,0.3l0,1.1l-0.6,0.5l-0.9,0.2l-0.7,0.7l-0.4-0.2
			l-0.4,0.9l-0.1,0.2l0,0.4l-0.4,0.2l0,0.5l0.1,0.7l0.1,0.7l-0.2,1.7l-0.4,0.6l0,0.6l-0.9,0.1l-0.6,0.4l-0.7,0.1l-0.9,1.1l-0.2,1.2
			l-0.7,1l-0.3,1.2c0,0-0.9,0.4-1.2-0.1c-0.5,0.3-2.4,1.3-2.4,1.3l-1-0.5l-0.6-0.6c0,0-0.4,0.2-0.6,0.6c0.2,0.1,0.5,0.4,0.5,0.4
			l0.5,1.4l0.6,0.6c0,0,0.5-0.1,0.8,0.1c0.3,0.2,0.7,0.2,1.1,0s1.1-0.2,1.1-0.2l1.6-0.7l0.8-0.9c0,0-0.4-1.4,0.7-1.6
			c0.4,0.4,0.8,0.6,0.8,0.6h0.5l0.2-0.6l0.9,0l0.9,0.4l0.7-0.4l-0.2-0.4c0,0-0.2-0.2-0.5-0.4c-0.2-0.8,0.9-1.1,0.9-1.1v-0.4l0.7-0.2
			l0.8-1.1l0-0.8l-0.2-0.5l0.3-0.3l0.4,0.2l0.3-0.5l0.2-0.5l0.9-1.1c0,0,0.1-0.2,0.1-0.5c0.1-0.4,1.1,0,1.1,0l0.7,0
			c0,0,0.1,0.1,0.1,0.3c-0.1,0.4,0.1,0.6,0.4,0.8c0.2,0.1,0.6,0.3,0.6,0.3l0.1,0.3c0,0,0.2-0.3,0.4-0.4c0.4,0.5,3.2,0.1,3.2,0.1
			l0.6-0.2l0.4-0.5l0.6,0l0.9,0.4l0.9,0l0.4-0.2c0,0,0.2,0,0.3,0.1c0.9-0.5,1.3,0,1.3,0l0.4,0l0.4-0.6l0.6-0.1l1.6-0.9l0.2,0.2
			l1.3-0.8l0.4,0.3l0.3,0.5l0.4-0.6l0.4,0l0.5-10.3v-0.1L195.3,181.9z"/>
		<path class="st5" d="M200.1,229.3c-0.2-1.5,0.8-13.5,0.9-15.7l0,0l-0.6-0.5l-1.8-6.9l-0.9-3.6v0l-0.4,0l-0.4,0.6l-0.3-0.5
			l-0.4-0.3l-1.3,0.8l-0.2-0.2l-1.6,0.9l-0.6,0.1l-0.4,0.6l-0.4,0c0,0-0.4-0.5-1.3,0c-0.1-0.1-0.3-0.1-0.3-0.1l-0.4,0.2l-0.9,0
			l-0.9-0.4l-0.6,0l-0.4,0.5l-0.6,0.2c0,0-2.7,0.4-3.2-0.1c-0.2,0.1-0.4,0.4-0.4,0.4l-0.1-0.3c0,0-0.4-0.1-0.6-0.3
			c-0.2-0.1-0.4-0.4-0.4-0.8c-0.1-0.2-0.1-0.3-0.1-0.3l-0.7,0c0,0-1-0.4-1.1,0c0,0.3-0.1,0.5-0.1,0.5l-0.9,1.1l-0.2,0.5l-0.3,0.5
			l-0.4-0.2l-0.3,0.3l0.2,0.5l0,0.8l-0.8,1.1l-0.7,0.2v0.4c0,0-1.1,0.3-0.9,1.1c0.3,0.1,0.5,0.4,0.5,0.4l0.2,0.4l-0.7,0.4l0,0l0,0.6
			l0.2,0.2l-0.6,0.7l0,1.2c0,0,0.5-0.3,0.7,0.1c0.2,0.5,0.5,0.9,0.1,1.1c-0.3,0.3-0.7,0.9-0.7,1.2c0,0.3,0.3,1.1,0.4,1.5
			c0.1,0.4,0.4,1.5,0.4,1.5l-0.5,0.2l0.1,0.4l-0.3,0.3l0.1,0.5l-0.3,0.3l-0.2,0.9l0.2,0.7l0.4-0.2l0.9,0.9l-0.6,0.7l0.1,0.5
			l-0.1,0.1l-0.3,0.4l-0.7,13.4l0.3,0c0,0,0.4,1.1,1.8,0.8c0.1,0.1,0.2,0.3,0.2,0.3v0.7l0.4,0.1l0.7,0.8l9.2-8.2l0.7,0.2l0.2-1.2
			l0.8-0.4l0.8,0.5l0-0.7l1-0.4l0.1-0.8l0.7,0.3l2.2-1.1c0,0,0.2,0.1,0.5,0.3c0.6-0.6,1-0.1,1-0.1l0.6,0.2l1.4-0.9l1.6,1.1l0.4-0.2
			l0.8,0.4l0.2-0.7l0.1-0.4C200.4,229.3,200.3,229.2,200.1,229.3z"/>
		<path class="st5" d="M166.1,139.4l-1.1,0.3c0,0-0.1-0.1-0.2-0.2c-0.6,0.8-0.9-1.2-0.9-1.2l0.5-0.4l-0.4-0.4l0.3-0.4
			c0,0,0-0.9,0.1-1.3c0.6-0.1,0.7-0.7,0.5-0.8s-0.2-0.5-0.4-0.8c-0.1-0.3,1.1-0.5,1.1-0.5l-0.6-1l0.4-0.4l0.6,0.1
			c0,0,0.1-0.2,0.3-0.6c0.6-0.4,0.2-1.5,0.1-1.6c-0.3,0-0.9-0.7-0.9-0.7l-0.9-1.4l-0.5-0.2l-0.5-0.9l0.3-0.4l-0.8-0.4l-0.1-0.1
			l-29.6-2.3l-4,0l0.1,0.1l-0.3,2.3l0.9,0.1l0.1,1.8l0.6,0.2l-0.3,4l0.2,0.8l-0.2,1.4l5.7,0.5l-0.4,3.4l0.2,1.6l-0.2,1.3l-0.4,0.7
			l0,2.7c5.8,0.1,22.8,1.6,22.8,1.6l0.3-1.4l4.9,0.3l0,0.9l-0.2,0.6l4.5,0.2l0.7-2.2l0.2-0.8l0-0.8l0.2-0.3c0,0-0.1-0.3-0.2-0.6
			c0.3-0.3,0.2-0.5,0-0.9c-0.2-0.4,0.1-1.1,0.4-1.3c0.4-0.1,0.5-0.5,0.5-0.5L166.1,139.4z"/>
		<path class="st5" d="M146.2,171.6l0.4-0.3l0.2-0.1l-0.5-0.9l-0.6-0.9l0.8-1.1l2.2,0.1c-0.6-0.6-1.5-1.4-1.7-1.6
			c-0.6,0.1-0.5-0.9-0.5-0.9l-0.4-0.4c0,0,0-0.2,0-0.5c0.4-0.1,0.4-1,0.4-1.4c-2-0.3-2-1.7-2-1.7l-0.9-0.1l0.1-0.8
			c0,0,0-0.2-0.1-0.4c0.5-1.1-0.1-2.3-0.1-2.3l0.1-1l0.6,0.2c0,0,0.3-0.1,0.4-0.2c-0.5-0.3-0.5-1-0.5-1l0.5-0.4l-0.6-0.1
			c0,0-0.1-0.5-0.3-0.9c-0.7,0.2-0.6-0.9-0.6-0.9l-0.7-0.2l-0.2,0.1c0,0-0.8,0.1-1.3,0.2c-0.2-0.3-0.6-0.5-0.8-0.6s-0.6-0.1-0.9-0.4
			s-0.7-0.2-0.9,0c-0.6,0.6-1.3-0.6-1.5-0.9c-0.2-0.3-0.3-0.8-0.8-1.1c-0.5-0.3-0.8-0.9-0.8-0.9h-0.2l-0.7-0.7l-0.6-1.4l0.3-0.7
			l0.1-0.8h0.6l0.6-1c0,0-0.6-0.5-1.1-0.8c0.3,0,0.7,0,1.2,0l0-2.7l0.4-0.7l0.2-1.3l-0.2-1.6l0.4-3.4l-5.7-0.5l-0.4,2.6l-1.6-0.2
			l-0.3,0.7l-3.2-0.5l0,0.4l-0.9-0.1l-0.1,0.5l-0.7-0.3l-0.2,2.5l-0.4,0l0.2,0.9l-0.3,1.3l0.7,0.2l-0.2,1.4l0.3,0.1l0,0.7l0.3,0
			l0,1.2c0,0,0.4,0.5,0.5,1c0,0.5,0,2.1,0,2.1l0.6,0.1c0,0,0.1,1.6,0.2,2c-0.6-0.1-0.8,0-0.8,0l0,0.7l-1.5,2.3l-1.2-0.2l0,1.7
			l-0.4,0.1l-0.2,2l-0.4,0l-0.1,1.3c0,0,0.2,0.4,1,0.4c0,0.4,0,0.7,0.4,0.8c-0.1,0.4-0.2,1.4-0.2,1.4s0.9,0.9,1.2,1.2
			c0.3,0.3,1,0.3,1.5,0.3c-0.1,0.2-0.2,0.6-0.2,0.6l0.4,0.3l-0.1,1.7l0.2,0l-0.1,0.5c0,0,0.1,0.5,0.7,0.6c0,0.4,0.1,1.3,0.1,1.3
			l1.4,0l0.5,0.4l0.1,0.7l1.9,0.8l0,0.4h0.7l0.2,0.4l0.4,0.7l0.4-0.2l0.2,0.6l0.9,0.6l0.1,0.4l0.7,0.5l0,0.7l1.1,2.1l-0.2,0.4
			c0,0,0.1,0.6,0.6,0.7c0.1,0.3,0.2,0.7,0.2,0.7l0.7,0.4l0.5,0c0,0,0.6,0.2,0.8,0.8c0.1,0.2,0.5,1.1,0.5,1.1l0,0.1l6.2-1.3l2-2.8
			l0.5-0.2l0-0.9l0.5-0.7l0.6,0.2l0.4-0.7l-0.4-1L146.2,171.6z"/>
		<path class="st5" d="M200.7,244.9l20-8.4l-9.6-10.2l-0.1-0.1l-2.8-3.1l-1.3-2l-5.9-7.4c-0.2,2.2-1.1,14.2-0.9,15.7
			c0.2,0,0.4,0,0.4,0l-0.1,0.4l-0.2,0.7l-0.8-0.4l-0.4,0.2l-1.6-1.1L196,230l-0.6-0.2c0,0-0.3-0.5-1,0.1c-0.3-0.2-0.5-0.3-0.5-0.3
			l-2.2,1.1l-0.7-0.3l-0.1,0.8l-1,0.4l0,0.7l-0.8-0.5l-0.8,0.4l-0.2,1.2l-0.7-0.2l-9.2,8.2l-0.4,0.3l-0.1,0l-0.4,0.3l0.1,0.4
			c0,0,0.8,0.7,0.9,1.4c-0.2,0.2-0.6,0.6-0.6,0.6l0.6,0.9l0,0.6l0.4,0.1l0.5-0.1l0.9,0.4l0,0.4l-0.6,1.1l0.2,0.4l-0.2,0.4l0.5,0.7
			l-0.2,0.3l0.2,0.6l-0.8,0.8c0,0-1.5,0.2-1.3,0.8c-0.1,0.3-0.1,1.5-0.1,1.5s0.5,0.2,0.6,0.9c0.3,0.2,0.9,0.5,0.9,0.5l0.3,2
			l-0.1,0.4l0.1,0.2c0,0,0,1.3,1,0.9c0-0.4,0-0.8,0-0.8l0.9-0.7l1,0.5l0.2,0.4l1.3,0l0.2-0.4l0.6-0.4l0.6,1.1l1,0.1
			c0,0,0,0.7,0.4,1.4l10.9-10l-0.5-0.2l-0.2-1.2l0-0.6l-0.5,0.1l0.5-0.6L200.7,244.9z"/>
		<path class="st5" d="M178.3,192.6l-0.4-0.3l-0.3-0.9l0.3-0.7l1.1-0.2l-0.2-0.3l0-0.4l0.8-0.4l-0.4-1.2l0.6-0.9l-0.2-0.9l-1.5,0.2
			l-0.4-2.3l-0.2-0.2l-0.5,0.3l-1.6-2l0-0.7l1.1-0.9l0.2-1.1l0,0l0.5-1.2l-0.3-0.8l-1-0.5l-0.8,1.1l-1.1,0.1l-0.6-1.4l0.2-0.3
			l-0.4-0.3l-0.8-0.2l0.2-1.1l-0.2-0.6l0.1-1l-0.6-0.4l-0.1-0.4l-1.4,0.5l-0.6-0.3l-0.6-0.8c0.4-0.1,0.6-0.5,0.7-0.9
			c0.1-0.4-0.4-0.6-0.8-0.8c-0.3-0.1-0.4-0.3-0.4-0.5l-19.6-1.4l-2.2-0.1l-0.8,1.1l0.6,0.9l0.5,0.9l-0.2,0.1l0.4,0.6l1.2,0.9
			l0.4-0.3l0.6,0.2l0.2-0.2l1.4,0.4l0.4,1.4l0.6,1.1l0.1,1.6l0.9,1.4l0,1.5c0,0,0.9,0.2,0.8,0.9c0,0.5,0.5,1.2,0.7,1.2
			c0.2,0,0.5,0.3,0.6,0.7c0,0.4-0.2,1.3-0.2,1.3l0.5-0.3l0.9,1.9l-0.2,0.2l0.5,2.1l0,0.6l0.5,0.9l1.6-0.1l0.6,0.5l0.3,0.5l0.7,0.3
			l0.7-0.5l0.4-0.2l0.6-0.7l0.9-0.3l0.4-0.5l0.6,0.4c0,0,0.6,0.1,1.3-0.2c0.6-0.3,1.9,0,2.1,0.2c0.2,0.2,0.9,0.6,1.7,0.4
			c0.2,0.1,0.4,0.2,0.4,0.2l0.5-0.4l0.2,0.5l0.7-0.4l0.4-0.4l0.7,0.4l0.4-0.2l0.5,0.7l-0.4,10.3l3.6,0.4l0.4-0.9l0.4,0.2l0.7-0.7
			l0.9-0.2l0.6-0.5l0-1.1l0.4-0.3l0.2-0.5l-0.7-1.8c0,0,0.6,0,1,0c0.5-0.2,0.1-1.8,0.1-1.8L178.3,192.6z"/>
		<path class="st5" d="M157.6,198.4l-0.2-0.6l0-0.9l-0.5-1.1l-0.7-1.1c0,0-0.7-1.1-0.4-2c0.3-0.9,0.8-2.4,0.8-2.4l0-1l0.4,0
			l-0.5-0.9l0-0.6l-0.5-2.1l0.2-0.2l-0.9-1.9l-0.5,0.3c0,0,0.1-0.9,0.2-1.3c-0.1-0.4-0.3-0.8-0.6-0.7c-0.3,0-0.8-0.7-0.7-1.2
			c0.1-0.7-0.8-0.9-0.8-0.9l0-1.5l-0.9-1.4l-0.1-1.6l-0.6-1.1l-0.4-1.4l-1.4-0.4l-0.2,0.2l-0.6-0.2l-0.4,0.3l-1.2-0.9l-0.4-0.6
			l-0.4,0.3l0.8,1.1l0.4,1l-0.4,0.7l-0.6-0.2l-0.5,0.7l0,0.9l-0.5,0.2l-2,2.8l-6.2,1.3l-0.2,0.9l-0.5,0.6l0,0.9l-0.5,1l0.9,2
			c0,0,1.5-0.1,1.9,1.9c0.3,0,0.6,0,0.6,0l0.2,1.3l0.5,1l0,0.6l0.5-0.1l0.3,0.2l-0.2,0.4l1.2,0.4l-0.1,0.6l-0.7,0.7l1.1,1l0.1,0.7
			l0.6,0.6l-0.4,0.6l0.5,0.5c0,0,0.7,0.4,0.8,1.1c0.1,0,0.4,0.1,0.4,0.1l0,0.7l0.5,0.8l-0.3,0.4v0.9c0,0-0.1,0.4,0.6,0.4
			c-0.1,0.3-0.2,0.7-0.2,0.7l0.8,0.6l0.4,1.2l-0.2,0.7l0,1.4l-0.4-0.1l0,1.5l6.7,0.4l0.1-0.5c0,0-1-0.4-0.7-1.2
			c0.1-0.3,0.3-0.4,0.3-1c0.3-0.1,0.6-0.1,0.6-0.1l-0.2-1.5l-0.6-0.4l0.9,0l-0.9-0.4l0-0.4l0.1-0.4l0.9,0.2l-0.5-1
			c0,0,0.3-0.7,0-1.1c1.1,0,5.1,0.2,5.1,0.2L157.6,198.4z"/>
		<path class="st5" d="M320.5,248.6l-36.9-1c0.2,0.3,0.4,0.8,0.3,1.2c-0.3,0.1-1.3,0.7-0.9,1.3c-0.1,0.3-0.3,0.9-0.3,0.9l0.8,1.3
			l-0.6,0.3c0,0-0.4,0.7,0.3,1.2c0.5,0.3,1.4,0.8,1.4,0.8l1-0.5l1,1.8c0,0,0.4,1,0.8,1.5c-0.1,0.3-0.4,0.8-0.4,0.8l-0.4,0.2l0,0.5
			l-0.1,0.3l0.5,0.6l-0.4,0.5l0.7,0.7c0,0-0.2,0.8-0.3,1c0,0.2,0.1,0.6,0.1,0.8c0.2,0.3,1.2,1.4,2.2,0.5c0.3,0.2,0.7,0.3,0.7,0.3
			l0.4,0.8l0.5,0l0.2,0.4c0,0,1-0.2,1.2,0.1c0.2,0.3,0.8,1,1.2,1c0.4,0,0.7,0.5,0.7,1c0.2,0.1,0.7,0.1,0.7,0.2c-0.1,0,0,0.4,0,0.4
			l0.7-0.2c0,0,0.8,0.5,0.4,1c-0.1,0.2,0,0.5,0.2,0.6c0.2,0.1,0.7,0.9,0.2,1.3c0.2,0.2,0.4,0.7,0.4,0.7l-0.3,0.4
			c0,0,0.9,0.5,0.7,1.6c0.2,0.2,0.5,0.4,0.5,0.8c0,0.3,0.3,1.1,0.6,1.4c0.3,0.3,0,1,0.5,1.2c-0.2,0.2-0.6,0.6-0.2,1
			c0,0.5,0.1,1.9-1,1.6c-0.1,0.2-0.3,0.4-0.3,0.4l0.8,1.5l-0.3,0.8c0,0,0.4,0.7,0.3,1.7l0.3,0c0,0,0.9,0.3,1,0.9
			c0.1,0.7,0.1,1.2,0.1,1.2l-1,0.5c0,0-0.3,0.1,0,0.4c0.3,0.2,0.3,0.2,0.4,0.5c0.1,0.3,0.8,0.2,0.8,0.5c-0.3,0.1-0.5,0.5-0.1,0.7
			s0.8,0.7,0.3,1.1c0.2,0.1,0.6,0.3,0.6,0.3s0.4,1,0.9,1c0.2,0,0.5,0.6,0.1,0.6s-0.4,0.3-0.4,0.5c-0.1,0.2-0.2,0.9,0.2,1.1
			c0.4,0.2,0.8,0.2,0.9,0.5s0.8,0.4,0.5,0.7c-0.2,0.4-0.1,0.5,0.2,0.5c0.3,0,0.4,0.2,0.3,0.5c-0.1,0.3-0.2,0.6,0,0.7
			c0.2,0.1,0.1,0.2,0,0.3c-0.2,0.1-0.7,0.4-0.3,0.6c0.3,0.2,0.4,0.4,0.4,0.7c0.2-0.1,0.9,0,0.8,0.8c0,0.5,0.1,0.8,0.6,1.1
			c0.5,0.2,1.2,0.2,1.5-0.1c0.1,0,0.2-0.1,0.2-0.1l0,0.3c0,0,1.1,0.2,0.6,0.9c-0.5,0.6-0.8,0.7-1,0.9c0.1,0.1,0.3,0.7,0.3,0.7l0.5,0
			l0.2,0.4l0.3-0.1l0.3,0.8l0.9,0.5c0,0,0,0.7-0.3,1c-0.3,0.3-0.2,0.6-0.2,0.8c-0.2,0.1-0.5,0.1-0.5,0.5s0,1,0,1l0.4,0.4l-0.2,0.9
			c0,0,0.6,1.1,0.5,1.4s0,0.7,0.3,0.8c0.3,0.2,0.2,0.4,0.2,0.5s0.5,0.3,0.6,0.4c0.2,0.1,0.1,0.7,0.6,0.8c-0.1,0.2-0.3,0.6-0.3,0.6
			s0.5,0.5,0.1,0.7c-0.4,0.2-0.4,0.2-0.3,0.7c0.1,0.4,0.2,1.1,0.2,1.1s-0.4,0.7,0.1,1c0.1,0,0.5,0.1,0.5,0.5c-0.1,0.4-0.3,1-0.1,1.2
			s0.5,1,0.5,1.4c0.1,0,0.2,0,0.2,0l0,0.9l0.9,0.6l0,0.4l0.3,0.3l0,0.5c0,0-1.2,0.8,0,1.4c0.1,0,0.3,0,0.5,0.5s0.2,0.6,0.1,0.8
			c0,0.2-0.3,1,0.1,1.4c-0.1,0.3-0.1,0.5-0.1,0.5s0.3,0.9,0,0.9c-0.4-0.1-0.8-0.2-0.8,0.2c0,0.4,0,1.7,0,1.7l0.2,0.2l-0.4,0.3l0,1.5
			h0l3.4,0.1l0-0.6l11.6,0.2l75.9,1.3l0.1-0.8l3.9,0L320.5,248.6z"/>
		<path class="st5" d="M254.4,185l0.1,0.3L254,186c0,0,0,0.9-0.8,1.1c-0.1,0.2-0.1,0.4-0.1,0.4l-0.2,0.6l0.1,0.3l-0.2,0.7
			c0,0-0.3,0.8-0.2,1c0.2,0.1,0.4,0.1,0.4,0.1l0.2,0.4h0.3l0,0.5l0.4,0.6l-0.2,0.2l0.1,0.5l0.7,1.2l-0.1,0.4l0.5,0.4l-0.1,0.7
			l0.5,0.2l-0.1,0.5l0.1,0.4c0,0-0.1,0.4-0.3,0.5c-0.2,0.1-0.4,0.4-0.2,1.1c-0.2,0.4-0.5,0.7-0.5,0.7l0,0.6c0,0,0.3,0.3,0.2,0.5
			c-0.1,0.2-0.3,0.6-0.8,0.6c-0.3-0.1-0.6-0.2-0.6-0.2l-0.9,0.5l0.1,0.5l0.2,0l0.2,0.8l-1.1,0.5l0.1,0.4l0,0.7l-0.4,0.3l-0.2,0.2
			l0.1,1.5l-0.3,0.4l0.5,0.3l0.1,0.6l0.7,0.4l-0.4,0.3l0.4,0.6l0.4,0.2l-0.9,0.5l-0.1,1.1l-0.4,0.4l1.2,0.5l0.1,0.5l0.5-0.3l0.3,0.4
			l-0.1,0.4c0,0-0.1,0.9,1.2,1c0,0.2,0.2,0.5,0.2,0.5l0.6-0.2l0.5,0.4l0.4,0.1l0-0.6l0.3-0.6l0.2,0.6l0.2,0.3l0,0.6l0.7,0.1
			l-0.2,0.6l0.4,0.3l-0.1,0.7l0.7,0.1l0.5-1l0.2,0.4l0.6,0l0.6,0.3l1.5,0.9l0.3,0l0.3,0.9l0.6,0l0,0.6l0.3,0.4l0,0.4l0.4,0.6
			l-0.1,0.3c0,0,0.1,0.6-0.6,1.5c0.1,0.1,0.2,0.2,0.2,0.2l-0.4,0.5l0.4,0.4c0,0-0.3,1.2,0.8,1.1c0.1,0.3,0.1,0.6,0.1,0.6l0.3-0.2
			l0.7,0.5l-0.2,0.6l0.8,0.1c0,0,1,0.1,1.1,0.6c0.1,0,0.3,0,0.3,0l0,0.3l0.3,0.2l-0.3,0.7l-0.2,0.1l0,0.7l-0.2,0.4l0.9,0.1l-0.5,0.4
			l0.2,0.4l-0.5,0.5l0.6,0.4l-0.1,0.9l-0.6,0.1l-0.3,0.6l-0.7,0.1l-0.5,0.9l-0.1,0.5l-0.7,0.5l0.5,0.4c0,0,0.7-0.2,1.1,0.6
			c0.2,0.1,0.6,0.2,0.6,0.2s0.7-1.6,1.4-1.1c0.4,0.1,1.4,0.4,1.7,0.1c0.2,0,0.6,0.1,1.2,0.7c0.2,0.5,0.7,1.2,1.1,1.4
			s0.9,1.1,0.7,1.9c0.1,0.2,0.2,0.6,0.1,0.8c0.2,0.2,0.5,0.6,1,0.7c0,0.3-0.1,0.9-0.3,1.3c0.2,0.2,0.5,0.4,0.5,0.8c0,0,0,0,0,0.1
			c0.1,0.1,0.5,0.3,0.5,0.3s0.3,0.7,1,0.6c0.2,0.3,0.7,0.6,0.7,0.6l0.5-0.3l0.3,0.1l0.1,0.4c0,0,0.2,0.6,0.8,0.1
			c0.2,0.2,0.9,1.3,0.9,1.3l0.3,0l0.4,0.8c0,0,0.7-0.1,0.8,1.3c0,0.3,0,0.5,0.4,0.4c0.4-0.1,2.1-0.9,2.4,0c0,0.1,0,0.4,0.2,0.5
			c0.1,0.1,0.3,0.2,0.4,0.5l36.9,1L254.4,185z"/>
		<path class="st5" d="M327,338l0-1.4l-1.5,0l0-1.4l0.8,0l0-4.5l-11.6-0.2l0,0.6l-3.4-0.1h0l-2.3-0.2l-16-0.6l-2,0.2l-41-1.6l-26-1
			h0l-0.5,8.4l4.3,0.3l-0.2,4.3l0.7,0l0,0.7l0.7,0v0.7l0.8,0l0,0.8l0.7,0l-0.2,0.7l0.8,0.2l-0.2,1.4l4.7,0.2l0,4.3l2.6,0l0,4.5
			l5.8,0.3l-0.2,4.2l4.5,0.1l-0.4,4.5l2.9-0.2l-0.2,0.8l0.8,0l-0.3,8.7c0.3,0,0.6,0.1,1,0.2c0,0,0.1,0,0.2,0c0.6,0,2.4,0,2.4,0
			l0,1.1l4.4,0.2l-0.2,1.1l1.4,0v2.2l10.8,0.5l0,1l3.7,0c-0.2-0.6-0.4-1.1-0.5-1.2l49.7,1.1l1.5,0l0.7-29.6l-0.2-1.5h0.2l0-5.5
			l-0.2,0l0.3-4.4L327,338z"/>
		<path class="st5" d="M298.8,276.4c-0.5-0.3-0.1-1-0.5-1.2c-0.3-0.3-0.6-1.1-0.6-1.4c0-0.3-0.3-0.5-0.5-0.8
			c0.2-1.1-0.7-1.6-0.7-1.6l0.3-0.4c0,0-0.2-0.4-0.4-0.7c0.4-0.4,0-1.2-0.2-1.3c-0.2-0.1-0.4-0.3-0.2-0.6c0.4-0.6-0.4-1-0.4-1
			l-0.7,0.2c0,0-0.1-0.4,0-0.4s-0.5-0.1-0.7-0.2c0-0.5-0.3-1-0.7-1c-0.4,0-1-0.6-1.2-1S291,265,291,265l-0.2-0.4l-0.5,0l-0.4-0.8
			c0,0-0.5-0.1-0.7-0.3c-0.9,0.8-2-0.2-2.2-0.5c0-0.2,0-0.6-0.1-0.8c0-0.2,0.3-1,0.3-1l-0.7-0.7l0.4-0.5l-0.5-0.6l0.1-0.3l0-0.5
			l0.4-0.2c0,0,0.2-0.5,0.4-0.8c-0.4-0.4-0.8-1.5-0.8-1.5l-1-1.8l-1,0.5c0,0-0.9-0.5-1.4-0.8c-0.7-0.6-0.3-1.2-0.3-1.2l0.6-0.3
			l-0.8-1.3c0,0,0.2-0.6,0.3-0.9c-0.4-0.5,0.6-1.1,0.9-1.3c0-0.5-0.1-0.9-0.3-1.2c-0.1-0.3-0.3-0.4-0.4-0.5
			c-0.3-0.1-0.2-0.4-0.2-0.5c-0.3-0.9-2-0.1-2.4,0c-0.4,0.1-0.4-0.1-0.4-0.4c-0.1-1.4-0.8-1.3-0.8-1.3l-0.4-0.8l-0.3,0
			c0,0-0.7-1-0.9-1.3c-0.6,0.4-0.8-0.1-0.8-0.1l-0.1-0.4l-0.3-0.1l-0.5,0.3c0,0-0.5-0.3-0.7-0.6c-0.7,0.1-1-0.6-1-0.6
			s-0.4-0.2-0.5-0.3c0,0,0,0,0-0.1L262,252.3c0,0-0.1,0.3,0.1,0.6c0.2,0.3-0.3,0.2-0.4,0.2s-0.1,0.3,0.2,0.4s0.1,0.2-0.2,0.3
			s-0.6,0.5-0.3,1.2c0.1,0.3,0.1,0.7-0.1,1.1c0.1,0.2,0.4,0.7,0.3,1.4c-0.1,0.1-0.5,0.8-0.5,1c-0.1,0.1-0.2,0.3,0,0.5
			c0.2,0.2,0.2,0.4,0,0.6c-0.2,0.2-0.4,0.6-0.3,0.8c-0.2,0-0.5,0-0.5,0l-0.4,0.2l0,0.7l-0.5,0.1l-0.5,0.8l-0.5,0l-0.3-0.6
			c0,0-0.8-0.2-1.1,0.1c0,0.3,0,0.7,0,0.7l-1,0l-0.3,0.9l0.1,0.4l-0.2,0.4l-0.6,0.1l-0.3-0.8l0.1-0.7l-0.7-0.8l-0.4,0.2l-0.3,1
			l-0.5-0.5l-0.5-0.6l-0.5,0.2l0.1,0.8l-0.4,0.6l0.7,0.2l0.3-0.2l0.3,0.8l-0.2,0.3l-0.7,0.2l-0.2,0.7l-0.2,0.7l-0.8-0.2l-0.4-0.5
			l-0.4,0c0,0-0.3,0.8-0.3,1.1c0.2,0.1,0.2,0.3,0,0.5c-0.2,0.2-0.5,0.6-0.5,0.6s-0.3-1.3-1.3-0.7c0,0.5-0.1,1.3-0.1,1.3l-0.5,0.1
			c0,0-0.8-0.4-1.2,0.1c-0.3,0.4-0.6,0.7-1,0.9s-1,1.1-0.4,1.9c-0.4,0.2-0.8,0.3-0.8,0.3s0.2,1.2-0.6,1.1c-0.2,0-0.5,0.8-0.9,1.1
			c0.1,0.3,0.1,0.7,0.1,0.7l-0.8,0.8l-0.4,0.7l-0.7-0.3l-0.2-0.5l-0.4,0l-0.1,0.6l-0.7,0l-0.6-0.4l-1.1,0.5l-0.5-0.2l-0.4,0l0,0.5
			l-1.4,0l-0.5-0.3l-0.3,0.6c0,0-1.1-0.4-1.5,0.7c-0.4-0.1-0.6-0.2-0.6-0.3c-0.1-0.1-0.4-0.4-0.9-0.1c-0.1-0.3-0.5-0.6-1.2,0.2
			c-0.6,0-1.5-0.1-2.4,0.7c-0.2-0.1-0.5-0.4-1,0.2c-0.1,0.4-0.1,0.7-0.3,0.8c-0.3-0.1-0.5-0.2-0.5-0.2v-0.5l-0.7,0l-1.5,0.9
			l-1.6-0.2c0,0-1.1-1.1-2.8-0.7c-0.1-0.1-0.3-0.3-0.3-0.3l0.4-0.8l-0.4-0.3l-0.3-0.7l-0.7,0.1l-0.3-0.7l-0.7-0.3l-0.2-0.7
			c0,0-0.6,0-0.7-0.3c-0.1-0.3-0.6-1.5-0.6-1.5l0.6-1l-0.5-0.3l0.2-0.4l-1.4-2.8c0,0,0.1-1.8-1.3-1.7c-0.1-0.2-0.4-0.8-0.4-0.8
			s0.1-0.1-0.1-0.5l-15.5,13.8l11.9,13l-0.4,7.9c0,0-0.5,0.6-0.9,0.5s-0.6-0.1-0.8,0c-0.1,0.2-0.4,0.1-0.6,0
			c-0.2-0.1-0.7,0.6-0.9,0.9c-0.1,0.2,0.4,0.9,0,1.5l0.3,0.4c0,0-0.6,0.5-0.1,0.8c0.5,0.4,0.9,0.6,0.9,0.6l0.8,1.4l-0.7,1.1
			l-0.3,0.4l-0.6,0l-0.1,1.6c0,0,0.9,0.7,0.5,1.7c0.2,0.2,1.1,0.8,1.8,0.1c0.3,0,0.6,0.5,0.5,1c-0.2,0.5-0.1,1.2,1.9,1.9
			c0.2,0.4,0.2,0.6,0.6,0.7c-0.1,0.5,0.4,0.9,0.9,0.6c0.3,0.3,0.6,0.5,1,0.6c0.1,0.5,0.3,0.8,1,1.1c0.2,0.3,0.6,0.8,0.7,1.2
			c0.2-0.3,0.4-0.5,0.4-0.5l0.5,0l0.6,0.4l1.5,0.2c0,0-0.4,0.8,0.3,1c0.4,0.1,0.6,0.6,0.6,1.1c0,0.4,0.1,0.8,0.8,0.8h0l14.9-12.7
			l0.3-10.9l8.4,0.2c0,0-0.4-0.9,0.4-0.7s1,0.1,1.4-0.3c0.4,0,0.7,0,0.7,0s0.6-0.5,0.6,0c0,0.5,0,0.5,0.4,0.2c0.4-0.3,3.1-2.6,3.6-3
			c0.1,0,0.1-0.1,0.1-0.1l4.2-4l6.5,0.3l0.2-4.3l12.6,0.7l0.2-4.2l16.9,0.8l0-0.5l7.2,0.3c0.1-0.9-0.3-1.7-0.3-1.7l0.3-0.8l-0.8-1.5
			c0,0,0.2-0.2,0.3-0.4c1.1,0.3,1-1.1,1-1.6C298.2,277,298.6,276.6,298.8,276.4z"/>
		<path class="st5" d="M251.6,298.8l0.2-4.3l-1.7,0c-0.5,0.4-3.2,2.7-3.6,3c-0.4,0.3-0.4,0.2-0.4-0.2c0-0.5-0.6,0-0.6,0
			s-0.3,0-0.7,0c-0.4,0.4-0.6,0.4-1.4,0.3c-0.8-0.1-0.4,0.7-0.4,0.7l-8.4-0.2l-0.3,10.9l-14.9,12.7c0.7,0,1.6,0.2,1.6,0.2l1.2,1.4
			c0,0-0.3,0.3-0.1,0.5c-0.3,0.2-1,1-0.5,1.4c0.1,0.4,0.2,0.6,0.6,0.7c0.3,0.1,1,0.3,0.9,1.9l0.9,0.2h0l26,1l1-17.2l0.2,0l0.3-6.4
			l2.2,0.2l0.3-6.7L251.6,298.8z"/>
		<path class="st5" d="M197.5,279.4l-0.5-0.5l-7.9-4.7l-0.1-0.6l-0.3-0.5l-0.1-0.5c0,0-0.3,0-0.5-0.2c0-0.3,0-0.7-0.3-1
			c-0.3-0.3-0.2-0.7-0.4-1.1c-0.2-0.4-0.8,0-0.8,0s-0.6-0.3-0.9-0.6c-0.2-0.5,0.1-1.1,0.1-1.1l0.4-0.2l0.4-0.5c0,0-0.2-0.1-0.4-0.3
			l-7.6-0.4l-0.8-0.9l-0.4-0.2l-0.2-0.4l-0.6,0.1l-0.1,0.5l-0.9-0.4l-1,1.1c0,0,0.4,0.3-0.1,0.7c-0.5,0.4-1,0.8-1,0.8v0.3l-0.7,0.3
			l-0.1,0.8l-0.7,0.1l-0.3-0.3l-0.2-0.2l-0.7,0.1l-0.5-0.5l-0.4-0.2c0,0-0.1,0.6-0.6,1.1c0,0.3,0,0.5,0.1,0.7
			c0.2,0.3,0.7,1.4,0.7,1.4l0.9,0.5l3.4,4.3c0,0,1.2-0.8,1.1,0.2c0,0.3,0.2,0.4,0.3,0.5c0.2,0.1,0.6,1,0.4,1.1
			c-0.2,0.2-1.2,0.2-1.1,0.6c0.1,0.3,0.4,1,0.4,1.4c0.2-0.1,0.4-0.1,0.4-0.1l0.6,0.5c0,0,0.9-0.6,1.4,0.9c0.3,0,0.6,0,0.6,0l0.5,0.4
			l0.6-0.2c0,0,0.8,0.2,0.8,1c0,0.5,0.3,0.7,0.6,1s0.5,0.4,0.2,0.7c0,0.4-0.1,1.3-0.1,1.3l-0.5,0l0.2,0.4l0,0.6c0,0,1.2,0.5,1.2,1.5
			c0,0.2-0.6,0.8-0.6,1.1s0,0.4,0.3,0.2c0.2-0.1,0.7-0.3,0.9,0c0.1,0.1,0.6,0.1,1-0.1c0.4-0.2,0.8-0.1,0.9,0.3
			c0.1,0.5,0,1.3,0.6,1.6c0.3,0.1,0.8,0.7,0.8,0.7l-0.1,0.4l5.9,6.4l-0.2,2.5c0,0,0.5,0.1,0.5,0.8c0.2-0.2,0.5-0.4,1-0.4
			c0.4,0,0.7-0.1,0.6-0.5c0-0.4,0-0.8,0.3-0.6c0.3,0.1,0.6,0.5,0.7,0.6s0.6,0.3,0.9-0.1s0.8-0.8,0.8-1.2c0.3,0,0.9,0.3,1.2,1.1
			c0.4-0.2,0.7-0.3,0.7-0.3s1.1,0.5,1.2,1.1c0.1,0.6,0.4,0.9,0.9,0.9c0.1,0,0.3,0.1,0.3,0.5s0.4,0.5,0.7,0.6s0.4,0.3,0.4,0.5
			c0.3,0.2,0.4,0.5,0.5,0.7c0.1,0.2,0.3,0.8,0.7,0.7s0.9-0.3,1.2,0.2c0.3-0.1,0.6-0.3,0.6-0.6c0-0.3,0.1-2.4-0.9-3.4
			c0-0.5-0.2-1.3-0.9-1.7c0.2-0.1,0.4-0.2,0.4-0.2l0.9,0.6l0.4,0.9l0.4-0.2l0.8,1.1c0.4-0.5-0.2-1.2,0-1.5c0.2-0.3,0.7-1,0.9-0.9
			c0.2,0.1,0.5,0.2,0.6,0c0.1-0.2,0.3-0.1,0.8,0s0.9-0.5,0.9-0.5l0.4-7.9L197.5,279.4z"/>
		<path class="st5" d="M232.4,258.5l-0.3-0.1l-0.7-1.1l-0.8-0.1l-1.4-0.7l-1.3-1.3c0,0-0.2-0.6-0.3-0.9c0.6-0.8-0.5-1.7-0.5-1.7
			l-1.6-3.4l-0.4-0.2l-0.6-1.6l-0.4-0.3l0-0.3l0.4-0.6l0-0.7l-0.9-1.4l0.2-0.2l-0.6-0.6l-0.1-1l-2.5-5.6l0,0l-20,8.4l-3.9,1.9
			l-0.5,0.6l0.5-0.1l0,0.6l0.2,1.2l0.5,0.2l-10.9,10c0.1,0.2,0.2,0.3,0.3,0.5c-0.2,0.4-0.6,1.3-0.6,1.3l-0.7,0.3l1.5,1.1
			c0,0,0.2,0.6-0.7,0.7c0.1,0.3,0.1,0.9,0.1,0.9l-0.7,0.3h-0.4l0.6,1.5c0,0-1.3,0.4-0.1,1.5c0,0,0.2,0.2,0.4,0.4
			c0.2,0.1,0.4,0.3,0.4,0.3l-0.4,0.5l-0.4,0.2c0,0-0.3,0.6-0.1,1.1c0.3,0.3,0.9,0.6,0.9,0.6s0.7-0.4,0.8,0c0.1,0.4,0.1,0.8,0.4,1.1
			c0.3,0.3,0.3,0.7,0.3,1c0.2,0.1,0.5,0.2,0.5,0.2l0.1,0.5l0.3,0.5l0.1,0.6l7.9,4.7l0.5,0.5l15.5-13.8l3-2.6l2.3-0.7l1.2-0.6
			l0.9,0.3l1.4-0.4c0,0,0.2-0.1,0.3-0.5c0.6-0.1,0.9-0.4,1.2-0.7c0.1,0,0.7,0,2.3-0.2c1.6-0.3,1.9,0.1,1.9,0.1s0.3-0.1,0.5-0.4
			c0.9,0.6,1.6,0,1.6,0s0.4,0.1,0.7,0.2c0.2-0.2,0.8-0.4,1.4-0.4s0.9-0.2,0.9-0.2l0.1-0.1L232.4,258.5z"/>
		<path class="st5" d="M262,252.2l12-11.2c-0.1-0.4-0.4-0.6-0.5-0.8c0.1-0.3,0.3-1,0.3-1.3c-0.4-0.1-0.8-0.5-1-0.7
			c0-0.2,0-0.6-0.1-0.8c0.2-0.8-0.3-1.7-0.7-1.9c-0.4-0.1-0.9-0.9-1.1-1.4c-0.6-0.6-1-0.7-1.2-0.7c-0.3,0.3-1.2-0.1-1.7-0.1
			c-0.7-0.5-1.4,1.1-1.4,1.1s-0.4,0-0.6-0.2c-0.3-0.8-1.1-0.6-1.1-0.6l-0.5-0.4l-0.6-0.5l-0.2-1.1c0,0-0.4-0.4-0.5-0.5L252,241.7
			l-0.2,3.1l-1.2-0.2l0,1.8l-1.5-0.1v2.2l-4.4-0.1l-11.9,11l-0.1,0.1c0,0-0.4,0.2-0.9,0.2s-1.2,0.2-1.4,0.4
			c-0.4-0.1-0.7-0.2-0.7-0.2s-0.8,0.6-1.6,0c-0.2,0.3-0.5,0.4-0.5,0.4s-0.3-0.4-1.9-0.1c-1.6,0.3-2.1,0.3-2.3,0.2
			c-0.3,0.3-0.6,0.6-1.2,0.7c-0.1,0.3-0.3,0.5-0.3,0.5l-1.4,0.4l-0.9-0.3l-1.2,0.6l-2.3,0.7l-3,2.6c0.2,0.4,0.1,0.5,0.1,0.5
			s0.3,0.6,0.4,0.8c1.4-0.1,1.3,1.7,1.3,1.7l1.4,2.8l-0.2,0.4l0.5,0.3l-0.6,1c0,0,0.5,1.2,0.6,1.5s0.7,0.3,0.7,0.3l0.2,0.7l0.7,0.3
			l0.3,0.7l0.7-0.1l0.3,0.7l0.4,0.3l-0.4,0.8c0,0,0.2,0.2,0.3,0.3c1.7-0.4,2.8,0.7,2.8,0.7l1.6,0.2l1.5-0.9l0.7,0v0.5
			c0,0,0.2,0.1,0.5,0.2c0.2-0.1,0.2-0.4,0.3-0.8c0.5-0.7,0.8-0.4,1-0.2c0.9-0.8,1.8-0.8,2.4-0.7c0.7-0.8,1.1-0.5,1.2-0.2
			c0.5-0.3,0.8,0,0.9,0.1c0.1,0.1,0.3,0.2,0.6,0.3c0.4-1.1,1.5-0.7,1.5-0.7l0.3-0.6l0.5,0.3l1.4,0l0-0.5l0.4,0l0.5,0.2l1.1-0.5
			l0.6,0.4l0.7,0l0.1-0.6l0.4,0l0.2,0.5l0.7,0.3l0.4-0.7l0.8-0.8c0,0,0-0.4-0.1-0.7c0.4-0.2,0.7-1.1,0.9-1.1
			c0.8,0.1,0.6-1.1,0.6-1.1s0.4-0.2,0.8-0.3c-0.6-0.7,0-1.6,0.4-1.9s0.7-0.5,1-0.9c0.4-0.6,1.2-0.1,1.2-0.1l0.5-0.1
			c0,0,0.1-0.8,0.1-1.3c0.9-0.6,1.3,0.7,1.3,0.7s0.3-0.4,0.5-0.6c0.2-0.2,0.2-0.4,0-0.5c0-0.3,0.3-1.1,0.3-1.1l0.4,0l0.4,0.5
			l0.8,0.2l0.2-0.7l0.2-0.7l0.7-0.2l0.2-0.3l-0.3-0.8l-0.3,0.2l-0.7-0.2l0.4-0.6l-0.1-0.8l0.5-0.2l0.5,0.6l0.5,0.5l0.3-1l0.4-0.2
			l0.7,0.8l-0.1,0.7l0.3,0.8l0.6-0.1l0.2-0.4l-0.1-0.4l0.3-0.9l1,0c0,0,0-0.4,0-0.7c0.2-0.4,1.1-0.1,1.1-0.1l0.3,0.6l0.5,0l0.5-0.8
			l0.5-0.1l0-0.7l0.4-0.2c0,0,0.2,0,0.5,0c0-0.2,0.1-0.6,0.3-0.8c0.2-0.2,0.2-0.4,0-0.6s-0.1-0.3,0-0.5c0-0.3,0.4-0.9,0.5-1
			c0.1-0.6-0.2-1.1-0.3-1.4c0.2-0.3,0.2-0.8,0.1-1.1c-0.2-0.7,0-1.1,0.3-1.2s0.5-0.2,0.2-0.3c-0.2-0.1-0.3-0.4-0.2-0.4
			c0.1,0,0.6,0,0.4-0.2C261.9,252.6,262,252.2,262,252.2z"/>
		<path class="st5" d="M255.3,195.9l0.1-0.5l-0.5-0.2l0.1-0.7l-0.5-0.4l0.1-0.4l-0.7-1.2l-0.1-0.5l0.2-0.2l-0.4-0.6l0-0.5h-0.3
			l-0.2-0.4c0,0-0.2-0.1-0.4-0.1c-0.1-0.1,0.2-1,0.2-1l0.2-0.7l-0.1-0.3l0.2-0.6c0,0,0-0.2,0.1-0.4c0.9-0.2,0.8-1.1,0.8-1.1l0.5-0.7
			l-0.1-0.3l-12-11.6v0.4c0,0,0.8,0.2,0.8,1.2c0,0.4,0.1,1.2,0.1,1.2l0.2,0.4l-0.7,0.4l-0.6,0l-0.1,1.2l-0.5,0.1
			c0,0-0.4,0.9-0.9,1.3c0.2,0.2,0.1,0.8-0.2,1c-0.4,0.2-0.9,0.4-0.9,0.4l-4.2,3.3l-0.3,9.6v0l-0.2,3.1l0.7-0.3l1.2,1l5,4.1l0.7-0.5
			l0.5-0.2l0.7-0.6l0.9-0.1c0,0,0.5-1.2,1.6-0.9c0.5-0.3,1-0.7,1-0.7l1.6,0.3l0.4,0.3l0.1,1.4l-0.2,0.8l1.2,0.9l1,1.1l0.4-0.3l0-0.7
			l-0.1-0.4l1.1-0.5l-0.2-0.8l-0.2,0l-0.1-0.5l0.9-0.5c0,0,0.3,0.1,0.6,0.2c0.5-0.1,0.8-0.4,0.8-0.6c0.1-0.2-0.2-0.5-0.2-0.5l0-0.6
			c0,0,0.4-0.4,0.5-0.7c-0.2-0.6,0-1,0.2-1.1c0.2-0.1,0.3-0.5,0.3-0.5L255.3,195.9z"/>
		<path class="st5" d="M267.3,228.8l-0.2-0.4l0.5-0.4l-0.9-0.1l0.2-0.4l0-0.7l0.2-0.1l0.3-0.7l-0.3-0.2l0-0.3c0,0-0.2,0-0.3,0
			c-0.1-0.6-1.1-0.6-1.1-0.6l-0.8-0.1l0.2-0.6l-0.7-0.5l-0.3,0.2c0,0,0-0.3-0.1-0.6c-1,0.1-0.8-1.1-0.8-1.1l-0.4-0.4l0.4-0.5
			c0,0-0.1-0.1-0.2-0.2c0.7-0.9,0.6-1.5,0.6-1.5l0.1-0.3l-0.4-0.6l0-0.4l-0.3-0.4l0-0.6l-0.6,0l-0.3-0.9l-0.3,0l-1.5-0.9l-0.6-0.3
			l-0.6,0l-0.2-0.4l-0.5,1l-0.7-0.1l0.1-0.7l-0.4-0.3l0.2-0.6l-0.7-0.1l0-0.6l-0.2-0.3l-0.2-0.6l-0.3,0.6l0,0.6l-0.4-0.1l-0.5-0.4
			l-0.6,0.2c0,0-0.2-0.3-0.2-0.5c-1.3-0.1-1.2-1-1.2-1l0.1-0.4l-0.3-0.4l-0.5,0.3l-0.1-0.5l-1.2-0.5l0.4-0.4l0.1-1.1l0.9-0.5
			l-0.4-0.2l-0.4-0.6l0.4-0.3l-0.7-0.4l-0.1-0.6l-0.5-0.3l0.3-0.4l-0.1-1.5l0.2-0.2l-1-1.1l-1.2-0.9l0.2-0.8l-0.1-1.4l-0.4-0.3
			l-1.6-0.3c0,0-0.5,0.4-1,0.7c-1.1-0.3-1.6,0.9-1.6,0.9l-0.9,0.1l-0.7,0.6l-0.5,0.2l-0.7,0.5l-5-4.1c-0.2,0.2-0.4,0.4-0.4,0.4
			l-0.4-0.1l-0.3,0.4c0,0-1.2,0-1.6,0.8c-0.6,0-1.2-0.1-1.2-0.1s-2.3,0.8-2.7,2c-0.2,0.6-0.9,1.4-0.9,1.4s-1,0.7-1.2,1.2
			c-0.2,0.5-0.6,0.7-0.8,0.7c-0.1,0.2-0.2,0.6-0.2,0.6l-0.6,0.5l0,0.4l-0.8,0.5l0,0.6l-0.8,0.6c0,0-0.1,1.3-1.2,1.9
			c0,0.3,0,0.6,0,0.6l-0.4,0c0,0-0.4,0.6-0.6,0.8s-0.9,1.4-1,2c-0.4,0.3-0.9,0.5-0.9,0.5s0.3,1.2-0.8,1.3c0,0.3-0.1,0.9-0.1,0.9
			l-0.4,0l-0.5,0.9l-0.4,1.2c0,0-1.3-0.2-1.4,0.5c0,0.3-0.2,0.7-0.4,0.6s-0.9-0.2-1,0.2c0.1,0.1,0.1,0.3,0.1,0.3l-0.2,0.1l0.7,0.9
			l0,0.4l-0.9,0.5l-0.2,0.3l0.2,0.4l-0.2,0.4l-0.9,0.4l0,0.5l-0.4,0.3l-0.5-0.2l-0.3,0.4l0,0.4c0,0-0.2,0.3-0.5,0.3
			c-0.3,0.1-1,0.6-1.1,0.8s-0.2,0.6-0.2,0.6l-0.5,0.6l0.1,0.1l9.6,10.2l0.1-0.1l0.5-0.8l-0.7-0.9l0-0.4l0.2-0.4l0.3,0.3l0.6,0
			l0.5,0.4l0.4,0.5l0.4,0.1l0,0.6c0,0,1.2-0.2,0.9-0.9c-0.4-0.8-0.7-1.4-0.7-1.4l0-0.6l-0.5-0.9h0.9l0.3-0.4l1.1,0.3l0.9-0.4
			c0,0,0.2-0.7,0.7-0.5c0.1-0.1,0.1-0.5,0.1-0.9c0.3,0.1,0.7,0.4,0.7,0.4l0.4-0.2l0.6,0.2l0.6-0.5l-0.2-0.4l0.5-0.9l0.4,0.7l0.3-0.2
			l0.6,0.4l0.9-0.1l-0.2-0.3l0.9-0.6l0.4-0.7c0,0,0.3-0.6,0.7-0.3c0.4,0.3,1.4,1.1,1.4,1.1l0.3-0.3l2,1.5l0.4,0l0.4,0.6l0.6,0.5
			l0.4-0.2l1.1,0.6l0.2-0.4l0.3,0.2l0.7-0.4l1.5,0l0.2,0.4l0.7,0.4l0.6-0.4l0.6,0.1l0.9-0.5l0.3-0.5l0.9-0.2l0.6-0.4l0.4,0.3
			l0.5-0.6l0.9,0.1l0.5-0.9l-0.1-0.7c0,0,0.4-1.2,1.3-0.6c0.1-0.2,0.4-0.5,0.6-0.4c0.6-0.3,0.9-0.6,1-1c0-0.4,0.3-1.4,2.1-1.3
			c0.1,0.2,0.2,0.9,0.8,1c0.2,0.5,0.4,0.8,0.4,0.8l0.5,0.4l0.4-0.2l0.4,0.7l0.4-0.9l1.5,0.2l0.3,0.5l0.4,0l0.2,1.1l1.1-0.3l0,0.5
			l0.9,0.2l-0.1,0.7c0,0,2,1.1,1.8,1.9l0,0c0.1,0.1,0.5,0.5,0.5,0.5l0.2,1.1l0.6,0.5l0.7-0.5l0.1-0.5l0.5-0.9l0.7-0.1l0.3-0.6
			l0.6-0.1l0.1-0.9l-0.6-0.4L267.3,228.8z"/>
		<path class="st5" d="M235.1,184.6l-0.8-0.4l-0.3,0l-0.6,0.9l0.4,0.4l-0.8,0.9c0,0,0.1,1.1-0.6,1.1c-0.2,0.1-0.4,0.1-0.4,0.1
			s-0.9-0.1-1.6,0.3c-0.1-0.1-0.2-0.2-0.2-0.2l-0.4,0l0,0.4l-0.3,1.3l-0.4,0.5h-0.8l-0.4,0.4l-0.2,0.8l-1.2,0.1l-0.2,0.4l-0.7,0.3
			l-0.7-0.2l-0.4,0.2l-0.3-0.4l-0.9,0.2l-1.3,0.6l-0.6-0.1l-0.8,0.2l-0.6,0.1l-0.9,0l-0.9,0.5l-1.1,0l-0.5-0.2l-1.1,0.4l-1.8,0.1
			l-1.2-0.8l-0.7,0l-0.9-1l-0.3,0.1l-0.5-0.7l-1.1-0.1l-0.3-0.3l-0.8-0.1l-0.1,0.3l-0.3-0.4c0,0-2.2-0.6-2.9,0.9c-0.2,0-0.5,0-0.5,0
			l-0.2,0.6h-0.2l-0.6-0.6l-0.3,0.6l-0.4,0l-0.5,0l-0.2-0.6l-0.6,0.4l-0.5-0.1l-0.7,0.2l-0.4,0.1l-0.4-0.4l-0.1,0.4l-0.7,0.2
			l-0.5,10.3v0l0.9,3.6l0.9,0.4l0.3,0l0.4-0.4l0.7,0.3l0.9-0.5l0.3,0.4l0.5,0.3l0-0.4c0,0,0.2-0.1,0.4-0.2c0.4-1,1.1-0.7,1.1-0.7
			s0.2-0.5,0.4-0.9c0.9,0,1.1-0.9,1.1-0.9l1.9-0.2l0.6,0.3l0.1-0.6l1.5-0.7l1.1-0.1c0,0,0.4-0.3,0.6-0.6c1.3,0.4,1.8-1.2,1.8-1.2
			l0.4-0.1v-1l0.3-1l1.5-0.2l1.1-0.6l0.8,0l1.2-1.2l1.1-0.2l0.4,0.2l1.6-1.3l1.1,0.4l0.3,0.4l0.7-0.4l0.4,0.2l0.6-0.2l0.3,0.3
			l0.4-0.5l0.7,0c0,0,0.1-0.1,0.4-0.2c0.4,0.7,1.2-0.3,1.2-0.3l0.7,0.1l0.2-0.2l0.6,0.1l0.6-0.6c0,0,1.1,0.3,1.8,0.4
			c0.6,0.1,1-0.2,1-0.2l1,0.3l0.3-0.4l0.5-0.2l0.9,0l0.3-9.6L235.1,184.6z"/>
		<path class="st5" d="M235.6,196.8l-0.7,0.3l0.2-3.1v0l-0.9,0l-0.5,0.2l-0.3,0.4l-1-0.3c0,0-0.4,0.3-1,0.2
			c-0.6-0.1-1.8-0.4-1.8-0.4l-0.6,0.6l-0.6-0.1l-0.2,0.2l-0.7-0.1c0,0-0.8,1-1.2,0.3c-0.2,0.1-0.4,0.2-0.4,0.2l-0.7,0l-0.4,0.5
			l-0.3-0.3l-0.6,0.2l-0.4-0.2l-0.7,0.4l-0.3-0.4l-1.1-0.4l-1.6,1.3l-0.4-0.2l-1.1,0.2l-1.2,1.2l-0.8,0l-1.1,0.6l-1.5,0.2l-0.3,1v1
			l-0.4,0.1c0,0-0.5,1.5-1.8,1.2c-0.2,0.2-0.6,0.6-0.6,0.6l-1.1,0.1l-1.5,0.7l-0.1,0.6l-0.6-0.3l-1.9,0.2c0,0-0.1,1-1.1,0.9
			c-0.2,0.4-0.4,0.9-0.4,0.9s-0.7-0.4-1.1,0.7c-0.2,0.1-0.4,0.2-0.4,0.2l0,0.4l-0.5-0.3l-0.3-0.4l-0.9,0.5l-0.7-0.3l-0.4,0.4l-0.3,0
			l-0.9-0.4l1.8,6.9l0.6,0.5l0,0l5.9,7.4l1.3,2l2.8,3.1l0.5-0.6c0,0,0.1-0.3,0.2-0.6s0.8-0.7,1.1-0.8s0.5-0.3,0.5-0.3l0-0.4l0.3-0.4
			l0.5,0.2l0.4-0.3l0-0.5l0.9-0.4l0.2-0.4l-0.2-0.4l0.2-0.3l0.9-0.5l0-0.4l-0.7-0.9l0.2-0.1c0,0-0.1-0.2-0.1-0.3
			c0.1-0.4,0.8-0.3,1-0.2c0.2,0.1,0.4-0.3,0.4-0.6c0.1-0.6,1.4-0.5,1.4-0.5l0.4-1.2l0.5-0.9l0.4,0c0,0,0.1-0.6,0.1-0.9
			c1.1-0.1,0.8-1.3,0.8-1.3s0.5-0.2,0.9-0.5c0.1-0.5,0.8-1.8,1-2c0.2-0.1,0.6-0.8,0.6-0.8l0.4,0c0,0,0-0.3,0-0.6
			c1.1-0.7,1.2-1.9,1.2-1.9l0.8-0.6l0-0.6l0.8-0.5l0-0.4l0.6-0.5c0,0,0.1-0.3,0.2-0.6c0.2,0,0.6-0.3,0.8-0.7
			c0.2-0.5,1.2-1.2,1.2-1.2s0.7-0.9,0.9-1.4c0.4-1.2,2.7-2,2.7-2s0.5,0.1,1.2,0.1c0.4-0.8,1.6-0.8,1.6-0.8l0.3-0.4l0.4,0.1
			c0,0,0.2-0.3,0.4-0.4L235.6,196.8z"/>
		<path class="st5" d="M261.4,229.5l0.1-0.7l-0.9-0.2l0-0.5l-1.1,0.3l-0.2-1.1l-0.4,0l-0.3-0.5l-1.5-0.2l-0.4,0.9l-0.4-0.7l-0.4,0.2
			l-0.5-0.4c0,0-0.1-0.3-0.4-0.8c-0.6-0.1-0.7-0.7-0.8-1c-1.8-0.1-2,0.9-2.1,1.3c0,0.4-0.4,0.7-1,1c-0.2-0.1-0.4,0.2-0.6,0.4
			c-0.9-0.6-1.3,0.6-1.3,0.6l0.1,0.7l-0.5,0.9l-0.9-0.1l-0.5,0.6l-0.4-0.3l-0.6,0.4l-0.9,0.2l-0.3,0.5l-0.9,0.5l-0.6-0.1l-0.6,0.4
			l-0.7-0.4l-0.2-0.4l-1.5,0l-0.7,0.4l-0.3-0.2l-0.2,0.4l-1.1-0.6l-0.4,0.2l-0.6-0.5l-0.4-0.6l-0.4,0l-2-1.5l-0.3,0.3
			c0,0-1-0.7-1.4-1.1c-0.4-0.3-0.7,0.3-0.7,0.3l-0.4,0.7l-0.9,0.6l0.2,0.3l-0.9,0.1l-0.6-0.4l-0.3,0.2l-0.4-0.7l-0.5,0.9l0.2,0.4
			l-0.6,0.5l-0.6-0.2l-0.4,0.2c0,0-0.4-0.2-0.7-0.4c0,0.3,0,0.8-0.1,0.9c-0.6-0.2-0.7,0.5-0.7,0.5l-0.9,0.4l-1.1-0.3l-0.3,0.4h-0.9
			l0.5,0.9l0,0.6c0,0,0.4,0.7,0.7,1.4s-0.9,0.9-0.9,0.9l0-0.6l-0.4-0.1l-0.4-0.5l-0.5-0.4l-0.6,0l-0.3-0.3l-0.2,0.4l0,0.4l0.7,0.9
			l-0.5,0.8l-0.1,0.1l0,0l2.5,5.6l0.1,1l0.6,0.6l-0.2,0.2l0.9,1.4l0,0.7l-0.4,0.6l0,0.3l0.4,0.3l0.6,1.6l0.4,0.2l1.6,3.4
			c0,0,1.1,0.9,0.5,1.7c0.1,0.4,0.3,0.9,0.3,0.9l1.3,1.3l1.4,0.7l0.8,0.1l0.7,1.1l0.3,0.1l0.4,0.8l11.9-11l4.4,0.1v-2.2l1.5,0.1
			l0-1.8l1.2,0.2l0.2-3.1l11.2-10.3l0,0C263.4,230.6,261.4,229.5,261.4,229.5z"/>
		<path class="st6" d="M143.8,227.9l0.4-0.3l0-0.4L144,227l-0.4,0.2V227l-0.5-0.6c0,0,0.1-0.1,0.2-0.3s0.2-0.4,0.1-0.7
			s-0.2-0.8-0.1-1.1c-0.2-0.3-0.9-1.3-0.9-1.3l-0.5,0.2l-0.4-0.2c0,0-1.3,0.5-1.4,0c-0.1,0-0.2,0-0.2,0l-0.3,0.7
			c0,0-0.5,0.1-0.6,0.4c-0.2-0.1-0.4-0.2-0.4-0.2l-0.4,0.1c0,0,0.2,0.9,0.2,1.3c-0.1,0.4-0.3,1.6-0.2,2.1c0,0.1,0.1,0.3,0.1,0.5
			l4.3,0.2c0-0.1,0.1-0.4,0.2-0.2c0.1,0.1,0.6,0.8,0.8,1c0-0.2,0-0.4,0-0.4l-0.5-0.6l0.1-0.5l0.2,0l0,0.3L143.8,227.9z"/>
		<path class="st5" d="M312.3,326.3c0,0,0-0.2,0.1-0.5c-0.4-0.5-0.1-1.2-0.1-1.4c0.1-0.2,0-0.3-0.1-0.8c-0.1-0.4-0.3-0.4-0.5-0.5
			c-1.2-0.6,0-1.4,0-1.4l0-0.5l-0.3-0.3l0-0.4l-0.9-0.6l0-0.9c0,0-0.1,0-0.2,0c0-0.4-0.2-1.1-0.5-1.4s0.1-0.8,0.1-1.2
			c0.1-0.4-0.3-0.4-0.5-0.5c-0.4-0.3-0.1-1-0.1-1s-0.1-0.7-0.2-1.1s-0.1-0.4,0.3-0.7c0.4-0.2-0.1-0.7-0.1-0.7s0.2-0.4,0.3-0.6
			c-0.5,0-0.5-0.6-0.6-0.8c-0.2-0.1-0.6-0.3-0.6-0.4c0-0.1,0.1-0.4-0.2-0.5c-0.3-0.2-0.4-0.6-0.3-0.8s-0.5-1.4-0.5-1.4l0.2-0.9
			l-0.4-0.4c0,0,0-0.6,0-1c0-0.4,0.3-0.4,0.5-0.5c0-0.2,0-0.5,0.2-0.8c0.3-0.3,0.3-1,0.3-1l-0.9-0.5l-0.3-0.8l-0.3,0.1l-0.2-0.4
			l-0.5,0c0,0-0.2-0.5-0.3-0.7c0.3-0.2,0.5-0.2,1-0.9c0.5-0.7-0.6-0.9-0.6-0.9l0-0.3c0,0-0.2,0.1-0.2,0.1c-0.3,0.2-1,0.3-1.5,0.1
			s-0.7-0.6-0.6-1.1c0.1-0.9-0.6-0.9-0.8-0.8c0-0.3-0.1-0.5-0.4-0.7s0.2-0.5,0.3-0.6s0.2-0.2,0-0.3s-0.1-0.4,0-0.7s0-0.5-0.3-0.5
			s-0.4-0.2-0.2-0.5c0.2-0.4-0.5-0.5-0.5-0.7c-0.1-0.2-0.5-0.3-0.9-0.5s-0.3-0.9-0.2-1.1c0.1-0.2,0.1-0.4,0.4-0.5
			c0.3,0,0.1-0.6-0.1-0.6c-0.5,0-0.9-1-0.9-1s-0.3-0.2-0.6-0.3c0.5-0.5,0-0.9-0.3-1.1c-0.3-0.2-0.2-0.6,0.1-0.7
			c-0.1-0.4-0.8-0.3-0.8-0.5s-0.1-0.3-0.4-0.5c-0.3-0.2,0-0.4,0-0.4l1-0.5c0,0,0-0.6-0.1-1.2s-1-0.9-1-0.9l-0.3,0l-7.2-0.3l0,0.5
			l-16.9-0.8l-0.2,4.2l-12.6-0.7l-0.2,4.3l-6.5-0.3l-4.2,4c0,0,0,0-0.1,0.1l1.7,0l-0.2,4.3l2.2,0l-0.3,6.7l-2.2-0.2l-0.3,6.4l-0.2,0
			l-1,17.2l41,1.6l2-0.2l16,0.6l2.3,0.2l0-1.5l0.4-0.3l-0.2-0.2c0,0,0-1.2,0-1.7s0.4-0.3,0.8-0.2
			C312.6,327.2,312.3,326.3,312.3,326.3z"/>
		<path class="st5" d="M194.3,59.9c-1.4-0.1-2.9-0.2-4.3-0.3c-19-1.2-36-2.3-38.9-2.5c0.1,0.3,0.3,0.5,0.7,0.4
			c0.1,0.3,0.2,0.4,0.5,0.5s0.6,0.2,0.5,0.5s-0.1,0.6-0.1,0.9c0.1,0.2,0.1,0.8-0.3,1.2c0,0.4,0,0.9-0.3,0.9c-0.2,0-1.1,0.6-2,0.3
			c-0.4,0.2-1.1,0.5-1,1.1c0.4-0.1,0.9,0.2,0.6,0.6s-0.4,1-0.3,1.6c0.1,0.6-0.3,1.1-0.6,0.9c-0.2-0.2-0.5-0.2-0.7,0.1
			c-0.2,0.3-0.5,0.8-1.1,0.6c-0.4,0.5-0.8,1.1-0.8,1.6c0,0.6-0.2,1.2-0.4,1.4c0.2,0.5,0.4,2-0.6,2.1c-0.3,0.8-0.6,1.7-1.2,1.8
			c-0.4,0.4-0.6,0.6-0.6,0.6s1,2.4-1.1,3.3c-0.6,0.3-1.1,0.5-1.1,0.5v0.4l0.4,0.7c0,0-0.6,2.2-1.4,1.4c-0.1,0.1-0.4,0.4-0.2,0.7
			c0,0.3,0.1,0.8,0.1,0.8l0.3,0.2l0.2,0.5l-0.4,0.7c0,0,0.9,0.3,0.9,0.4c-0.1,0.4-0.1,2.1,0.5,2.4c0.2,0.2,0.1,0.5-0.3,0.6
			c-0.4-0.2-0.9-0.4-0.9-0.4l-0.8,0.3l0,0.6l-0.6-0.3l-1.1,0.8l-0.1,0.6c0,0-0.4,0.3-0.4,0.6c-0.4,0.1-1.1,0.2-1.1,0.2l-0.4,0.2
			c0,0-0.8-0.1-0.9,0.2c0.2,0.2,0.1,0.9-0.5,0.9c-0.6,0.1-1.1,0.7-1.2,1c0.1,0.1-0.3,0.8-0.3,0.8l-0.6-0.4l-0.6,0.2l-0.3,0.5l0,0.3
			l-0.8,0.4l-0.2-0.4l-0.5,0.3h-0.9l0,1.1c0,0-0.6,0.4-0.7,0.8c-0.1,0.4-0.4,0.5-0.6,0.6s-0.5,0.6-0.5,1c-0.1,0-0.3,0-0.3,0
			l-0.2-0.2l-0.5,0.1l0.1,0.4c0,0,0.2,0.9-0.1,1.3c-0.2,0.2-0.2,0.8-0.1,1.4c0.3-0.1,0.6-0.2,0.8-0.2c0.3-0.3,0.9-0.7,1.3-0.7
			c0.5-0.1,1-0.2,1.2-0.4c0.1,0.3,0.5,0.6,1,0.4c0.4-0.2,0.7-0.3,0.7-0.3l0.2,0.3l0.7-0.1c0,0,1.4-1.7,1.9-1.4
			c0.5,0.3,0.9,0.1,1.1-0.2c0.5,0,0.9,0.1,0.9,0.1l0.3-0.4l0.6,0.2c0,0,1.9-0.8,2.3,0.1c0,0.2-0.1,0.6-0.1,0.6l0.8,0l0.7,0.5l0.5,0
			l0,0.4c0,0,1,0.3,1.7-0.3c0.2-0.2,0.4-0.4,0.8-0.2c0.4-0.3,1-0.8,1.1-1.1c0.4,0.2,0.6,0.2,0.6,0.2s2-1.5,2.6-0.9
			c0.2,0.2,1.2,0.1,1.2,0.4c0.1,0.3,0.5,0,0.8,0.3c0.5-0.1,1.1-0.2,1.1-0.2s0.3,0.6,2,0.3c0.5,0.2,0.7,0.3,0.7,0.3l0.8-0.3l0.4,0.4
			l0.8-0.6l0.4,0.4c0,0,0.7,0.1,1.1-0.5c0.3,0.1,0.7,0.1,0.7,0.1l0.4-0.2l0.9,0.6c0,0,0.6-0.8,1.3-0.8c0.7,0,1.6,0,2.5-0.6
			c0.6-0.1,1.6-0.2,2-0.4c0.2,0.2,0.4,0.2,0.8,0c0.4-0.2,1.3-0.2,1.9,0.2c0.7,0.3,1.7,0.7,2.4-0.1c0.3,0.2,0.4,0.4,0.4,0.4l0.2-0.3
			h0.4c0,0,1.4-1.2,2-0.3c0.6-0.2,1.1-0.5,1.9,0c0.5,0.1,1.9,0.8,2.4-0.2c0.7-0.1,1.4-0.3,1.9,0.1c0.5,0.4,0.7,0.4,0.9,0.8
			c0.6,0,1.2-0.2,1.4,0c0.2,0.2,0.6,0.3,1.2-0.3c0.6,0,1.8,0,3.1,0.1c1.5,0.1,3.2,0.2,4.7,0.3c0.5-0.1,0.8-0.2,0.8-0.2l0.5,0.3
			l0.2,0l0.2-2.6l0.2-0.1l1.3-19.9l-0.5,0L194.3,59.9z"/>
		<path class="st5" d="M237.2,125l-0.3-0.1c0,0,0.2-1.1,0.2-1.4c-0.9,0-1.1-1.1-1.8-1.5c-0.7-0.4-0.9-2.3-0.9-2.3l-0.7-0.1l0.1-1.4
			l-0.4-0.1l0.1-1.9L232,116l0-1l-0.6,0l-0.1-0.5c0,0-1.2,0.1-2.2,0c-1-0.1-2.9-1.4-3-1.8c-0.1-1.1-1.4-1.2-1.4-1.5
			c0-0.4-0.2-0.4-0.2-0.9c0-0.5-0.4-0.5-0.9-0.5c-0.4,0-0.3-0.7-0.6-0.8c-1.1-2.1-3-2.1-3-2.1s0-0.6,0-1.1c-2.9-0.2-2.9-1.3-2.9-1.3
			s-1.9-0.3-2.5-0.3c0-0.4-0.8-0.3-1.3-0.3c-0.5,0.1-0.8,0.7-0.8,0.7l-0.8-0.2c0,0,0,0.9-0.1,1.3c-0.9-0.2-0.9,0.3-1.4,0.3
			c-0.3,1-1.5,1.3-1.5,1.3l-0.3,2.1l-0.8-0.2l0,0.4l-1.4,0l0.2-0.8l-0.7-0.1l0-0.7l-2.1-0.2l-0.1-0.6l-1.4-0.2l0-1.1l-0.6-0.1
			l0.6-9.3l-10.1-0.4l-0.2,0l-0.5-0.3c0,0-0.3,0.1-0.8,0.2c-1.5-0.2-3.2-0.3-4.7-0.3l-0.3,0.6l1,0.4c0,0-0.9,1.5-0.1,2.5
			c-0.2,0.1-0.4,0.3-0.4,0.3s0.3,0.7,0.4,1c0.3,0,1.3,0.1,1.3,0.1l0.4-0.2c0,0,1.3,1.1,1.8,0.6c0.3,0.4,0.4,0.6,0.3,1
			c0.3,0,0.4,0,0.4,0s0.2,0.5,0.5,0.6c0,0.1-0.1,0.5-0.5,0.6c-0.2-0.2-0.4-0.3-0.4-0.3l-0.2,0.2c0,0,0.8,0.8,0.2,1.5
			c0.3,0.3,0.7,1.1-0.1,1.6c0.1,0.5,0.2,1.4-0.7,1.3c-0.3,0.1-0.5,0.4-0.5,0.4l-0.5,0.6l-0.2-0.2l-0.9-0.3l-0.3,0.3l0.3,0.4
			l-0.4,0.2l-0.1,1.2l1.5,0.3l0,1.5l0.7,0.1c0,0,0.2,0.6,0.1,1.6c0.5,0.3,0.5,1.4-0.8,1.7c-0.8,0.9-1.1,2.7-1.1,3.1
			c0.2,0,0.4,0,0.4,0l-0.2,1.4h-0.4l0,1.4l0.4,0l-0.1,0.7l-0.7,0.1l-0.2,0.7l0.7,0l0.1,1.4c0,0,1.2,1,1.9,1c0,0.4,0.3,1.3,0.3,1.3
			l0.6,0.1l0.5,0.8c0,0,0.2,1,1.1,1.3c0,0.4,0,0.9,0,0.9l0.7-0.1c0,0-0.2,0.9,0.5,0.9c0.1,0.3,0.7,0.8,0.7,0.8l0,0.6l0.8,0l-0.1,1.3
			l0.7,0l0,0.6l0.8,0.1c0,0,0.2,1.5,1.2,1.4c0,0.6,0,1.5,0,1.5l0.6,0.1c0,0,1,0.4,1.5,1.6c0.5-0.7,1.8-1.4,2-1.6
			c0.2-0.2,0.4-0.2,0.7-0.3c0.1,0,0.2,0,0.3-0.1c0.5-0.1,1.2-0.9,1.6-1.2c1-0.7,1.1-2.1,1.2-3.2c0.1-1.1,1.1-1.3,1.6-1.4
			c0.3-0.6,1.1-0.8,1.1-0.8s0.3,0.2,0.4,0.4c0.5,1.7,1.6,1.3,1.6,1.3l0.1,1.2l0.5,0.2c0,0,0.1,0.3,0.2,0.4c0.7-0.6,1.3-0.6,1.5-0.3
			s0.6,0.5,1.2,0.7c0.4,0.6,0.9,0.8,0.9,0.8l0.5,0.8c0,0,0.2-0.2,0.3-0.3c0.8-0.1,0.7-1.3,0.7-1.3l19.3,0.9c0.1-0.5,0.2-1.2,0.2-1.4
			c1,0.2,1.4-2.1,1.4-2.1l0.2-4.9l0.4,0L237.2,125z"/>
		<path class="st5" d="M197.8,136.9l-0.6-0.1c0,0,0-0.9,0-1.5c-1,0.1-1.2-1.4-1.2-1.4l-0.8-0.1l0-0.6l-0.7,0l0.1-1.3l-0.8,0l0-0.6
			c0,0-0.6-0.4-0.7-0.8c-0.7-0.1-0.5-0.9-0.5-0.9l-0.7,0.1c0,0,0-0.6,0-0.9c-0.9-0.3-1.1-1.3-1.1-1.3l-0.5-0.8l-0.6-0.1
			c0,0-0.3-0.9-0.3-1.3c-0.7,0-1.9-1-1.9-1l-0.1-1.4l-0.7,0l0.2-0.7l0.7-0.1l0.1-0.7l-0.4,0l0-1.4h0.4l0.2-1.4c0,0-0.2,0-0.4,0
			c0-0.4,0.3-2.2,1.1-3.1c1.3-0.2,1.3-1.3,0.8-1.7c0.1-1-0.1-1.6-0.1-1.6l-0.7-0.1l0-1.5l-1.5-0.3l-0.1,1.1c0,0-0.1,0.6-1.4,0.4
			c0,0.2,0.1,0.4-0.3,0.4c-0.1,0.1-0.3,0.3-0.3,0.3l-0.6-0.2l0,0.3h-3.2l-0.1,2c0,0-1.6,1.2-1.6,1.8c0,0.5-0.1,1.2-0.1,1.2l-0.5,0
			l-0.1,0.7l-2.1-0.3l-0.2,0.4l-0.7,0.4c0,0-0.1,0.5-0.4,0.7c-0.3,0.2-0.5,1.1-0.7,2.4c-0.3,0.2-0.7,0.4-0.9,0.7c-0.5,0-1.5,0-1.5,0
			l0.4,0.2l-9.4-0.6l0.2,0.3l-0.6,0.6l-0.1,0.8l-0.5,0.3l0.6,0.7l-0.4,0.8l0.5,0.7l0.1,0.1l0.8,0.4l-0.3,0.4l0.5,0.9l0.5,0.2
			l0.9,1.4c0,0,0.6,0.6,0.9,0.7c0.1,0,0.6,1.2-0.1,1.6c-0.1,0.4-0.3,0.6-0.3,0.6l-0.6-0.1l-0.4,0.4l0.6,1c0,0-1.2,0.1-1.1,0.5
			c0.1,0.3,0.2,0.6,0.4,0.8c0.2,0.2,0.1,0.7-0.5,0.8c-0.1,0.4-0.1,1.3-0.1,1.3l-0.3,0.4l0.4,0.4l-0.5,0.4c0,0,0.3,2.1,0.9,1.2
			c0.1,0.1,0.2,0.2,0.2,0.2l1.1-0.3l3.4,0.2c0,0-0.1,0.4-0.5,0.5c-0.4,0.1-0.6,0.9-0.4,1.3c0.2,0.4,0.3,0.6,0,0.9
			c0.1,0.3,0.2,0.6,0.2,0.6l-0.2,0.3l0,0.8l-0.2,0.8l-0.7,2.2v0l0.1,0.5c0,0-0.9,1.2-0.3,1.6c-0.3,0.3-0.4,0.3-0.4,0.3
			s-0.1,0.8-0.3,1.2l10.8,0.8l0.1,0l0.5-0.6c0,0,0.4,0.3,0.7,0.6c0.5-0.5,0.8-0.1,1,0.3c2-1.3,2.2,0,3.1-0.6c0-1,1.3-0.5,2-0.9
			c0.9,0.4,1.7-0.6,2-1c0.6,0,0.5-0.3,0.5-0.5c0.3-0.2,0.4-1,0.5-1.3c-0.4-0.3,0.6-1,0.9-1.2c-0.5-1-0.2-1.6,0.3-2
			c1-0.8,1.2-2.6,1.2-2.6l1.1,0l0.1,0.4h1.2l0-0.6l2.2,0.1v0.4c0,0,0.6,0.1,1,0.1c0.7-0.3,0.5-1.8,0.5-1.8l1.6-0.4
			c0,0,0-0.9,0.1-0.9c0,0,0.8,0,1.1,0c0-0.1,0.1-0.3,0.2-0.5C198.8,137.2,197.8,136.9,197.8,136.9z"/>
		<path class="st5" d="M152.2,57.9c-0.2,0-0.4-0.2-0.5-0.5c-0.4,0.1-0.6-0.1-0.7-0.4c0-0.1,0-0.3,0.1-0.4c-1.2-0.8-0.8-1.4-0.5-1.8
			c-0.3-0.6-0.1-0.8,0.2-0.8c-0.3-0.5-0.2-0.8,0-1.2c-0.5-1.1,0.5-1,0.5-1l-0.2-0.8l0.9-0.5l-0.6-0.8l-0.1-0.5c0,0-1.2-0.1-1.4-0.2
			c0.1-0.6-0.9-1.2-1.4-1s-0.2,1.2-0.2,1.2s0,0.2-0.3,0.3c0,0.3,0,0.3-0.2,0.3c-0.4-0.4-0.8-0.2-0.9-0.3c-0.4-0.4-1,0.2-1,0.2l0,1
			l-0.4,0.1l0,0.7c0,0-0.2-0.2-0.4-0.3c-0.7,0.7-1.2,0.8-1.6,0.8c-0.4,0-0.8,0.7-0.9,1.1s-0.9,0.6-1.3,0.5c-0.1,0.3-0.5,0.3-0.8,0.5
			c-0.1,1.2-0.7,0.8-0.7,0.8l-0.2,0.6c0,0-0.2,0-0.3,0c-0.2-1.1-1.1-0.3-1.3,0c-0.9-0.8-2.3-0.2-2.4,0.1s-0.6,0.2-0.6,0.2l-0.2,0.5
			l-0.2,0.1l-0.5-0.7l-0.6,0.4l0.4,0.6l-0.2,0.3l0.1,0.6l-0.4,0.5c0,0,0,0.5,0.1,0.8c-0.8,0.6-0.4,0.8-0.4,1
			c-0.6,1.2,1.1,1.7,1.4,1.6c0,0.4,0.8,2.1,0.8,2.1l-0.2,0.2l0,0.6l-0.5,0.3c0,0-0.1,0.3-0.3,0.4c-0.8,0.3-1.1,0.1-1.1-0.3
			c0-0.4-0.4-0.6-0.4-0.6l-1.5,0l-0.4,0.2l-0.9,0.2c0,0-0.4-1-0.4-1.5c0.1-0.5-0.6-1.2-1.3-1.3c-0.7-0.1-0.9-1-0.9-1s-0.4-0.1-0.7,0
			c-0.3-0.4-1,0-1,0l-0.2-0.2l-1.1-0.1c0,0-0.1,0-0.4,0.3c-0.4-0.5-1.1-0.5-1.6-0.4c-0.1-1.3-0.8-1.6-0.8-2c0-0.4-0.2-0.4-0.4-0.4
			c0-1.5-1-1.1-1.3-0.8c-0.1-1.2-1.5-1.5-1.5-1.5l-0.7,0.8l-0.1-0.6l-0.4-0.1l-0.1-0.5c0,0-0.1-0.1-0.2-0.2
			c-0.1,0.1-0.2,0.1-0.3,0.2c-0.4,0.2-0.6,0.1-0.6,0.1l-0.4,0.2l0.2,0.5l-0.2,0.3l-0.1,1.4c0,0-0.3,0.8-0.5,1.1
			c-0.2,0.4-0.6,0.2-0.8,0.5c-0.3,0.5,0.4,1.3,0.8,1.2c0.3-0.1,0.5,0.3,0.5,0.3v1.1l0.5,0.2l-0.2,0.5c0,0,0.1,0.2,0.2,0.3
			c-1,0.1-0.9,1.2-0.9,1.2l-0.3,0.2l0,0.4l-0.8,0.5l0.2,0.3c0,0,0,0.2-0.1,0.6c-1.6,0.4-1.4,1.4-1.4,1.4l-1-0.4l-0.5-0.8l-0.4,0.3
			l-0.1-0.6l-0.6-0.6l-0.6,0.1c0,0,0.1,0.3,0.1,0.4c-0.3,0-0.5,0.2-0.8,0.5c-0.8-0.6-1.1,0.5-1.1,0.5l0.3,0.7l-0.3,0.3l0.6,0.6
			c0,0,0,0.4,0.1,0.8c-0.1,0.8,0.6,0.7,0.6,0.7l0.2,0.8l0.3,0.5c0,0-0.2,0.3-0.3,0.4c-0.1,0.2,0.1,0.6,0.3,0.7
			c0.3,0.1,0.3,0.5,0.1,0.7c-0.2,0.2-0.2,0.6-0.1,0.8c0.2,0.7,0,1.3-0.2,1.4c0.4,0.3,0.4,0.8,0.4,0.8l-3.2,35.9l0.1,0l-0.1,1.1
			l22.8,1.8c0.6-0.5-0.2-1.1-0.2-1.1s0-0.5,0-0.8c-0.3-0.2-0.1-0.5,0.2-0.9c0-0.2-0.2-0.5-0.1-0.8s-0.2-0.9-0.4-1s-0.2-0.5,0-0.9
			c0.5-1.2-0.1-2.1-0.1-2.1l0.2-0.6c0,0-0.3-0.2-0.8-0.4c0-0.4,0.4-1.4,0.6-1.7c0.2-0.2,0.3-0.8,0.2-1c-0.2-0.2-0.1-1.1,0-1.4
			c-0.1-0.2-0.2-0.2,0.1-0.6s-0.9-0.4-1.1-0.6c-0.2-0.3-0.9-0.8-0.9-0.8s-0.2,0.2-0.3,0.3c-0.4-0.2-0.7-0.7-0.9-1.2
			c-0.2-0.6-0.1-1.2,0.1-1.4c0.3-0.3,0.1-1.3,0.1-1.3l-0.1-0.4l0.5-0.1l0.2,0.2c0,0,0.2,0,0.3,0c0-0.4,0.3-0.9,0.5-1
			c0.2-0.1,0.5-0.2,0.6-0.6c0.1-0.4,0.7-0.8,0.7-0.8l0-1.1h0.9l0.5-0.3l0.2,0.4l0.8-0.4l0-0.3l0.3-0.5l0.6-0.2l0.6,0.4
			c0,0,0.4-0.7,0.3-0.8c0.1-0.3,0.6-0.9,1.2-1s0.7-0.7,0.5-0.9c0.1-0.3,0.9-0.2,0.9-0.2l0.4-0.2c0,0,0.7-0.1,1.1-0.2
			c0-0.3,0.4-0.6,0.4-0.6l0.1-0.6L139,87l0.6,0.3l0-0.6l0.8-0.3c0,0,0.5,0.2,0.9,0.4c0.3-0.1,0.5-0.4,0.3-0.6
			c-0.5-0.4-0.5-2-0.5-2.4c0-0.1-0.9-0.4-0.9-0.4l0.4-0.7l-0.2-0.5l-0.3-0.2c0,0-0.1-0.4-0.1-0.8c-0.2-0.2,0-0.6,0.2-0.7
			c0.8,0.8,1.4-1.4,1.4-1.4l-0.4-0.7v-0.4c0,0,0.5-0.2,1.1-0.5c2.1-0.9,1.1-3.3,1.1-3.3s0.2-0.3,0.6-0.6c0.7-0.1,0.9-1,1.2-1.8
			c0.9-0.1,0.7-1.6,0.6-2.1c0.2-0.2,0.3-0.8,0.4-1.4s0.4-1.2,0.8-1.6c0.6,0.2,0.9-0.3,1.1-0.6c0.2-0.3,0.4-0.3,0.7-0.1
			c0.2,0.2,0.6-0.3,0.6-0.9c-0.1-0.6,0-1.1,0.3-1.6c0.3-0.5-0.2-0.7-0.6-0.6c0-0.5,0.6-0.8,1-1.1c0.9,0.3,1.8-0.3,2-0.3
			c0.3,0,0.4-0.4,0.3-0.9c0.4-0.4,0.4-1,0.3-1.2s-0.1-0.5,0.1-0.9C152.9,58.1,152.5,58,152.2,57.9z"/>
		<path class="st5" d="M190.8,102.1c0,0-0.1,0-0.4,0c0.1-0.4-0.1-0.6-0.3-1c-0.5,0.6-1.8-0.6-1.8-0.6l-0.4,0.2c0,0-0.9-0.1-1.3-0.1
			c0-0.3-0.4-1-0.4-1s0.2-0.2,0.4-0.3c-0.8-1,0.1-2.5,0.1-2.5l-1-0.4l0.3-0.6c-1.3-0.1-2.5-0.1-3.1-0.1c-0.6,0.7-1,0.6-1.2,0.3
			c-0.2-0.2-0.8,0-1.4,0c-0.3-0.4-0.4-0.4-0.9-0.8s-1.2-0.2-1.9-0.1c-0.5,1-2,0.4-2.4,0.2c-0.8-0.5-1.2-0.2-1.9,0
			c-0.6-0.8-2,0.3-2,0.3h-0.4l-0.2,0.3c0,0-0.2-0.1-0.4-0.4c-0.7,0.8-1.7,0.5-2.4,0.1c-0.7-0.4-1.6-0.4-1.9-0.2
			c-0.4,0.2-0.6,0.2-0.8,0c-0.4,0.3-1.4,0.3-2,0.4c-0.9,0.6-1.8,0.5-2.5,0.6c-0.7,0-1.3,0.8-1.3,0.8l-0.9-0.6l-0.4,0.2
			c0,0-0.3,0-0.7-0.1c-0.4,0.5-1.1,0.5-1.1,0.5l-0.4-0.4l-0.8,0.6l-0.4-0.4l-0.8,0.3c0,0-0.2-0.2-0.7-0.3c-1.7,0.3-2-0.3-2-0.3
			s-0.6,0.1-1.1,0.2c-0.3-0.3-0.7,0-0.8-0.3s-1.1-0.2-1.2-0.4c-0.6-0.6-2.6,0.9-2.6,0.9s-0.3,0-0.6-0.2c-0.1,0.3-0.7,0.7-1.1,1.1
			c-0.4-0.2-0.6,0.1-0.8,0.2c-0.7,0.7-1.7,0.3-1.7,0.3l0-0.4l-0.5,0l-0.7-0.5l-0.8,0c0,0,0.1-0.3,0.1-0.6c-0.4-0.8-2.3-0.1-2.3-0.1
			l-0.6-0.2l-0.3,0.4c0,0-0.4,0-0.9-0.1c-0.2,0.2-0.6,0.4-1.1,0.2c-0.5-0.3-1.9,1.4-1.9,1.4l-0.7,0.1l-0.2-0.3c0,0-0.2,0.1-0.7,0.3
			s-0.9-0.1-1-0.4c-0.2,0.2-0.8,0.4-1.2,0.4s-1,0.4-1.3,0.7c-0.2,0-0.5,0.1-0.8,0.2c0.1,0.5,0.4,1,0.9,1.2c0.1-0.1,0.3-0.3,0.3-0.3
			s0.7,0.5,0.9,0.8c0.2,0.2,1.4,0.2,1.1,0.6c-0.2,0.4-0.1,0.5-0.1,0.6c-0.1,0.3-0.2,1.2,0,1.4c0,0.2,0,0.7-0.2,1s-0.6,1.2-0.6,1.7
			c0.4,0.2,0.8,0.4,0.8,0.4l-0.2,0.6c0,0,0.6,0.9,0.1,2.1c-0.2,0.4-0.3,0.9,0,0.9s0.6,0.7,0.4,1c-0.2,0.3,0,0.6,0.1,0.8
			c-0.3,0.3-0.6,0.7-0.2,0.9c0,0.3,0,0.8,0,0.8s0.8,0.6,0.2,1.1c0,0,0,0,0,0c0.4,0.1,0.7,0.3,0.7,0.3l-0.3,1.1l0.4,0.7
			c0,0,0.1,1.2-1.5,1.2c0.2,0.4,0.2,1.5-0.4,2.3c0.2,0.2,0.1,0.5-0.2,0.7c0.3,0.2,0.5,0.5,0.5,0.5l0.1,1.6l0.1,0.2l4,0l29.6,2.3
			l-0.5-0.7l0.4-0.8l-0.6-0.7l0.5-0.3l0.1-0.8l0.6-0.6l-0.2-0.3l9.4,0.6l-0.4-0.2c0,0,1,0.1,1.5,0c0.2-0.3,0.6-0.4,0.9-0.7
			c0.2-1.3,0.5-2.2,0.7-2.4c0.3-0.2,0.4-0.7,0.4-0.7l0.7-0.4l0.2-0.4l2.1,0.3l0.1-0.7l0.5,0c0,0,0.1-0.6,0.1-1.2
			c0-0.5,1.6-1.8,1.6-1.8l0.1-2h3.2l0-0.3l0.6,0.2c0,0,0.2-0.2,0.3-0.3c0.4,0,0.3-0.2,0.3-0.4c1.3,0.3,1.4-0.4,1.4-0.4l0.1-1.1
			l0.1-1.2l0.4-0.2l-0.3-0.4l0.3-0.3l0.9,0.3l0.2,0.2l0.5-0.6c0,0,0.2-0.2,0.5-0.4c0.9,0.1,0.9-0.8,0.7-1.3c0.8-0.5,0.4-1.3,0.1-1.6
			c0.5-0.7-0.2-1.5-0.2-1.5l0.2-0.2c0,0,0.2,0.1,0.4,0.3c0.3-0.2,0.5-0.5,0.5-0.6C191,102.6,190.8,102.1,190.8,102.1z"/>
		<path class="st5" d="M168.9,165.4c0.8-0.5-0.3-1.6-0.3-1.6l0-0.9c0,0-0.1-0.2-0.3-0.4c-1.1,0.6-1.7-0.6-1.7-1.1
			c0-0.5-0.3-1-0.4-1.4s-0.9-0.4-0.9-0.4L165,159l0.2-0.4l0.6,0.3l0.2-0.5c0,0-0.5-0.4-0.6-0.7c0-0.3-0.4-0.8-0.4-0.8
			s0.1-0.2,0.1-0.4c0.6-0.1,0.7-1.1,0.5-1.4c-1-1.5,0.4-2.9,0.8-3.1c-0.1-0.4,0.2-0.9,0.4-1.1c0,0,0.1-0.1,0.1-0.2
			c0.2-0.4,0.3-1.2,0.3-1.2s0.1-0.1,0.4-0.3c-0.6-0.4,0.3-1.6,0.3-1.6l-0.1-0.5v0l-4.5-0.2l0.2-0.6l0-0.9l-4.9-0.3l-0.3,1.4
			c0,0-17.1-1.5-22.8-1.6c-0.5,0-0.9,0-1.2,0c0.5,0.2,1.1,0.8,1.1,0.8l-0.6,1h-0.6l-0.1,0.8l-0.3,0.7l0.6,1.4l0.7,0.7h0.2
			c0,0,0.3,0.7,0.8,0.9c0.5,0.3,0.6,0.8,0.8,1.1c0.2,0.3,0.8,1.5,1.5,0.9c0.2-0.3,0.6-0.3,0.9,0s0.7,0.4,0.9,0.4
			c0.2,0,0.6,0.3,0.8,0.6c0.4-0.1,1.3-0.2,1.3-0.2l0.2-0.1l0.7,0.2c0,0-0.1,1.2,0.6,0.9c0.2,0.4,0.3,0.9,0.3,0.9l0.6,0.1l-0.5,0.4
			c0,0,0,0.7,0.5,1c-0.2,0.1-0.4,0.2-0.4,0.2l-0.6-0.2l-0.1,1c0,0,0.6,1.1,0.1,2.3c0.1,0.2,0.1,0.4,0.1,0.4l-0.1,0.8l0.9,0.1
			c0,0,0,1.4,2,1.7c0,0.4,0,1.3-0.4,1.4c0,0.3,0,0.5,0,0.5l0.4,0.4c0,0-0.1,1,0.5,0.9c0.2,0.2,1.1,1,1.7,1.6l19.6,1.4
			c0-0.2,0-0.3,0-0.4c0.1-0.1,0.2-0.3,0.1-0.4s-0.2-0.4-0.2-0.4l-0.1-0.3l0.5-0.3l0-0.5l0.4-0.2l0.2-0.7l0.9-0.2
			C170.1,166.4,169.3,165.7,168.9,165.4z"/>
		<path class="st5" d="M183,167.2c-1.4-0.1-2.6,1.1-2.6,1.1l-0.7-0.2l-0.4,0.9l-0.3,0c0,0-0.4,1.1-0.7,1.7c-0.3-0.6,0-1.4,0-1.4
			l-0.2-0.5l0.3-0.4l-0.5-1.3l0.6-0.9l-0.9-1.2l-0.2-1.3l0.9-1.5c0,0,0-0.2-0.1-0.4c-0.9,0-0.4-1-0.1-1.5c-0.1-0.2-0.8-1.6-0.6-2.3
			c0.1-0.7-0.2-1.1-0.4-1.4c1-1.2,0-1.5-0.2-1.7c-0.3-1,0.4-1.7,0.4-1.7l0.1-1.6l-10.8-0.8c0,0.1-0.1,0.1-0.1,0.2
			c-0.2,0.2-0.5,0.8-0.4,1.1c-0.4,0.2-1.8,1.6-0.8,3.1c0.2,0.3,0.1,1.3-0.5,1.4c0,0.1-0.1,0.4-0.1,0.4s0.4,0.5,0.4,0.8
			c0.2,0.3,0.6,0.7,0.6,0.7l-0.2,0.5l-0.6-0.3L165,159l0.1,0.5c0,0,0.8,0,0.9,0.4c0.2,0.4,0.4,0.9,0.4,1.4c0,0.5,0.6,1.8,1.7,1.1
			c0.3,0.2,0.3,0.4,0.3,0.4l0,0.9c0,0,1.1,1.1,0.3,1.6c0.3,0.3,1.2,1,1.2,1l-0.9,0.2l-0.2,0.7l-0.4,0.2l0,0.5l-0.5,0.3l0.1,0.3
			c0,0,0.1,0.3,0.2,0.4c0.2,0.1,0.1,0.3-0.1,0.4c-0.1,0-0.1,0.2,0,0.4c0,0.2,0.2,0.4,0.4,0.5c0.5,0.2,0.9,0.4,0.8,0.8
			s-0.3,0.8-0.7,0.9l0.6,0.8l0.6,0.3l1.4-0.5l0.1,0.4l0.6,0.4l-0.1,1l0.2,0.6l-0.2,1.1l0.8,0.2l0.4,0.3l-0.2,0.3l0.6,1.4l1.1-0.1
			l0.8-1.1l1,0.5l0.3,0.8l-0.5,1.2c0.8,0,2.4,0.2,4.5,0.4l0.1-0.9l0.6,0.1l0.5-8.5h2.1l0.2-3.7C184.1,167.3,183.6,167.2,183,167.2z"
			/>
		<path class="st5" d="M201.3,140.4l0.8-3.8c-0.3,0.1-0.5,0.1-0.7,0.3c-0.2,0.2-1.5,0.9-2,1.6c-0.1,0.2-0.2,0.3-0.2,0.5
			c-0.3,0.1-1.1,0-1.1,0c0,0-0.1,0.9-0.1,0.9l-1.6,0.4c0,0,0.2,1.5-0.5,1.8c-0.4,0-1-0.1-1-0.1v-0.4l-2.2-0.1l0,0.6h-1.2l-0.1-0.4
			l-1.1,0c0,0-0.2,1.8-1.2,2.6c-0.5,0.4-0.8,1-0.3,2c-0.3,0.2-1.3,0.9-0.9,1.2c-0.1,0.3-0.2,1-0.5,1.3c0,0.2,0.1,0.5-0.5,0.5
			c-0.3,0.4-1.1,1.4-2,1c-0.7,0.5-2-0.1-2,0.9c-0.9,0.5-1.2-0.8-3.1,0.6c-0.2-0.4-0.4-0.8-1-0.3c-0.3-0.2-0.7-0.6-0.7-0.6l-0.5,0.6
			l-0.1,0l-0.1,1.6c0,0-0.7,0.7-0.4,1.7c0.2,0.2,1.2,0.5,0.2,1.7c0.2,0.4,0.5,0.8,0.4,1.4c-0.1,0.7,0.6,2.1,0.6,2.3
			c-0.3,0.5-0.9,1.5,0.1,1.5c0.1,0.2,0.1,0.4,0.1,0.4l-0.9,1.5l0.2,1.3l0.9,1.2l-0.6,0.9l0.5,1.3l-0.3,0.4l0.2,0.5
			c0,0-0.3,0.8,0,1.4c0.3-0.6,0.7-1.7,0.7-1.7l0.3,0l0.4-0.9l0.7,0.2c0,0,1.2-1.2,2.6-1.1c0.6,0,1.1,0.1,1.8-0.2
			c0.1,0,0.1-0.1,0.2-0.1c0.4-0.2,1.2-0.6,1.2-0.6s0.2-0.6,0.9-0.6c0.5-0.2,1.9-1,2.2-0.8c0.3,0.2,0.4,0.6,0.8,0.8h0l0.5-9.7
			l0.5-0.4l0-0.7l0.4-0.2l-0.2-0.7l1-0.5l0.7,0.2l1.1-2.3l0.4,0l0.1-0.4c0,0,0.8,0,1.1,0c0.5-0.4,0.9-1.2,1.2-1.8
			c1.6,0.1,1.8-0.8,1.8-0.8l0.7,0.4l0.2-0.4l0.8,0.6c0,0,0.4-0.2,0.7-0.4l-0.1-6l-0.4,0l-0.5-1.2l1.1-0.9H201.3z"/>
		<path class="st5" d="M251.4,394.7c0-0.2,0.8-19.5,0.9-21.8c-0.1,0-0.2,0-0.2,0c-0.4-0.1-0.8-0.1-1-0.2c-0.5,0-0.7,0-0.7,0l0,0.2
			l-1.8-0.1l-1.9-1.3l-0.5-0.7c0,0-0.2-0.3-0.5-0.5c-0.2-0.2-0.3-0.3-0.5-0.2s-0.3,0.1-0.4-0.1s-0.4-0.1-0.5-0.1
			c-0.4-0.8-1.1-1.1-1.1-1.1l-0.5,0.2l-0.5-0.4l-0.9,0.4l-0.1-0.4l-1,0.2l-0.3-0.4l-0.9-0.6l-0.4,0.2c0,0-0.2-0.1-0.3-0.2
			c0-0.5-0.7-0.6-0.7-0.6s-0.7-0.4-1.1-0.8c0-0.2-0.2-0.6-0.3-0.9c-0.7-0.1-1.2-0.6-1.5-0.5c-0.3,0.2-0.9,0.2-0.9,0.2l0-0.4
			c0,0-0.4-0.4-0.8-0.9c-1.9,0.4-2.6-0.5-2.7-0.7c-0.7,0-1.4-0.9-1.4-0.9l-0.2,0.1c0,0-0.9-0.4-1.1-0.5c-0.1-0.4-0.5-0.6-0.7-0.8
			c-0.6-0.3-1.5,0.7-1.8,1c-0.3,0.3-0.8,0.6-1.2,0.7c-0.5,0.1-0.5,0.4-0.3,0.6c-0.6,0.1-0.6,0.8-0.6,1s-0.2,0.5-0.3,0.6
			c-0.6,0-0.8,0.3-0.8,0.3l-1.2-0.1l-0.3-0.5l-0.4,0.6l-1.5,0.1l-0.6,0.5l-0.4-0.6c0,0-0.2,0-0.3,0c-0.4,0.8-0.1,1.2,0,1.6
			c0.4-0.2,0.5,0.2,0.5,0.2l0,0.4l0.5,0.5l-0.1,0.4l0.3,0.4l0,1.3l-0.4,0.3l0.1,0.5c0,0-0.4,0.1-0.7,0.2c-0.1-1.7-1.4-1.8-1.4-1.8
			l-0.5-0.8l-2.9-1.8l-2.4-0.4l-1.6,0.4c0,0-0.2,0.2-0.4,0.4c-0.4,0.1-1.3-0.3-1.3-0.3l-0.4,0.6l-0.3,0l-0.3-0.5l-0.4,0.2l-0.2,0.2
			l-0.7,0.4l-0.6-1.1c-0.4,1-0.8,2.3-0.8,2.3l0,0.4l-0.4,0.9l0.3,0.2l0.4-0.2l0.4,0.2l0.3,0.9l0.9,0.9c0,0,0.3,1.5-1.1,5.2l0.2,0.2
			l0.1,0.7c0,0,0.5,0.3,0.7,1.1c0.1,0.4,0.4,1-0.1,1.5c-0.3,0.3-0.5,1.5-0.7,2.3c-0.1,0-0.2,0-0.2,0s-0.7,1.8-0.8,2.1
			c-0.1,0.3-0.4,1.1-0.5,1.2c0.2,0,0.4,0.2,0.4,0.2l0.2,0.4c0,0,0.9,0.3,0.9,0.6c0.2-0.1,0.4-0.2,0.4-0.2l1.1,0c0,0,0.7,0.6,1,0.7
			c0.3,0.1,1.6,0.9,1.6,0.9s0.4,0.6,0.4,1s0.1,0.5,0.3,0.6c0.1,0.1,0.6,0.8,0.6,0.8l0.1,1.4l0.2,0.2l0.4,0l0.2,0.4l0.1-0.4l1.1,0
			l0.9-0.4l0.5,0.2c0,0,1.1-0.2,1.4-0.2c0.4,0,1.8,0,2.3-0.5c0.3,0.1,2,0.4,2,0.4l1.4-0.2l2,0.2c0,0,0.6-0.3,1.2-0.2
			c0.6,0.1,0.8,0.1,1.1,0.4s1.3,0.4,1.5,0.3c0.1-0.1,0.2-0.4,0.2-0.4s0.4,0.4,0.4,0.4s0.9,0,0.9,0l0.5,0.2c0,0,0.4-0.6,1.3,0.4
			c0.5,0.2,1.2,0.7,1.2,0.7l1.5,0.2l0.7,0.7l0.7,0.2l0.5,0.6l0.9,0l0.4,0.2l0.4-0.5l1.6,0l2.9,1.3l0.9-0.1l0.2-0.2h0.2l0.4-0.5
			l0.5-0.2l1.5,0.2c0.7-0.2,1.7-0.4,2.3,0.2c0.4,0,0.7,0,0.7,0l1.8,1.3l0.9,0.2l0.3,0.3l0.6,0.1l0.1-0.5l0.7-0.4
			c0,0,0.6-0.3-0.1-1.1c-0.1-0.1,0.1-0.4,0.3-0.5c0.3,0,0.4-0.5,0.3-0.8C251.2,395,251.4,395,251.4,394.7z"/>
		<path class="st5" d="M283.9,403.9c0,0-7.3-19.6-9.3-24.8l-3.7,0l0-1l-10.8-0.5v-2.2l-1.4,0l0.2-1.1l-4.4-0.2l0-1.1
			c0,0-1.7,0-2.4,0c-0.1,2.3-0.8,21.6-0.9,21.8c0,0.3-0.2,0.3-0.1,0.6c0.2,0.2,0,0.7-0.3,0.8c-0.3,0-0.4,0.3-0.3,0.5
			c0.7,0.8,0.1,1.1,0.1,1.1l-0.7,0.4l-0.1,0.5l-0.6-0.1l0.4,0.3h0.4l0.9,0.9l0.4,0l1.8,2l0.7,0c0,0,1.4,1.7,2.5,2.2
			c0.4,0.1,1.2,0.3,1.5,0.8c0.2,0.5,0.5,1.2,0.5,1.2l-0.2,0.4c0.2,0.6,1.1,3.2,1.4,3.6c0.4,0.3,0.7,0.5,0.7,0.5l0.5,0.2l2.5,2.2
			c0,0,1,0.1,1.6,0.4s1.4,0.4,2.4,0.5c0.3,0.2,0.6,0.8,1.6,1c0.3,0.1,0.4,0.2,0.4,0.2l0.2,0l1.5,0.8l0.2-1.4l6.4-4.4l5,0.3l0-3.6
			l1.4,0.2L283.9,403.9z"/>
		<path class="st5" d="M187.1,262.6l-1.5-1.1l0.7-0.3c0,0,0.4-0.8,0.6-1.3c-0.1-0.1-0.2-0.3-0.3-0.5c-0.4-0.7-0.4-1.4-0.4-1.4
			l-1-0.1l-0.6-1.1l-0.6,0.4l-0.2,0.4l-1.3,0l-0.2-0.4l-1-0.5l-0.9,0.7c0,0,0,0.4,0,0.8c-1,0.4-1-0.9-1-0.9l-0.1-0.2l0.1-0.4l-0.3-2
			c0,0-0.6-0.3-0.9-0.5c0-0.7-0.6-0.9-0.6-0.9s0.1-1.2,0.1-1.5c-0.3-0.5,1.3-0.8,1.3-0.8l0.8-0.8l-0.2-0.6l0.2-0.3l-0.5-0.7l0.2-0.4
			l-0.2-0.4l0.6-1.1l0-0.4l-0.9-0.4l-0.5,0.1l-0.4-0.1l0-0.6l-0.6-0.9c0,0,0.4-0.5,0.6-0.6c-0.1-0.7-0.9-1.4-0.9-1.4l-0.1-0.4
			l0.4-0.3l-15-1l-0.7,0.5l-1.1,0.3l-0.7,0.4l-1.2-0.6l-0.6,0.2l-0.9-0.5c-1.2,0.2-1.7,0.8-1.7,0.8l-1,0.2c0,0-0.6-0.1-0.9-0.3
			c-0.8-0.3-1.1-0.6-1.3-0.9l-0.3,0.1l0.3,0.4c0,0-0.2,0.1-0.4,0.2c-0.5-0.7-1.4-0.3-1.6,0c-0.1,0.3-0.5,0.6-0.6,0.6
			c-0.1,0.1-0.4,0.1-0.2,0.4s0,0.6-0.2,0.8c0.4,0.7,0.1,1.2-0.1,1.5c-0.6,0.8,0.4,2.2,0.4,2.2l0.8,1.6c0,0-0.1,0.2-0.4,0.4
			c0.7,0.1,0.6,0.5,0.6,0.5l0,0.2c0.4,0.4,0.8,1,0.8,1l0.6,0.2l1.1,1.8l0.5,0l0.5,0.7l0.4-0.3l0.2,1c0,0,0.2,0.1,0.4,0.2
			c0,1.5,1.3,1.6,1.3,1.6l0.2,0.8l0.7,0l0.7,0.7l1.3,0.4l0.3,0.6c0,0,0.3,0.1,0.6,0.1c0.4,0.6,1.9,0.7,1.9,0.7s0.4,0.4,0.7,0.7
			c0.5,0,0.6,0.4,0.4,0.6c0.6,0.5,2.3,1.3,2.3,1.3s0.8,1.2,1.1,1.6s0.5,0.6,0.3,0.8c-0.9,0.5-0.6,0.8-0.6,0.8s0.5-0.1,0.7-0.2
			c0.1,0.3,0.9,0.4,0.9,0.4l-0.2,0.7l1.2,0.6c0,0,0.2,0.6,0.4,0.9c-0.1,0.4,0.6,0.6,0.7,0.5c0.3-0.7,1.2,0.5,1.2,0.5l1,0.5l-0.2,0.9
			l0.3,0.3l0.7-0.1l0.1-0.8l0.7-0.3v-0.3c0,0,0.6-0.5,1-0.8c0.5-0.4,0.1-0.7,0.1-0.7l1-1.1l0.9,0.4l0.1-0.5l0.6-0.1l0.2,0.4l0.4,0.2
			l0.8,0.9l7.6,0.4c-0.2-0.2-0.4-0.3-0.4-0.4c-1.2-1.1,0.1-1.5,0.1-1.5l-0.6-1.5h0.4l0.7-0.3c0,0-0.1-0.6-0.1-0.9
			C187.3,263.2,187.1,262.6,187.1,262.6z"/>
		<path class="st5" d="M324,397.1l0.1-5.2h-0.4l0.2-12.9l-49.7-1.1c0.1,0.2,0.2,0.6,0.5,1.2c2,5.3,9.3,24.8,9.3,24.8l-0.1,2.7
			l-1.4-0.2l0,3.6l-5-0.3l-6.4,4.4l-0.2,1.4l0.1,0.1l0.7,0.1l0.5,0.2l2.2,0.4l1.4,1.1l0.4,0.5l0.7-0.4l0.2-0.3l1.8-0.5l2.5,0
			l0.4-0.4l2.5,0.2l0.9-0.2l0.5,0.2l0.5-0.2l0.6,0.2l0.4-0.2l0.1,0.4c0,0,2.2,1,2.6,2.6c0.2,0.1,0.4,0.4,0.4,0.4l1.9,3.8
			c0,0,1.7,3.9,0.8,3.6c0.2,0.3,0.4,0.5-0.2,1.1c0,0.1,0,0.2,0,0.2l-0.4,0.2l-0.2,0.3c0,0-0.4,0-0.3,0.7c-0.2,0-0.4,0-0.4,0l0.4,0.5
			c0,0,0,0.5,0.3,1c0.4,0,1.3,0,1.8,0.2c0.4,0.4,0.8,0.9,2.5,1.5c0.2,0.3,0.4,0.5,0.5,0.4s0.3-0.3,0.3-0.3l-0.2-0.2l0.2-0.2l0.1-0.3
			l0.1,0.4l0.2-0.1l0.2,0l-0.2-0.7l0.4-0.3l0.5-0.2l0.4,0.4c0,0,0.2,0.1,0.9-0.1c0-0.2,0.1-0.4,0.4-0.5s0.7-0.4,0.9-0.6
			c0.3,0,0.6,0,0.6,0l1.2,0.4l0.4,0.4c0,0,0.5,0.1,0.7,0.3l1.2-0.5l-0.4-0.8c0,0-0.2-0.1,1.1-2c0.2-0.1,0.3-0.2,0.3-0.2
			s0.2-2,1.5-2.3c0.8-0.5,2.3-1.8,2.3-1.8l0-2.2l7.8,0.2l-0.4-0.3v-0.7h-0.4v-0.4l0.8-1.4l0.7,0l0-0.9l1.3,0.2l0.4-0.2l0.3-1.7
			l1.9-5.3l1.5-6.1L324,397.1z"/>
		<path class="st5" d="M152.5,240.8c-0.1-0.1-0.1-0.2-0.1-0.2l-0.1-1.6l-0.3-0.3l-0.4,0l-0.2,0.4l0.4,0.4l0.1,0.4h-0.4l-0.5-0.5
			l-0.4,0c0,0-0.5-0.2-0.6-0.4c-0.1-0.1-0.4-0.3-0.6-0.4s-0.2-0.2-0.1-0.4c0.1-0.2,0.6-0.8,0.1-1c-0.2,0-0.7,0.1-1-0.4
			c-0.4-0.5-0.9-1.2-0.9-1.2s-0.2-0.4-1.1,0c-0.3-0.1-0.9-0.2-0.9-0.2l-0.3-0.5l-0.2-0.6l-0.4,0.1l-1.1,0l0-0.2l-0.2,0
			c0,0-0.1-0.4-0.5-0.7c0.1-0.2,0.2-0.4,0.2-0.4s0.2,0.1,0.3-0.2c-0.1-0.1-0.1-0.2-0.1-0.2l0-0.4l-0.7-0.2l0.2-0.2l-0.4-0.4
			l-0.2,0.3l0-0.3l0.1-0.3l0.5,0l0-0.2l-0.2-0.2l0-0.5l-0.2,0.1l-0.1-0.2l0.3-0.4c0,0,0.1-0.8-0.1-1.8c0,0,0,0,0,0l-4.3-0.2
			c0.1,0.5,0.2,1,0.2,1l0,1.6l-0.4,1.8l0.2,0.2l-0.4,0.4l0.2,0.2l-0.2,0.4l-0.4-0.2l-0.2,0.2c0,0,0.1,1.9,0,2.3
			c-0.1,0.4-0.4,1.4,0,1.5c0,0.1,0,0.5,0,0.5l0.4,0.2l0,0.4h0.2c0,0,0.1-0.4,0.9-0.1c0.3,0.1,0.4,0.2,0.4,0.2l0.5,1.3l0.2,2l0.9,2.7
			l0.2,0.2l0,0.7l0.4,0.4l-0.4,1.6c0,0-0.1,1.3-0.3,1.8c-0.1,0.5-0.5,1.8-0.4,2.3s0.3,1.8,0.3,2.2c0.1,0.1,0.2,0.2,0.2,0.2v0.4
			c0,0,1.6,0,1.4,1.8c0.1,0.1,0.5,0.2,0.5,0.2l0,0.3l0.1,0.2l0.2,0.9l0.1,0l0,0.4c0,0,0.8-0.5,1-0.3c0.1,0.1,0.3,0.3,0.5,0.5
			l0.2-0.3L144,256l-0.1-2l2.9,0.1l0.2-1.3l3.4,0.2l0.1-3.2l0-0.2c0,0,0.1-0.4-0.6-0.5c0.3-0.2,0.4-0.4,0.4-0.4l-0.8-1.6
			c0,0-0.9-1.4-0.4-2.2c0.3-0.3,0.6-0.8,0.1-1.5c0.2-0.2,0.4-0.5,0.2-0.8c-0.1-0.3,0.1-0.4,0.2-0.4s0.5-0.4,0.6-0.6
			c0.2-0.3,1.1-0.7,1.6,0c0.2-0.1,0.4-0.2,0.4-0.2l-0.3-0.4L152.5,240.8z"/>
		<path class="st5" d="M222.2,325.8c-0.4-0.1-0.4-0.3-0.6-0.7c-0.5-0.4,0.2-1.1,0.5-1.4c-0.2-0.2,0.1-0.5,0.1-0.5l-1.2-1.4
			c0,0-0.9-0.1-1.6-0.2h0c-0.7,0-0.8-0.4-0.8-0.8c0-0.5-0.2-1-0.6-1.1c-0.7-0.2-0.3-1-0.3-1l-1.5-0.2l-0.6-0.4l-0.5,0
			c0,0-0.1,0.2-0.4,0.5c-0.1-0.5-0.5-0.9-0.7-1.2c-0.8-0.3-1-0.6-1-1.1c-0.3-0.1-0.7-0.3-1-0.6c-0.5,0.2-1-0.2-0.9-0.6
			c-0.4-0.1-0.4-0.3-0.6-0.7c-2-0.8-2.1-1.4-1.9-1.9s-0.2-1-0.5-1c-0.7,0.8-1.6,0.1-1.8-0.1c0.4-1-0.5-1.7-0.5-1.7l0.1-1.6l0.6,0
			l0.3-0.4l0.7-1.1l-0.8-1.4c0,0-0.4-0.3-0.9-0.6s0.1-0.8,0.1-0.8l-0.3-0.4l-0.8-1.1l-0.4,0.2l-0.4-0.9l-0.9-0.6
			c0,0-0.2,0.1-0.4,0.2c0.7,0.4,0.9,1.1,0.9,1.7c1,1,0.9,3.1,0.9,3.4c0,0.3-0.2,0.5-0.6,0.6c-0.3-0.5-0.9-0.3-1.2-0.2
			s-0.6-0.4-0.7-0.7c-0.1-0.2-0.2-0.5-0.5-0.7c0-0.2-0.1-0.4-0.4-0.5c-0.3-0.1-0.7-0.2-0.7-0.6c0-0.4-0.1-0.5-0.3-0.5
			c-0.5,0-0.7-0.4-0.9-0.9c-0.1-0.6-1.2-1.1-1.2-1.1s-0.3,0.1-0.7,0.3c-0.4-0.8-1-1.1-1.2-1.1c0,0.5-0.5,0.8-0.8,1.2
			c-0.2,0.4-0.8,0.3-0.9,0.1s-0.3-0.5-0.7-0.6c-0.3-0.1-0.3,0.3-0.3,0.6c0,0.4-0.2,0.4-0.6,0.5c-0.4,0-0.7,0.2-1,0.4
			c-0.1-0.7-0.5-0.8-0.5-0.8l0.2-2.5l-5.9-6.4l0.1-0.4c0,0-0.5-0.6-0.8-0.7c-0.6-0.3-0.5-1.1-0.6-1.6c-0.1-0.5-0.5-0.5-0.9-0.3
			s-0.8,0.2-1,0.1c-0.2-0.3-0.7-0.1-0.9,0c-0.2,0.1-0.3,0-0.3-0.2c0-0.3,0.6-0.9,0.6-1.1c0-0.9-1.2-1.5-1.2-1.5l0-0.6l-0.2-0.4
			l0.5,0c0,0,0.1-1,0.1-1.3c0.2-0.3,0-0.5-0.2-0.7c-0.2-0.2-0.5-0.4-0.6-1c0-0.8-0.8-1-0.8-1l-0.6,0.2l-0.5-0.4c0,0-0.3,0-0.6,0
			c-0.5-1.5-1.4-0.9-1.4-0.9l-0.6-0.5c0,0-0.1,0-0.4,0.1c0-0.3-0.3-1-0.4-1.4s0.9-0.4,1.1-0.6c0.2-0.2-0.2-1-0.4-1.1
			c-0.2-0.1-0.4-0.2-0.3-0.5c0.1-1-1.1-0.2-1.1-0.2L171,273l-0.9-0.5c0,0-0.5-1.1-0.7-1.4c-0.1-0.2-0.1-0.4-0.1-0.7
			c0-0.2,0-0.5-0.1-0.9c-0.2-0.9-1.1-0.3-1.3,0.1c-0.7-0.8-1.4-0.3-1.4-0.3l-0.4-0.4c0,0-0.2,0.2-0.4,0.5c-0.8-0.5-1.4,1-1.4,1
			l-0.3,0l-0.2-0.2l-0.9,0.9l0.1,0.6l-0.3,0.3l0,0l0.1,1.3c0,0,0.4,0.5,0.4,0.6s0,0.5,0.2,0.6c-0.1,0.2-0.6,0.7-0.6,0.7l0,0.9
			l-0.2,0.4l0.2,0.2l-0.2,0.2l0.4,0.5l0,0.3l-0.5-0.6l-0.2,1.8c0,0-1.3,5.7-3.5,5c-0.3-0.6-0.5-0.9-0.5-0.9l-0.7-0.4l-0.2-0.4
			l-0.6,0l-0.2,0.9l-0.2,0l-0.2,0.3c0,0-0.5-0.1-0.7,1.2c-0.3-0.1-0.4-0.1-0.4-0.1l-0.2,0.2l0.2,0.2l0.2,0l0.2,0.6h0.2l0.2,0.2
			l0.2,0l0-0.2l0.7,0.4l0.2,0.5l-0.2,0.3l0.1,0.4l0,0.5l-0.6,0.2l-0.4-0.2l-0.2,0.2c0,0,0.7,0.4,0.5,1.3c-0.1,0-0.3,0.1-0.3,0.1
			l0.1,0.1c0,0,0.6,1.5,0.2,1.9c0.2,0.2,0.7,1.1,0.7,1.1l0,0.9l0.2,0.4l-0.2,0.4l0.3,0.4c0,0,0.1,0.4-0.2,0.7
			c0.1,0.1,0.2,0.2,0.2,0.2l-0.2,0.5l0.3,0.7l0.2,0.6l-0.2,0.1l-0.1,0.9l-0.4,0.4l0.6,0l0.4,0.4l0,0.2c0,0,0.2,0.4,0.5,0.5
			c0.3,0.1,0.7,0.6,1,1.5c0.1,0.1,0.1,0.3,0.1,0.3l0.9,0.9l0.7,0.2c0,0,2.6,1.5,3.3,2.5c0.2,0.3,0.2,0.5,0.6,0.7s0.4,0.4,0.6,0.6
			c0.1,0.2,2,2.5,2,3.8c0.2,0.4,0.5,0.9,0.5,0.9l0.6,0.2v0.7l0.7,1.3l0.4,0.4l0.4,0l1.6,0.7l0.4,0.6l0.5,1.3l0.1,1.1l0.4,1.1l0,0.9
			l0.3,0.9l-0.1,0.2l0.7,0.9l1.3,1.1l0.9,1.5l1.6,1.6l0,0.1l45.1,2.7l0.1,0C223.2,326.1,222.5,325.9,222.2,325.8z"/>
		<path class="st5" d="M243.3,176.3c0,0-0.1-0.8-0.1-1.2c0-1.1-0.8-1.2-0.8-1.2v-0.4l-3.6-3.4l0.2-3.3l-5.4-0.3l-0.4,1.1l-1.3,0.4
			h-2v0.4l-3.4-0.1l-4.2-0.7l-0.4,0.6l0,0.4l-0.4,0.7l0,0.4c0,0-0.8,1.2-1.1,1.4c-0.3,0.3-1.1,1.3-1.8,1.2c-0.3,0.2-1.3,0.7-1.3,0.7
			s-0.8,0.1-1-0.8c-0.1-0.2-0.2-0.3-0.7-0.3c-0.1-0.2-0.2-0.4-0.2-0.4l-0.9,0l-0.7-0.3l0-0.2l-0.7-0.4l-0.3-0.3l0.1-0.5l-0.2-0.6
			l-0.7,0.4c0,0-0.7-0.2-0.7-1c-0.2-0.2-0.5-0.5-0.5-0.5l-1.3-0.1l-1.1,0.6c0,0-0.3-0.4-0.7-0.1c-0.3,0.1-0.6,0.2-0.6,0.2l-0.1,0.8
			l-0.8-0.1l-0.2,0.4l0.2,0.4l-0.4,0.4l-1-0.4l-0.5,0.4l-0.7-0.6l-0.5-0.2l-0.3,1.4l-0.6-0.2l-0.4,0.3l-1.6,0.7l-1.2,0l-0.5,0.7
			l0.3,0.6l-0.6,0.3l0.2,0.5l-0.3,0.5l0.2,0.6l-0.8,0.2l-0.6,0.6l0.3,0.7l-0.9-0.1l0,1.1l-0.8,1.3l-0.5,1.5l-0.6,0.2l0.3,1.1v0
			l0.3,0.3l0.6-0.3l2.9,10.2v0.1l0.7-0.2l0.1-0.4l0.4,0.4l0.4-0.1l0.7-0.2l0.5,0.1l0.6-0.4l0.2,0.6l0.5,0l0.4,0l0.3-0.6l0.6,0.6h0.2
			l0.2-0.6c0,0,0.3,0,0.5,0c0.7-1.5,2.9-0.9,2.9-0.9l0.3,0.4l0.1-0.3l0.8,0.1l0.3,0.3l1.1,0.1l0.5,0.7l0.3-0.1l0.9,1l0.7,0l1.2,0.8
			l1.8-0.1l1.1-0.4l0.5,0.2l1.1,0l0.9-0.5l0.9,0l0.6-0.1l0.8-0.2l0.6,0.1l1.3-0.6l0.9-0.2l0.3,0.4l0.4-0.2l0.7,0.2l0.7-0.3l0.2-0.4
			l1.2-0.1l0.2-0.8l0.4-0.4h0.8l0.4-0.5l0.3-1.3l0-0.4l0.4,0c0,0,0.1,0.1,0.2,0.2c0.6-0.4,1.6-0.3,1.6-0.3s0.2-0.1,0.4-0.1
			c0.8,0.1,0.6-1.1,0.6-1.1l0.8-0.9l-0.4-0.4l0.6-0.9l0.3,0l0.8,0.4l0.2-0.2l4.2-3.3c0,0,0.4-0.2,0.9-0.4c0.4-0.2,0.4-0.8,0.2-1
			c0.5-0.4,0.9-1.3,0.9-1.3l0.5-0.1l0.1-1.2l0.6,0l0.7-0.4L243.3,176.3z"/>
		<path class="st5" d="M250.4,364l0.2-0.8l-2.9,0.2l0.4-4.5l-4.5-0.1l0.2-4.2l-5.8-0.3l0-4.5l-2.6,0l0-4.3l-4.7-0.2l0.2-1.4
			l-0.8-0.2l0.2-0.7l-0.7,0l0-0.8l-0.8,0v-0.7l-0.7,0l0-0.7l-0.7,0l0.2-4.3l-4.3-0.3l0.5-8.4l-0.9-0.2l-0.1,0l-45.1-2.7l0.1,0.3
			l0.6,0.5l0.1,0.6l-0.2,0.4l0.4,0l0.1,0.4l-0.2,0.3l0,1.5l0.9,1.3l0.2,1.3h0.5l0.4,0.2l0.2,0l0.4,0.4l0.7,0.2l0.4,0l0.6,0.6l0.2,0
			l0.3,0.4l0-0.4c0,0,0.2-0.2,1,0.5c0.4,0.3,0.8,0.8,0.8,0.8l0.2,0.5c0,0,0.6,0.6,0.7,1.3c0.2,0.2,0.4,0.4,0.4,0.4l0.3,1.3
			c0,0,1.2,1.6,1.4,1.8c0.2,0.2,0.6,0.6,0.7,0.9c0.1,0.2,0.5,0.6,0.7,0.8s0.3,0.4,0.4,0.6c0.1,0.2,0.3,0.5,0.3,0.5l0.6,0.2l0.2-0.2
			l0.5,0.2l0.2,0l0.6,0.4l0.3,0.4l1.3,0l0.9,0.4c0,0,0.1,0.5,0.4,0.9c0.2,0.3,0.5,0.9,0.5,0.9l0.2,1.2l-0.2,0.5l0.2,0.7l-0.6,2.6
			l-0.8,0.9l0,0.4h-0.2l0,0.7l-0.2,0.2c0,0,0,0.9,1,1.8c0.2,0.3,0.6,0.8,0.6,0.8l0.9,0.7l0.2,0l0.7,0.5l0.9,0.4l0.5,0.7l0.5,0.2
			l0.2,0l0-0.7l0.2-0.2c0,0,0.6,0.1,1,0.4c0.4,0,1.3,0,1.6,0.9c0.4,0.1,1,0,1.2,0.6c0.2,0.6,0.7,3.7,0.7,3.7s-0.5,2.8-0.5,3.2
			c-0.1,0.2-0.2,0.7-0.5,1.3l0.6,1.1l0.7-0.4l0.2-0.2l0.4-0.2l0.3,0.5l0.3,0l0.4-0.6c0,0,0.9,0.4,1.3,0.3c0.2-0.2,0.4-0.4,0.4-0.4
			l1.6-0.4l2.4,0.4l2.9,1.8l0.5,0.8c0,0,1.2,0,1.4,1.8c0.3-0.1,0.7-0.2,0.7-0.2l-0.1-0.5l0.4-0.3l0-1.3l-0.3-0.4l0.1-0.4l-0.5-0.5
			l0-0.4c0,0,0-0.4-0.5-0.2c-0.1-0.4-0.4-0.7,0-1.6c0.1,0,0.3,0,0.3,0l0.4,0.6l0.6-0.5l1.5-0.1l0.4-0.6l0.3,0.5l1.2,0.1
			c0,0,0.2-0.3,0.8-0.3c0.1,0,0.4-0.3,0.3-0.6s0-1,0.6-1c-0.1-0.2-0.1-0.5,0.3-0.6c0.5-0.1,0.9-0.4,1.2-0.7c0.3-0.3,1.2-1.3,1.8-1
			c0.2,0.1,0.6,0.4,0.7,0.8c0.2,0.1,1.1,0.5,1.1,0.5l0.2-0.1c0,0,0.7,1,1.4,0.9c0.1,0.2,0.8,1.1,2.7,0.7c0.5,0.4,0.8,0.9,0.8,0.9
			l0,0.4c0,0,0.5,0,0.9-0.2c0.3-0.2,0.8,0.3,1.5,0.5c0.1,0.2,0.3,0.7,0.3,0.9c0.4,0.3,1.1,0.8,1.1,0.8s0.7,0.1,0.7,0.6
			c0.1,0.1,0.3,0.2,0.3,0.2l0.4-0.2l0.9,0.6l0.3,0.4l1-0.2l0.1,0.4l0.9-0.4l0.5,0.4l0.5-0.2c0,0,0.8,0.3,1.1,1.1
			c0.1,0,0.4-0.1,0.5,0.1c0.2,0.2,0.2,0.1,0.4,0.1c0.2,0,0.3,0,0.5,0.2c0.2,0.2,0.5,0.5,0.5,0.5l0.5,0.7l1.9,1.3l1.8,0.1l0-0.2
			c0,0,0.2,0,0.7,0l0.3-8.7L250.4,364z"/>
		<path class="st5" d="M467.1,404.4l-1.1-1.8c0,0-1.3-0.5-2-0.8c-1.1-1.6-1.9-1.9-2.3-1.9c-0.4,0-0.7-1-0.7-1l-1.7-1.2l-1.9,0
			c0,0,0.2-0.8,0.4-1.2c-0.1-4.8-2.6-5.7-2.6-5.7l0.5-0.7l-0.7-0.9l-0.3-1.3l-0.6-0.4l0.3-0.4l-0.6-2.2c0,0-0.4,0-0.8,0.1
			c0-0.5-0.6-1.1-1.3-1.5c-0.7-0.4-2.3-1.8-2.3-2.9s-1.3-2.8-1.8-3c-0.8-0.2-0.8-1-0.7-1.4s0.3-0.6,0.1-1s-0.3-0.6-0.1-1
			c0.2-0.5,0.1-0.6-0.1-1s-0.2-1.5,0-2.1c0.1-0.3,0.1-0.5,0.1-0.7l-40.7-39.2l-3.9,0l-0.1,0.8l-75.9-1.3l0,4.5l-0.8,0l0,1.4l1.5,0
			l0,1.4l-0.7,0l-0.3,4.4l0.2,0l0,5.5h-0.2l0.2,1.5l-0.7,29.6l-1.5,0l-0.2,12.9h0.4l-0.1,5.2l0.4,7.9l-1.5,6.1l-1.9,5.3l-0.3,1.7
			l-0.4,0.2l-1.3-0.2l0,0.9l-0.7,0l-0.8,1.4v0.4h0.4v0.7l0.4,0.3l4.5,3.7l0.1-0.4l-0.3-0.4l1.1,0l0-1.7l1.8,0l0-2.3l2.2-0.7l0-2.4
			l7.5,0.3l-0.3,0.9l6.4,0.1l0,0.6l12.1,0.1l0-1.5l66,0.5l0-2.2l36-0.5c0.2-0.8,0.6-1.5,1.4-1.4c1,0.1,1.6-0.4,1.8-1.1
			c1.2,0.1,2.2-1.1,2.8-1.8c2,0.5,2.8-1.9,2.8-1.9l1.4-1.2l0.5-1.5l0.9-0.1l0.3-0.4L467.1,404.4z"/>
		<path class="st5" d="M419.4,416.5l0,2.2l-66-0.5l0,1.5l-12.1-0.1l0-0.6l-6.4-0.1l0.3-0.9l-7.5-0.3l0,2.4l-2.2,0.7l0,2.3l-1.8,0
			l0,1.7l-1.1,0l0.3,0.4l-0.1,0.4l-0.2,0.7l0.7,0l3.1,4.5l1.9,0.6l0.2,2.4l2.3,0.4l2.4,2.1l-4,6l0,1.4l6,0.1l-0.2,0.7l5.1,2.2l0,0.8
			l8.6,0.2l0,0.3l34.5,0.1l4.7,0.3h0l51.6-0.3l0-0.4l8.3-0.1l1.7-3.4c0,0,0.5-0.3,0.9-0.5c-0.1-0.4,0.1-0.8,0.8-1.1
			c0.7-0.4,0.6-1.2,0.2-1.7c-0.5-0.4,0.1-1.3,0.4-1.8c0.3-0.5-0.1-0.8,0.1-1.1c0.1-0.3-0.3-0.8,0-0.9s0.4-0.6,0.1-0.9
			c-0.4-0.2,0.1-1.1,0.5-1.3c1.1-0.3,0.3-2.1,0.3-2.1s0.1-0.2,0.2-0.8c-1-2.8-1.2-4.4-1.3-5.1c2-0.4,0.2-2.3,0.2-2.3l0.5,0
			c0,0-0.2-0.2-0.7-0.7s-0.1-1.2,0.2-1.9c0.9,0.4,2.1-1.9,2.1-1.9s0-0.4,0-0.8c1.2,0.1,1.2-1.6,1.3-2.7c0-0.3,0.1-0.6,0.2-0.9
			L419.4,416.5z"/>
		<path class="st7" d="M454.9,475c0,0-0.1-0.2-0.2-0.4c0.6-0.5,0.1-1-0.3-1.3s-0.3-0.8,0-1.2c0.8-1.1-0.4-2-1-2.3
			c0-0.9-0.8-1.7-0.8-1.7s-1.2-0.3-1.6-0.4c-0.4-0.1-0.5-0.1-1,0.2c-0.5,0.3-1.2,0.5-1.5,0c-0.3-0.5-1.2-0.9-1.2-0.9l-0.4,0.8
			c0,0-0.5-0.4-0.8-0.6c0.1-1.2-0.8-2-0.8-2s-0.4-0.2-0.5-0.3c0.1-1.1,0.5-1.9,1-2.7s0.3-3.7,0.3-3.7s-0.1-0.4-0.2-0.9
			c0.5-0.3,0.5-1,0.5-1l-0.5-1l-0.4-1.5l-0.5-0.7l0-1.3c0,0,0-0.4-0.4-1.4c-0.3-1,0-1.2,0.4-1.5c0.8,0.3,2.2,0,2.2,0l0.5-1.1
			l-8.3,0.1l0,0.4l-51.6,0.3h0v16.9l-1,0l0,17.2l-0.2,0l-0.1,5.6l57.9-4.9l0.3-0.9l0.7-0.2c0,0,3.6,0.4,5.2,0.6s2-1.8,1.9-2
			c-1.3-1.7,1-3.4,1.7-3.4c0.7,0,1-0.7,1-0.7L454.9,475z"/>
		<path class="st5" d="M330.6,434.3l-2.3-0.4l-0.2-2.4l-1.9-0.6l-3.1-4.5l-0.7,0l0.2-0.7l-4.5-3.7l-7.8-0.2l0,2.2
			c0,0-1.6,1.4-2.3,1.8c-1.3,0.3-1.5,2.3-1.5,2.3s-0.1,0.1-0.3,0.2c-1.3,1.9-1.1,2-1.1,2l0.4,0.8l-1.2,0.5c0,0,0,0,0.1,0.1
			c0.3,0.1,0.8,0.3,0.9,0.8c0.3,0.2,1.3,0.9,1.3,0.9s2.4,3.2,3.3,3.7c1,0.5,1.9,1.2,2,1.6c0.3,0.1,2.1,0.8,2.1,0.8l0.5,0.5l0.7,0.4
			l1.2,1.3l0.2,0l1.1,0.5c0,0,0.7,0.8,0.9,1.3c0.3,0.1,0.3,0.2,0.3,0.2l-0.1,0.2l0.4,0.4l0.3,0l0.2,0.5l0.4,0.2l0.4,1.2l0.7-0.2
			l0.7,0l1.1,0.7l1.2,1.3l1.2,1.9l0.8-3.3c0.5,0,1,0,1,0l1.9-0.9l0-1.7l0-1.4l4-6L330.6,434.3z"/>
		<path class="st5" d="M387.8,465.6v-16.9l-4.7-0.3l-34.5-0.1l0-0.3l-8.6-0.2l0-0.8l-5.1-2.2l0.2-0.7l-6-0.1l0,1.7l-1.9,0.9
			c0,0-0.5,0-1,0l-0.8,3.3l0.1,0.1l0.7,0.1l0.5,0.6l0.5,0.2c0,0,2.1,1.6,3.6,4.2c1.3,2.1,4.2,5.7,4.4,6.5c0.2,0.5,0.4,0.8,0.6,1.1
			c0.2,0.3,0.4,0.7,0.4,1.1c0.1,0.4,0.3,1.5,0.5,1.9c0.2,0.4,0.4,0.9,0.4,1.3c0,0.4,0.3,0.8,0.5,1c0.2,0.3,0.3,0.5,0.3,0.9
			c0.1,0.4,0.8,3.7,0.8,3.7l0,0.9c0,0,0.9,1,0,3c-0.4,0-0.6,0-0.6,0l-0.4,0.2l0,1.2l0.9,1.1l0.4,1.8l0,0.2l0.2,0.1l-0.3,0.3l0,0.7
			l-0.2,0.2c0,0,0.4,2,0.3,2.5c0.1,0.2,0.2,0.4,0.2,0.8c0.1,0.1,0.2,0.2,0.2,0.2h0.2l0-0.2l0.6-0.7l0.9-0.4l0.9,0.4l0,0.3l1.1,1.3
			l1,2.9l-0.2,1.3l0.4,1.6l42.3-3.6l0.1-5.6l0.2,0l0-17.2L387.8,465.6z"/>
		<path class="st5" d="M171,268.6c0,0-0.9-1.2-1.2-0.5c-0.1,0.1-0.8,0-0.7-0.5c-0.1-0.3-0.4-0.9-0.4-0.9l-1.2-0.6l0.2-0.7
			c0,0-0.8-0.1-0.9-0.4c-0.2,0.1-0.7,0.2-0.7,0.2s-0.4-0.3,0.6-0.8c0.3-0.2,0-0.4-0.3-0.8c-0.2-0.4-1.1-1.6-1.1-1.6
			s-1.7-0.8-2.3-1.3c0.1-0.2,0.1-0.6-0.4-0.6c-0.3-0.4-0.7-0.7-0.7-0.7s-1.5-0.1-1.9-0.7c-0.3,0-0.6-0.1-0.6-0.1l-0.3-0.6l-1.3-0.4
			l-0.7-0.7l-0.7,0l-0.2-0.8c0,0-1.3-0.1-1.3-1.6c-0.2-0.1-0.4-0.2-0.4-0.2l-0.2-1l-0.4,0.3l-0.5-0.7l-0.5,0l-1.1-1.8l-0.6-0.2
			c0,0-0.4-0.6-0.8-1l-0.1,3.2l-3.4-0.2l-0.2,1.3l-2.9-0.1l0.1,2l0.7,1.7l-0.2,0.3c0.3,0.3,0.5,0.5,0.5,0.5l1.9,3.6l0.4,0.2l1.8,1.8
			l0.4,0.2l0,0.5l0.5-0.2l0.6,0.7l0.2,0l0.9,0.5c0,0,0.6-0.1,1.1,0.4c0.5,0,1.8,0,1.8,0s0.1-0.5,0.6-0.7c0.1,0.1,0.2,0.2,0.2,0.2
			l0.4,0l0.2,0.2l0.6,0.2l0.2,0.2l0.2-0.2l0.4-0.2l0.2-0.4l0.9-0.4c0,0,1.2,0,2.6,2.1c0.6,1.1,1.5,3.1,1.5,3.1l0.2,0.8l0.3,0.5
			l0.3-0.3l-0.1-0.6l0.9-0.9l0.2,0.2l0.3,0c0,0,0.6-1.5,1.4-1c0.2-0.2,0.4-0.5,0.4-0.5l0.4,0.4c0,0,0.6-0.5,1.4,0.3
			c0.2-0.4,1.1-0.9,1.3-0.1c0.1,0.4,0.1,0.7,0.1,0.9c0.4-0.5,0.6-1.1,0.6-1.1l0.4,0.2l0.5,0.5l0.7-0.1l0.2,0.2l0.2-0.9L171,268.6z"
			/>
		<path class="st5" d="M242.5,22.2c0,0-0.2-0.1-0.5-0.3c-3.4,0.4-3.9,0.1-3.9,0.1l-23.1-1.4l-0.3,0.3c0,0-0.6,0-1.4-0.3
			c-1.6,0.2-12.9-0.8-12.9-0.8l-0.9,0.3l-0.5-0.4c0,0-2.9-0.2-6.6-0.5l-0.2,2.8l-0.4,0l-0.6,8.5l0.5,0.1l-1.9,29
			c1.4,0.1,2.9,0.2,4.3,0.3c20.2,1.2,41.5,2.4,49.7,2.5l1.9-40C243.7,22,242.5,22.2,242.5,22.2z"/>
		<path class="st5" d="M117.7,13.8c-1.8-0.2-4.4-0.2-5.6-0.4c-2.1,0.5-10.2-0.8-10.7-1C99.1,12.6,91,11.8,91,11.8
			c0,2.1-0.3,8.6-2.7,10.6c0.8,0.7,1.3,1.1,1.3,1.1l0.1,0.2l0.5,0.2l0.2,0l0.4,0.4l0.3,0l0.6,0.6l0.6,1.2L92.2,27
			c0,0,0.2,1.5,0.1,1.9c0.2,0,0.4,0,0.4,0l0.4,2l0.3,0.5l0,2.1c0,0,0.1,0.5,1.1,1c0.5,0.4,0.9,0.9,0.9,0.9L94,34.9l-0.4,0.2
			l-0.1,0.3l0.4,0l-0.3,0.8l0.3,1l0.1,1.3l10.7,1.1l-0.3,4l4,0.3c0.1-0.3,0.2-0.7,0.2-0.8c0.7-0.1,0.7-0.8,0.7-0.8s-0.2-0.2-0.5-0.3
			c0.4-0.4,1.1-0.5,1.1-0.5s0.5-1,0.7-1.5c-1.1-0.5-1-2-0.9-2.3c-0.3-0.3-0.1-0.7,0-0.8c-0.2-1.2-1.1-1.1-1.4-1
			c-0.7-1,0.2-1.5,0.2-1.5l-0.5-0.8l0.1-0.7l-0.9,0.4c0,0-0.1-0.2-0.1-0.2c0-0.8,1.3-1.9,1.3-1.9s0.2,0,0.4,0
			c-0.3-0.6-0.2-1.8-0.2-1.8s0.8-0.9,1.1-1.2c-0.4-0.6,0-0.7,0.2-0.8c0.1-0.4-0.1-0.9-0.4-1.1c0-1.7-0.4-2.4-0.4-2.4l0.5-0.1
			c0,0,0.1-0.4,0.2-0.6c-0.3,0-0.6-0.4-0.6-0.7c0-0.3-0.4-0.6-0.4-0.8c0.1-0.1,0.9-0.4,1.3-0.3c-0.1-0.9,0.9-1.1,0.9-1.1
			s-0.1-0.3-0.2-0.4c0.4-1.6,1.4-0.8,1.4-0.8l0.3,0.4l0.7-1.5c0,0,0.7,0.3,1.1,0.5c0.4-0.2,0.8-1.1,0.8-1.9c0.8-1.1,0.2-2.1,0.2-2.1
			l0.4-0.4L117.7,13.8z"/>
		<path class="st5" d="M244,62.4c-8.1-0.1-29.5-1.3-49.7-2.5l-0.9,13.8l0.5,0l-1.3,19.9l-0.2,0.1l-0.2,2.6l10.1,0.4l-0.6,9.3
			l0.6,0.1l0,1.1l1.4,0.2l0.1,0.6l2.1,0.2l0,0.7l0.7,0.1l-0.2,0.8l1.4,0l0-0.4l0.8,0.2l0.3-2.1c0,0,1.1-0.2,1.5-1.3
			c0.5,0,0.5-0.4,1.4-0.3c0.1-0.4,0.1-1.3,0.1-1.3l0.8,0.2c0,0,0.2-0.6,0.8-0.7s1.3-0.2,1.3,0.3c0.6,0,2.5,0.3,2.5,0.3
			s0,1.1,2.9,1.3c0,0.5,0,1.1,0,1.1s1.9,0,3,2.1c0.3,0.1,0.2,0.8,0.6,0.8c0.4,0,0.9,0,0.9,0.5c0,0.5,0.2,0.6,0.2,0.9
			s1.3,0.4,1.4,1.5c0.1,0.5,1.9,1.8,3,1.8c1,0.1,2.2,0,2.2,0l0.1,0.5l0.6,0l0,1l1.4,0.2l-0.1,1.9l0.4,0.1l-0.1,1.4l0.7,0.1
			c0,0,0.2,1.9,0.9,2.3s0.9,1.5,1.8,1.5c0,0.4-0.2,1.4-0.2,1.4l0.3,0.1v1.4l-0.4,0l-0.2,4.9c0,0-0.4,2.3-1.4,2.1
			c0,0.2-0.2,1-0.2,1.4l5,0.2l0-0.7l0.6,0L244,62.4z"/>
		<path class="st5" d="M192.2,22.1l0.2-2.8c-6.2-0.4-14.5-1-15.3-1c-1.2,0-1.4,0-3.8-0.5c-2.4-0.2-33-2.4-34.9-2.6
			c-4-0.1-5-0.3-6.6-0.5c-1.6-0.2-6.1-0.2-7-0.2c-1,0-4.7-0.3-6.6-0.5c-0.2,0-0.3,0-0.5-0.1l-2,0.7l-0.4,0.4c0,0,0.6,1-0.2,2.1
			c-0.1,0.8-0.4,1.6-0.8,1.9c-0.5-0.2-1.1-0.5-1.1-0.5l-0.7,1.5l-0.3-0.4c0,0-1-0.9-1.4,0.8c0.1,0.2,0.2,0.4,0.2,0.4
			s-0.9,0.2-0.9,1.1c-0.4-0.1-1.2,0.2-1.3,0.3c0.1,0.3,0.4,0.5,0.4,0.8c0,0.3,0.3,0.7,0.6,0.7c-0.1,0.2-0.2,0.6-0.2,0.6l-0.5,0.1
			c0,0,0.4,0.7,0.4,2.4c0.3,0.2,0.5,0.7,0.4,1.1c-0.1,0-0.6,0.2-0.2,0.8c-0.2,0.3-1.1,1.2-1.1,1.2s-0.1,1.2,0.2,1.8
			c-0.2,0-0.4,0-0.4,0s-1.3,1.1-1.3,1.9c0.1,0,0.1,0.2,0.1,0.2l0.9-0.4l-0.1,0.7l0.5,0.8c0,0-0.9,0.5-0.2,1.5c0.3-0.1,1.3-0.2,1.4,1
			c-0.2,0.1-0.4,0.5,0,0.8c-0.1,0.3-0.2,1.8,0.9,2.3c-0.2,0.5-0.7,1.5-0.7,1.5s-0.7,0.1-1.1,0.5c0.3,0.1,0.5,0.3,0.5,0.3
			s0,0.7-0.7,0.8c0,0.1-0.1,0.5-0.2,0.8l5.9,0.4c0,0,0.3,0.2,0.5,0.5s0.4,0.4,0.2,0.7c-0.2,0.2-0.1,0.4,0,0.5c0,0.1,0.2,0.5,0.1,1
			c0.2,0.2,0.5,0.5,0.5,0.5l0,0.6c0,0,0.5,0.5-0.2,1c0,0.1,0.2,0.5,0.8,0.7c0,0.3-0.1,1.1-0.1,1.1l-0.5,0.8c0,0,1.3,0.4,0.6,0.8
			c0.3,0.3,0.7,1.1,0.7,1.1l0.2,1.3c0.1,0,0.2-0.1,0.3-0.2c0.1,0.1,0.2,0.2,0.2,0.2l0.1,0.5l0.4,0.1l0.1,0.6l0.7-0.8
			c0,0,1.3,0.3,1.5,1.5c0.2-0.4,1.2-0.7,1.3,0.8c0.2,0,0.4-0.1,0.4,0.4c0,0.4,0.7,0.8,0.8,2c0.5-0.1,1.2-0.1,1.6,0.4
			c0.3-0.3,0.4-0.3,0.4-0.3l1.1,0.1l0.2,0.2c0,0,0.7-0.4,1,0c0.2-0.1,0.7,0,0.7,0s0.2,0.9,0.9,1c0.7,0.1,1.4,0.8,1.3,1.3
			c-0.1,0.5,0.4,1.5,0.4,1.5l0.9-0.2l0.4-0.2l1.5,0c0,0,0.4,0.2,0.4,0.6c0,0.4,0.3,0.7,1.1,0.3c0.2-0.1,0.3-0.4,0.3-0.4l0.5-0.3
			l0-0.5l0.2-0.2c0,0-0.9-1.7-0.8-2.1c-0.4,0.1-2.1-0.4-1.4-1.6c-0.1-0.2-0.4-0.4,0.4-1c-0.1-0.3-0.1-0.8-0.1-0.8l0.4-0.5l-0.1-0.6
			l0.2-0.3l-0.4-0.6l0.6-0.4l0.5,0.7l0.2-0.1l0.2-0.5c0,0,0.4,0,0.6-0.2c0.2-0.3,1.5-0.9,2.4-0.1c0.2-0.3,1.1-1.1,1.3,0
			c0.1,0,0.3,0,0.3,0l0.2-0.6c0,0,0.6,0.4,0.7-0.8c0.3-0.1,0.7-0.1,0.8-0.5c0.4,0.1,1.1,0,1.3-0.5c0.1-0.4,0.6-1.1,0.9-1.1
			c0.4,0,0.9-0.1,1.6-0.8c0.2,0.1,0.4,0.3,0.4,0.3l0-0.7l0.4-0.1l0-1c0,0,0.5-0.6,1-0.2c0.2,0.1,0.5-0.1,0.9,0.3
			c0.3,0,0.2-0.1,0.2-0.3c0.3-0.1,0.3-0.3,0.3-0.3s-0.3-1.1,0.2-1.2c0.5-0.2,1.5,0.4,1.4,1c0.2,0.1,1.4,0.2,1.4,0.2l0.1,0.5l0.6,0.8
			l-0.9,0.5l0.2,0.8c0,0-1.1,0-0.5,1c-0.3,0.4-0.3,0.7,0,1.2c-0.3,0.1-0.5,0.3-0.2,0.8c-0.2,0.4-0.7,1,0.5,1.8
			c-0.1,0.2-0.1,0.3-0.1,0.4c2.9,0.2,20,1.3,38.9,2.5l1.9-29l-0.5-0.1l0.6-8.5L192.2,22.1z"/>
		<path class="st5" d="M215,153.2l-0.6,0.5l-0.4-0.3l-1.3,0.5c0,0-0.1,0.3-0.2,0.5c-0.9-0.1-1.5,0.7-2,1.3c-2.5,1.5-2.8,2.2-3.2,2.2
			c-0.6,0-0.7,0.3-0.7,0.6c0,0.4-0.2,0.9-0.4,1c-2.1,0.4-3.4,2-3.9,2.4c-0.4,0.4-0.5,0.8-0.9,0.8c0.1,0.3-0.3,1.5-0.6,2.1
			c-0.4,0.6-0.9,1.2-1.2,1.7c-0.7,1.2-1.7,1.1-2,0.7s-1-0.3-1-0.3l-1-1.3l-0.6,0.6l-0.9,0.3l-0.4,0.5c0,0-0.2-0.3-0.4-0.5
			c-0.6,0.7-0.9,0.2-1-0.1s-0.9-0.4-0.9-0.4l-0.3,0c0,0-0.4-0.2-0.8-0.4c0,0,0,0,0,0c-0.4-0.2-0.5-0.6-0.8-0.8
			c-0.3-0.2-1.7,0.6-2.2,0.8c-0.7-0.1-0.9,0.6-0.9,0.6s-0.8,0.3-1.2,0.6c-0.1,0-0.1,0.1-0.2,0.1l-0.2,3.7h-2.1l-0.5,8.5l-0.6-0.1
			l-0.1,0.9c3.5,0.4,8.4,1.1,13.3,1.9l-0.3-1.1l0.6-0.2l0.5-1.5l0.8-1.3l0-1.1l0.9,0.1l-0.3-0.7l0.6-0.6l0.8-0.2l-0.2-0.6l0.3-0.5
			l-0.2-0.5l0.6-0.3l-0.3-0.6l0.5-0.7l1.2,0l1.6-0.7l0.4-0.3l0.6,0.2l0.3-1.4l0.5,0.2l0.7,0.6l0.5-0.4l1,0.4l0.4-0.4l-0.2-0.4
			l0.2-0.4l0.8,0.1l0.1-0.8c0,0,0.3-0.1,0.6-0.2c0.4-0.3,0.7,0.1,0.7,0.1l1.1-0.6l1.3,0.1c0,0,0.4,0.3,0.5,0.5c0,0.8,0.7,1,0.7,1
			l0.7-0.4l0.2,0.6l-0.1,0.5l0.3,0.3l0.7,0.4l0,0.2l0.7,0.3l0.9,0c0,0,0.1,0.3,0.2,0.4c0.4,0,0.6,0.1,0.7,0.3c0.3,0.9,1,0.8,1,0.8
			s1-0.6,1.3-0.7c0.7,0.1,1.5-0.9,1.8-1.2c0.3-0.2,1.1-1.4,1.1-1.4l0-0.4l0.4-0.7l0-0.4l0.4-0.6l4.2,0.7l3.4,0.1V168h2l1.3-0.4
			l0.4-1.1l5.4,0.3l0.6-12.3L215,153.2z"/>
		<path class="st5" d="M177.4,240.5l-0.4-0.1v-0.7c0,0-0.1-0.2-0.2-0.3c-1.4,0.2-1.8-0.8-1.8-0.8l-0.3,0l0.7-13.4l0.3-0.4l-3.2,1
			c0,0-12.1,2.9-13,3.1c-0.5-0.8-1.6-1.1-1.6-1.1l-0.4-0.6l0-0.4l0.5-0.2l-0.5-0.9l-1.2-0.9l-3.7-0.6l-0.4-0.8l-0.6,0.6l-0.7-0.6
			l0.2-0.8c0,0-0.1-0.1-0.3-0.1c-0.4-0.7-1.2-1.2-1.2-1.2l0.4-0.2l-0.1-0.2l-0.1-0.4l-0.9-0.5l-0.5-0.7l-0.4-0.2l-0.6,0.4l-1.1-0.1
			c0.1,0.1,0.2,0.2,0.2,0.4c-0.2,0.1-0.3,0.2-0.3,0.2l0.1,0.4c0,0,0.6,2.1,0.5,2.3c-0.3,0-1.5,0.1-1.5,0.1l-0.2,0.2l0.2,0.2
			c0,0,0.6,0.2,0.9-0.1c0.1,0,0.2,0.2,0.2,0.2l-0.4,0.1l-0.4,0.3l-0.4-0.1l0,0.2l0.3,0.2l-0.3,0.2l0.8,0.3c0,0,1.3-0.2,1.8,0.4
			c0,0.1,0,0.2,0,0.2l0.4,0c0,0,0.7,0.4,1.1,1.2c0.1,0,0.1,0,0.1,0v0.4l0.2,0c0,0,0.2,0.5,0.4,0.5c-0.1,0.1-0.2,0.2-0.2,0.2
			l-0.2-0.2c0,0-0.9,0-0.9-0.6c0.3-0.1,0.6-0.2,0.2-0.6s-1.8-1.3-1.8-1.3l-1.2-0.1l-1.1-0.4l0.2,0.6h0.1c0,0,0,0.3,0.5,0.6
			c0.1-0.1,0.2-0.2,0.2-0.2l0.4,0l-0.2,0.4l0.1,0l0.2,0.2h0.4l0.2,0.2c0,0,0.8,0,1,0.4c0.2,0.3,0.6,0.8,0.4,1.1c-0.3,0-0.5,0-0.5,0
			l0.3,0.5l-0.4,0.4l0.5,0.4l0.6,0.7l0.3-0.2l0-0.4l0.5-0.2c0,0,0.2,0.4,0.4,0.5c0,0.2,0,0.9,0.9,1.7c0.2,0.2,0.3,0.8,0.3,1
			c-0.1,0.1-0.2,0.2-0.2,0.2l0.2,0.4l0,2.7c0,0,0.2,0.2,0.3,0.4c0.1,0.2,0.2,0.8,0.5,0.9c0,0.1,0,0.2,0,0.2l0.3,0.8l0.1,1.2l0.1,1
			l0.7,0l1.2,0.2l0.3,1.2l-0.1,0.6l0.4-0.1l1.7-0.2l0.1,0.1l0.9,0.5l0.6-0.2l1.2,0.6l0.7-0.4l1.1-0.3l0.7-0.5l15,1l0.1,0l0.4-0.3
			L177.4,240.5z"/>
		<path class="st5" d="M220.8,147l-0.2-0.4c0,0-0.5,0.1-0.9-0.6c0-0.2,0.1-1.1-0.5-1.4c0.1-0.4-0.3-1.8-2.8-1.4
			c-0.2-0.1-0.4-0.2-0.9-0.2c-0.2-0.1-0.3-0.2-0.3-0.2l-0.9,0.5l0,0.3l-0.9,0.3l-0.3,0.6c0,0-1.2,1.8-4.4,2.5
			c-0.3,0-0.7-0.2-0.7-0.2l-4.6,1c0,0-1.2-0.3-1.9,0.4c-0.2,0.2-0.4,0.3-0.6,0.4c-0.4,0.2-0.7,0.4-0.7,0.4l-0.8-0.6l-0.2,0.4
			l-0.7-0.4c0,0-0.2,0.9-1.8,0.8c-0.2,0.6-0.7,1.4-1.2,1.8c-0.3,0-1.1,0-1.1,0l-0.1,0.4l-0.4,0l-1.1,2.3l-0.7-0.2l-1,0.5l0.2,0.7
			l-0.4,0.2l0,0.7l-0.5,0.4l-0.4,9.7c0.4,0.2,0.8,0.4,0.8,0.4l0.3,0c0,0,0.8,0.1,0.9,0.4c0.1,0.3,0.4,0.7,1,0.1
			c0.2,0.1,0.4,0.5,0.4,0.5l0.4-0.5l0.9-0.3l0.6-0.6l1,1.3c0,0,0.7-0.1,1,0.3s1.3,0.5,2-0.7c0.4-0.5,0.9-1.1,1.2-1.7
			s0.8-1.9,0.6-2.1c0.4,0,0.5-0.4,0.9-0.8s1.7-2,3.9-2.4c0.2-0.1,0.4-0.6,0.4-1c0-0.4,0.1-0.7,0.7-0.6c0.4,0,0.7-0.7,3.2-2.2
			c0.5-0.6,1.1-1.3,2-1.3c0.1-0.2,0.2-0.5,0.2-0.5l1.3-0.5l0.4,0.3l0.6-0.5l24.6,1.2l0.3-6.3L220.8,147z"/>
		<path class="st5" d="M239.9,134.4l0,0.7l-5-0.2l-19.3-0.9c0,0,0.2,1.2-0.7,1.3c-0.1,0.1-0.3,0.3-0.3,0.3l-0.5-0.8
			c0,0-0.5-0.2-0.9-0.8c-0.5-0.2-1-0.4-1.2-0.7s-0.8-0.3-1.5,0.3c-0.1-0.1-0.2-0.4-0.2-0.4l-0.5-0.2l-0.1-1.2c0,0-1,0.4-1.6-1.3
			c-0.1-0.3-0.4-0.4-0.4-0.4s-0.8,0.2-1.1,0.8c-0.4,0.1-1.5,0.3-1.6,1.4c-0.1,1-0.1,2.4-1.2,3.2c-0.4,0.3-1.1,1.1-1.6,1.2
			c-0.1,0-0.2,0-0.3,0.1l-0.8,3.8l-0.4,0l-1.1,0.9l0.5,1.2l0.4,0l0.1,6c0.2-0.1,0.4-0.3,0.6-0.4c0.8-0.7,1.9-0.4,1.9-0.4l4.6-1
			c0,0,0.4,0.3,0.7,0.2c3.2-0.7,4.4-2.5,4.4-2.5l0.3-0.6l0.9-0.3l0-0.3l0.9-0.5c0,0,0.1,0.2,0.3,0.2c0.5,0,0.7,0.1,0.9,0.2
			c2.5-0.4,2.9,1.1,2.8,1.4c0.7,0.4,0.5,1.2,0.5,1.4c0.4,0.6,0.9,0.6,0.9,0.6l0.2,0.4l19.1,1.1l0.6-13.7L239.9,134.4z"/>
		<path class="st5" d="M145.5,201.6l-0.8-0.6c0,0,0.1-0.4,0.2-0.7c-0.7,0-0.6-0.4-0.6-0.4v-0.9l0.3-0.4l-0.5-0.8l0-0.7
			c0,0-0.3-0.1-0.4-0.1c-0.1-0.7-0.8-1.1-0.8-1.1l-0.5-0.5l0.4-0.6l-0.6-0.6l-0.1-0.7l-1.1-1l0.7-0.7l0.1-0.6l-1.2-0.4l0.2-0.4
			l-0.3-0.2l-0.5,0.1l0-0.6l-0.5-1l-0.2-1.3c0,0-0.3,0-0.6,0c-0.4-1.9-1.9-1.9-1.9-1.9l-0.9-2l0.5-1l0-0.9l0.5-0.6l0.2-0.9l0-0.1
			c0,0-0.5-0.9-0.5-1.1c-0.1-0.6-0.8-0.8-0.8-0.8l-0.5,0l-0.7-0.4c0,0-0.1-0.4-0.2-0.7c-0.4-0.1-0.6-0.7-0.6-0.7l0.2-0.4L133,174
			l0-0.7l-0.7-0.5l-0.1-0.4l-0.9-0.6l-0.2-0.6l-0.4,0.2l-0.4-0.7l-10.1-0.8l0,0.7l-2.1-0.2l-0.2,1.4l-8.8-0.6l-0.2,1.4l-5-0.5v0.4
			l-0.3-0.1c0,0-0.3,0.4-0.4,0.6l0.1,0.2l-0.2,0.2l0.3,0.3l0.8,0.2l1.3,1.3c0,0,0.2,0.4,0.4,0.6c0.2,0.2,0.5,0.9,0.5,1.2
			c0.2,0.1,0.8,0.4,1,1.8c0.2,0.1,0.4,0.2,0.4,0.2l0.3,1.1l0.4,0.4l0,0.3c0,0,1.2,0.4,1.1,1.7c0,0.1,0,0.3,0.3,0.2
			c0.1,0.2,0.2,0.4,0.2,0.4l0.7,0.4l0.2,0.6c0,0,0.8-0.1,1.5,1.6c0.2,0,0.3,0,0.3,0l1.5,1l1.3,1.1c0,0,0.4,0.8,0.9,0.9
			c0.2,0.1,0.3,0.1,0.3,0.1l0.4,0.5l-0.2,0.4l0.1,0.4c0,0,0.2,0.2,0.3,0.5c0.2,0.1,0.4,0.2,0.4,0.2s0,1,0.2,1.2
			c0.3,0.2,0.3,0.3,0.3,0.3l0.5,1.3c0,0,0,1.2-0.3,2.1c0,0.2-0.1,0.3,0,0.5s0.3,0.6,0.3,0.6l0.2-0.1l-0.1-0.4l0.1-0.4
			c0,0-0.1-0.7,0-0.8c0.3,0.1,0.7,0.6,0.6,0.7c-0.1,0.1-0.2,0.4-0.2,0.4c0.3,0,1.1,0,1.4,0.8c0.1,0.2,0.2,0.3,0.3,0.4l0.4-0.2
			l-0.2-0.4l1.3-0.2l1.2,0.3l1.3-0.1l5.7,5.8l0.9,0l0.4,0.5l1,0.4l0.6,0l0.5,0.6l0.9,0.2l0.2-0.2l0.7,0.2l0.2-0.4l0.9,0l0.8,1.5
			l1.2,0.9c0,0,0-0.1-0.1-0.1c0.1,0,0.5,0.2,0.6,0.7s0.3,0.8,0.4,0.8c0.2,0,1.3-0.1,1.3-0.1l0.2-0.2l0.2,0.4c0,0,0.4,0.1,1.8-1.2
			c0-0.2,0-0.5,0-0.5l0.3,0.1l1.4,0.1l0-1.5l0.4,0.1l0-1.4l0.2-0.7L145.5,201.6z"/>
		<path class="st5" d="M175.5,200.7l0.1-0.2l-3.6-0.4l0.4-10.3l-0.5-0.7l-0.4,0.2l-0.7-0.4l-0.4,0.4l-0.7,0.4l-0.2-0.5l-0.5,0.4
			c0,0-0.2-0.1-0.4-0.2c-0.8,0.2-1.5-0.2-1.7-0.4c-0.2-0.2-1.4-0.6-2.1-0.2c-0.6,0.3-1.3,0.2-1.3,0.2l-0.6-0.4l-0.4,0.5l-0.9,0.3
			l-0.6,0.7l-0.4,0.2l-0.7,0.5l-0.7-0.3l-0.3-0.5l-0.6-0.5l-1.6,0.1l-0.4,0l0,1c0,0-0.5,1.5-0.8,2.4c-0.4,0.9,0.4,2,0.4,2l0.7,1.1
			l0.5,1.1l0,0.9l0.2,0.6l-0.3,0.6c0,0-4-0.1-5.1-0.2c0.3,0.4,0,1.1,0,1.1l0.5,1l-0.9-0.2l-0.1,0.4l0,0.4l0.9,0.4l-0.9,0l0.6,0.4
			l0.2,1.5c0,0-0.3,0.1-0.6,0.1c0,0.6-0.2,0.7-0.3,1c-0.2,0.8,0.7,1.2,0.7,1.2l-0.1,0.5l-6.7-0.4l-1.4-0.1l2,0.9
			c0,0,1.4,1.3,1.6,1.3c0.1,0.2,1,1.6,1.2,1.8c0,0.2,0,0.4,0,0.4s0.2,0.2,0.2,0.5c2.6-0.4,3.5,1.2,3.7,1.6c1,0.6,4.1-1.2,4.1-1.2
			l1.3,0.3l0.6-0.2l1.4,0c0,0,0.9,0.5,1.6,0.9c0.8,0.4,2.6,0.3,2.7-0.2c0-0.1,0.1-0.3,0.2-0.4c0.3-0.4,0.6-0.6,0.6-0.6l0.6,0.6
			l1,0.5c0,0,1.9-1,2.4-1.3c0.3,0.5,1.2,0.1,1.2,0.1l0.3-1.2l0.7-1l0.2-1.2l0.9-1.1l0.7-0.1l0.6-0.4l0.9-0.1l0-0.6l0.4-0.6l0.2-1.7
			l-0.1-0.7l-0.1-0.7l0-0.5l0.4-0.2L175.5,200.7z"/>
		<path class="st5" d="M176.4,223.4l-0.9-0.9l-0.4,0.2l-0.2-0.7l0.2-0.9l0.3-0.3l-0.1-0.5l0.3-0.3l-0.1-0.4l0.5-0.2
			c0,0-0.3-1.1-0.4-1.5c-0.1-0.4-0.4-1.1-0.4-1.5c0-0.3,0.4-0.9,0.7-1.2c0.3-0.3,0.1-0.6-0.1-1.1c-0.2-0.5-0.7-0.1-0.7-0.1l0-1.2
			l0.6-0.7l-0.2-0.2l0-0.6l0,0l-0.9-0.4l-0.9,0l-0.2,0.6h-0.5c0,0-0.3-0.2-0.8-0.6c-1.1,0.3-0.7,1.6-0.7,1.6l-0.8,0.9l-1.6,0.7
			c0,0-0.8,0.1-1.1,0.2c-0.4,0.1-0.7,0.2-1.1,0c-0.3-0.2-0.8-0.1-0.8-0.1l-0.6-0.6l-0.5-1.4c0,0-0.3-0.2-0.5-0.4
			c-0.1,0.1-0.2,0.3-0.2,0.4c-0.1,0.6-2,0.7-2.7,0.2c-0.8-0.4-1.6-0.9-1.6-0.9l-1.4,0l-0.6,0.2l-1.3-0.3c0,0-3.1,1.8-4.1,1.2
			c-0.2-0.4-1.1-1.9-3.7-1.6c0,0.3-0.2,0.8-0.9,1.4c0,0.1,0,0.2,0,0.2l-0.4,0l0,0.2l-0.4,0.4l-0.7,0c0,0-0.6,0.5-1,0.3
			c-0.4-0.2-1-0.5-1-0.5l-0.2,0.3l0.4,0.9l-0.6,0.5l-0.3,0l0,0.6l-0.4,0.3l-0.2,0l0,0.4l-0.5-0.3l0-0.4l-0.7,0l0.2,0.3l0.2,0.1
			l0,0.5l0.4,0.2l0,0.5l0.3,0l0.5,0.5c0,0,0.1,0.1,0,0.3c-0.1,0.2-0.2,0.4-0.2,0.4c0.1-0.1,0.6-0.2,0.6-0.2s0.1,0.7,0.5,0.2
			c-0.1-0.2-0.4-0.8-0.4-0.8h0.4l0.2,0.7l0.2-0.1h0.4l-0.3,0.2c0,0,0.6-0.1,1.1,0.2c0,0.1,0,0.3,0,0.3s0.1,0.1,0.1,0.2l1.1,0.1
			l0.6-0.4l0.4,0.2l0.5,0.7l0.9,0.5l0.1,0.4l0.1,0.2l-0.4,0.2c0,0,0.8,0.5,1.2,1.2c0.1,0.1,0.3,0.1,0.3,0.1l-0.2,0.8l0.7,0.6
			l0.6-0.6l0.4,0.8l3.7,0.6l1.2,0.9l0.5,0.9l-0.5,0.2l0,0.4l0.4,0.6c0,0,1.1,0.2,1.6,1.1c0.9-0.2,13-3.1,13-3.1l3.2-1l0.1-0.1
			l-0.1-0.5L176.4,223.4z"/>
		<path class="st5" d="M116.1,61.8v-1.1c0,0-0.2-0.4-0.5-0.3s-1.1-0.7-0.8-1.2c0.2-0.3,0.6-0.1,0.8-0.5c0.2-0.4,0.5-1.1,0.5-1.1
			l0.1-1.4l0.2-0.3l-0.2-0.5l0.4-0.2c0,0,0.2,0.1,0.6-0.1l-0.2-1.3c0,0-0.4-0.8-0.7-1.1c0.7-0.5-0.6-0.8-0.6-0.8l0.5-0.8
			c0,0,0.1-0.8,0.1-1.1c-0.5-0.2-0.7-0.6-0.8-0.7c0.7-0.5,0.2-1,0.2-1l0-0.6c0,0-0.3-0.3-0.5-0.5c0-0.5-0.1-0.9-0.1-1
			c0-0.1-0.1-0.3,0-0.5c0.3-0.4,0-0.5-0.2-0.7c-0.2-0.3-0.5-0.5-0.5-0.5l-5.9-0.4l-4-0.3l0.3-4l-10.7-1.1l0.1,1.4
			c0,0-0.9,4.5-1.6,5.5c0,0.5,0.1,0.9-0.2,1.3c-0.2,0.4-0.6,1.4-0.6,1.9c-0.1,0.1-0.2,0.2-0.2,0.2s-1.1,3.8-2.1,5.5
			c-0.2-0.1-0.4-0.2-0.4-0.2l0,0.2L89,54.8l0.1,0.3L89,56l0.1,0.5l-0.1,1l0.3,0.2l0,0.6c0,0,1.6,0.7,1.1,2.3s-1.6,5.5-1.6,5.5
			l-0.6,0.7c0,0-1.6,3.3-3.2,5.6c0.1,0.2,0.1,0.3,0.1,0.3s-0.2,0.3-0.4,0.4c-0.2,0.2-3.6,5.1-3.6,5.1s0.3,0,0,0.4
			c-0.3,0.4-0.7,0.8-0.7,0.8l-2,4.4L78,84.4l0.2,0.4L77.8,86l-0.9,1.5l0.5,1.7c0,0,1,0.2,0.9,3.1c0.2,0.6,0.6,1,0.2,2.1
			s-0.7,1.7-0.5,2.2c0.2,0.5,0.7,0.7,1,1.2c0.2,0.5,0.9,1.5,2.1,2.2c0.1,0.2,0.2,0.4,0.2,0.4s1.5,0.8,2,1.7c0.2,0.3,0.2,0.6,0.5,0.8
			c0.3,0.2,0.6,0.4,0.7,0.6c0.2,0.2,0.4,0.3,0.8,0.4s1.1,0.5,1.5,1.3s0.8,1.4,0.8,1.4s-0.5,2,0.1,2.2c0.1,0,0.1-0.1,0.1-0.1l0.6,0
			c0,0,0.9,1.2,1.3,1.6l17.6,1.6l3.2-35.9c0,0,0-0.5-0.4-0.8c0.2-0.2,0.4-0.8,0.2-1.4c-0.1-0.2-0.2-0.7,0.1-0.8
			c0.2-0.2,0.2-0.6-0.1-0.7c-0.3-0.1-0.4-0.5-0.3-0.7c0.1-0.1,0.3-0.4,0.3-0.4l-0.3-0.5l-0.2-0.8c0,0-0.6,0.1-0.6-0.7
			c0-0.4-0.1-0.8-0.1-0.8l-0.6-0.6l0.3-0.3l-0.3-0.7c0,0,0.2-1.1,1.1-0.5c0.3-0.3,0.5-0.5,0.8-0.5c-0.1-0.2-0.1-0.4-0.1-0.4l0.6-0.1
			l0.6,0.6l0.1,0.6l0.4-0.3l0.5,0.8l1,0.4c0,0-0.2-1,1.4-1.4c0-0.3,0.1-0.6,0.1-0.6l-0.2-0.3l0.8-0.5l0-0.4l0.3-0.2
			c0,0-0.1-1.2,0.9-1.2c-0.1-0.2-0.2-0.3-0.2-0.3l0.2-0.5L116.1,61.8z"/>
		<path class="st5" d="M141.4,218.8l-0.8-0.2l-0.4-0.4c0,0,0.4-0.8-0.9-1.1c-0.2-0.4-0.4-0.9-0.4-0.9l0.9,0.4l0.4-0.3
			c0,0-0.1-0.2-0.4-0.3c-0.2-0.1-0.5-0.4-0.2-1.1c0.2,0.1,0.4,0.1,0.4,0.1l0.2-0.4l0.2,0c0,0,0.1-0.5,0.5-0.3
			c0.2,0.1,0.3,0.2,0.4,0.1s0.1-0.6-0.1-0.8c-0.3-0.1-0.5-0.3-0.7-0.4c-0.2-0.1-0.5-0.5-0.9-0.6c0.1-0.5,0.4-1.8,0.4-1.8l0.4-0.5
			l0-1.2l-0.2-0.2l0-0.5l-0.5-0.4c0,0-0.2-0.2-0.2-0.5c0-0.3-0.1-0.6-0.3-0.9l-1.2-0.9l-0.8-1.5l-0.9,0l-0.2,0.4l-0.7-0.2l-0.2,0.2
			l-0.9-0.2l-0.5-0.6l-0.6,0l-1-0.4l-0.4-0.5l-0.9,0l-5.7-5.8l-1.3,0.1l-1.2-0.3l-1.3,0.2l0.2,0.4l-0.4,0.2c0,0,0,0.1,0,0.1
			c0,0.2,0.2,0.4,0.2,0.4l0.3,0l0,0.7l0.2,0c0,0,0.6,0.7,0.2,1.8c-0.2,0-0.2,0.1-0.3,0s-0.6-0.6-0.6-0.6l0,0.3l0.5,0.7l0,0.6
			l0.5,1.3l-0.2,0.4l0.6,0.4c0,0,0.4,0.7,0,1.5c-0.3,0.9-1.3,3.5-1.3,3.5l-1.7,3.2l-0.4,0.4l0,0.2l0.6,0l0.5,0.2l0.2-0.2l0.8,0.3
			l-0.7-0.7c0,0,0.5-1.2,2-1.4c0.1,0.1,0.2,0.4,0.2,0.4l2.3,0.4c0,0,2,0.9,2.1,2c0.2,0.1,0.4,0.2,0.4,0.2s0.6,1.1,0.7,1.8
			c0.2,0.1,0.6,0.4,0.6,0.4l0,0.2c0,0,1.3,0.1,1.4,1.3c0,0.5,0.4,0.6,0.6,0.6c0.1,0.2,0.2,0.4,0.2,0.4h0.4l0-0.2l0.5-0.4l-0.2-0.6
			l0.1-0.3l-0.5-0.4l0.5-0.5l0.5,0.5l0.4,0.1l0.4,0.8l-0.7,0.2l0.6,0.3l0.2-0.3c0,0,0.8,1.8,1.6,1.5c0.1,0.1,0.2,0.3,0.6,0.4
			c0.1,0.2,0.3,0.7,0.3,0.7h0.4c0,0,0.1,0.3,0.5,0.4c0.1,0.3,0.3,0.9,0.3,0.9l0.6,0.2l0.2,0.7l0.3-0.2l0.2-0.2l0.6,0.4l0.7-0.3
			l0.1,0.2l0.2-0.5l0.2,0l-0.1-0.4l0-0.9l-0.7-0.4l-0.5-0.9l-0.4-0.1v-0.3l0.4,0l0.5,0.4l-0.2-0.5l0.5,0l0.6,0.4c0,0,0,0.6,0.5,1.1
			c0.1,0,0.2,0,0.2,0l-0.2-0.4l0.3,0l0.4-0.4l0.2,0L141.4,218.8z"/>
		<path class="st5" d="M130.3,170.4h-0.7l0-0.4l-1.9-0.8l-0.1-0.7L127,168l-1.4,0c0,0-0.1-0.9-0.1-1.3c-0.5-0.1-0.7-0.6-0.7-0.6
			l0.1-0.5l-0.2,0l0.1-1.7l-0.4-0.3c0,0,0.1-0.3,0.2-0.6c-0.4,0-1.2,0-1.5-0.3s-1.2-1.2-1.2-1.2s0.1-1,0.2-1.4
			c-0.4-0.1-0.4-0.3-0.4-0.8c-0.9,0-1-0.4-1-0.4l0.1-1.3l0.4,0l0.2-2l0.4-0.1l0-1.7l1.2,0.2l1.5-2.3l0-0.7c0,0,0.2-0.1,0.8,0
			c-0.1-0.4-0.2-2-0.2-2l-0.6-0.1c0,0-0.1-1.6,0-2.1c-0.1-0.5-0.5-1-0.5-1l0-1.2l-0.3,0l0-0.7l-0.3-0.1l0.2-1.4l-0.7-0.2l0.3-1.3
			l-0.2-0.9l0.4,0l0.2-2.5l0.7,0.3l0.1-0.5l0.9,0.1l0-0.4l3.2,0.5l0.3-0.7l1.6,0.2l0.4-2.6l0.2-1.4l-0.2-0.8l0.3-4l-0.6-0.2
			l-0.1-1.8l-0.9-0.1l0.3-2.3l-0.1-0.1l-0.1-0.2l-0.1-1.6c0,0-0.2-0.3-0.5-0.5c0.3-0.2,0.4-0.5,0.2-0.7c0.6-0.8,0.6-1.9,0.4-2.3
			c1.5,0,1.5-1.2,1.5-1.2l-0.4-0.7l0.3-1.1c0,0-0.3-0.3-0.7-0.3c0,0,0,0,0,0l-22.8-1.8l0.1-1.1l-0.1,0l-17.6-1.6c0,0,0,0,0,0
			c0.1,0.2,0.1,0.4,0.1,0.4l0.4,0.2l1.8,3.3l0.6,0.6l0.8,2.6l0.8,1l0.7,0.2l0.5,0.5l0.3,2.3l-0.2,1.2l0.2,0.9l-0.2,0.3l0.1,0.1
			c0,0-0.1,0.8,0.2,0.9c0.3,0.2,0.5,0.4,0.6,0.7s0.5,1,0.4,1.4c-0.1,0.4,0,1,0.2,1.4c-0.1,0.3-0.2,0.9-0.2,0.9l0.2,0.6l-0.3,0.9
			l0.3,0.9l0,0.5l0.3,0.4l0,0.7l-0.4,1.5c0,0-0.7,1.3-1.2,1.7c-0.1,0.3-0.4,1.8-0.4,1.8l-0.3,0l0.2,0.2l0,0.6l-0.3,0l0.4,0.7l-0.4,0
			l0.1,0.6l-0.3,0.3l0.2,0.3l-0.2,0.8l0,0.2l-0.2,0.4l0.2,0.2l0,0.9l-0.3-0.3l-0.1,0.2l0.3,0.5c0,0-0.1,0.6,0.3,0.4
			c0,0.1,0,0.4,0,0.4L95,145l-0.4,0.2l0.1,0.2l0.5,0l0,1h-0.4c0,0-0.1,0.6,0.3,0.5c0.1,0.3,0.6,1.9,0.6,1.9l-0.1,0.3l0.4,0.5
			l-0.4,0.1l0.3,0.4l-0.4,0.2c0,0,0.2,0.3,0.1,0.7c0.2,0.1,0.3,0.2,0.3,0.2l0.2,0.6c0,0,0.6,1.1,0.7,1.3c-0.1,0.2-0.2,0.4-0.2,0.4
			l0,0.1l0.2,0l0.5,0.5l0,0.6l-0.2,0.1l0.1,0.2l0,0.2l0.3,0.5c0,0-0.1,0.8,0.1,1.3c0.2,0.5,0.8,3.3-1.7,6.1c-0.1,0-0.2,0.1-0.2,0.1
			l0.5,0.9l-0.2,0.2l0,0.3l0.5,0.2l0.4,0.8l0.7,0.8l0,0.2c0,0,0.9,0.5,1,0.9s0,1,1,1.8c0.1,0,0.2,0,0.2,0l0.4,0.4l0.2,0.5l-0.1,0.1
			l0.3,0.2l0.4,0l0.6,0.9l1.1,1.1l0.3,0.7c0.2-0.2,0.4-0.6,0.4-0.6l0.3,0.1v-0.4l5,0.5l0.2-1.4l8.8,0.6l0.2-1.4l2.1,0.2l0-0.7
			l10.1,0.8L130.3,170.4z"/>
	</g>
	<path class="st5" d="M209.4,413.3l0.3,0l1-0.9l0.5,0.4l0.4,0l0.4-0.4l0.7-0.3l0.2-0.2l-0.1-0.4l0.2,0l0.4,0.8l-0.2,0.2v0.5l1.3,0.1
		l0.5,0.5l0.4,0.6l0.4,0.4l-0.7,0.2l-0.9-0.2l-0.6,0c0,0-0.4,0.3-0.6,0.1c-0.3-0.2-0.8-0.5-0.8-0.5l-1.1-0.4l-0.5,0.2l-0.5-0.2
		l-0.6,0L209.4,413.3z"/>
	<polygon class="st5" points="217.8,415.7 217.8,415.9 218.4,416.1 219.1,417.2 219.4,418.1 220.1,419 220.1,419.4 220.3,419.3 
		220.5,419.7 221.4,420.2 221.8,420.6 222.5,421 222.8,420.8 223.4,420.3 225.2,420.3 226.4,419.4 226.8,419.1 227.5,418.9 
		228.8,418.9 228.8,418.4 228.6,418.2 228.4,417.3 228.5,416.9 227.2,417.1 225.6,415.8 225.4,415.3 225.8,414.8 225.8,414.2 
		225.2,414.2 224.9,414.5 224.7,414.5 224.5,414.7 224,414.9 222,414.5 221.6,414.5 221.2,414.9 220.4,415.4 219.6,415.4 
		219.6,415.6 218.4,415.2 217.8,415.2 217.7,415.3 217.4,415.1 217.5,415.3 	"/>
	<path class="st5" d="M231.2,412.3l0.4,0.2l1.7,0.2l0.2,0.2l0.4,0l0.1,0.2c0,0,1,0.3,1.3,0.7c0.2,0.1,0.4,0.2,0.4,0.2l0.7-0.4
		l0.9,0.2l0.2-0.2l0.4,0l0.2,0.2l0.4,0.2l0.4,0.4l0.2-0.2l0.2,0.2l0.6,0.2l0.2,0l0.2,0.4l0.4,0.2l0.4,0.6l0.2,0l0.7,0.2l0.4-0.2
		l0.4,0.4l0.2-0.2l0.2,0.3l0.4,0l0.2-0.2l0.2,0l0.6-0.5l0-0.5l0.6-0.4h0.2l0.2-0.2l0.2,0.2l0.9-0.2l0.5,0.4l0.5,0.2l0.3,0.4
		l-0.5,0.5l-0.4,0l0,0.4l-0.2,0.2L246,417l-0.2,0.1l-0.7,0l-1.6,0.4l-0.2-0.2l-1.8,0l-0.4,0.4l-1.3,0.5l-0.2,0l-0.4,0.4l-1.4-0.2
		l-0.4,0.2l-1.4,0l-0.4-0.2H235l-0.4-0.4h-0.9l-0.4-0.4l-0.6-0.4l-0.5-1.2l0.6-0.9l-0.5-0.9l-0.9-0.7l-0.6,0l-0.2-0.2l0.4,0l0-0.4
		L231.2,412.3z"/>
	<polygon class="st5" points="250.5,416.3 251.4,416.3 251.7,416.7 251.5,416.9 251.2,416.7 250.6,416.5 	"/>
	<polygon class="st5" points="252,416.6 252.9,416.6 252.9,416.7 252.6,416.9 252.3,416.9 251.9,416.8 	"/>
	<polygon class="st5" points="253.5,416.3 253.9,416.3 253.9,416.4 253.6,416.6 253.6,416.5 253.5,416.5 	"/>
	<polygon class="st5" points="245.3,452.1 245.5,452.3 247.8,453.5 248.2,453.6 249.3,455 249.9,455 249.6,455.2 249.2,455.2 
		249.1,455.6 248,455.8 246.2,455.3 245.8,455 244.8,454.8 243.9,454.1 244,453.7 243.7,453.4 243.7,453.2 243.5,452.6 243.7,452.4 
		244.3,452.8 244.6,452.4 245.2,452.3 	"/>
	<path class="st5" d="M284.7,444.3l2.2,0l0.7,0.7l0.8,0.5l0.2,0.4h0.2l0.4-0.2l0.4,0.2l0.5,0.2l0.7,0.7l0.9,0l0.9,0.5l0.3,0l0.4,0.4
		l0.5-0.2l0.2,0.4h-0.2l0,0.7l0.2,0l0.5,0.9l0.7,0.7l0.2,0.7h0.4l0.4,0.2l0.2,0.9l0,0.6l-0.9,0.3l-0.2,0l-1.2-0.7l-1.6-0.2h-1.8
		c0,0-0.6-0.3-0.9-0.4c-0.2-0.2-0.9-1.3-0.9-1.3l0-0.4l0.2-0.4v-0.4l0.2-0.2l0-0.2l0.2-0.2l-0.2-0.2l-0.2-0.7l0.2-0.2l-0.2-0.5
		c0,0-0.3-0.3-0.7-0.5c0-0.1,0-0.2,0-0.2l-0.4,0.2l0,0.2l-0.4-0.4l-0.5,0.1l-0.2-0.3h-0.4l-0.3,0.2c0,0-0.5-0.1-0.7-0.6
		c0-0.1,0-0.1-0.1-0.2c-0.1-0.1-0.6-0.6-0.6-0.6l-0.1-0.4l-0.2-0.2l0-0.2l-0.1-0.1l0-0.1h0.1L284.7,444.3z"/>
	<polygon class="st5" points="266.2,443.3 266.6,442.9 266.5,443.7 266.4,444.1 266,444.1 265.6,443.3 	"/>
	<path class="st5" d="M283.8,465.9l0.2,0.2h0.3l0.4-0.2l0.3,0.4c0,0,0.2,0.9,0.4,1.1c0.1,0,0.2,0,0.2,0l0.5,1.5l0.7,0.7l1.2,1.6
		l1.3,1.1l0.5,0.7l3,2.7l0.5,0.7l0.4,0.4l-0.4,0l-0.4-0.2l-0.4,0l-0.4-0.2h-0.5v0.2l-0.4,0l-0.1,0.4l-0.4,0.2l0,0.2l-0.4,0.2
		c0,0-0.2-0.5-0.5-0.7c-0.4-0.2-0.6-0.4-0.7-0.5c-0.2-0.1-0.5-0.2-0.5-0.2l-0.2-0.5l-0.5-0.2l-0.1-0.3l-0.4,0v-0.4l-0.3-0.6l0.2-0.5
		l-0.5-0.2l-0.4-0.9l-0.5-0.4v-0.4l-0.2-0.2l0-0.1l-0.5-1.6l-0.4-0.2l-0.3-0.9l0.1-0.2l-0.3-0.5l-0.2-0.7l-0.4-0.4l-0.4,0l-0.2-0.2
		l0.2-0.6L283.8,465.9z"/>
</g>
<polygon class="st8" points="427.8,39.5 427.6,39.3 427.4,39.1 427.2,39 427.2,39 428,39.7 428,39.6 "/>
<polygon class="st8" points="426.5,37 426.4,36.9 426.5,37.3 426.5,37.2 "/>
<polygon class="st8" points="426.5,37.3 426.4,37.5 426.4,37.8 426.4,38.1 426.4,38.3 426.6,38.6 426.8,38.7 427,38.8 427.2,39 
	426.5,38.3 "/>
</svg>
