<?xml version="1.0" encoding="utf-8"?>
<!-- Generator: Adobe Illustrator 24.1.2, SVG Export Plug-In . SVG Version: 6.00 Build 0)  -->
<svg version="1.1" id="Layer_1" xmlns="http://www.w3.org/2000/svg" xmlns:xlink="http://www.w3.org/1999/xlink" x="0px" y="0px"
	 viewBox="0 0 300 500" style="enable-background:new 0 0 300 500;" xml:space="preserve">
<style type="text/css">
	.st0{fill:#404040;stroke:#FFFFFF;stroke-width:1.5;}
	.st1{fill:#009BFF;stroke:#FFFFFF;stroke-width:1.5;stroke-miterlimit:10;}
</style>
<g>
	<polygon class="st0" points="238.31,316.28 237.92,314.43 236.2,313.51 236.33,314.29 236.99,315.75 	"/>
	<polygon class="st0" points="187.02,155.15 186.36,155.41 185.7,155.41 185.04,155.81 184.79,155.94 184.52,156.07 183.72,156.34 
		183.46,156.6 183.33,157 183.06,157.66 182.67,158.05 182.01,158.32 181.22,158.32 180.56,157.79 180.29,157 180.29,156.47 
		180.16,156.07 180.03,155.68 179.63,155.41 179.63,155.02 179.9,154.75 180.29,154.36 180.42,153.57 180.16,152.91 180.16,151.85 
		180.82,151.19 181.61,151.05 181.88,149.21 181.35,148.29 180.56,147.36 180.42,146.43 179.9,145.77 179.63,145.51 179.5,145.25 
		179.76,144.99 179.63,144.45 179.76,143.93 179.24,143.67 178.58,143.4 177.52,143.01 177.26,142.34 177.52,141.55 177.12,140.1 
		176.86,139.31 176.6,138.51 176.33,138.25 171.71,139.7 170.79,139.97 170.12,139.97 167.88,140.89 152.96,144.99 153.62,145.65 
		153.89,146.43 154.28,147.49 154.67,148.02 154.55,149.08 153.89,150 153.62,150.79 154.01,151.19 154.55,151.45 154.42,151.98 
		154.01,152.77 153.89,153.96 152.96,155.28 152.96,155.55 153.23,156.21 153.89,156.87 154.01,157.92 153.62,158.71 153.89,159.51 
		152.96,160.3 153.1,160.83 154.28,161.22 154.94,161.35 155.33,162.42 155.87,163.08 156.26,163.33 156.26,163.6 155.47,165.18 
		155.08,165.18 154.94,165.06 154.67,165.45 153.76,166.9 153.76,167.29 154.01,167.43 154.15,167.56 153.49,169.27 155.33,170.34 
		153.62,173.11 152.83,174.69 150.85,175.75 150.71,175.75 150.19,176.8 149.93,177.46 149,179.31 147.95,181.29 147.82,181.69 
		147.41,182.35 146.36,184.6 146.09,184.6 144.25,183.01 144.11,182.88 143.98,182.88 143.72,182.74 143.59,182.62 143.45,182.62 
		143.2,182.62 144.38,185.12 144.38,185.38 144.64,186.04 145.04,187.1 145.18,187.63 145.3,187.76 145.43,188.16 145.57,188.42 
		145.7,188.82 145.84,189.22 146.09,189.48 146.09,189.74 146.23,190.01 146.5,190.8 146.62,191.2 147.02,192.11 147.16,192.65 
		147.68,193.57 147.95,194.5 148.34,195.29 149.26,197.66 149.39,197.8 149.53,198.19 149.8,198.72 149.8,198.85 149.93,199.38 
		150.19,199.78 151.37,202.81 151.64,203.34 152.3,205.19 152.69,206.38 153.36,208.1 153.76,208.49 162.34,205.45 163.39,205.32 
		166.96,206.12 167.22,207.04 167.36,207.44 167.36,207.96 167.36,208.62 168.02,208.49 168.28,208.36 168.54,208.1 169.46,207.56 
		169.6,207.44 171.45,204.4 172.24,200.57 172.37,200.44 173.3,199.91 173.43,199.78 174.88,199.38 175.67,199.25 178.84,196.87 
		179.24,196.73 180.56,195.29 180.82,195.02 181.74,193.97 183.99,191.86 184.38,191.59 184.65,191.33 185.18,190.67 185.7,189.74 
		185.97,189.48 186.23,189.22 186.36,188.95 186.89,188.56 187.02,188.42 188.75,187.76 189.8,187.24 189.93,186.58 189.53,185.38 
		189.14,184.06 186.5,183.54 185.97,183.28 184.91,180.76 183.99,179.71 182.4,178.39 181.74,177.46 180.69,175.35 180.69,174.96 
		180.42,174.03 180.95,172.18 182.27,171 184.25,169.93 186.11,169.27 187.16,168.22 188.34,167.7 189.93,167.04 190.73,166.38 
		193.5,164.13 195.74,161.49 196.53,159.37 197.06,157.39 197.06,155.68 196.93,155.28 195.08,156.6 193.89,156.21 190.59,157.79 
		190.2,156.73 189.8,155.15 189.27,154.36 187.82,155.02 	"/>
	<polygon class="st0" points="235.81,319.58 233.83,319.58 234.22,320.5 235.42,320.24 	"/>
	<polygon class="st0" points="133.29,207.96 142.4,206.24 141.61,200.7 149.93,199.38 149.8,198.85 149.8,198.72 149.53,198.19 
		149.39,197.8 149.26,197.66 148.34,195.29 147.95,194.5 147.68,193.57 147.16,192.65 147.02,192.11 146.62,191.2 146.5,190.8 
		146.23,190.01 146.09,189.74 146.09,189.48 145.84,189.22 145.7,188.82 145.57,188.42 145.43,188.16 145.3,187.76 145.18,187.63 
		145.04,187.1 144.64,186.04 144.38,185.38 144.38,185.12 143.2,182.62 143.45,182.62 143.59,182.62 143.72,182.74 143.98,182.88 
		144.11,182.88 144.25,183.01 146.09,184.6 146.36,184.6 147.41,182.35 147.82,181.69 147.95,181.29 149,179.31 149.93,177.46 
		150.19,176.8 150.71,175.75 150.85,175.75 152.83,174.69 153.62,173.11 155.33,170.34 153.49,169.27 154.15,167.56 154.01,167.43 
		153.76,167.29 153.76,166.9 154.67,165.45 154.94,165.06 155.08,165.18 155.47,165.18 156.26,163.6 156.26,163.33 155.87,163.08 
		155.33,162.42 154.94,161.35 154.28,161.22 153.1,160.83 152.96,160.3 153.89,159.51 153.62,158.71 154.01,157.92 153.89,156.87 
		153.23,156.21 152.96,155.55 152.96,155.28 153.89,153.96 154.01,152.77 154.42,151.98 154.55,151.45 154.01,151.19 153.62,150.79 
		153.89,150 154.55,149.08 154.67,148.02 154.28,147.49 153.89,146.43 153.62,145.65 152.96,144.99 152.57,144.99 152.17,144.99 
		150.71,143.79 149.8,143.4 143.06,141.29 140.81,141.15 140.15,141.15 139.89,141.15 139.1,140.23 138.44,139.7 137.65,138.91 
		137.12,138.38 136.33,137.46 135.67,136.93 133.95,135.08 133.29,134.55 132.63,133.89 131.58,132.57 130.92,132.84 130.12,133.37 
		129.73,133.62 129.33,134.16 129.07,135.08 128.8,135.87 128.01,136.4 127.48,137.06 125.89,138.51 124.32,140.23 123.25,141.81 
		122.73,142.47 121.54,143.93 120.48,145.91 120.09,146.43 119.29,146.57 118.5,146.83 118.5,147.09 118.11,147.49 117.58,147.75 
		116.39,148.41 115.33,149.47 114.94,149.47 113.88,149.61 113.09,149.74 112.3,150.13 112.03,150.4 111.9,150.53 111.51,150.79 
		111.24,151.05 111.11,151.19 110.58,151.45 109.92,151.72 109.53,151.98 108.99,152.11 108.6,152.51 107.94,152.77 107.68,153.04 
		106.75,154.23 105.69,154.75 103.32,156.87 102,157.79 100.81,158.98 98.3,160.17 97.38,160.83 96.85,160.96 95.93,161.49 
		95.79,161.49 95.4,162.28 95.27,162.42 93.95,163.08 93.42,163.6 93.02,165.06 92.88,165.18 91.17,166.77 89.46,168.36 
		89.46,168.61 89.33,169.41 89.19,169.93 89.19,170.34 89.19,170.59 89.58,171.52 90.25,172.18 90.9,172.71 91.44,172.84 
		92.1,173.11 92.76,173.24 93.42,173.11 94.08,172.84 94.47,172.45 95,172.05 95.4,171.79 95.79,171.52 96.32,171.25 96.45,171.25 
		97.25,171.13 98.3,171.25 99.36,171.52 99.49,171.52 100.55,171.91 101.34,172.18 102,172.71 102.26,172.98 102.53,173.24 
		103.05,173.9 103.85,174.69 104.64,175.62 105.17,176.14 105.57,176.67 106.23,177.33 106.49,177.86 106.62,178.52 106.75,179.05 
		106.62,179.97 106.62,180.37 106.62,180.63 106.49,181.42 106.49,181.56 106.49,182.48 106.62,183.14 106.62,183.4 106.75,183.8 
		106.75,185.38 106.75,186.84 106.89,187.9 106.75,188.42 106.62,189.22 106.49,189.61 106.23,190.8 106.09,191.45 105.96,191.99 
		105.83,192.52 105.69,193.04 105.69,193.57 105.69,193.84 105.69,194.09 105.69,194.75 105.96,195.29 106.09,195.82 106.35,196.48 
		106.49,196.87 106.49,197 106.49,197.27 106.62,198.06 106.75,198.85 106.89,199.38 107.01,199.78 107.41,199.91 107.81,200.3 
		108.21,200.44 108.6,200.7 109.13,200.96 109.39,201.36 109.79,201.62 110.32,202.02 110.85,202.28 111.37,202.55 111.77,202.55 
		112.43,202.42 112.83,202.15 113.49,202.02 114.41,201.62 114.81,201.49 115.2,201.36 115.6,201.36 115.73,201.36 116.13,201.36 
		116.65,201.62 117.18,201.89 117.58,202.02 117.71,202.15 117.84,202.28 118.5,202.55 118.77,202.68 119.16,202.94 119.56,203.34 
		119.69,203.34 119.95,203.74 120.22,204.26 120.48,204.66 120.75,205.19 121.02,205.85 121.41,206.64 121.8,207.44 122.2,209.02 
		122.59,210.6 122.73,211.92 122.86,212.98 123,213.64 123.39,214.16 123.91,214.83 134.88,213.77 	"/>
	<polygon class="st0" points="215.55,112.24 215.81,111.71 215.94,111.18 216.21,110.66 215.94,110.26 215.68,110 215.28,109.86 
		214.89,109.73 214.23,109.47 213.7,109.2 213.43,108.81 212.91,107.88 212.91,107.36 213.17,106.82 213.83,105.64 214.23,104.06 
		214.36,102.6 213.96,101.68 213.96,101.41 214.23,100.49 213.96,99.83 213.57,98.77 213.3,98.38 212.51,98.24 211.85,98.24 
		211.59,97.85 211.59,97.58 211.71,97.19 211.98,96.66 212.51,96.13 212.37,95.21 212.11,94.55 211.32,94.28 210,94.55 
		209.34,93.89 208.29,93.89 207.09,93.76 206.7,92.96 206.3,92.7 205.38,92.83 204.59,92.7 204.19,92.7 203.79,91.64 203.79,91.37 
		203.13,91.64 202.74,91.51 201.68,91.91 200.63,92.04 200.23,92.04 199.31,91.91 198.65,91.51 198.51,91.12 197.59,89.93 
		196.93,89.53 196.4,89.27 195.6,89 195.08,89 194.55,89.27 194.29,89.8 194.16,90.19 193.5,90.46 192.96,90.19 192.96,89.53 
		193.1,89.14 193.5,88.48 193.62,87.95 193.37,87.29 192.05,85.7 191.52,85.04 190.98,84.64 190.32,84.25 188.75,85.18 
		186.77,85.97 186.11,86.36 185.7,86.75 185.31,87.29 184.91,87.68 184.52,87.95 183.99,87.68 183.86,86.75 183.99,85.97 
		184.65,83.72 185.18,83.06 185.31,82.93 185.57,82.93 185.97,82.54 186.23,82 186.5,81.47 186.36,81.22 186.23,80.15 185.18,78.97 
		183.86,78.57 181.49,81.08 180.16,82.66 179.37,83.59 177.92,85.3 177.78,85.7 177.52,85.84 170.92,93.62 170.66,93.89 
		170.39,94.15 170.12,94.42 170,94.68 169.6,95.08 169.07,95.6 164.98,101.02 164.84,101.15 164.84,101.68 164.98,102.07 
		165.24,102.34 165.64,102.74 165.64,103 165.77,103.4 165.77,103.66 165.77,103.92 165.77,104.06 165.5,104.98 165.11,105.64 
		164.98,105.64 164.98,105.77 163.79,106.56 163.66,106.7 163.39,106.96 163.39,107.09 163.26,107.48 163.39,107.88 163.39,108.14 
		163.39,108.54 163.26,108.54 163.13,108.68 162.73,108.81 162.47,108.81 162.07,109.2 161.81,109.47 160.49,110.26 158.24,111.18 
		157.19,111.58 156.26,112.5 155.47,112.5 155.21,112.11 155.08,111.45 154.94,110.79 154.28,110.13 153.49,109.6 152.83,109.73 
		152.3,109.34 152.03,109.07 151.64,108.94 151.12,108.94 150.46,109.47 150.05,109.73 149.39,110 148.73,110 147.55,110.26 
		147.16,111.05 145.96,111.98 145.04,112.77 144.64,113.96 144.25,114.22 143.32,114.48 142.4,115.14 142.27,116.46 142.4,117.39 
		142.66,118.18 142.66,118.71 142.66,119.37 142,119.63 141.88,120.17 142,120.95 140.81,121.61 140.42,121.74 140.42,122.15 
		140.68,122.81 140.68,123.99 140.15,124.52 139.63,124.65 138.83,126.24 138.31,127.16 137.52,127.95 137.25,128.75 136.59,129.41 
		135.93,130.07 134.61,130.46 134.48,130.46 134.08,131.39 132.9,132.05 131.58,132.57 132.63,133.89 133.29,134.55 133.95,135.08 
		135.67,136.93 136.33,137.46 137.12,138.38 137.65,138.91 138.44,139.7 139.1,140.23 139.89,141.15 140.15,141.15 140.81,141.15 
		143.06,141.29 149.8,143.4 150.71,143.79 152.17,144.99 152.57,144.99 152.96,144.99 167.88,140.89 170.12,139.97 170.79,139.97 
		171.71,139.7 176.33,138.25 176.6,138.51 176.86,139.31 177.12,140.1 177.52,141.55 177.26,142.34 177.52,143.01 178.58,143.4 
		179.24,143.67 179.76,143.93 179.63,144.45 179.76,144.99 179.5,145.25 179.63,145.51 179.9,145.77 180.42,146.43 180.56,147.36 
		181.35,148.29 181.88,149.21 181.61,151.05 180.82,151.19 180.16,151.85 180.16,152.91 180.42,153.57 180.29,154.36 179.9,154.75 
		179.63,155.02 179.63,155.41 180.03,155.68 180.16,156.07 180.29,156.47 180.29,157 180.56,157.79 181.22,158.32 182.01,158.32 
		182.67,158.05 183.06,157.66 183.33,157 183.46,156.6 183.72,156.34 184.52,156.07 184.79,155.94 185.04,155.81 185.7,155.41 
		186.36,155.41 187.02,155.15 187.82,155.02 189.27,154.36 189.53,153.7 189.66,153.7 189.8,153.7 190.2,153.7 190.32,153.7 
		190.73,152.77 190.73,152.64 190.59,152.51 190.59,152.38 190.59,152.11 190.73,151.72 191.52,151.19 193.5,150.27 193.62,150 
		194.82,148.41 196.01,147.23 196.14,147.23 197.33,146.17 197.33,146.04 199.04,144.33 199.17,144.33 201.55,142.08 202.21,141.29 
		202.47,140.36 202.47,139.83 203,139.57 203.4,139.31 203.4,139.04 203,138.91 202.61,138.78 201.95,138.38 201.55,138.38 
		201.15,138.12 201.42,137.85 201.81,137.19 201.81,136.67 201.55,135.87 201.55,135.21 202.21,134.29 202.21,132.57 202.21,131.64 
		203,130.86 203.4,130.32 204.32,129.93 204.59,128.88 204.85,128.61 205.91,128.61 206.3,128.34 206.7,127.68 206.7,126.9 
		206.83,126.11 207.23,125.18 207.36,123.72 207.49,123.06 207.23,122.27 207.63,121.35 207.75,120.69 208.15,119.24 208.15,119.1 
		207.23,118.58 206.57,118.31 206.3,117.92 206.43,116.99 205.91,116.07 206.57,113.43 206.3,112.37 206.57,111.58 207.09,111.18 
		208.02,110.92 208.68,111.18 208.81,111.71 209.07,111.84 209.73,111.84 210.13,111.58 210.79,111.45 211.32,111.45 211.59,111.45 
		212.11,111.58 212.25,111.71 212.37,111.98 212.51,112.24 212.64,112.37 213.3,112.5 213.43,112.64 213.43,112.9 213.57,113.3 
		213.96,113.43 215.15,113.3 215.41,112.64 	"/>
	<polygon class="st0" points="227.09,340.31 227.09,339.52 226.17,339.52 224.98,340.44 225.11,341.63 226.17,341.5 	"/>
	<polygon class="st0" points="92.88,165.18 93.02,165.06 93.42,163.6 93.95,163.08 95.27,162.42 95.4,162.28 95.79,161.49 
		95.93,161.49 96.85,160.96 97.38,160.83 98.3,160.17 100.81,158.98 102,157.79 103.32,156.87 105.69,154.75 106.75,154.23 
		107.68,153.04 107.94,152.77 108.6,152.51 108.99,152.11 109.53,151.98 109.92,151.72 110.58,151.45 111.11,151.19 111.24,151.05 
		111.51,150.79 111.9,150.53 112.03,150.4 112.3,150.13 113.09,149.74 113.88,149.61 114.94,149.47 115.33,149.47 116.39,148.41 
		117.58,147.75 118.11,147.49 118.5,147.09 118.5,146.83 119.29,146.57 120.09,146.43 120.48,145.91 121.54,143.93 122.73,142.47 
		123.25,141.81 124.32,140.23 125.89,138.51 127.48,137.06 128.01,136.4 128.8,135.87 129.07,135.08 129.33,134.16 129.73,133.62 
		130.12,133.37 130.92,132.84 131.58,132.57 132.9,132.05 134.08,131.39 134.48,130.46 134.61,130.46 135.93,130.07 136.59,129.41 
		137.25,128.75 137.52,127.95 138.31,127.16 138.83,126.24 139.63,124.65 140.15,124.52 140.68,123.99 140.68,122.81 140.42,122.15 
		140.42,121.74 140.81,121.61 142,120.95 141.88,120.17 142,119.63 142.66,119.37 142.66,118.71 142.66,118.18 142.4,117.39 
		142.27,116.46 142.4,115.14 143.32,114.48 144.25,114.22 144.64,113.96 145.04,112.77 145.96,111.98 147.16,111.05 147.55,110.26 
		139.63,100.75 137.65,98.11 134.48,93.89 133.69,92.96 133.42,92.7 132.5,91.51 131.71,90.32 131.18,89.8 129.6,87.82 
		124.57,81.34 124.32,80.95 122.73,79.1 120.88,76.72 120.75,77.25 120.48,77.65 119.95,78.31 119.29,78.83 118.9,79.24 
		118.77,79.24 118.38,79.36 117.71,79.49 117.31,79.76 116.79,80.02 116.39,80.29 115.86,80.56 115.6,80.81 115.47,81.08 
		115.07,81.22 114.81,81.34 114.54,81.61 114.41,81.88 114.28,82.4 114.15,82.66 113.75,83.59 113.62,83.98 113.35,84.25 
		113.09,84.64 112.83,84.91 112.69,85.3 112.69,85.57 112.69,85.84 112.56,86.23 112.43,86.36 112.17,86.63 111.77,86.89 
		111.37,87.29 110.98,87.55 110.45,88.07 110.19,88.21 109.66,88.61 109.39,88.73 109.13,88.87 108.34,89.53 108.07,89.66 
		107.01,90.19 105.96,90.71 105.17,90.85 105.03,90.98 104.64,91.25 104.11,91.51 103.32,91.91 102.53,92.17 101.61,92.57 
		100.81,93.23 100.28,93.76 100.02,93.89 99.36,94.55 98.7,94.94 98.3,95.21 98.04,95.47 98.04,96 98.04,96.13 98.04,96.4 
		98.04,96.66 98.04,96.92 97.77,97.19 97.51,97.58 97.38,98.11 97.51,98.51 97.51,98.64 97.64,98.77 97.91,99.04 98.17,99.17 
		98.43,99.3 99.09,99.56 99.36,99.7 99.62,99.96 99.75,100.22 99.89,100.75 99.89,101.15 100.02,101.54 100.15,101.94 
		100.68,102.86 100.81,103.26 101.21,103.79 101.73,105.11 102.53,106.56 103.05,107.48 103.32,107.75 103.71,108.14 103.98,108.41 
		104.37,108.54 104.64,108.94 105.03,109.34 105.17,109.73 105.3,110.26 105.43,110.92 105.69,111.45 105.69,111.98 105.83,112.5 
		105.96,113.03 106.35,113.56 106.62,113.96 106.62,114.09 107.01,114.62 107.41,115.41 108.07,116.2 108.47,116.99 108.6,117.78 
		108.6,118.44 108.47,118.84 108.34,119.24 107.94,119.63 107.68,119.9 107.41,120.42 107.28,120.83 107.15,121.08 106.89,121.35 
		106.62,121.49 106.23,121.49 105.83,121.35 105.69,121.35 105.43,121.22 105.03,121.08 104.51,121.08 104.11,121.22 103.58,121.35 
		103.32,121.35 103.05,121.74 102.93,122.27 102.93,122.67 103.05,123.06 103.32,123.47 103.71,123.86 103.98,124.25 104.25,124.65 
		104.37,125.18 104.37,125.45 104.37,125.58 104.37,125.97 104.37,126.11 104.25,126.77 104.11,127.02 103.71,127.43 103.45,127.68 
		103.19,127.82 103.05,128.09 102.79,128.34 102.66,128.34 102.53,128.75 102.26,129.27 102.26,129.66 102,130.2 101.61,130.86 
		100.95,131.52 100.68,131.78 100.28,132.05 99.75,132.18 99.36,132.44 99.09,132.71 98.7,133.1 98.57,133.62 98.3,134.03 
		98.04,134.42 97.77,134.55 97.77,134.69 97.51,134.82 97.11,134.82 96.72,134.69 96.19,134.55 96.06,134.55 95.53,134.42 
		95,134.16 94.47,134.03 93.81,134.03 93.42,134.03 92.88,134.03 92.63,134.29 92.36,134.55 92.22,134.95 92.1,135.21 91.97,135.74 
		91.83,136.14 91.56,136.67 91.31,137.19 90.78,137.46 90.38,137.59 89.58,138.12 89.06,138.51 88.92,138.91 88.8,139.17 
		88.92,139.7 89.19,140.1 89.46,140.36 89.72,140.63 89.85,140.76 89.99,140.89 90.25,141.15 90.51,141.55 90.65,141.95 
		90.9,142.47 90.78,142.87 90.51,143.27 90.38,143.53 90.25,143.79 90.25,144.19 90.12,144.45 89.99,144.59 89.72,144.85 
		89.46,145.25 89.06,145.77 88.67,146.83 88.26,147.75 88.01,148.95 87.87,149.61 87.87,149.87 88.01,150.53 88.26,150.93 
		88.53,151.32 89.19,151.59 89.72,151.72 90.51,151.85 90.9,151.85 91.31,152.11 91.44,152.77 91.31,153.17 91.17,153.7 
		90.78,154.09 90.38,154.49 89.99,154.89 89.58,155.28 89.19,155.68 88.92,156.07 88.67,156.6 88.53,157 88.4,157.39 88.4,157.79 
		88.53,158.05 88.8,158.32 88.92,158.58 89.19,158.85 89.46,159.24 89.58,159.9 89.72,160.3 89.72,160.96 89.72,161.76 
		89.72,162.15 89.58,162.67 89.46,162.81 89.33,162.94 89.06,162.94 88.67,163.2 88.4,163.33 88.26,163.6 88.26,164.13 88.4,164.4 
		88.53,164.79 88.53,164.92 88.92,165.45 89.19,166.38 89.33,167.17 89.46,167.95 89.46,168.36 91.17,166.77 	"/>
	<polygon class="st0" points="124.32,80.95 124.57,81.34 129.6,87.82 131.18,89.8 131.71,90.32 132.5,91.51 133.42,92.7 
		133.69,92.96 134.48,93.89 137.65,98.11 139.63,100.75 147.55,110.26 148.73,110 149.39,110 150.05,109.73 150.46,109.47 
		151.12,108.94 151.64,108.94 152.03,109.07 152.3,109.34 152.83,109.73 153.49,109.6 154.28,110.13 154.94,110.79 155.08,111.45 
		155.21,112.11 155.47,112.5 156.26,112.5 157.19,111.58 158.24,111.18 160.49,110.26 161.81,109.47 162.07,109.2 162.47,108.81 
		162.73,108.81 163.13,108.68 163.26,108.54 163.39,108.54 163.39,108.14 163.39,107.88 163.26,107.48 163.39,107.09 163.39,106.96 
		163.66,106.7 163.79,106.56 164.98,105.77 164.98,105.64 165.11,105.64 165.5,104.98 165.77,104.06 165.77,103.92 165.77,103.66 
		165.77,103.4 165.64,103 165.64,102.74 165.24,102.34 164.98,102.07 164.84,101.68 164.84,101.15 164.98,101.02 169.07,95.6 
		169.6,95.08 170,94.68 170.12,94.42 170.39,94.15 170.66,93.89 170.92,93.62 177.52,85.84 177.78,85.7 177.92,85.3 179.37,83.59 
		180.16,82.66 181.49,81.08 183.86,78.57 184.25,77.91 185.84,76.06 202.21,57.05 200.1,55.6 196.53,53.09 179.37,42.27 
		170.12,36.58 164.18,32.76 157.85,28.8 157.06,29.32 156.53,29.46 156.4,29.59 155.74,29.85 155.08,30.12 154.42,30.38 
		153.89,30.64 153.49,30.78 152.83,30.64 152.3,30.64 151.91,30.64 151.51,30.64 150.98,30.78 150.32,30.91 149.93,31.17 
		149.53,31.57 149.39,31.7 149.14,32.1 148.87,32.62 148.61,33.28 148.48,33.81 148.21,34.08 147.82,34.34 147.28,34.47 
		147.02,34.6 146.89,34.74 146.36,34.87 145.7,34.74 145.43,34.87 145.04,34.87 144.64,35.13 144.52,35.26 144.38,35.4 
		144.38,35.79 144.38,36.06 144.64,36.32 144.64,36.58 144.64,36.98 144.64,37.11 144.52,37.24 144.38,37.38 144.25,37.64 
		143.45,38.04 142.66,38.7 141.88,39.22 141.47,39.63 141.08,40.02 140.68,40.15 140.68,40.29 140.15,40.68 139.89,41.07 
		139.63,41.47 139.36,42 139.1,42.39 138.83,42.93 138.57,43.18 138.31,43.71 138.31,44.11 138.17,44.5 137.91,44.91 137.78,45.43 
		137.65,45.96 137.65,46.48 137.65,46.62 137.38,47.28 136.86,47.8 136.59,47.94 136.06,48.21 135.8,48.6 135.54,49.12 135.4,49.39 
		135.27,49.78 135.14,50.32 135.01,50.71 134.61,51.37 134.61,51.64 134.61,52.03 135.01,52.43 135.27,52.96 135.4,53.09 
		135.4,53.22 135.54,53.49 135.4,53.88 135.27,54.54 135.14,54.81 135.01,54.94 134.74,55.33 134.48,55.86 134.22,56.39 
		133.82,57.05 133.42,57.84 133.03,58.77 132.9,59.16 132.76,59.56 132.63,59.95 132.5,60.35 132.24,60.75 132.24,60.88 
		131.97,61.27 131.58,61.8 131.05,62.2 130.78,62.33 130.52,62.73 130.39,62.99 130.12,63.39 129.99,63.65 129.73,64.31 
		129.19,65.37 128.8,66.03 128.41,66.55 127.87,67.35 127.21,68.14 126.69,68.53 125.77,69.2 125.23,69.59 124.71,69.86 
		124.44,69.99 124.05,70.12 123.91,70.25 123.66,70.65 123.52,70.91 123.25,71.18 123.12,71.44 122.86,71.71 122.34,72.1 
		122.2,72.1 121.8,72.37 121.41,72.76 121.02,73.03 120.88,73.03 120.36,73.16 120.09,73.16 119.95,73.16 119.56,73.42 
		119.43,73.55 119.29,73.69 118.9,74.08 118.5,74.61 118.11,75.53 117.84,76.19 117.71,76.33 117.45,76.85 117.45,76.99 
		117.45,77.12 117.45,77.38 117.58,77.65 117.84,77.78 118.24,77.65 118.63,77.65 119.04,77.25 119.43,76.99 119.69,76.72 
		119.95,76.46 120.09,76.33 120.36,76.19 120.61,76.19 120.88,76.19 120.88,76.46 120.88,76.72 122.73,79.1 	"/>
	<polygon class="st0" points="184.25,77.91 183.86,78.57 185.18,78.97 186.23,80.15 186.36,81.22 186.5,81.47 186.23,82 
		185.97,82.54 185.57,82.93 185.31,82.93 185.18,83.06 184.65,83.72 183.99,85.97 183.86,86.75 183.99,87.68 184.52,87.95 
		184.91,87.68 185.31,87.29 185.7,86.75 186.11,86.36 186.77,85.97 188.75,85.18 190.32,84.25 190.98,84.64 191.52,85.04 
		192.05,85.7 193.37,87.29 193.62,87.95 193.5,88.48 193.1,89.14 192.96,89.53 192.96,90.19 193.5,90.46 194.16,90.19 194.29,89.8 
		194.55,89.27 195.08,89 195.6,89 196.4,89.27 196.93,89.53 197.59,89.93 198.51,91.12 198.65,91.51 199.31,91.91 200.23,92.04 
		200.63,92.04 201.68,91.91 202.74,91.51 203.13,91.64 203.79,91.37 203.79,91.64 204.19,92.7 204.59,92.7 205.38,92.83 206.3,92.7 
		206.7,92.96 207.09,93.76 208.29,93.89 209.34,93.89 210,94.55 211.32,94.28 212.11,94.55 212.37,95.21 212.51,96.13 211.98,96.66 
		211.71,97.19 211.59,97.58 211.59,97.85 211.85,98.24 212.51,98.24 213.3,98.38 213.57,98.77 213.96,99.83 214.23,100.49 
		213.96,101.41 213.96,101.68 214.36,102.6 214.23,104.06 213.83,105.64 213.17,106.82 212.91,107.36 212.91,107.88 213.43,108.81 
		213.7,109.2 214.23,109.47 214.89,109.73 215.28,109.86 215.68,110 215.94,110.26 216.21,110.66 215.94,111.18 215.81,111.71 
		215.55,112.24 215.41,112.64 215.15,113.3 216.07,113.56 216.21,113.69 216.21,113.82 216.21,113.96 216.21,114.35 216.21,114.48 
		216.21,114.75 216.34,114.88 216.34,115.01 216.73,115.67 217,115.94 217.26,116.2 218.71,115.28 218.98,114.09 219.51,113.96 
		219.77,114.88 220.3,115.94 220.83,116.86 222.01,117.92 231.52,125.18 234.3,127.29 234.96,127.02 235.21,126.9 235.48,126.77 
		235.48,126.5 235.62,126.24 235.75,126.11 235.75,125.84 235.75,125.7 235.87,125.31 235.87,125.18 235.87,125.04 235.87,124.79 
		235.75,124.65 235.35,123.59 235.62,122.01 235.62,121.74 235.62,121.35 235.48,120.83 235.62,120.17 236.14,120.03 236.14,119.9 
		236.41,120.03 236.94,121.08 237.46,120.42 236.67,117.52 236.14,116.6 236.01,116.46 235.48,115.67 235.35,115.67 235.35,115.54 
		235.09,115.54 235.09,115.41 234.96,115.41 234.69,115.14 234.69,115.01 234.56,114.75 234.3,113.16 234.3,112.9 234.16,112.64 
		234.16,112.5 234.16,112.11 234.3,110.39 234.43,109.2 234.43,108.81 234.3,108.41 234.03,108.28 233.77,108.28 233.11,108.02 
		232.98,107.48 232.98,107.36 232.98,107.09 233.11,106.82 233.23,106.7 233.37,106.43 233.37,106.3 233.23,106.16 232.98,105.5 
		232.71,105.11 232.57,104.98 232.45,104.84 232.18,104.84 231.79,104.58 231.91,104.18 232.18,103.92 232.32,103.79 232.57,102.6 
		232.98,101.94 233.11,101.28 233.37,100.75 232.57,100.09 232.05,99.7 230.34,98.38 229.8,97.98 229.41,98.11 228.75,99.04 
		225.31,98.51 223.99,98.38 221.62,98.11 220.03,97.45 218.32,95.87 218.05,95.47 217.53,94.55 217.13,94.01 217,93.62 
		216.34,91.91 215.94,91.64 215.41,90.98 215.15,90.85 215.41,89.93 215.68,89.53 216.6,87.02 217.53,84.52 217.66,84.25 
		218.05,83.06 218.19,82.79 218.32,82.54 218.45,82.13 218.85,81.34 218.98,80.95 219.37,79.76 219.51,79.49 220.17,77.91 
		220.83,76.06 221.09,75.53 222.42,72.1 223.33,69.59 221.62,68.67 220.43,68.01 208.95,61.54 207.89,60.88 206.83,60.09 
		202.21,57.05 185.84,76.06 	"/>
	<polygon class="st0" points="233.3,330.28 232.51,330.54 232.37,331.2 233.17,331.46 	"/>
	<polygon class="st0" points="208.61,371.73 203.59,371.6 202.8,371.99 202.8,373.05 201.48,372.92 202.66,376.49 202.54,379.39 
		202.14,380.31 200.43,381.37 199.36,383.22 200.82,384.14 198.57,385.33 197.13,387.32 195.4,386.12 194.88,386.39 194.88,388.5 
		196.33,389.55 196.72,390.87 205.3,385.2 207.95,380.31 207.29,377.54 209.8,377.54 210.85,376.75 211.38,373.31 209.53,373.98 	
		"/>
	<polygon class="st0" points="195.67,384.8 195.93,383.75 195.67,382.69 194.74,382.43 195.01,384.68 	"/>
	<polygon class="st0" points="177.06,403.55 177.84,404.08 178.9,402.23 178.9,400.65 177.06,402.76 	"/>
	<polygon class="st0" points="215.87,358 215.35,357.61 214.69,358.27 214.81,358.93 215.61,359.32 	"/>
	<polygon class="st0" points="222.61,349.55 221.55,349.42 221.29,350.08 222.34,350.35 	"/>
	<polygon class="st0" points="237.53,322.88 236.74,326.05 234.49,327.24 234.88,329.74 233.03,333.18 232.9,334.5 228.15,341.1 
		227.09,344.8 223.53,350.87 223,352.46 221.41,353.51 220.23,356.29 219.04,357.34 218.25,360.25 216.79,360.91 216.67,363.15 
		215.61,364.47 216,365.66 217.19,364.73 220.36,358.66 222.87,355.36 226.3,348.49 233.03,337.4 236.47,328.16 239.11,323.01 
		238.97,320.5 	"/>
	<polygon class="st0" points="223.66,344.53 224.19,343.34 222.74,344.27 223,344.93 	"/>
	<polygon class="st0" points="218.51,352.46 217.45,352.58 217.59,353.78 218.51,353.51 	"/>
	<polygon class="st0" points="213.36,367.11 214.03,367.37 214.42,366.85 214.03,366.45 	"/>
	<polygon class="st0" points="265.72,94.55 265.19,94.15 254.5,87.95 252.25,86.63 248.95,84.64 231.39,74.08 223.33,69.59 
		222.42,72.1 221.09,75.53 220.83,76.06 220.17,77.91 219.51,79.49 219.37,79.76 218.98,80.95 218.85,81.34 218.45,82.13 
		218.32,82.54 218.19,82.79 218.05,83.06 217.66,84.25 217.53,84.52 216.6,87.02 215.68,89.53 215.41,89.93 215.15,90.85 
		215.41,90.98 215.94,91.64 216.34,91.91 217,93.62 217.13,94.01 217.53,94.55 218.05,95.47 218.32,95.87 220.03,97.45 
		221.62,98.11 223.99,98.38 225.31,98.51 228.75,99.04 229.41,98.11 229.8,97.98 230.34,98.38 232.05,99.7 232.57,100.09 
		233.37,100.75 233.11,101.28 232.98,101.94 232.57,102.6 232.32,103.79 232.18,103.92 231.91,104.18 231.79,104.58 232.18,104.84 
		232.45,104.84 232.57,104.98 232.71,105.11 232.98,105.5 233.23,106.16 233.37,106.3 233.37,106.43 233.23,106.7 233.11,106.82 
		232.98,107.09 232.98,107.36 232.98,107.48 233.11,108.02 233.77,108.28 234.03,108.28 234.3,108.41 234.43,108.81 234.43,109.2 
		234.3,110.39 234.16,112.11 234.16,112.5 234.16,112.64 234.3,112.9 234.3,113.16 234.56,114.75 234.69,115.01 234.69,115.14 
		234.96,115.41 235.09,115.41 235.09,115.54 235.35,115.54 235.35,115.67 235.48,115.67 236.01,116.46 236.14,116.6 236.67,117.52 
		237.46,120.42 236.94,121.08 236.41,120.03 236.14,119.9 236.14,120.03 235.62,120.17 235.48,120.83 235.62,121.35 235.62,121.74 
		235.62,122.01 235.35,123.59 235.75,124.65 235.87,124.79 235.87,125.04 235.87,125.18 235.87,125.31 235.75,125.7 235.75,125.84 
		235.75,126.11 235.62,126.24 235.48,126.5 235.48,126.77 235.21,126.9 234.96,127.02 234.3,127.29 234.03,127.82 233.5,129.14 
		233.5,130.07 233.64,130.86 232.84,132.31 232.32,133.5 233.37,133.76 234.03,134.69 234.56,135.21 234.96,136.27 235.62,136.4 
		236.94,135.35 238.52,134.95 238.52,135.35 238.52,137.19 238.78,137.72 239.44,137.85 240.24,137.46 240.37,136.4 239.97,135.21 
		240.37,133.62 241.82,132.05 243.27,130.73 244.86,129.93 245.12,129.93 246.57,129.8 247.76,129.14 248.29,128.34 249.34,128.09 
		250,127.29 250.4,127.43 251.33,128.61 252.12,129 253.84,130.86 253.7,131.52 254.23,131.78 254.5,131.39 255.55,129.54 
		256.48,127.68 257.4,125.7 257.53,125.31 259.38,120.83 261.1,116.33 261.37,115.54 262.28,113.03 263.08,110.79 263.6,108.68 
		264.53,104.98 265.19,102.86 266.11,99.04 266.38,97.58 266.77,94.68 	"/>
	<path class="st0" d="M253.84,130.86l-1.71-1.85l-0.8-0.39l-0.93-1.18l-0.39-0.14l-0.66,0.8l-1.05,0.26l-0.53,0.8l-1.18,0.66
		l-1.46,0.13h-0.26l-1.59,0.8l-1.46,1.32l-1.45,1.58l-0.39,1.59l0.39,1.19l-0.13,1.05l-0.8,0.39l-0.66-0.13l-0.27-0.53v-1.84v-0.4
		l-1.58,0.4l-1.32,1.05l-0.66-0.14l-0.4-1.05l-0.52-0.52l-0.66-0.93l-1.05-0.27l-0.4,1.45v0.14l-0.13,0.13h-0.13l-0.14,0.27
		l-0.13,0.13v0.14l-0.14,0.13v0.14l-0.13,0.26l-0.13,0.27v0.39l-0.27,0.27l-0.14,0.27l-0.13,0.13l-0.39,1.19l-0.27,1.05v0.39v0.27
		v0.27v0.27l0.13,0.27l0.14,0.52l0.27,0.39l0.13,0.27l0.13,0.27l0.27,0.13H231h0.13h0.39l0.8-0.13h0.13l0.13-0.13l0.14-0.14v-0.13
		l0.27-0.27l0.13-0.27l0.13-0.13l0.53-0.27l0.39-0.13h0.14h0.13h0.66h0.27l0.39,0.13h0.27l0.13,0.13l0.14,0.14l0.13,0.13l0.13,0.14
		v0.13v0.39l-0.39,1.59v0.39l-0.13,0.39l-0.14,1.85l0.8,1.19l-0.54,0.43l2.84-0.78l0.14,2.12l-3.3,4.89l-1.05,3.56l0.26,0.53
		l5.15-0.66l-1.19-1.59l0.4-0.66l3.56,1.05l0.4-0.26l-0.4-0.8l-2.11-1.45l2.37-1.05l0.39-1.59l1.85-0.14l2.37-2.9
		c0.33-0.06,0.66-0.12,1-0.19c0.13-0.7,0.27-1.41,0.4-2.11l0.52-3.57l0.53-2.11v-0.27l0.27-1.32l0.13-0.93l0.39-0.79l0.66-0.8
		l0.66-1.32l1.19-2.11c0.22-0.44,0.44-0.88,0.66-1.32l-0.53-0.27L253.84,130.86z"/>
	<polygon class="st0" points="240.95,287.89 241.61,288.69 242.02,287.36 241.36,286.57 	"/>
	<polygon class="st1" points="235.87,146.7 236.01,144.85 236.14,144.45 236.14,144.06 236.54,142.47 236.54,142.08 236.54,141.95 
		236.41,141.81 236.28,141.68 236.14,141.55 236.01,141.42 235.75,141.42 235.35,141.29 235.09,141.29 234.43,141.29 234.3,141.29 
		234.16,141.29 233.77,141.42 233.23,141.68 233.11,141.81 232.98,142.08 232.71,142.34 232.71,142.47 232.57,142.61 232.45,142.74 
		232.32,142.74 231.52,142.87 231.13,142.87 231,142.87 230.86,142.87 230.59,142.74 230.47,142.47 230.34,142.21 230.07,141.81 
		229.93,141.29 229.8,141.02 229.8,140.76 229.8,140.49 229.8,140.23 229.8,139.83 230.07,138.78 230.47,137.59 230.59,137.46 
		230.73,137.19 231,136.93 231,136.53 231.13,136.27 231.25,136.01 231.25,135.87 231.39,135.74 231.39,135.61 231.52,135.48 
		231.66,135.21 231.79,135.21 231.91,135.08 231.91,134.95 232.32,133.5 232.84,132.31 233.64,130.86 233.5,130.07 233.5,129.14 
		234.03,127.82 234.3,127.29 231.52,125.18 222.01,117.92 220.83,116.86 220.3,115.94 219.77,114.88 219.51,113.96 218.98,114.09 
		218.71,115.28 217.26,116.2 217,115.94 216.73,115.67 216.34,115.01 216.34,114.88 216.21,114.75 216.21,114.48 216.21,114.35 
		216.21,113.96 216.21,113.82 216.21,113.69 216.07,113.56 215.15,113.3 213.96,113.43 213.57,113.3 213.43,112.9 213.43,112.64 
		213.3,112.5 212.64,112.37 212.51,112.24 212.37,111.98 212.25,111.71 212.11,111.58 211.59,111.45 211.32,111.45 210.79,111.45 
		210.13,111.58 209.73,111.84 209.07,111.84 208.81,111.71 208.68,111.18 208.02,110.92 207.09,111.18 206.57,111.58 206.3,112.37 
		206.57,113.43 205.91,116.07 206.43,116.99 206.3,117.92 206.57,118.31 207.23,118.58 208.15,119.1 208.15,119.24 207.75,120.69 
		207.63,121.35 207.23,122.27 207.49,123.06 207.36,123.72 207.23,125.18 206.83,126.11 206.7,126.9 206.7,127.68 206.3,128.34 
		205.91,128.61 204.85,128.61 204.59,128.88 204.32,129.93 203.4,130.32 203,130.86 202.21,131.64 202.21,132.57 202.21,134.29 
		201.55,135.21 201.55,135.87 201.81,136.67 201.81,137.19 201.42,137.85 201.15,138.12 201.55,138.38 201.95,138.38 202.61,138.78 
		203,138.91 203.4,139.04 203.4,139.31 203,139.57 202.47,139.83 202.47,140.36 202.21,141.29 201.55,142.08 203.27,142.74 
		204.72,143.67 206.97,145.51 207.49,145.77 208.29,145.65 208.95,145.91 209.73,146.17 210.66,146.57 211.85,146.17 212.64,145.25 
		213.57,145.25 215.55,146.04 218.32,147.09 221.09,147.63 222.81,148.41 223.6,149.74 224.26,151.19 224.92,151.45 229.15,151.59 
		230.86,151.32 232.71,153.04 232.77,152.96 232.77,152.96 232.79,152.95 233.37,152.25 234.3,151.45 234.82,150.53 235.09,149.87 
		235.35,149.08 236.01,148.41 236.05,148.38 236.08,148.34 236.13,148.32 236.67,147.89 	"/>
	<polygon class="st0" points="190.78,386.12 193.69,384.8 193.95,384.27 193.03,383.09 192.9,380.45 191.05,381.77 191.31,382.43 
		190.39,385.33 	"/>
	<polygon class="st0" points="210.19,358.66 210.33,359.72 211.51,360.25 211.91,359.45 210.72,358.4 	"/>
	<polygon class="st0" points="241.36,278.78 241.88,279.84 241.88,277.99 	"/>
	<polygon class="st0" points="108.34,277.68 108.73,277.54 109.26,277.54 109.53,277.41 109.92,277.68 110.32,277.94 110.85,278.07 
		111.37,277.94 111.77,278.07 112.03,278.6 112.56,279 112.69,279.39 113.09,279.92 113.49,280.32 113.35,280.45 112.96,280.71 
		112.83,281.11 112.69,281.37 112.69,281.77 112.43,282.16 112.03,282.69 112.3,283.09 112.69,284.14 112.96,284.54 113.09,284.8 
		112.83,285.2 112.69,285.34 112.43,285.73 112.3,286 112.56,286.39 113.09,286.52 113.49,286.66 113.75,286.92 114.28,287.18 
		114.67,287.32 115.07,287.58 115.2,287.71 115.73,287.84 116.13,287.84 116.65,287.84 117.71,287.71 118.24,287.98 118.24,288.37 
		117.97,288.5 117.58,288.76 117.58,289.03 117.05,289.3 116.92,289.82 117.45,290.48 118.38,291.01 119.56,291.14 120.22,291.8 
		121.02,292.99 121.27,293.39 121.41,294.58 122.2,295.37 122.59,295.9 122.59,296.29 123.25,296.95 123.79,297.48 124.44,298.27 
		124.71,299.59 126.96,309.1 128.41,315.17 128.8,315.57 129.19,315.97 129.85,316.36 130.78,316.63 131.44,316.63 132.1,316.49 
		133.03,316.36 134.35,315.97 135.27,315.57 136.06,315.44 137.12,315.31 138.83,315.44 139.89,315.7 141.08,316.23 141.88,316.89 
		143.06,318.34 143.98,318.74 144.77,320.59 145.04,320.98 145.43,321.25 145.7,321.38 145.96,321.77 146.09,322.3 146.75,322.7 
		147.55,323.49 148.48,323.89 149.26,324.28 151.12,325.87 153.36,327.71 159.43,332.87 160.36,333.92 160.88,334.58 161.02,335.11 
		161.02,335.9 161.41,336.56 161.94,337.75 162.07,338.54 161.68,339.47 161.54,340.26 161.81,341.71 161.54,342.63 161.68,343.82 
		162.07,344.22 162.47,344.88 163,345.14 163.52,345.54 163.79,345.54 164.32,345.8 164.58,345.54 164.84,345.27 165.11,345.27 
		165.24,345.54 165.38,345.8 165.24,346.34 165.5,346.59 165.77,346.34 166.7,345.41 167.22,345.68 168.94,346.46 171.18,348.18 
		173.16,350.43 174.75,350.69 175.67,350.96 176.33,351.21 176.73,351.35 177.39,352.41 179.76,354.26 180.16,354.65 180.29,355.58 
		180.69,355.71 181.08,355.18 181.35,355.18 181.88,355.44 182.27,355.71 182.54,355.97 182.8,355.84 183.33,356.1 183.72,356.63 
		184.38,357.03 184.79,357.95 185.04,358.08 185.84,357.82 186.11,357.95 186.5,358.35 187.16,358.74 187.82,358.61 188.34,358.35 
		188.87,358.22 189.14,358.61 189.27,359.14 189.41,359.67 189.8,359.8 190.2,359.67 190.32,358.88 190.32,357.95 190.59,357.69 
		191.12,357.82 191.39,358.08 191.39,358.35 191.12,359.4 191.39,360.33 192.18,360.99 192.96,360.99 193.1,360.2 192.44,359.01 
		192.3,358.48 193.23,358.22 193.89,358.88 194.69,358.22 195.21,357.69 195.6,357.42 195.6,356.76 195.35,356.24 195.21,355.84 
		195.48,355.84 195.6,355.71 196.01,355.58 196.27,355.58 196.67,355.71 197.33,355.58 197.46,355.31 197.59,354.92 197.85,354.65 
		197.85,354.12 197.99,353.85 197.99,353.33 198.12,353.07 198.25,352.53 198.38,352.14 198.51,351.75 198.51,351.62 198.78,351.21 
		198.78,351.09 198.91,350.82 199.04,349.5 199.04,349.11 199.04,348.57 199.04,348.18 199.04,347.91 199.04,347 199.17,343.16 
		199.83,320.19 195.87,310.82 195.87,310.55 195.35,309.37 195.08,308.71 194.94,308.57 194.69,308.05 193.1,303.82 192.18,301.44 
		190.98,298.54 190.86,298.27 188.75,293.39 188.09,291.54 187.95,291.01 187.82,290.74 187.68,290.35 187.43,290.22 187.02,289.03 
		186.89,288.5 186.23,286.92 186.23,286.66 185.97,286.12 185.7,285.73 185.45,284.67 184.65,282.56 184.38,282.16 184.25,281.77 
		184.13,281.24 183.72,280.58 183.59,280.18 183.59,279.79 183.06,278.86 183.06,278.6 182.8,278.34 182.93,278.07 182.8,277.94 
		182.4,277.02 181.22,274.38 180.03,270.28 179.63,269.62 178.58,267.37 177.92,265.66 177.78,265.39 177.12,263.82 176.99,263.55 
		176.73,262.89 176.6,262.5 176.2,261.57 174.75,258.66 171.18,251.4 171.05,251.53 169.86,251.67 166.96,251.01 166.7,250.74 
		166.7,249.95 166.43,249.42 164.72,249.03 163.66,248.1 161.81,247.31 160.75,246.39 159.7,246.39 159.3,246.12 159.7,245.59 
		159.7,245.06 159.56,244.8 159.43,244.53 159.04,244.14 158.51,244.14 157.85,244.27 157.19,244.14 156.92,244.01 156.53,243.61 
		155.99,243.21 155.6,243.21 155.33,243.21 155.08,243.35 154.81,243.61 154.55,244.01 154.55,244.4 154.55,244.8 154.67,245.06 
		154.94,245.46 154.81,245.99 155.08,246.25 155.47,246.65 154.67,248.1 154.42,248.63 153.62,249.29 152.96,249.03 152.57,249.81 
		151.91,250.47 151.25,251.01 150.59,251.53 150.05,251.93 149.66,252.06 149.14,252.06 148.61,252.06 147.95,252.06 147.55,252.33 
		147.41,252.33 146.89,252.59 146.36,252.85 145.96,253.25 145.57,253.51 145.18,253.91 144.77,254.17 144.38,254.31 143.98,254.43 
		143.59,254.43 143.45,254.43 143.06,254.31 142.66,254.17 141.88,253.78 141.74,253.78 141.08,253.38 140.42,253.25 139.89,253.25 
		139.36,253.38 138.97,253.65 138.57,253.91 138.31,254.31 138.04,254.83 137.78,255.49 137.52,256.15 137.52,256.95 137.25,257.47 
		136.99,257.87 136.59,258.27 136.06,258.53 135.54,258.93 135.14,259.19 134.74,259.45 134.48,259.85 134.22,260.25 133.95,260.51 
		133.69,260.91 133.42,261.17 132.9,261.3 132.37,261.57 131.97,261.83 131.44,262.09 130.78,262.23 129.99,262.5 129.33,262.75 
		128.94,263.02 128.41,263.16 127.87,263.28 127.35,263.41 126.82,263.55 126.42,263.55 125.5,263.68 124.98,263.68 124.84,263.68 
		124.18,263.82 123.52,264.21 122.07,265.14 120.48,266.19 119.43,266.71 118.5,267.24 118.38,267.37 117.97,267.78 117.45,268.3 
		116.92,268.57 116.52,269.1 115.86,269.89 115.47,270.28 115.33,270.55 114.81,270.94 114.28,271.47 114.15,271.47 113.62,271.87 
		113.09,272.26 112.83,272.4 111.9,272.92 110.98,273.19 110.32,273.31 109.66,273.58 109.13,273.97 108.6,274.24 108.21,274.63 
		107.81,275.04 107.68,275.43 107.28,275.96 107.15,276.62 106.89,277.15 106.62,277.54 106.49,277.81 107.81,278.2 	"/>
	<polygon class="st0" points="96.72,298.14 96.59,298.8 96.98,299.06 97.77,299.59 98.17,300.38 98.7,301.44 99.62,302.1 
		100.41,302.89 101.87,303.82 102.79,304.75 103.05,305.27 102.93,306.19 103.05,306.59 102.93,308.05 102.53,309.1 102.53,310.42 
		103.19,311.08 104.37,312.14 104.37,313.33 104.64,314.12 105.03,314.24 105.17,314.51 105.57,315.44 106.35,316.1 107.15,316.76 
		107.68,317.02 108.34,317.68 108.6,318.34 108.73,319.13 109.39,319.93 110.05,320.85 111.11,322.17 111.51,322.83 111.51,324.15 
		111.37,325.87 112.03,326.39 113.22,326.79 115.07,328.37 115.47,329.43 117.31,330.62 119.29,331.55 123.39,332.6 124.32,333.53 
		124.57,334.45 125.5,335.11 126.82,337.35 127.09,338.67 127.48,341.84 127.75,343.29 128.14,344.22 128.67,344.48 129.19,344.75 
		129.33,345.68 129.33,346.07 129.33,346.34 130.39,347.52 131.31,348.18 138.17,340.26 147.55,329.83 151.12,325.87 149.26,324.28 
		148.48,323.89 147.55,323.49 146.75,322.7 146.09,322.3 145.96,321.77 145.7,321.38 145.43,321.25 145.04,320.98 144.77,320.59 
		143.98,318.74 143.06,318.34 141.88,316.89 141.08,316.23 139.89,315.7 138.83,315.44 137.12,315.31 136.06,315.44 135.27,315.57 
		134.35,315.97 133.03,316.36 132.1,316.49 131.44,316.63 130.78,316.63 129.85,316.36 129.19,315.97 128.8,315.57 128.41,315.17 
		126.96,309.1 124.71,299.59 124.44,298.27 123.79,297.48 123.25,296.95 122.59,296.29 122.59,295.9 122.2,295.37 121.41,294.58 
		121.27,293.39 121.02,292.99 120.22,291.8 119.56,291.14 118.38,291.01 117.45,290.48 116.92,289.82 117.05,289.3 117.58,289.03 
		117.58,288.76 117.97,288.5 118.24,288.37 118.24,287.98 117.71,287.71 116.65,287.84 116.13,287.84 115.73,287.84 115.2,287.71 
		115.07,287.58 114.67,287.32 114.28,287.18 113.75,286.92 113.49,286.66 113.09,286.52 112.56,286.39 112.3,286 112.43,285.73 
		112.69,285.34 112.83,285.2 113.09,284.8 112.96,284.54 112.69,284.14 112.3,283.09 112.03,282.69 112.43,282.16 112.69,281.77 
		112.69,281.37 112.83,281.11 112.96,280.71 113.35,280.45 113.49,280.32 113.09,279.92 112.69,279.39 112.56,279 112.03,278.6 
		111.77,278.07 111.37,277.94 110.85,278.07 110.32,277.94 109.92,277.68 109.53,277.41 109.26,277.54 108.73,277.54 108.34,277.68 
		107.81,278.2 106.49,277.81 106.35,278.07 105.83,278.6 105.43,279.26 104.77,279.79 104.11,280.32 103.19,280.71 102.13,281.11 
		101.07,281.37 100.41,281.64 99.49,281.9 98.3,282.69 97.64,283.22 97.38,283.48 97.11,283.62 96.59,284.14 96.19,284.67 
		96.06,285.07 95.79,285.6 95.79,286 95.66,286.66 95.66,287.44 95.79,288.1 95.79,288.76 95.93,289.56 96.06,290.35 96.32,290.88 
		96.45,291.54 96.59,292.07 96.72,292.46 96.72,293.26 96.59,293.78 96.59,294.05 96.32,294.84 96.19,295.37 95.66,296.03 
		95.27,296.56 95.27,296.69 96.32,297.35 	"/>
	<polygon class="st0" points="154.42,248.63 154.67,248.1 155.47,246.65 155.08,246.25 154.81,245.99 154.94,245.46 154.67,245.06 
		154.55,244.8 154.55,244.4 154.55,244.01 154.81,243.61 155.08,243.35 155.33,243.21 155.6,243.21 155.99,243.21 156.53,243.61 
		156.92,244.01 157.19,244.14 157.85,244.27 158.51,244.14 159.04,244.14 159.43,244.53 159.56,244.8 159.7,245.06 159.7,245.59 
		159.3,246.12 159.7,246.39 160.75,246.39 161.81,247.31 163.66,248.1 164.72,249.03 166.43,249.42 166.7,249.95 166.7,250.74 
		166.96,251.01 169.86,251.67 171.05,251.53 171.18,251.4 168.28,243.74 169.07,243.35 170,242.82 170.39,244.01 171.05,244.14 
		171.32,244.01 171.45,243.61 171.98,243.35 172.64,243.21 172.9,243.08 173.3,242.95 173.56,242.82 173.69,242.82 174.62,242.69 
		175.28,242.03 175.67,241.37 176.2,240.44 176.2,240.31 176.33,240.05 176.86,239.52 176.86,239.39 177.12,239.12 177.26,238.99 
		177.52,238.46 177.52,238.07 177.78,237.8 177.78,237.54 178.05,237.41 178.18,237.27 179.37,236.75 181.22,235.69 181.35,235.69 
		182.54,234.9 183.86,234.11 183.99,233.97 184.25,233.84 184.65,233.58 185.18,233.31 185.31,233.31 185.57,233.18 185.84,232.92 
		186.23,232.65 186.5,232.52 186.63,232.52 186.5,232.13 186.36,231.86 186.23,231.72 186.23,231.6 186.11,231.6 185.97,231.47 
		185.97,231.33 185.84,231.33 185.7,231.2 185.7,231.06 185.7,230.94 185.7,230.67 185.7,230.54 185.97,230.54 186.5,227.37 
		186.5,226.85 185.97,226.44 184.91,226.05 184.65,225.78 183.99,225.65 183.06,225.53 182.54,225.53 181.74,224.73 180.82,224.21 
		180.42,223.67 179.9,223.41 179.37,223.55 178.84,223.8 178.58,223.94 178.31,223.8 177.26,223.67 176.46,223.55 175.8,223.28 
		175.14,222.35 172.5,220.77 171.98,219.98 171.71,219.58 171.05,219.45 170,219.32 169.07,217.86 168.54,217.47 167.75,217.47 
		166.82,217.47 166.7,216.81 166.56,215.88 166.16,214.7 166.3,213.9 166.56,212.85 167.36,208.62 167.36,207.96 167.36,207.44 
		167.22,207.04 166.96,206.12 163.39,205.32 162.34,205.45 153.76,208.49 153.36,208.1 152.69,206.38 152.3,205.19 151.64,203.34 
		151.37,202.81 150.19,199.78 149.93,199.38 141.61,200.7 142.4,206.24 133.29,207.96 134.88,213.77 123.91,214.83 124.32,215.36 
		124.71,215.75 124.98,216.15 125.5,216.81 126.03,217.34 126.55,217.86 126.96,218.26 127.09,218.26 127.48,218.52 128.14,218.79 
		128.53,218.79 129.07,218.92 129.33,219.05 129.85,219.32 130.12,219.45 130.52,219.71 130.92,219.98 131.31,220.24 131.97,221.16 
		132.63,221.96 133.15,222.62 133.56,223.14 133.69,223.41 134.35,224.6 134.74,225.39 135.01,226.31 135.27,227.24 135.54,227.9 
		135.8,228.56 136.06,229.08 136.33,229.74 136.72,230.4 136.99,230.94 137.25,231.2 137.52,231.47 137.91,231.6 138.83,232.26 
		139.89,232.92 140.42,233.18 141.08,233.45 141.88,233.84 142.4,234.24 143.06,234.63 143.2,234.77 143.85,235.16 144.64,235.82 
		145.18,236.09 145.7,236.61 145.96,236.88 146.09,237.14 146.5,237.54 146.75,238.2 147.02,238.73 147.28,239.25 147.55,239.91 
		147.82,240.31 148.07,240.71 148.07,241.23 148.21,241.76 148.34,242.03 148.61,242.42 149,242.69 149.39,243.08 149.66,243.35 
		150.05,243.48 150.59,243.74 150.71,243.87 150.98,244.14 151.37,244.53 151.51,244.67 151.91,245.06 152.57,245.72 152.96,246.51 
		153.23,247.31 153.23,248.37 152.96,248.89 152.96,249.03 153.62,249.29 	"/>
	<path class="st0" d="M56.05,387.52v-0.79l0.27-0.13h0.66v-0.66v-0.4l0.13-0.39l-0.39-0.27l-0.27-0.92v-0.4l-0.39-0.66v-0.26
		l0.13-0.27l0.14-0.53l0.66-0.93v-0.39l-0.66-0.27L55.79,380l0.13-0.53l0.14-0.27l0.13-0.13l0.14-0.53v-0.39l0.26-0.27l0.14-0.13
		l0.13-0.8v-0.66l0.27-0.52l0.79-1.19l0.4-0.13l3.03,0.66l0.79,0.27l0.8-0.14l0.39-0.79l0.39-1.05l1.45-1.06l0.8-1.32l0.39-1.18
		l0.53-0.39l1.05,0.13l1.32-0.27l1.05-0.39l1.32-1.71l9.51-10.3l21.52,18.61l0.27-0.79v-1.32l0.93-2.12v-0.39l-0.14-0.93v-0.66
		l0.14-0.27l-0.8-0.92l0.14-0.4l0.39-0.92v-1.06l0.13-1.18l0.66-1.85l-0.27-2.77v-0.93v-0.66l0.53-0.13l0.27-0.27v-0.27l-0.14-0.39
		l0.53-1.19l0.39-0.79l-3.96-3.83l-9.51-8.85l-3.7-3.43l-1.98-1.85l-0.66-0.13l-0.79,0.13l-0.8,0.66l-0.79-0.26h-0.27l-1.18,0.26
		l-0.66-0.26l-1.06-0.27l-0.26-0.8l-0.4-0.66l-0.13-0.66l-0.13-0.52l-0.4-0.27l-0.79-0.39l-1.05-0.27l-1.32,0.39l-0.66,0.14
		l-0.93-0.53l-0.79-0.66L72.95,333h-0.93l-0.79,0.27l-0.53-0.79l-0.13-0.14l-0.8,0.27h-0.39l-0.13-0.4l-0.14-0.53l-0.39-0.39
		l-0.66-0.93l-0.39-0.52H67.4l-0.66-0.14l-0.52-0.39l-0.27-0.39l-0.27-0.27l-0.93-0.13l-0.52-0.14l-0.4-0.66l-0.13-0.52l-0.27-0.4
		l-0.52-0.39l-0.27-0.27l-0.14-0.66v-0.39l0.14-0.52v-0.4v-0.13l-0.53-1.32l-0.27-0.39l-0.66-0.14l-0.26-1.18l-0.66-0.27l-0.8-0.39
		l-0.27-0.53l-0.26-0.39l-0.14-0.27h-0.39v-0.52l0.39-0.53l0.27-0.39v-1.46l-0.53-0.66l-0.13-0.66H57.9l-0.66,0.27h-0.79L55,315.44
		l-0.27-0.27l-0.39,0.39l-1.06,0.93l-0.92,1.05l-0.53,0.53l-0.39,0.53l-0.27,0.13l-0.39,0.39l-0.14,0.27l-0.26,0.53l-0.27,0.52
		l-0.14,0.53l-0.26,0.66l-0.26,0.79l-0.39,0.66l-0.27,0.53l-0.27,0.66l-0.27,0.52v0.53l-0.13,0.53l-0.14,0.79v0.53l-0.13,0.26v0.27
		l-0.27,0.27h-0.13h-0.27l-0.39-0.13h-0.14h-0.26l-0.14,0.39l-0.13,0.27l-0.39,0.79v0.13l-0.4,0.66l-0.13,0.14l-0.53,0.66
		l-0.39,0.27l-0.27,0.39l-0.13,0.52l-0.13,0.66v0.66l-0.14,0.66v0.4l-0.13,0.79l-0.14,0.53l-0.26,0.52l-0.27,0.39l-0.39,0.4
		l-0.27,0.52l-0.39,0.27l-0.27,0.39l-0.26,0.39L41,338.94l-0.13,0.39l-0.27,0.4l-0.13,0.13l-0.14,0.13l-0.52,0.4l-0.53,0.26
		l-0.39,0.27l-0.39,0.39l-0.27,0.27l-0.27,0.27l-0.39,0.39l-0.27,0.39l-0.27,0.53l-0.13,0.39l-0.14,0.39l-0.13,0.4v0.79l0.27,1.19
		l0.26,1.18l0.13,0.27v0.27l0.27,0.39l0.52,0.53l0.66,0.39l0.27,0.27l0.39,0.13h0.27l0.27,0.27l0.13,0.27v0.26l0.27,0.4l0.14,0.26
		l0.26,0.27l0.4,0.27l0.52,0.13l0.53,0.14l0.52,0.52l0.4,0.4l0.13,0.52l0.13,0.66l-0.13,0.66l-0.13,0.27l-0.27,0.53l-0.14,0.66
		l-0.26,0.52l-0.27,0.39l-0.27,0.4l-0.27,0.39l-0.52,0.52l-0.53,0.53l-0.27,0.27l-0.13,0.52l0.13,0.27l0.14,0.27l0.26,0.27
		l0.27,0.13v0.14v0.66v0.92l-0.27,0.66v0.4v0.39l0.14,0.13l-0.14,0.53l-0.13,0.39v0.27l-0.13,0.39l0.13,0.53v0.13l0.27,0.53
		L41,367.2l-0.27,0.13l-0.26,0.14l-0.27,0.13l-1.59,0.13l-1.45,0.14l-0.66-0.14h-0.4l-0.26,0.66l-0.14,0.4l-0.39,1.05l-0.13,0.52
		v0.66l0.79,1.59l1.05,1.85l0.53,0.52c0.44,0.48,0.89,0.96,1.33,1.44l1.1-0.86l2.77-0.13l3.7,2.64l3.17,3.43l1.45,3.17l2.51,1.98
		l0.66,1.18l0.93,0.53l0.86-0.26v-0.32V387.52z"/>
	<polygon class="st0" points="56.45,315.17 57.24,315.17 57.9,314.91 58.43,314.91 58.56,315.57 59.09,316.23 59.09,317.68 
		58.82,318.08 58.43,318.61 58.43,319.13 58.82,319.13 58.96,319.4 59.22,319.79 59.48,320.32 60.28,320.72 60.94,320.98 
		61.2,322.17 61.86,322.3 62.12,322.7 62.65,324.02 62.65,324.15 62.65,324.55 62.52,325.07 62.52,325.47 62.65,326.13 
		62.92,326.39 63.44,326.79 63.71,327.19 63.84,327.71 64.24,328.37 64.76,328.51 65.69,328.64 65.96,328.91 66.22,329.3 
		66.74,329.69 67.4,329.83 67.67,329.83 68.07,330.35 68.72,331.28 69.12,331.67 69.26,332.21 69.39,332.6 69.78,332.6 
		70.58,332.34 70.71,332.47 71.24,333.26 72.03,333 72.95,333 73.48,333.26 74.27,333.92 75.2,334.45 75.86,334.32 77.18,333.92 
		78.23,334.19 79.02,334.58 79.43,334.85 79.55,335.37 79.68,336.03 80.09,336.69 80.34,337.49 81.41,337.75 82.07,338.01 
		83.25,337.75 83.51,337.75 84.3,338.01 85.1,337.35 85.89,337.22 86.55,337.35 88.53,339.2 92.22,342.63 101.73,351.48 
		105.69,355.31 116.26,365.08 131.31,348.18 130.39,347.52 129.33,346.34 129.33,346.07 129.33,345.68 129.19,344.75 128.67,344.48 
		128.14,344.22 127.75,343.29 127.48,341.84 127.09,338.67 126.82,337.35 125.5,335.11 124.57,334.45 124.32,333.53 123.39,332.6 
		119.29,331.55 117.31,330.62 115.47,329.43 115.07,328.37 113.22,326.79 112.03,326.39 111.37,325.87 111.51,324.15 111.51,322.83 
		111.11,322.17 110.05,320.85 109.39,319.93 108.73,319.13 108.6,318.34 108.34,317.68 107.68,317.02 107.15,316.76 106.35,316.1 
		105.57,315.44 105.17,314.51 105.03,314.24 104.64,314.12 104.37,313.33 104.37,312.14 103.19,311.08 102.53,310.42 102.53,309.1 
		102.93,308.05 103.05,306.59 102.93,306.19 103.05,305.27 102.79,304.75 101.87,303.82 100.41,302.89 99.62,302.1 98.7,301.44 
		98.17,300.38 97.77,299.59 96.98,299.06 96.59,298.8 96.72,298.14 96.32,297.35 95.27,296.69 94.61,297.22 94.08,297.61 
		93.68,297.74 92.88,298.01 91.97,298.01 90.9,298.01 89.85,297.88 89.33,297.88 89.06,297.88 88.92,297.88 88.4,298.14 
		88.14,298.4 88.01,298.4 87.74,298.67 87.6,298.67 87.35,299.06 86.28,299.99 85.37,300.78 85.23,300.91 84.17,301.57 
		82.73,302.23 81,302.89 80.09,303.02 79.02,303.29 78.11,303.55 77.18,303.82 76.38,303.95 75.46,304.09 74.54,304.09 
		73.22,303.95 71.9,303.68 70.97,303.55 70.04,303.55 69.26,303.55 68.6,303.82 68.07,303.95 67.8,304.09 67.14,304.34 
		66.48,304.75 65.56,305.27 64.5,306.07 63.58,307.12 61.2,309.1 57.24,312.14 58.43,313.19 57.77,313.58 56.45,314.12 
		55.79,314.51 55.66,314.65 54.86,315.04 54.73,315.17 55,315.44 	"/>
	<path class="st0" d="M125.64,425.81v-0.39v-0.39l-0.66-0.39l-0.53,0.26v-0.26v-0.27l0.27-0.27l0.27-0.27l-0.14-0.13h-0.39
		l-0.39-0.27v-0.39l-0.14-0.39l0.14-0.27l0.13-0.27l0.14-0.39l-0.14-0.66l-0.13-0.39v-0.66v-0.53v-0.66l0.79-0.66l0.93-0.13
		l0.79-0.14l0.4-0.26l0.66-0.66l0.92-0.8l1.46-12.4l0.52-0.8l0.53-0.27l0.93-0.92l0.66-1.46l0.27-0.52v-1.72l0.26-2.77l0.53-1.85
		l0.53-1.32l0.26-0.66v-0.92v-0.66v-0.4l-0.26-0.66l-0.27-0.66l-0.14-0.52l-0.26-0.53l0.13-0.66l0.13-0.27l0.27-0.66l0.14-0.26
		l0.13-0.53v-0.53v-0.13l-0.27-0.66v-0.39l-0.13-1.32l-17.7-16.64l-10.56-9.77l-0.39,0.79l-0.53,1.19l0.14,0.39v0.27l-0.27,0.27
		l-0.53,0.13v0.66v0.93l0.27,2.77l-0.66,1.85l-0.13,1.18v1.06l-0.39,0.92l-0.14,0.4l0.8,0.92l-0.14,0.27v0.66l0.14,0.93v0.39
		l-0.93,2.12v1.32l-0.27,0.79L81.14,356.9l-9.51,10.3l-1.32,1.71l-1.05,0.39l-1.32,0.27l-1.05-0.13l-0.53,0.39l-0.39,1.18l-0.8,1.32
		l-1.45,1.06l-0.39,1.05l-0.39,0.79l-0.8,0.14l-0.79-0.27l-3.03-0.66l-0.4,0.13l-0.79,1.19l-0.27,0.52v0.66l-0.13,0.8l-0.14,0.13
		l-0.26,0.27v0.39l-0.14,0.53l-0.13,0.13l-0.14,0.27L55.79,380l0.53,0.26l0.66,0.27v0.39l-0.66,0.93l-0.14,0.53l-0.13,0.27v0.26
		l0.39,0.66v0.4l0.27,0.92l0.39,0.27l-0.13,0.39v0.4v0.66h-0.66l-0.27,0.13v0.79v0.27v0.32l1.78-0.54l-0.14,1.46l0.8,0.52l1.05,4.49
		l3.57,3.57h0.93l1.05-1.71l2.5,0.66l0.66,2.9l1.46,2.64v1.85l3.16,2.77l0.8,0.53l1.58-2.25h3.17l0.27,1.32l1.98,0.66v0.93
		l-1.19,1.05l0.66,0.93l2.25,1.59l3.57,1.58l0.39,2.24l1.32-0.66l1.85,0.66l1.05,1.98l-0.66,3.17l1.05,0.79l-0.13,0.66l-1.19,0.27
		v1.05l1.98,0.8l2.51,3.03l2.24-0.8l0.93-3.3l2.51-1.18l3.82,0.52l3.04-0.39l0.39-1.18l1.18-0.14l0.8,0.39l1.05,2.78l-0.79,0.66
		v0.66l0.66,0.52l2.9-0.13l1.72,0.39l4.09-0.39l7.05,3.05c0.09-0.81,0.19-1.63,0.28-2.44L125.64,425.81z"/>
	<path class="st0" d="M161.81,405.61l-0.4-0.52l-0.53,0.13h-0.27l-0.39,0.27l-0.27,0.39l-0.13,0.27l-0.4,0.39h-0.14v-0.27v-0.27
		l-0.26-0.52h-0.14h-0.13l-0.39,0.39h-0.4l-0.39,0.27l-0.52,0.13l-0.27,0.14l-0.39,0.13h-0.53l-0.27-0.27l-0.13-0.13l-0.4-0.27
		l-0.26,0.13h-0.14l-0.26-0.13h-0.27l-0.14,0.27l-0.39,0.27l-0.39-0.14l-0.27-0.39l-0.39-0.39h-0.39l-0.39-0.14l-0.66-0.13h-0.53
		l-0.53,0.13l-1.05,0.27l-0.66,0.27l-0.39-0.39l-0.13-0.53l-0.27-0.27l-0.27,0.27l-0.39,0.39l-0.53-0.39l-0.93-0.27l-0.52,0.27
		l-0.14-0.27v-0.39v-0.39l-0.79-0.27l-0.53-0.13l-0.39,0.13l-0.27,0.27l-0.39-0.13l-0.27-0.27l-0.39-0.14h-0.27h-0.13l-0.53,0.4
		l-1.45-0.27l-1.05,0.27l-0.66-0.27l-0.39-0.39l-0.66-0.93l-0.53-0.14l-1.32-0.39l-0.79-0.13l-0.66-0.39l-0.39-1.32l-0.27,0.52
		l-0.66,1.46l-0.93,0.92l-0.53,0.27l-0.52,0.8l-1.46,12.4l-0.92,0.8l-0.66,0.66l-0.4,0.26l-0.79,0.14l-0.93,0.13l-0.79,0.66v0.66
		v0.53v0.66l0.13,0.39l0.14,0.66l-0.14,0.39l-0.13,0.27l-0.14,0.27l0.14,0.39v0.39l0.39,0.27h0.39l0.14,0.13l-0.27,0.27l-0.27,0.27
		v0.27v0.26l0.53-0.26l0.66,0.39v0.39v0.39l0.39,0.27c-0.09,0.81-0.19,1.63-0.28,2.44l0.87,0.38l2.11,3.44l0.4,6.34l-3.3,6.73
		l-1.32,5.15l-3.17,3.57l-1.05,4.36l-1.85,3.83l-0.27,5.54l-1.18,1.98l0.79,1.46l-0.52,1.32l0.4,0.27l3.57,0.13l6.07-1.45l3.43-1.46
		l0.66-0.66l-0.26-0.66l-3.96,0.66l-0.53-0.52l0.53-0.93l3.82-0.53l-0.13-1.32l-1.46-0.52l-0.26-1.06l0.39-0.26l1.32,0.66l0.66-0.4
		l-0.53-2.24l0.66-0.4l1.32,0.66l1.71-0.66l1.19,0.8l-0.93,1.84l-1.32,0.4l-1.05-0.4l-0.53,0.4l0.14,3.82l0.52,0.53l10.31-8.98
		l0.66-1.85l-1.98-3.96l1.71-0.79l0.93-3.17l1.84-1.98l0.27-1.19l-1.19-3.7l-1.32,1.05l-1.05-1.71l0.39-1.84l3.3-0.93l0.8,0.66
		l0.39,2.25l-0.66,2.24l1.32,2.51l-0.66,0.79l-1.71,0.8l-0.93,2.11l0.13,3.17l3.83-3.69l3.43-6.47l2.38-3.17l-0.4-1.72l-3.16,0.8
		l0.27-1.98l-2.25-0.4l0.52-0.66l2.12-0.26l0.52-2.64l1.19-0.8l-0.39,3.44l0.39,0.52l1.19-0.66l0.92-2.5l1.32-0.93l2.51-5.15
		l2.77-3.69l0.14-0.93l-1.85-0.93l1.19-0.39l0.39-1.59l2.91-0.39l1.45-1.32l1.71-4.09l2.12-2.64l1.59-1.32l3.96-1.45l0.52-2.25
		l-0.93-1.46l-1.58,0.4l-3.17,2.24l-1.59-0.92l-0.79,1.05l0.39,1.84l-3.04,2.38l0.79-4.89l-2.25-0.8l-2.9-0.26l0.46-0.57
		c-0.04-0.14-0.09-0.27-0.13-0.41V405.61z"/>
	<path class="st0" d="M200.02,371.33l-2.24-2.11l-0.66-1.19l0.13-1.45l-1.45-1.59l0.13-2.51l0.66-0.26l-1.05-3.83l0.01,0
		c-0.11-0.24-0.23-0.47-0.34-0.71l-0.52,0.53l-0.8,0.66l-0.66-0.66l-0.93,0.26l0.14,0.53l0.66,1.19l-0.14,0.79h-0.79l-0.79-0.66
		l-0.27-0.93l0.27-1.05v-0.27l-0.27-0.27l-0.53-0.13l-0.27,0.27v0.93l-0.13,0.79l-0.39,0.13l-0.39-0.13l-0.14-0.53l-0.13-0.52
		l-0.27-0.39l-0.53,0.13l-0.52,0.27l-0.66,0.13l-0.66-0.39l-0.39-0.39l-0.27-0.14l-0.8,0.27l-0.26-0.13l-0.4-0.93l-0.66-0.39
		l-0.39-0.53l-0.52-0.27l-0.27,0.14l-0.27-0.27l-0.39-0.27l-0.53-0.27h-0.27l-0.39,0.53l-0.4-0.13l-0.13-0.93l-0.4-0.39l-2.38-1.85
		l-0.66-1.05l-0.39-0.14l-0.66-0.26l-0.93-0.27l-1.59-0.27l-1.98-2.25l-2.24-1.71l-1.72-0.79l-0.52-0.27l-0.93,0.93l-0.27,0.26
		l-0.27-0.26l0.14-0.53l-0.14-0.27l-0.13-0.27h-0.27l-0.27,0.27l-0.26,0.27l-0.53-0.27h-0.27l-0.52-0.39l-0.53-0.27l-0.39-0.66
		l-0.39-0.4l-0.14-1.19l0.27-0.92l-0.27-1.46l0.14-0.79l0.39-0.93l-0.14-0.79l-0.52-1.19l-0.39-0.66v-0.79l-0.14-0.53l-0.52-0.66
		l-0.93-1.05l-6.08-5.15l-2.24-1.84l-3.57,3.96l-9.38,10.43l-6.86,7.92l-15.06,16.9l17.7,16.64l0.13,1.32v0.39l0.27,0.66v0.13v0.53
		l-0.13,0.53l-0.14,0.26l-0.27,0.66l-0.13,0.27l-0.13,0.66l0.26,0.53l0.14,0.52l0.26,0.66l0.26,0.66v0.4v0.66v0.92l-0.26,0.66
		l-0.53,1.32l-0.53,1.85l-0.26,2.77v1.72l0.39,1.32l0.66,0.39l0.79,0.13l1.32,0.39l0.53,0.14l0.66,0.93l0.39,0.39l0.66,0.27
		l1.05-0.27l1.45,0.27l0.53-0.4h0.13h0.27l0.39,0.14l0.27,0.27l0.39,0.13l0.27-0.27l0.39-0.13l0.53,0.13l0.79,0.27v0.39v0.39
		l0.14,0.27l0.52-0.27l0.93,0.27l0.53,0.39l0.39-0.39l0.27-0.27l0.27,0.27l0.13,0.53l0.39,0.39l0.66-0.27l1.05-0.27l0.53-0.13h0.53
		l0.66,0.13l0.39,0.14h0.39l0.39,0.39l0.27,0.39l0.39,0.14l0.39-0.27l0.14-0.27h0.27l0.26,0.13h0.14l0.26-0.13l0.4,0.27l0.13,0.13
		l0.27,0.27h0.53l0.39-0.13l0.27-0.14l0.52-0.13l0.39-0.27h0.4l0.39-0.39h0.13h0.14l0.26,0.52v0.27v0.27h0.14l0.4-0.39l0.13-0.27
		l0.27-0.39l0.39-0.27h0.27l0.53-0.13l0.4,0.52v0.53c0.04,0.14,0.09,0.27,0.13,0.41l0.72-0.89l-1.32-1.72l0.8-0.93l2.24,1.19
		l1.06-1.19l1.71,1.19l2.37-0.8l4.89,0.8l1.59-1.85l-0.93-2.25l1.18-2.5l0.53-0.27l1.59,1.05l0.79-0.13l0.14-1.72l1.18-1.32
		l0.53-3.3l1.45-0.66h1.98l0.93,0.52l0.27,1.46l-0.93,1.84l-0.93,0.39l0.8,0.53l-0.14,0.66l-3.03,2.11l-0.27,1.98l-1.45,2.25
		l-0.14,1.32l1.46-0.13l5.55-4.62l4.36-1.71l5.8-3.83l-0.52-2.51l-1.85-0.66v-1.32l-1.59-0.52v-1.32l-0.66-0.4l-3.04-0.4l-2.11,1.19
		l-0.39-3.96l2.5-1.32l0.66-1.05v-2.91l0.66-0.93h1.05l0.53-2.37l0.79,0.13l0.14,0.66l1.71,0.26l0.27,1.98l1.84,2.25l1.85-1.19
		l-1.59-3.43l1.46-1.32l-0.93-1.45l-0.93-0.14l-0.13-0.52l0.66-0.93l1.45,0.13l0.27,0.93l1.05,0.13l0.53-0.66L200.02,371.33z"/>
	<path class="st0" d="M249.54,263.07l-0.13-1.98l-0.93-0.93h-2.64l-2.25,1.19l-2.11-0.53l-1.05-1.18l-0.53-3.3l0.53-0.8l0.15,0.37
		l0.32-0.94l-1.72-1.32l-0.26-0.14l-0.8-0.26l-0.39-0.53l-0.13-0.66l-0.53,0.53l-0.13,0.13l-3.17,4.36l-2.25,2.51l-0.13-0.27
		l-0.53-0.39v-0.66l-0.13-0.53l-0.27-0.52l-0.93-0.14l-0.39-0.13l-0.66-0.39h-0.66l-0.93-0.14h-0.66l-0.66-0.13l-0.52-0.14
		l-0.4,0.14l-0.92,0.39l-1.06,0.26h-0.66l-1.18-0.26l-1.32-0.39l-0.39-0.66l-0.27-0.53l0.27-1.05l0.13-0.66l-0.39-1.19l-0.66-1.58
		l-0.66-0.93l-0.53-0.39l-0.13-1.72l-0.14-0.52l-0.26-0.8l-0.4,0.14l-4.09-0.14l-3.96-0.26l-11.49-0.27l-5.68,5.02l-10.56,9.64
		l-3.69,2.12l0.13,0.39l0.27,0.66l0.13,0.27l0.66,1.58l0.14,0.27l0.66,1.71l1.05,2.25l0.39,0.66l1.19,4.1l1.18,2.64l0.4,0.92
		l0.13,0.14l-0.13,0.27l0.26,0.26v0.27l0.53,0.93v0.39l0.13,0.39l0.4,0.66l0.13,0.53l0.13,0.39l0.27,0.39l0.8,2.12l0.26,1.05
		l0.27,0.39l0.27,0.53v0.27l0.66,1.58l0.13,0.53l0.4,1.19l0.26,0.13l0.14,0.39l0.13,0.27l0.14,0.53l0.66,1.84l2.11,4.89l0.13,0.27
		l1.19,2.91l0.93,2.37l1.59,4.23l0.26,0.52l0.14,0.14l0.27,0.66l0.52,1.18v0.27l3.96,9.37l-0.66,22.98l-0.13,3.83v0.92v0.26v0.39
		v0.53v0.39l-0.14,1.32l-0.13,0.27v0.13l-0.27,0.4v0.13l-0.13,0.39l-0.14,0.39l-0.13,0.53l-0.13,0.27v0.52l-0.14,0.27v0.53
		l-0.27,0.27l-0.13,0.39l-0.13,0.27l-0.66,0.13l-0.4-0.13h-0.26l-0.4,0.13l-0.13,0.13h-0.27l0.14,0.4l0.26,0.52v0.66l-0.39,0.27
		c0.11,0.24,0.23,0.47,0.34,0.71l0.51-0.26l1.98,1.32l0.4,1.98l4.48,0.27l-0.27-1.19l0.53-0.52l0.79,0.39l0.14,0.93l1.32,0.27
		l1.18-0.66l1.98,1.45l-0.39,0.93l0.66,1.05l-0.79,0.39l-0.27,1.98l0.39,0.39l0.93-0.66l1.85,0.27v-1.05l1.45-1.71l-0.13-1.98
		l-3.96-2.91l-0.27-1.19l-1.05-0.92l0.13-2.38l1.32,0.8l0.66-1.59l1.45-0.39l0.53-2.91l1.32-0.79l1.45,1.05v-1.85l1.06-0.39
		l0.79,0.93l1.71-0.53l-0.52-1.71l0.92-1.32v-0.93h1.19l-0.27-2.5l1.19,0.26l1.32-0.79l1.32,0.27l1.45-2.25v-1.19l1.05-1.18
		l2.91-1.46l-1.32-0.79l0.8-1.71l1.45-0.66l0.13-1.71l1.85,0.13l0.93-1.45l0.13-0.27l-2.64-0.53l-0.39-0.66l2.11-0.39l-0.26-3.03
		l-3.44-0.66v-3.3l1.19-2.25l-0.93-2.37l1.85-1.71l0.66-3.57l1.98-0.8l-0.14-0.79l-1.71-0.27v-0.52l2.37-1.06l1.32-3.43l1.98-1.19
		l-0.93-0.79l-3.03-0.13v-0.93l2.51-0.27l0.93-4.62l1.32-2.51l2.5-2.11v-0.66l-0.79-0.39h-5.15l-2.5-1.85l-2.51-0.13l-0.39-1.46
		l3.03-0.39l1.98,1.59l2.37,0.53l2.78-1.46l0.39-1.59l-0.27-1.05l0.93-1.98l-1.32-1.59l0.66-1.45l-0.8-0.53l-1.45,0.93l-1.45-0.66
		l-0.27-0.66l0.79-1.59l2.25,0.4l0.79-0.8l1.19,0.26l0.27-0.66l-0.8-0.93l-3.16-0.39l-0.14-0.53l0.8-1.05l-1.46-1.71l1.19-0.39
		l1.71,1.71l1.85,0.27l0.93,1.59l1.58-0.14l0.27-2.11l1.46-1.59l0.13-1.98l-0.93-0.27l-2.91,1.05l-0.39-0.52
		c-0.53,0.04-1.06,0.09-1.59,0.13l-0.92-0.93h-0.8l-0.52-1.32l0.92-0.39l0.8,0.93l3.57,0.66l3.96-2.25l1.32,0.27l-0.93,2.77v5.94
		l-2.64,9.51l-0.93,0.8l1.19,3.16l-1.32,3.7l-0.66,5.28l-0.66,12.54l-1.19,3.04l0.39,3.56l-0.39,0.66l-1.05-0.39l-0.53,1.05
		l1.05,0.14l0.66,0.79l0.66-0.13l0.93-2.37l0.27-5.55l1.85-9.77l0.26-8.19l3.04-16.24l-0.14-2.5L249.54,263.07z"/>
	<polygon class="st0" points="232.77,152.96 232.79,152.95 232.77,152.96 	"/>
	<path class="st0" d="M223.6,167.83l-0.27-0.39l-0.26-0.14l-0.53,0.14l-0.79,0.13l-1.59-0.13l-0.66,0.13l-0.53,0.14l-1.71-0.27v0.13
		l-0.39,0.8l-0.66,0.13l-1.46,0.39l-1.98,0.27l-0.26,0.13l-0.14-0.13l-0.39-0.27l-0.66-0.93l-0.27-0.66v-1.05l-0.27-0.13l-1.98,0.13
		l-10.96,1.32l-8.05,0.66l-0.93,0.14l-0.53-0.66l-1.18,0.52l-1.05,1.05l-1.85,0.66l-1.98,1.06l-1.32,1.18l-0.53,1.85l0.27,0.93v0.39
		l1.05,2.11l0.66,0.93l1.59,1.32l0.93,1.05l1.05,2.51l0.53,0.27l2.64,0.52l0.39,1.32l0.39,1.19l-0.13,0.66l-1.05,0.52l-1.72,0.66
		l-0.13,0.14l-0.53,0.39l-0.13,0.27l-0.27,0.27l-0.27,0.26l-0.52,0.93l-0.53,0.66l-0.27,0.27l-0.39,0.27l-2.25,2.11l-0.92,1.05
		l-0.27,0.27l-1.32,1.45l-0.39,0.14l-3.17,2.37l-0.79,0.13l-1.46,0.4l-0.13,0.13l-0.93,0.53l-0.13,0.13l-0.8,3.83l-1.84,3.03
		l-0.14,0.13l-0.93,0.53l-0.26,0.27l-0.27,0.13l-0.66,0.13l-0.8,4.23l-0.26,1.05l-0.14,0.8l0.39,1.18l0.14,0.93l0.13,0.66h0.93h0.79
		l0.53,0.39l0.93,1.46l1.05,0.13l0.66,0.14l0.27,0.39l0.52,0.79l2.64,1.59l0.66,0.93l0.66,0.27l0.8,0.13l1.05,0.13l0.27,0.14
		l0.27-0.14l0.52-0.26l0.53-0.14l0.52,0.27l0.4,0.53l0.92,0.52l0.8,0.8h0.52l0.93,0.13l0.66,0.13l0.27,0.27l1.05,0.39l0.53,0.4v0.52
		l-0.53,3.17l1.32,0.13l0.27,0.14h1.05l0.39,0.13l0.27,0.13l0.27,0.14l3.43-2.25l4.49-2.51l0.53-0.26l0.13-0.14l0.39-0.79v-0.27
		v-0.27l0.14-0.27v-0.13l12.8-14.26l3.83-3.96l2.51-2.64l0.66-0.66v-0.14h0.13v-1.05l0.13-2.64v-1.32v-0.13l1.19-1.59h0.66
		l1.05-0.39c0.05-0.34,0.1-0.69,0.15-1.03l-5.49-2.75l-0.93-3.04l-2.37-1.84l-1.59-0.4l-1.32,0.4l-1.98,3.82l-2.12,0.27l-1.71-0.66
		l2.91-2.12l2.64-3.43l1.98-0.13l2.25,0.79l1.45,1.71l0.66,0.14l0.53-3.57l1.45-2.51l-0.27-2.64l0.4-1.58l1.58-1.98l2.91-1.19
		l1.32-5.28l-0.01-0.19c-0.06,0-0.12,0.01-0.18,0.01L223.6,167.83z"/>
	<path class="st0" d="M232.71,153.04l-1.85-1.71l-1.71,0.27l-4.23-0.14l-0.66-0.26l-0.66-1.46l-0.79-1.32l-1.71-0.79l-2.78-0.53
		l-2.77-1.05l-1.98-0.79h-0.93l-0.79,0.92l-1.19,0.4l-0.93-0.4l-0.79-0.26l-0.66-0.27l-0.8,0.13l-0.52-0.27l-2.25-1.84l-1.45-0.93
		l-1.72-0.66l-2.37,2.25h-0.13l-1.71,1.71v0.13l-1.19,1.06h-0.13l-1.19,1.18l-1.19,1.59l-0.13,0.27l-1.98,0.93l-0.79,0.52
		l-0.14,0.39v0.27v0.14l0.14,0.13v0.13l-0.4,0.93h-0.13h-0.39h-0.14h-0.13l-0.27,0.66l0.53,0.8l0.39,1.58l0.39,1.06l3.3-1.59
		l1.19,0.4l1.84-1.32l0.14,0.39v1.71l-0.53,1.98l-0.79,2.12l-2.25,2.64l-2.77,2.25l-0.8,0.66l-1.59,0.66l0.53,0.66l0.93-0.14
		l8.05-0.66l10.96-1.32l1.98-0.13l0.27,0.13v1.05l0.27,0.66l0.66,0.93l0.39,0.27l0.14,0.13l0.26-0.13l1.98-0.27l1.46-0.39l0.66-0.13
		l0.39-0.8v-0.13l1.71,0.27l0.53-0.14l0.66-0.13l1.59,0.13l0.79-0.13l0.53-0.14l0.26,0.14l0.27,0.39l0.27,0.53
		c0.06,0,0.12-0.01,0.18-0.01l-0.12-2.58l1.18-4.89l2.12-1.98l2.11-0.14l0.93-0.66l1.85-2.77l0.66-2.37L232.71,153.04z"/>
	<path class="st0" d="M257.86,206.56l-0.66-1.59l-0.66-6.46l-1.59-4.23l-1.32-1.98l-1.59-1.05l-1.05,0.52v0.53l1.05,1.32l0.13,2.37
		h1.85l0.66,0.66l-0.39,1.85l2.11,5.14l0.66,7.26l-0.39,2.51l-0.93,2.5l-1.71,0.14l0.13,0.79l-0.66,1.32l-1.45-0.79l-0.93,1.32
		h-0.52l0.13-1.46l-0.79-1.84l1.32,0.27l1.18-0.53l-0.13-1.05l2.5-1.71l0.27-2.64l-3.3-1.06l-2.25,1.19l-0.39,0.93l-1.84,0.13
		l-2.64,2.25l-0.66-1.19l7.92-5.68l1.58,0.53l1.85,1.45l-0.27-3.43l-1.71-2.37l-8.58-2.25l-4.36-3.17l-3.3-0.93l-2.78-1.98h-1.05
		l-0.66,0.93h-1.32l-1.45-0.27l-1.85-1.45l-1.59,2.77l-2.77,1.06l0.53-0.8l-0.27-0.79l-2.16-1.08c-0.05,0.34-0.1,0.69-0.15,1.03
		l-1.05,0.39h-0.66l-1.19,1.59v0.13v1.32l-0.13,2.64v1.05h-0.13v0.14l-0.66,0.66l-2.51,2.64l-3.83,3.96l-12.8,14.26v0.13l-0.14,0.27
		v0.27v0.27l-0.39,0.79l-0.13,0.14l-0.53,0.26l-4.49,2.51l-3.43,2.25l-0.27-0.14l-0.27-0.13l-0.39-0.13h-1.05l-0.27-0.14l-1.32-0.13
		h-0.27v0.13v0.27v0.13v0.14l0.14,0.13h0.13v0.14l0.14,0.13h0.13v0.13l0.13,0.14l0.14,0.27l0.13,0.39h-0.13l-0.27,0.13l-0.39,0.27
		l-0.27,0.27l-0.27,0.13h-0.13l-0.53,0.27l-0.39,0.27l-0.27,0.13l-0.13,0.14l-1.32,0.79l-1.19,0.79h-0.13l-1.85,1.06l-1.18,0.52
		l-0.14,0.14l-0.27,0.13v0.27l-0.26,0.27v0.39l-0.27,0.52l-0.14,0.14l-0.26,0.27v0.13l-0.53,0.53l-0.13,0.26v0.14l-0.53,0.93
		l-0.39,0.66l-0.66,0.66l-0.93,0.13h-0.13l-0.27,0.13l-0.39,0.14l-0.27,0.13l-0.66,0.14l-0.53,0.26l-0.13,0.4l-0.26,0.13l-0.66-0.13
		l-0.39-1.19l-0.93,0.53l-0.79,0.39l2.9,7.66l3.57,7.26l1.46,2.91l0.39,0.93l3.69-2.12l10.56-9.64l5.68-5.02l11.49,0.27l3.96,0.26
		l4.09,0.14l0.4-0.14l0.26,0.8l0.14,0.52l0.13,1.72l0.53,0.39l0.66,0.93l0.66,1.58l0.39,1.19l-0.13,0.66l-0.27,1.05l0.27,0.53
		l0.39,0.66l1.32,0.39l1.18,0.26h0.66l1.06-0.26l0.92-0.39l0.4-0.14l0.52,0.14l0.66,0.13h0.66l0.93,0.14h0.66l0.66,0.39l0.39,0.13
		l0.93,0.14l0.27,0.52l0.13,0.53v0.66l0.53,0.39l0.13,0.27l2.25-2.51l3.17-4.36l0.13-0.13l0.53-0.53l0.13,0.66l0.39,0.53l0.8,0.26
		l0.26,0.14l1.72,1.32l-0.32,0.94l0.91,2.27l1.71,1.46l3.17-1.46l2.11,0.4l0.8-0.8l0.26-5.68l1.59-7l-0.79-0.53l-1.85,0.8
		l-1.18-0.14l-1.19-0.52l-1.45-1.85l0.39-0.66l1.84,1.05h0.66l0.53-1.05h0.66l1.71,1.32l1.19-0.39l1.45-4.23v-3.03l2.64-7.66
		l0.27-6.35l1.59-5.28l-0.27-3.82L257.86,206.56z"/>
</g>
</svg>
