<?xml version="1.0" encoding="utf-8"?>
<!-- Generator: Adobe Illustrator 24.1.2, SVG Export Plug-In . SVG Version: 6.00 Build 0)  -->
<svg version="1.1" id="Layer_1" xmlns="http://www.w3.org/2000/svg" xmlns:xlink="http://www.w3.org/1999/xlink" x="0px" y="0px"
	 viewBox="0 0 300 500" style="enable-background:new 0 0 300 500;" xml:space="preserve">
<style type="text/css">
	.st0{fill:#F7F5F0;stroke:#404040;stroke-width:1.5;}
	.st1{fill:#EF3E26;stroke:#404040;stroke-width:1.5;stroke-miterlimit:10;}
</style>
<g>
	<polygon class="st0" points="238.3,316.3 237.9,314.4 236.2,313.5 236.3,314.3 237,315.8 	"/>
	<polygon class="st0" points="187,155.1 186.4,155.4 185.7,155.4 185,155.8 184.8,155.9 184.5,156.1 183.7,156.3 183.5,156.6 
		183.3,157 183.1,157.7 182.7,158.1 182,158.3 181.2,158.3 180.6,157.8 180.3,157 180.3,156.5 180.2,156.1 180,155.7 179.6,155.4 
		179.6,155 179.9,154.8 180.3,154.4 180.4,153.6 180.2,152.9 180.2,151.9 180.8,151.2 181.6,151.1 181.9,149.2 181.4,148.3 
		180.6,147.4 180.4,146.4 179.9,145.8 179.6,145.5 179.5,145.2 179.8,145 179.6,144.4 179.8,143.9 179.2,143.7 178.6,143.4 
		177.5,143 177.3,142.3 177.5,141.6 177.1,140.1 176.9,139.3 176.6,138.5 176.3,138.2 171.7,139.7 170.8,140 170.1,140 167.9,140.9 
		153,145 153.6,145.6 153.9,146.4 154.3,147.5 154.7,148 154.6,149.1 153.9,150 153.6,150.8 154,151.2 154.6,151.4 154.4,152 
		154,152.8 153.9,154 153,155.3 153,155.6 153.2,156.2 153.9,156.9 154,157.9 153.6,158.7 153.9,159.5 153,160.3 153.1,160.8 
		154.3,161.2 154.9,161.4 155.3,162.4 155.9,163.1 156.3,163.3 156.3,163.6 155.5,165.2 155.1,165.2 154.9,165.1 154.7,165.4 
		153.8,166.9 153.8,167.3 154,167.4 154.1,167.6 153.5,169.3 155.3,170.3 153.6,173.1 152.8,174.7 150.9,175.8 150.7,175.8 
		150.2,176.8 149.9,177.5 149,179.3 147.9,181.3 147.8,181.7 147.4,182.4 146.4,184.6 146.1,184.6 144.2,183 144.1,182.9 144,182.9 
		143.7,182.7 143.6,182.6 143.4,182.6 143.2,182.6 144.4,185.1 144.4,185.4 144.6,186 145,187.1 145.2,187.6 145.3,187.8 
		145.4,188.2 145.6,188.4 145.7,188.8 145.8,189.2 146.1,189.5 146.1,189.7 146.2,190 146.5,190.8 146.6,191.2 147,192.1 
		147.2,192.6 147.7,193.6 147.9,194.5 148.3,195.3 149.3,197.7 149.4,197.8 149.5,198.2 149.8,198.7 149.8,198.9 149.9,199.4 
		150.2,199.8 151.4,202.8 151.6,203.3 152.3,205.2 152.7,206.4 153.4,208.1 153.8,208.5 162.3,205.4 163.4,205.3 167,206.1 
		167.2,207 167.4,207.4 167.4,208 167.4,208.6 168,208.5 168.3,208.4 168.5,208.1 169.5,207.6 169.6,207.4 171.4,204.4 172.2,200.6 
		172.4,200.4 173.3,199.9 173.4,199.8 174.9,199.4 175.7,199.2 178.8,196.9 179.2,196.7 180.6,195.3 180.8,195 181.7,194 184,191.9 
		184.4,191.6 184.6,191.3 185.2,190.7 185.7,189.7 186,189.5 186.2,189.2 186.4,188.9 186.9,188.6 187,188.4 188.8,187.8 
		189.8,187.2 189.9,186.6 189.5,185.4 189.1,184.1 186.5,183.5 186,183.3 184.9,180.8 184,179.7 182.4,178.4 181.7,177.5 
		180.7,175.4 180.7,175 180.4,174 180.9,172.2 182.3,171 184.2,169.9 186.1,169.3 187.2,168.2 188.3,167.7 189.9,167 190.7,166.4 
		193.5,164.1 195.7,161.5 196.5,159.4 197.1,157.4 197.1,155.7 196.9,155.3 195.1,156.6 193.9,156.2 190.6,157.8 190.2,156.7 
		189.8,155.1 189.3,154.4 187.8,155 	"/>
	<polygon class="st0" points="235.8,319.6 233.8,319.6 234.2,320.5 235.4,320.2 	"/>
	<polygon class="st0" points="133.3,208 142.4,206.2 141.6,200.7 149.9,199.4 149.8,198.9 149.8,198.7 149.5,198.2 149.4,197.8 
		149.3,197.7 148.3,195.3 147.9,194.5 147.7,193.6 147.2,192.6 147,192.1 146.6,191.2 146.5,190.8 146.2,190 146.1,189.7 
		146.1,189.5 145.8,189.2 145.7,188.8 145.6,188.4 145.4,188.2 145.3,187.8 145.2,187.6 145,187.1 144.6,186 144.4,185.4 
		144.4,185.1 143.2,182.6 143.4,182.6 143.6,182.6 143.7,182.7 144,182.9 144.1,182.9 144.2,183 146.1,184.6 146.4,184.6 
		147.4,182.4 147.8,181.7 147.9,181.3 149,179.3 149.9,177.5 150.2,176.8 150.7,175.8 150.9,175.8 152.8,174.7 153.6,173.1 
		155.3,170.3 153.5,169.3 154.1,167.6 154,167.4 153.8,167.3 153.8,166.9 154.7,165.4 154.9,165.1 155.1,165.2 155.5,165.2 
		156.3,163.6 156.3,163.3 155.9,163.1 155.3,162.4 154.9,161.4 154.3,161.2 153.1,160.8 153,160.3 153.9,159.5 153.6,158.7 
		154,157.9 153.9,156.9 153.2,156.2 153,155.6 153,155.3 153.9,154 154,152.8 154.4,152 154.6,151.4 154,151.2 153.6,150.8 
		153.9,150 154.6,149.1 154.7,148 154.3,147.5 153.9,146.4 153.6,145.6 153,145 152.6,145 152.2,145 150.7,143.8 149.8,143.4 
		143.1,141.3 140.8,141.1 140.1,141.1 139.9,141.1 139.1,140.2 138.4,139.7 137.6,138.9 137.1,138.4 136.3,137.5 135.7,136.9 
		133.9,135.1 133.3,134.6 132.6,133.9 131.6,132.6 130.9,132.8 130.1,133.4 129.7,133.6 129.3,134.2 129.1,135.1 128.8,135.9 
		128,136.4 127.5,137.1 125.9,138.5 124.3,140.2 123.2,141.8 122.7,142.5 121.5,143.9 120.5,145.9 120.1,146.4 119.3,146.6 
		118.5,146.8 118.5,147.1 118.1,147.5 117.6,147.8 116.4,148.4 115.3,149.5 114.9,149.5 113.9,149.6 113.1,149.7 112.3,150.1 
		112,150.4 111.9,150.5 111.5,150.8 111.2,151.1 111.1,151.2 110.6,151.4 109.9,151.7 109.5,152 109,152.1 108.6,152.5 107.9,152.8 
		107.7,153 106.8,154.2 105.7,154.8 103.3,156.9 102,157.8 100.8,159 98.3,160.2 97.4,160.8 96.8,161 95.9,161.5 95.8,161.5 
		95.4,162.3 95.3,162.4 93.9,163.1 93.4,163.6 93,165.1 92.9,165.2 91.2,166.8 89.5,168.4 89.5,168.6 89.3,169.4 89.2,169.9 
		89.2,170.3 89.2,170.6 89.6,171.5 90.2,172.2 90.9,172.7 91.4,172.8 92.1,173.1 92.8,173.2 93.4,173.1 94.1,172.8 94.5,172.4 
		95,172.1 95.4,171.8 95.8,171.5 96.3,171.2 96.4,171.2 97.2,171.1 98.3,171.2 99.4,171.5 99.5,171.5 100.6,171.9 101.3,172.2 
		102,172.7 102.3,173 102.5,173.2 103.1,173.9 103.8,174.7 104.6,175.6 105.2,176.1 105.6,176.7 106.2,177.3 106.5,177.9 
		106.6,178.5 106.8,179.1 106.6,180 106.6,180.4 106.6,180.6 106.5,181.4 106.5,181.6 106.5,182.5 106.6,183.1 106.6,183.4 
		106.8,183.8 106.8,185.4 106.8,186.8 106.9,187.9 106.8,188.4 106.6,189.2 106.5,189.6 106.2,190.8 106.1,191.4 106,192 
		105.8,192.5 105.7,193 105.7,193.6 105.7,193.8 105.7,194.1 105.7,194.8 106,195.3 106.1,195.8 106.3,196.5 106.5,196.9 106.5,197 
		106.5,197.3 106.6,198.1 106.8,198.9 106.9,199.4 107,199.8 107.4,199.9 107.8,200.3 108.2,200.4 108.6,200.7 109.1,201 
		109.4,201.4 109.8,201.6 110.3,202 110.8,202.3 111.4,202.6 111.8,202.6 112.4,202.4 112.8,202.1 113.5,202 114.4,201.6 
		114.8,201.5 115.2,201.4 115.6,201.4 115.7,201.4 116.1,201.4 116.7,201.6 117.2,201.9 117.6,202 117.7,202.1 117.8,202.3 
		118.5,202.6 118.8,202.7 119.2,202.9 119.6,203.3 119.7,203.3 119.9,203.7 120.2,204.3 120.5,204.7 120.8,205.2 121,205.9 
		121.4,206.6 121.8,207.4 122.2,209 122.6,210.6 122.7,211.9 122.9,213 123,213.6 123.4,214.2 123.9,214.8 134.9,213.8 	"/>
	<polygon class="st0" points="215.6,112.2 215.8,111.7 215.9,111.2 216.2,110.7 215.9,110.3 215.7,110 215.3,109.9 214.9,109.7 
		214.2,109.5 213.7,109.2 213.4,108.8 212.9,107.9 212.9,107.4 213.2,106.8 213.8,105.6 214.2,104.1 214.4,102.6 214,101.7 
		214,101.4 214.2,100.5 214,99.8 213.6,98.8 213.3,98.4 212.5,98.2 211.9,98.2 211.6,97.8 211.6,97.6 211.7,97.2 212,96.7 
		212.5,96.1 212.4,95.2 212.1,94.6 211.3,94.3 210,94.6 209.3,93.9 208.3,93.9 207.1,93.8 206.7,93 206.3,92.7 205.4,92.8 
		204.6,92.7 204.2,92.7 203.8,91.6 203.8,91.4 203.1,91.6 202.7,91.5 201.7,91.9 200.6,92 200.2,92 199.3,91.9 198.6,91.5 
		198.5,91.1 197.6,89.9 196.9,89.5 196.4,89.3 195.6,89 195.1,89 194.6,89.3 194.3,89.8 194.2,90.2 193.5,90.5 193,90.2 193,89.5 
		193.1,89.1 193.5,88.5 193.6,87.9 193.4,87.3 192.1,85.7 191.5,85 191,84.6 190.3,84.2 188.8,85.2 186.8,86 186.1,86.4 185.7,86.8 
		185.3,87.3 184.9,87.7 184.5,87.9 184,87.7 183.9,86.8 184,86 184.6,83.7 185.2,83.1 185.3,82.9 185.6,82.9 186,82.5 186.2,82 
		186.5,81.5 186.4,81.2 186.2,80.2 185.2,79 183.9,78.6 181.5,81.1 180.2,82.7 179.4,83.6 177.9,85.3 177.8,85.7 177.5,85.8 
		170.9,93.6 170.7,93.9 170.4,94.2 170.1,94.4 170,94.7 169.6,95.1 169.1,95.6 165,101 164.8,101.2 164.8,101.7 165,102.1 
		165.2,102.3 165.6,102.7 165.6,103 165.8,103.4 165.8,103.7 165.8,103.9 165.8,104.1 165.5,105 165.1,105.6 165,105.6 165,105.8 
		163.8,106.6 163.7,106.7 163.4,107 163.4,107.1 163.3,107.5 163.4,107.9 163.4,108.1 163.4,108.5 163.3,108.5 163.1,108.7 
		162.7,108.8 162.5,108.8 162.1,109.2 161.8,109.5 160.5,110.3 158.2,111.2 157.2,111.6 156.3,112.5 155.5,112.5 155.2,112.1 
		155.1,111.4 154.9,110.8 154.3,110.1 153.5,109.6 152.8,109.7 152.3,109.3 152,109.1 151.6,108.9 151.1,108.9 150.5,109.5 
		150.1,109.7 149.4,110 148.7,110 147.6,110.3 147.2,111.1 146,112 145,112.8 144.6,114 144.2,114.2 143.3,114.5 142.4,115.1 
		142.3,116.5 142.4,117.4 142.7,118.2 142.7,118.7 142.7,119.4 142,119.6 141.9,120.2 142,120.9 140.8,121.6 140.4,121.7 
		140.4,122.2 140.7,122.8 140.7,124 140.1,124.5 139.6,124.7 138.8,126.2 138.3,127.2 137.5,127.9 137.2,128.8 136.6,129.4 
		135.9,130.1 134.6,130.5 134.5,130.5 134.1,131.4 132.9,132.1 131.6,132.6 132.6,133.9 133.3,134.6 133.9,135.1 135.7,136.9 
		136.3,137.5 137.1,138.4 137.6,138.9 138.4,139.7 139.1,140.2 139.9,141.1 140.1,141.1 140.8,141.1 143.1,141.3 149.8,143.4 
		150.7,143.8 152.2,145 152.6,145 153,145 167.9,140.9 170.1,140 170.8,140 171.7,139.7 176.3,138.2 176.6,138.5 176.9,139.3 
		177.1,140.1 177.5,141.6 177.3,142.3 177.5,143 178.6,143.4 179.2,143.7 179.8,143.9 179.6,144.4 179.8,145 179.5,145.2 
		179.6,145.5 179.9,145.8 180.4,146.4 180.6,147.4 181.4,148.3 181.9,149.2 181.6,151.1 180.8,151.2 180.2,151.9 180.2,152.9 
		180.4,153.6 180.3,154.4 179.9,154.8 179.6,155 179.6,155.4 180,155.7 180.2,156.1 180.3,156.5 180.3,157 180.6,157.8 181.2,158.3 
		182,158.3 182.7,158.1 183.1,157.7 183.3,157 183.5,156.6 183.7,156.3 184.5,156.1 184.8,155.9 185,155.8 185.7,155.4 186.4,155.4 
		187,155.1 187.8,155 189.3,154.4 189.5,153.7 189.7,153.7 189.8,153.7 190.2,153.7 190.3,153.7 190.7,152.8 190.7,152.6 
		190.6,152.5 190.6,152.4 190.6,152.1 190.7,151.7 191.5,151.2 193.5,150.3 193.6,150 194.8,148.4 196,147.2 196.1,147.2 
		197.3,146.2 197.3,146 199,144.3 199.2,144.3 201.6,142.1 202.2,141.3 202.5,140.4 202.5,139.8 203,139.6 203.4,139.3 203.4,139 
		203,138.9 202.6,138.8 201.9,138.4 201.6,138.4 201.1,138.1 201.4,137.9 201.8,137.2 201.8,136.7 201.6,135.9 201.6,135.2 
		202.2,134.3 202.2,132.6 202.2,131.6 203,130.9 203.4,130.3 204.3,129.9 204.6,128.9 204.9,128.6 205.9,128.6 206.3,128.3 
		206.7,127.7 206.7,126.9 206.8,126.1 207.2,125.2 207.4,123.7 207.5,123.1 207.2,122.3 207.6,121.3 207.8,120.7 208.1,119.2 
		208.1,119.1 207.2,118.6 206.6,118.3 206.3,117.9 206.4,117 205.9,116.1 206.6,113.4 206.3,112.4 206.6,111.6 207.1,111.2 
		208,110.9 208.7,111.2 208.8,111.7 209.1,111.8 209.7,111.8 210.1,111.6 210.8,111.4 211.3,111.4 211.6,111.4 212.1,111.6 
		212.2,111.7 212.4,112 212.5,112.2 212.6,112.4 213.3,112.5 213.4,112.6 213.4,112.9 213.6,113.3 214,113.4 215.1,113.3 
		215.4,112.6 	"/>
	<polygon class="st0" points="227.1,340.3 227.1,339.5 226.2,339.5 225,340.4 225.1,341.6 226.2,341.5 	"/>
	<polygon class="st0" points="92.9,165.2 93,165.1 93.4,163.6 93.9,163.1 95.3,162.4 95.4,162.3 95.8,161.5 95.9,161.5 96.8,161 
		97.4,160.8 98.3,160.2 100.8,159 102,157.8 103.3,156.9 105.7,154.8 106.8,154.2 107.7,153 107.9,152.8 108.6,152.5 109,152.1 
		109.5,152 109.9,151.7 110.6,151.4 111.1,151.2 111.2,151.1 111.5,150.8 111.9,150.5 112,150.4 112.3,150.1 113.1,149.7 
		113.9,149.6 114.9,149.5 115.3,149.5 116.4,148.4 117.6,147.8 118.1,147.5 118.5,147.1 118.5,146.8 119.3,146.6 120.1,146.4 
		120.5,145.9 121.5,143.9 122.7,142.5 123.2,141.8 124.3,140.2 125.9,138.5 127.5,137.1 128,136.4 128.8,135.9 129.1,135.1 
		129.3,134.2 129.7,133.6 130.1,133.4 130.9,132.8 131.6,132.6 132.9,132.1 134.1,131.4 134.5,130.5 134.6,130.5 135.9,130.1 
		136.6,129.4 137.2,128.8 137.5,127.9 138.3,127.2 138.8,126.2 139.6,124.7 140.1,124.5 140.7,124 140.7,122.8 140.4,122.2 
		140.4,121.7 140.8,121.6 142,120.9 141.9,120.2 142,119.6 142.7,119.4 142.7,118.7 142.7,118.2 142.4,117.4 142.3,116.5 
		142.4,115.1 143.3,114.5 144.2,114.2 144.6,114 145,112.8 146,112 147.2,111.1 147.6,110.3 139.6,100.8 137.6,98.1 134.5,93.9 
		133.7,93 133.4,92.7 132.5,91.5 131.7,90.3 131.2,89.8 129.6,87.8 124.6,81.3 124.3,80.9 122.7,79.1 120.9,76.7 120.8,77.2 
		120.5,77.7 119.9,78.3 119.3,78.8 118.9,79.2 118.8,79.2 118.4,79.4 117.7,79.5 117.3,79.8 116.8,80 116.4,80.3 115.9,80.6 
		115.6,80.8 115.5,81.1 115.1,81.2 114.8,81.3 114.5,81.6 114.4,81.9 114.3,82.4 114.2,82.7 113.8,83.6 113.6,84 113.3,84.2 
		113.1,84.6 112.8,84.9 112.7,85.3 112.7,85.6 112.7,85.8 112.6,86.2 112.4,86.4 112.2,86.6 111.8,86.9 111.4,87.3 111,87.6 
		110.4,88.1 110.2,88.2 109.7,88.6 109.4,88.7 109.1,88.9 108.3,89.5 108.1,89.7 107,90.2 106,90.7 105.2,90.8 105,91 104.6,91.2 
		104.1,91.5 103.3,91.9 102.5,92.2 101.6,92.6 100.8,93.2 100.3,93.8 100,93.9 99.4,94.6 98.7,94.9 98.3,95.2 98,95.5 98,96 
		98,96.1 98,96.4 98,96.7 98,96.9 97.8,97.2 97.5,97.6 97.4,98.1 97.5,98.5 97.5,98.6 97.6,98.8 97.9,99 98.2,99.2 98.4,99.3 
		99.1,99.6 99.4,99.7 99.6,100 99.8,100.2 99.9,100.8 99.9,101.2 100,101.5 100.2,101.9 100.7,102.9 100.8,103.3 101.2,103.8 
		101.7,105.1 102.5,106.6 103.1,107.5 103.3,107.8 103.7,108.1 104,108.4 104.4,108.5 104.6,108.9 105,109.3 105.2,109.7 
		105.3,110.3 105.4,110.9 105.7,111.4 105.7,112 105.8,112.5 106,113 106.3,113.6 106.6,114 106.6,114.1 107,114.6 107.4,115.4 
		108.1,116.2 108.5,117 108.6,117.8 108.6,118.4 108.5,118.8 108.3,119.2 107.9,119.6 107.7,119.9 107.4,120.4 107.3,120.8 
		107.2,121.1 106.9,121.3 106.6,121.5 106.2,121.5 105.8,121.3 105.7,121.3 105.4,121.2 105,121.1 104.5,121.1 104.1,121.2 
		103.6,121.3 103.3,121.3 103.1,121.7 102.9,122.3 102.9,122.7 103.1,123.1 103.3,123.5 103.7,123.9 104,124.2 104.2,124.7 
		104.4,125.2 104.4,125.4 104.4,125.6 104.4,126 104.4,126.1 104.2,126.8 104.1,127 103.7,127.4 103.4,127.7 103.2,127.8 
		103.1,128.1 102.8,128.3 102.7,128.3 102.5,128.8 102.3,129.3 102.3,129.7 102,130.2 101.6,130.9 100.9,131.5 100.7,131.8 
		100.3,132.1 99.8,132.2 99.4,132.4 99.1,132.7 98.7,133.1 98.6,133.6 98.3,134 98,134.4 97.8,134.6 97.8,134.7 97.5,134.8 
		97.1,134.8 96.7,134.7 96.2,134.6 96.1,134.6 95.5,134.4 95,134.2 94.5,134 93.8,134 93.4,134 92.9,134 92.6,134.3 92.4,134.6 
		92.2,134.9 92.1,135.2 92,135.7 91.8,136.1 91.6,136.7 91.3,137.2 90.8,137.5 90.4,137.6 89.6,138.1 89.1,138.5 88.9,138.9 
		88.8,139.2 88.9,139.7 89.2,140.1 89.5,140.4 89.7,140.6 89.8,140.8 90,140.9 90.2,141.1 90.5,141.6 90.7,141.9 90.9,142.5 
		90.8,142.9 90.5,143.3 90.4,143.5 90.2,143.8 90.2,144.2 90.1,144.4 90,144.6 89.7,144.9 89.5,145.2 89.1,145.8 88.7,146.8 
		88.3,147.8 88,148.9 87.9,149.6 87.9,149.9 88,150.5 88.3,150.9 88.5,151.3 89.2,151.6 89.7,151.7 90.5,151.9 90.9,151.9 
		91.3,152.1 91.4,152.8 91.3,153.2 91.2,153.7 90.8,154.1 90.4,154.5 90,154.9 89.6,155.3 89.2,155.7 88.9,156.1 88.7,156.6 
		88.5,157 88.4,157.4 88.4,157.8 88.5,158.1 88.8,158.3 88.9,158.6 89.2,158.9 89.5,159.2 89.6,159.9 89.7,160.3 89.7,161 
		89.7,161.8 89.7,162.1 89.6,162.7 89.5,162.8 89.3,162.9 89.1,162.9 88.7,163.2 88.4,163.3 88.3,163.6 88.3,164.1 88.4,164.4 
		88.5,164.8 88.5,164.9 88.9,165.4 89.2,166.4 89.3,167.2 89.5,167.9 89.5,168.4 91.2,166.8 	"/>
	<polygon class="st0" points="124.3,80.9 124.6,81.3 129.6,87.8 131.2,89.8 131.7,90.3 132.5,91.5 133.4,92.7 133.7,93 134.5,93.9 
		137.6,98.1 139.6,100.8 147.6,110.3 148.7,110 149.4,110 150.1,109.7 150.5,109.5 151.1,108.9 151.6,108.9 152,109.1 152.3,109.3 
		152.8,109.7 153.5,109.6 154.3,110.1 154.9,110.8 155.1,111.4 155.2,112.1 155.5,112.5 156.3,112.5 157.2,111.6 158.2,111.2 
		160.5,110.3 161.8,109.5 162.1,109.2 162.5,108.8 162.7,108.8 163.1,108.7 163.3,108.5 163.4,108.5 163.4,108.1 163.4,107.9 
		163.3,107.5 163.4,107.1 163.4,107 163.7,106.7 163.8,106.6 165,105.8 165,105.6 165.1,105.6 165.5,105 165.8,104.1 165.8,103.9 
		165.8,103.7 165.8,103.4 165.6,103 165.6,102.7 165.2,102.3 165,102.1 164.8,101.7 164.8,101.2 165,101 169.1,95.6 169.6,95.1 
		170,94.7 170.1,94.4 170.4,94.2 170.7,93.9 170.9,93.6 177.5,85.8 177.8,85.7 177.9,85.3 179.4,83.6 180.2,82.7 181.5,81.1 
		183.9,78.6 184.2,77.9 185.8,76.1 202.2,57 200.1,55.6 196.5,53.1 179.4,42.3 170.1,36.6 164.2,32.8 157.9,28.8 157.1,29.3 
		156.5,29.5 156.4,29.6 155.7,29.9 155.1,30.1 154.4,30.4 153.9,30.6 153.5,30.8 152.8,30.6 152.3,30.6 151.9,30.6 151.5,30.6 
		151,30.8 150.3,30.9 149.9,31.2 149.5,31.6 149.4,31.7 149.1,32.1 148.9,32.6 148.6,33.3 148.5,33.8 148.2,34.1 147.8,34.3 
		147.3,34.5 147,34.6 146.9,34.7 146.4,34.9 145.7,34.7 145.4,34.9 145,34.9 144.6,35.1 144.5,35.3 144.4,35.4 144.4,35.8 
		144.4,36.1 144.6,36.3 144.6,36.6 144.6,37 144.6,37.1 144.5,37.2 144.4,37.4 144.2,37.6 143.4,38 142.7,38.7 141.9,39.2 
		141.5,39.6 141.1,40 140.7,40.2 140.7,40.3 140.1,40.7 139.9,41.1 139.6,41.5 139.4,42 139.1,42.4 138.8,42.9 138.6,43.2 
		138.3,43.7 138.3,44.1 138.2,44.5 137.9,44.9 137.8,45.4 137.6,46 137.6,46.5 137.6,46.6 137.4,47.3 136.9,47.8 136.6,47.9 
		136.1,48.2 135.8,48.6 135.5,49.1 135.4,49.4 135.3,49.8 135.1,50.3 135,50.7 134.6,51.4 134.6,51.6 134.6,52 135,52.4 135.3,53 
		135.4,53.1 135.4,53.2 135.5,53.5 135.4,53.9 135.3,54.5 135.1,54.8 135,54.9 134.7,55.3 134.5,55.9 134.2,56.4 133.8,57 
		133.4,57.8 133,58.8 132.9,59.2 132.8,59.6 132.6,60 132.5,60.3 132.2,60.8 132.2,60.9 132,61.3 131.6,61.8 131.1,62.2 130.8,62.3 
		130.5,62.7 130.4,63 130.1,63.4 130,63.7 129.7,64.3 129.2,65.4 128.8,66 128.4,66.6 127.9,67.3 127.2,68.1 126.7,68.5 125.8,69.2 
		125.2,69.6 124.7,69.9 124.4,70 124.1,70.1 123.9,70.2 123.7,70.7 123.5,70.9 123.2,71.2 123.1,71.4 122.9,71.7 122.3,72.1 
		122.2,72.1 121.8,72.4 121.4,72.8 121,73 120.9,73 120.4,73.2 120.1,73.2 119.9,73.2 119.6,73.4 119.4,73.6 119.3,73.7 118.9,74.1 
		118.5,74.6 118.1,75.5 117.8,76.2 117.7,76.3 117.4,76.8 117.4,77 117.4,77.1 117.4,77.4 117.6,77.7 117.8,77.8 118.2,77.7 
		118.6,77.7 119,77.2 119.4,77 119.7,76.7 119.9,76.5 120.1,76.3 120.4,76.2 120.6,76.2 120.9,76.2 120.9,76.5 120.9,76.7 
		122.7,79.1 	"/>
	<polygon class="st0" points="184.2,77.9 183.9,78.6 185.2,79 186.2,80.2 186.4,81.2 186.5,81.5 186.2,82 186,82.5 185.6,82.9 
		185.3,82.9 185.2,83.1 184.6,83.7 184,86 183.9,86.8 184,87.7 184.5,87.9 184.9,87.7 185.3,87.3 185.7,86.8 186.1,86.4 186.8,86 
		188.8,85.2 190.3,84.2 191,84.6 191.5,85 192.1,85.7 193.4,87.3 193.6,87.9 193.5,88.5 193.1,89.1 193,89.5 193,90.2 193.5,90.5 
		194.2,90.2 194.3,89.8 194.6,89.3 195.1,89 195.6,89 196.4,89.3 196.9,89.5 197.6,89.9 198.5,91.1 198.6,91.5 199.3,91.9 200.2,92 
		200.6,92 201.7,91.9 202.7,91.5 203.1,91.6 203.8,91.4 203.8,91.6 204.2,92.7 204.6,92.7 205.4,92.8 206.3,92.7 206.7,93 
		207.1,93.8 208.3,93.9 209.3,93.9 210,94.6 211.3,94.3 212.1,94.6 212.4,95.2 212.5,96.1 212,96.7 211.7,97.2 211.6,97.6 
		211.6,97.8 211.9,98.2 212.5,98.2 213.3,98.4 213.6,98.8 214,99.8 214.2,100.5 214,101.4 214,101.7 214.4,102.6 214.2,104.1 
		213.8,105.6 213.2,106.8 212.9,107.4 212.9,107.9 213.4,108.8 213.7,109.2 214.2,109.5 214.9,109.7 215.3,109.9 215.7,110 
		215.9,110.3 216.2,110.7 215.9,111.2 215.8,111.7 215.6,112.2 215.4,112.6 215.1,113.3 216.1,113.6 216.2,113.7 216.2,113.8 
		216.2,114 216.2,114.3 216.2,114.5 216.2,114.8 216.3,114.9 216.3,115 216.7,115.7 217,115.9 217.3,116.2 218.7,115.3 219,114.1 
		219.5,114 219.8,114.9 220.3,115.9 220.8,116.9 222,117.9 231.5,125.2 234.3,127.3 235,127 235.2,126.9 235.5,126.8 235.5,126.5 
		235.6,126.2 235.8,126.1 235.8,125.8 235.8,125.7 235.9,125.3 235.9,125.2 235.9,125 235.9,124.8 235.8,124.7 235.4,123.6 
		235.6,122 235.6,121.7 235.6,121.3 235.5,120.8 235.6,120.2 236.1,120 236.1,119.9 236.4,120 236.9,121.1 237.5,120.4 236.7,117.5 
		236.1,116.6 236,116.5 235.5,115.7 235.4,115.7 235.4,115.5 235.1,115.5 235.1,115.4 235,115.4 234.7,115.1 234.7,115 234.6,114.8 
		234.3,113.2 234.3,112.9 234.2,112.6 234.2,112.5 234.2,112.1 234.3,110.4 234.4,109.2 234.4,108.8 234.3,108.4 234,108.3 
		233.8,108.3 233.1,108 233,107.5 233,107.4 233,107.1 233.1,106.8 233.2,106.7 233.4,106.4 233.4,106.3 233.2,106.2 233,105.5 
		232.7,105.1 232.6,105 232.4,104.8 232.2,104.8 231.8,104.6 231.9,104.2 232.2,103.9 232.3,103.8 232.6,102.6 233,101.9 
		233.1,101.3 233.4,100.8 232.6,100.1 232.1,99.7 230.3,98.4 229.8,98 229.4,98.1 228.8,99 225.3,98.5 224,98.4 221.6,98.1 
		220,97.4 218.3,95.9 218.1,95.5 217.5,94.6 217.1,94 217,93.6 216.3,91.9 215.9,91.6 215.4,91 215.1,90.8 215.4,89.9 215.7,89.5 
		216.6,87 217.5,84.5 217.7,84.2 218.1,83.1 218.2,82.8 218.3,82.5 218.4,82.1 218.9,81.3 219,80.9 219.4,79.8 219.5,79.5 
		220.2,77.9 220.8,76.1 221.1,75.5 222.4,72.1 223.3,69.6 221.6,68.7 220.4,68 208.9,61.5 207.9,60.9 206.8,60.1 202.2,57 
		185.8,76.1 	"/>
	<polygon class="st0" points="233.3,330.3 232.5,330.5 232.4,331.2 233.2,331.5 	"/>
	<polygon class="st0" points="208.6,371.7 203.6,371.6 202.8,372 202.8,373 201.5,372.9 202.7,376.5 202.5,379.4 202.1,380.3 
		200.4,381.4 199.4,383.2 200.8,384.1 198.6,385.3 197.1,387.3 195.4,386.1 194.9,386.4 194.9,388.5 196.3,389.5 196.7,390.9 
		205.3,385.2 207.9,380.3 207.3,377.5 209.8,377.5 210.9,376.8 211.4,373.3 209.5,374 	"/>
	<polygon class="st0" points="195.7,384.8 195.9,383.8 195.7,382.7 194.7,382.4 195,384.7 	"/>
	<polygon class="st0" points="177.1,403.5 177.8,404.1 178.9,402.2 178.9,400.6 177.1,402.8 	"/>
	<polygon class="st0" points="215.9,358 215.4,357.6 214.7,358.3 214.8,358.9 215.6,359.3 	"/>
	<polygon class="st0" points="222.6,349.5 221.6,349.4 221.3,350.1 222.3,350.4 	"/>
	<polygon class="st0" points="237.5,322.9 236.7,326 234.5,327.2 234.9,329.7 233,333.2 232.9,334.5 228.1,341.1 227.1,344.8 
		223.5,350.9 223,352.5 221.4,353.5 220.2,356.3 219,357.3 218.2,360.2 216.8,360.9 216.7,363.1 215.6,364.5 216,365.7 217.2,364.7 
		220.4,358.7 222.9,355.4 226.3,348.5 233,337.4 236.5,328.2 239.1,323 239,320.5 	"/>
	<polygon class="st0" points="223.7,344.5 224.2,343.3 222.7,344.3 223,344.9 	"/>
	<polygon class="st0" points="218.5,352.5 217.4,352.6 217.6,353.8 218.5,353.5 	"/>
	<polygon class="st0" points="213.4,367.1 214,367.4 214.4,366.9 214,366.5 	"/>
	<polygon class="st0" points="265.7,94.6 265.2,94.2 254.5,87.9 252.2,86.6 248.9,84.6 231.4,74.1 223.3,69.6 222.4,72.1 
		221.1,75.5 220.8,76.1 220.2,77.9 219.5,79.5 219.4,79.8 219,80.9 218.9,81.3 218.4,82.1 218.3,82.5 218.2,82.8 218.1,83.1 
		217.7,84.2 217.5,84.5 216.6,87 215.7,89.5 215.4,89.9 215.1,90.8 215.4,91 215.9,91.6 216.3,91.9 217,93.6 217.1,94 217.5,94.6 
		218.1,95.5 218.3,95.9 220,97.4 221.6,98.1 224,98.4 225.3,98.5 228.8,99 229.4,98.1 229.8,98 230.3,98.4 232.1,99.7 232.6,100.1 
		233.4,100.8 233.1,101.3 233,101.9 232.6,102.6 232.3,103.8 232.2,103.9 231.9,104.2 231.8,104.6 232.2,104.8 232.4,104.8 
		232.6,105 232.7,105.1 233,105.5 233.2,106.2 233.4,106.3 233.4,106.4 233.2,106.7 233.1,106.8 233,107.1 233,107.4 233,107.5 
		233.1,108 233.8,108.3 234,108.3 234.3,108.4 234.4,108.8 234.4,109.2 234.3,110.4 234.2,112.1 234.2,112.5 234.2,112.6 
		234.3,112.9 234.3,113.2 234.6,114.8 234.7,115 234.7,115.1 235,115.4 235.1,115.4 235.1,115.5 235.4,115.5 235.4,115.7 
		235.5,115.7 236,116.5 236.1,116.6 236.7,117.5 237.5,120.4 236.9,121.1 236.4,120 236.1,119.9 236.1,120 235.6,120.2 235.5,120.8 
		235.6,121.3 235.6,121.7 235.6,122 235.4,123.6 235.8,124.7 235.9,124.8 235.9,125 235.9,125.2 235.9,125.3 235.8,125.7 
		235.8,125.8 235.8,126.1 235.6,126.2 235.5,126.5 235.5,126.8 235.2,126.9 235,127 234.3,127.3 234,127.8 233.5,129.1 233.5,130.1 
		233.6,130.9 232.8,132.3 232.3,133.5 233.4,133.8 234,134.7 234.6,135.2 235,136.3 235.6,136.4 236.9,135.4 238.5,134.9 
		238.5,135.4 238.5,137.2 238.8,137.7 239.4,137.9 240.2,137.5 240.4,136.4 240,135.2 240.4,133.6 241.8,132.1 243.3,130.7 
		244.9,129.9 245.1,129.9 246.6,129.8 247.8,129.1 248.3,128.3 249.3,128.1 250,127.3 250.4,127.4 251.3,128.6 252.1,129 
		253.8,130.9 253.7,131.5 254.2,131.8 254.5,131.4 255.6,129.5 256.5,127.7 257.4,125.7 257.5,125.3 259.4,120.8 261.1,116.3 
		261.4,115.5 262.3,113 263.1,110.8 263.6,108.7 264.5,105 265.2,102.9 266.1,99 266.4,97.6 266.8,94.7 	"/>
	<path class="st0" d="M253.8,130.9l-1.7-1.9l-0.8-0.4l-0.9-1.2l-0.4-0.1l-0.7,0.8l-1.1,0.3l-0.5,0.8l-1.2,0.7l-1.5,0.1h-0.3
		l-1.6,0.8l-1.5,1.3l-1.4,1.6l-0.4,1.6l0.4,1.2l-0.1,1.1l-0.8,0.4l-0.7-0.1l-0.3-0.5v-1.8V135l-1.6,0.4l-1.3,1.1l-0.7-0.1l-0.4-1.1
		l-0.5-0.5l-0.7-0.9l-1.1-0.3l-0.4,1.4v0.1l-0.1,0.1h-0.1l-0.1,0.3l-0.1,0.1v0.1l-0.1,0.1v0.1l-0.1,0.3l-0.1,0.3v0.4l-0.3,0.3
		l-0.1,0.3l-0.1,0.1l-0.4,1.2l-0.3,1.1v0.4v0.3v0.3v0.3l0.1,0.3l0.1,0.5l0.3,0.4l0.1,0.3l0.1,0.3l0.3,0.1h0.1h0.1h0.4l0.8-0.1h0.1
		l0.1-0.1l0.1-0.1v-0.1l0.3-0.3l0.1-0.3l0.1-0.1l0.5-0.3l0.4-0.1h0.1h0.1h0.7h0.3l0.4,0.1h0.3l0.1,0.1l0.1,0.1l0.1,0.1l0.1,0.1v0.1
		v0.4l-0.4,1.6v0.4l-0.1,0.4l-0.1,1.9l0.8,1.2l-0.5,0.4l2.8-0.8l0.1,2.1l-3.3,4.9l-1.1,3.6l0.3,0.5l5.1-0.7l-1.2-1.6l0.4-0.7
		l3.6,1.1l0.4-0.3l-0.4-0.8l-2.1-1.4l2.4-1.1l0.4-1.6l1.9-0.1l2.4-2.9c0.3-0.1,0.7-0.1,1-0.2c0.1-0.7,0.3-1.4,0.4-2.1l0.5-3.6
		l0.5-2.1v-0.3l0.3-1.3l0.1-0.9l0.4-0.8l0.7-0.8l0.7-1.3l1.2-2.1c0.2-0.4,0.4-0.9,0.7-1.3l-0.5-0.3L253.8,130.9z"/>
	<polygon class="st0" points="240.9,287.9 241.6,288.7 242,287.4 241.4,286.6 	"/>
	<polygon class="st1" points="235.9,146.7 236,144.9 236.1,144.4 236.1,144.1 236.5,142.5 236.5,142.1 236.5,141.9 236.4,141.8 
		236.3,141.7 236.1,141.6 236,141.4 235.8,141.4 235.4,141.3 235.1,141.3 234.4,141.3 234.3,141.3 234.2,141.3 233.8,141.4 
		233.2,141.7 233.1,141.8 233,142.1 232.7,142.3 232.7,142.5 232.6,142.6 232.4,142.7 232.3,142.7 231.5,142.9 231.1,142.9 
		231,142.9 230.9,142.9 230.6,142.7 230.5,142.5 230.3,142.2 230.1,141.8 229.9,141.3 229.8,141 229.8,140.8 229.8,140.5 
		229.8,140.2 229.8,139.8 230.1,138.8 230.5,137.6 230.6,137.5 230.7,137.2 231,136.9 231,136.5 231.1,136.3 231.2,136 231.2,135.9 
		231.4,135.7 231.4,135.6 231.5,135.5 231.7,135.2 231.8,135.2 231.9,135.1 231.9,134.9 232.3,133.5 232.8,132.3 233.6,130.9 
		233.5,130.1 233.5,129.1 234,127.8 234.3,127.3 231.5,125.2 222,117.9 220.8,116.9 220.3,115.9 219.8,114.9 219.5,114 219,114.1 
		218.7,115.3 217.3,116.2 217,115.9 216.7,115.7 216.3,115 216.3,114.9 216.2,114.8 216.2,114.5 216.2,114.3 216.2,114 216.2,113.8 
		216.2,113.7 216.1,113.6 215.1,113.3 214,113.4 213.6,113.3 213.4,112.9 213.4,112.6 213.3,112.5 212.6,112.4 212.5,112.2 
		212.4,112 212.2,111.7 212.1,111.6 211.6,111.4 211.3,111.4 210.8,111.4 210.1,111.6 209.7,111.8 209.1,111.8 208.8,111.7 
		208.7,111.2 208,110.9 207.1,111.2 206.6,111.6 206.3,112.4 206.6,113.4 205.9,116.1 206.4,117 206.3,117.9 206.6,118.3 
		207.2,118.6 208.1,119.1 208.1,119.2 207.8,120.7 207.6,121.3 207.2,122.3 207.5,123.1 207.4,123.7 207.2,125.2 206.8,126.1 
		206.7,126.9 206.7,127.7 206.3,128.3 205.9,128.6 204.9,128.6 204.6,128.9 204.3,129.9 203.4,130.3 203,130.9 202.2,131.6 
		202.2,132.6 202.2,134.3 201.6,135.2 201.6,135.9 201.8,136.7 201.8,137.2 201.4,137.9 201.1,138.1 201.6,138.4 201.9,138.4 
		202.6,138.8 203,138.9 203.4,139 203.4,139.3 203,139.6 202.5,139.8 202.5,140.4 202.2,141.3 201.6,142.1 203.3,142.7 204.7,143.7 
		207,145.5 207.5,145.8 208.3,145.6 208.9,145.9 209.7,146.2 210.7,146.6 211.9,146.2 212.6,145.2 213.6,145.2 215.6,146 
		218.3,147.1 221.1,147.6 222.8,148.4 223.6,149.7 224.3,151.2 224.9,151.4 229.1,151.6 230.9,151.3 232.7,153 232.8,153 232.8,153 
		232.8,152.9 233.4,152.2 234.3,151.4 234.8,150.5 235.1,149.9 235.4,149.1 236,148.4 236.1,148.4 236.1,148.3 236.1,148.3 
		236.7,147.9 	"/>
	<polygon class="st0" points="190.8,386.1 193.7,384.8 193.9,384.3 193,383.1 192.9,380.5 191.1,381.8 191.3,382.4 190.4,385.3 	"/>
	<polygon class="st0" points="210.2,358.7 210.3,359.7 211.5,360.2 211.9,359.5 210.7,358.4 	"/>
	<polygon class="st0" points="241.4,278.8 241.9,279.8 241.9,278 	"/>
	<polygon class="st0" points="108.3,277.7 108.7,277.5 109.3,277.5 109.5,277.4 109.9,277.7 110.3,277.9 110.8,278.1 111.4,277.9 
		111.8,278.1 112,278.6 112.6,279 112.7,279.4 113.1,279.9 113.5,280.3 113.3,280.5 113,280.7 112.8,281.1 112.7,281.4 112.7,281.8 
		112.4,282.2 112,282.7 112.3,283.1 112.7,284.1 113,284.5 113.1,284.8 112.8,285.2 112.7,285.3 112.4,285.7 112.3,286 112.6,286.4 
		113.1,286.5 113.5,286.7 113.8,286.9 114.3,287.2 114.7,287.3 115.1,287.6 115.2,287.7 115.7,287.8 116.1,287.8 116.7,287.8 
		117.7,287.7 118.2,288 118.2,288.4 118,288.5 117.6,288.8 117.6,289 117.1,289.3 116.9,289.8 117.4,290.5 118.4,291 119.6,291.1 
		120.2,291.8 121,293 121.3,293.4 121.4,294.6 122.2,295.4 122.6,295.9 122.6,296.3 123.2,297 123.8,297.5 124.4,298.3 124.7,299.6 
		127,309.1 128.4,315.2 128.8,315.6 129.2,316 129.9,316.4 130.8,316.6 131.4,316.6 132.1,316.5 133,316.4 134.4,316 135.3,315.6 
		136.1,315.4 137.1,315.3 138.8,315.4 139.9,315.7 141.1,316.2 141.9,316.9 143.1,318.3 144,318.7 144.8,320.6 145,321 145.4,321.2 
		145.7,321.4 146,321.8 146.1,322.3 146.8,322.7 147.6,323.5 148.5,323.9 149.3,324.3 151.1,325.9 153.4,327.7 159.4,332.9 
		160.4,333.9 160.9,334.6 161,335.1 161,335.9 161.4,336.6 161.9,337.8 162.1,338.5 161.7,339.5 161.5,340.3 161.8,341.7 
		161.5,342.6 161.7,343.8 162.1,344.2 162.5,344.9 163,345.1 163.5,345.5 163.8,345.5 164.3,345.8 164.6,345.5 164.8,345.3 
		165.1,345.3 165.2,345.5 165.4,345.8 165.2,346.3 165.5,346.6 165.8,346.3 166.7,345.4 167.2,345.7 168.9,346.5 171.2,348.2 
		173.2,350.4 174.8,350.7 175.7,351 176.3,351.2 176.7,351.4 177.4,352.4 179.8,354.3 180.2,354.6 180.3,355.6 180.7,355.7 
		181.1,355.2 181.4,355.2 181.9,355.4 182.3,355.7 182.5,356 182.8,355.8 183.3,356.1 183.7,356.6 184.4,357 184.8,358 185,358.1 
		185.8,357.8 186.1,358 186.5,358.4 187.2,358.7 187.8,358.6 188.3,358.4 188.9,358.2 189.1,358.6 189.3,359.1 189.4,359.7 
		189.8,359.8 190.2,359.7 190.3,358.9 190.3,358 190.6,357.7 191.1,357.8 191.4,358.1 191.4,358.4 191.1,359.4 191.4,360.3 
		192.2,361 193,361 193.1,360.2 192.4,359 192.3,358.5 193.2,358.2 193.9,358.9 194.7,358.2 195.2,357.7 195.6,357.4 195.6,356.8 
		195.4,356.2 195.2,355.8 195.5,355.8 195.6,355.7 196,355.6 196.3,355.6 196.7,355.7 197.3,355.6 197.5,355.3 197.6,354.9 
		197.9,354.6 197.9,354.1 198,353.9 198,353.3 198.1,353.1 198.2,352.5 198.4,352.1 198.5,351.8 198.5,351.6 198.8,351.2 
		198.8,351.1 198.9,350.8 199,349.5 199,349.1 199,348.6 199,348.2 199,347.9 199,347 199.2,343.2 199.8,320.2 195.9,310.8 
		195.9,310.5 195.4,309.4 195.1,308.7 194.9,308.6 194.7,308 193.1,303.8 192.2,301.4 191,298.5 190.9,298.3 188.8,293.4 
		188.1,291.5 187.9,291 187.8,290.7 187.7,290.4 187.4,290.2 187,289 186.9,288.5 186.2,286.9 186.2,286.7 186,286.1 185.7,285.7 
		185.4,284.7 184.6,282.6 184.4,282.2 184.2,281.8 184.1,281.2 183.7,280.6 183.6,280.2 183.6,279.8 183.1,278.9 183.1,278.6 
		182.8,278.3 182.9,278.1 182.8,277.9 182.4,277 181.2,274.4 180,270.3 179.6,269.6 178.6,267.4 177.9,265.7 177.8,265.4 
		177.1,263.8 177,263.5 176.7,262.9 176.6,262.5 176.2,261.6 174.8,258.7 171.2,251.4 171.1,251.5 169.9,251.7 167,251 166.7,250.7 
		166.7,249.9 166.4,249.4 164.7,249 163.7,248.1 161.8,247.3 160.8,246.4 159.7,246.4 159.3,246.1 159.7,245.6 159.7,245.1 
		159.6,244.8 159.4,244.5 159,244.1 158.5,244.1 157.9,244.3 157.2,244.1 156.9,244 156.5,243.6 156,243.2 155.6,243.2 155.3,243.2 
		155.1,243.4 154.8,243.6 154.6,244 154.6,244.4 154.6,244.8 154.7,245.1 154.9,245.5 154.8,246 155.1,246.2 155.5,246.6 
		154.7,248.1 154.4,248.6 153.6,249.3 153,249 152.6,249.8 151.9,250.5 151.2,251 150.6,251.5 150.1,251.9 149.7,252.1 149.1,252.1 
		148.6,252.1 147.9,252.1 147.6,252.3 147.4,252.3 146.9,252.6 146.4,252.9 146,253.2 145.6,253.5 145.2,253.9 144.8,254.2 
		144.4,254.3 144,254.4 143.6,254.4 143.4,254.4 143.1,254.3 142.7,254.2 141.9,253.8 141.7,253.8 141.1,253.4 140.4,253.2 
		139.9,253.2 139.4,253.4 139,253.6 138.6,253.9 138.3,254.3 138,254.8 137.8,255.5 137.5,256.1 137.5,257 137.2,257.5 137,257.9 
		136.6,258.3 136.1,258.5 135.5,258.9 135.1,259.2 134.7,259.5 134.5,259.9 134.2,260.2 133.9,260.5 133.7,260.9 133.4,261.2 
		132.9,261.3 132.4,261.6 132,261.8 131.4,262.1 130.8,262.2 130,262.5 129.3,262.8 128.9,263 128.4,263.2 127.9,263.3 127.3,263.4 
		126.8,263.5 126.4,263.5 125.5,263.7 125,263.7 124.8,263.7 124.2,263.8 123.5,264.2 122.1,265.1 120.5,266.2 119.4,266.7 
		118.5,267.2 118.4,267.4 118,267.8 117.4,268.3 116.9,268.6 116.5,269.1 115.9,269.9 115.5,270.3 115.3,270.5 114.8,270.9 
		114.3,271.5 114.2,271.5 113.6,271.9 113.1,272.3 112.8,272.4 111.9,272.9 111,273.2 110.3,273.3 109.7,273.6 109.1,274 
		108.6,274.2 108.2,274.6 107.8,275 107.7,275.4 107.3,276 107.2,276.6 106.9,277.1 106.6,277.5 106.5,277.8 107.8,278.2 	"/>
	<polygon class="st0" points="96.7,298.1 96.6,298.8 97,299.1 97.8,299.6 98.2,300.4 98.7,301.4 99.6,302.1 100.4,302.9 
		101.9,303.8 102.8,304.8 103.1,305.3 102.9,306.2 103.1,306.6 102.9,308 102.5,309.1 102.5,310.4 103.2,311.1 104.4,312.1 
		104.4,313.3 104.6,314.1 105,314.2 105.2,314.5 105.6,315.4 106.3,316.1 107.2,316.8 107.7,317 108.3,317.7 108.6,318.3 
		108.7,319.1 109.4,319.9 110.1,320.9 111.1,322.2 111.5,322.8 111.5,324.1 111.4,325.9 112,326.4 113.2,326.8 115.1,328.4 
		115.5,329.4 117.3,330.6 119.3,331.5 123.4,332.6 124.3,333.5 124.6,334.5 125.5,335.1 126.8,337.4 127.1,338.7 127.5,341.8 
		127.8,343.3 128.1,344.2 128.7,344.5 129.2,344.8 129.3,345.7 129.3,346.1 129.3,346.3 130.4,347.5 131.3,348.2 138.2,340.3 
		147.6,329.8 151.1,325.9 149.3,324.3 148.5,323.9 147.6,323.5 146.8,322.7 146.1,322.3 146,321.8 145.7,321.4 145.4,321.2 145,321 
		144.8,320.6 144,318.7 143.1,318.3 141.9,316.9 141.1,316.2 139.9,315.7 138.8,315.4 137.1,315.3 136.1,315.4 135.3,315.6 
		134.4,316 133,316.4 132.1,316.5 131.4,316.6 130.8,316.6 129.9,316.4 129.2,316 128.8,315.6 128.4,315.2 127,309.1 124.7,299.6 
		124.4,298.3 123.8,297.5 123.2,297 122.6,296.3 122.6,295.9 122.2,295.4 121.4,294.6 121.3,293.4 121,293 120.2,291.8 119.6,291.1 
		118.4,291 117.4,290.5 116.9,289.8 117.1,289.3 117.6,289 117.6,288.8 118,288.5 118.2,288.4 118.2,288 117.7,287.7 116.7,287.8 
		116.1,287.8 115.7,287.8 115.2,287.7 115.1,287.6 114.7,287.3 114.3,287.2 113.8,286.9 113.5,286.7 113.1,286.5 112.6,286.4 
		112.3,286 112.4,285.7 112.7,285.3 112.8,285.2 113.1,284.8 113,284.5 112.7,284.1 112.3,283.1 112,282.7 112.4,282.2 112.7,281.8 
		112.7,281.4 112.8,281.1 113,280.7 113.3,280.5 113.5,280.3 113.1,279.9 112.7,279.4 112.6,279 112,278.6 111.8,278.1 111.4,277.9 
		110.8,278.1 110.3,277.9 109.9,277.7 109.5,277.4 109.3,277.5 108.7,277.5 108.3,277.7 107.8,278.2 106.5,277.8 106.3,278.1 
		105.8,278.6 105.4,279.3 104.8,279.8 104.1,280.3 103.2,280.7 102.1,281.1 101.1,281.4 100.4,281.6 99.5,281.9 98.3,282.7 
		97.6,283.2 97.4,283.5 97.1,283.6 96.6,284.1 96.2,284.7 96.1,285.1 95.8,285.6 95.8,286 95.7,286.7 95.7,287.4 95.8,288.1 
		95.8,288.8 95.9,289.6 96.1,290.4 96.3,290.9 96.4,291.5 96.6,292.1 96.7,292.5 96.7,293.3 96.6,293.8 96.6,294 96.3,294.8 
		96.2,295.4 95.7,296 95.3,296.6 95.3,296.7 96.3,297.4 	"/>
	<polygon class="st0" points="154.4,248.6 154.7,248.1 155.5,246.6 155.1,246.2 154.8,246 154.9,245.5 154.7,245.1 154.6,244.8 
		154.6,244.4 154.6,244 154.8,243.6 155.1,243.4 155.3,243.2 155.6,243.2 156,243.2 156.5,243.6 156.9,244 157.2,244.1 157.9,244.3 
		158.5,244.1 159,244.1 159.4,244.5 159.6,244.8 159.7,245.1 159.7,245.6 159.3,246.1 159.7,246.4 160.8,246.4 161.8,247.3 
		163.7,248.1 164.7,249 166.4,249.4 166.7,249.9 166.7,250.7 167,251 169.9,251.7 171.1,251.5 171.2,251.4 168.3,243.7 169.1,243.4 
		170,242.8 170.4,244 171.1,244.1 171.3,244 171.4,243.6 172,243.4 172.6,243.2 172.9,243.1 173.3,242.9 173.6,242.8 173.7,242.8 
		174.6,242.7 175.3,242 175.7,241.4 176.2,240.4 176.2,240.3 176.3,240.1 176.9,239.5 176.9,239.4 177.1,239.1 177.3,239 
		177.5,238.5 177.5,238.1 177.8,237.8 177.8,237.5 178.1,237.4 178.2,237.3 179.4,236.8 181.2,235.7 181.4,235.7 182.5,234.9 
		183.9,234.1 184,234 184.2,233.8 184.6,233.6 185.2,233.3 185.3,233.3 185.6,233.2 185.8,232.9 186.2,232.6 186.5,232.5 
		186.6,232.5 186.5,232.1 186.4,231.9 186.2,231.7 186.2,231.6 186.1,231.6 186,231.5 186,231.3 185.8,231.3 185.7,231.2 
		185.7,231.1 185.7,230.9 185.7,230.7 185.7,230.5 186,230.5 186.5,227.4 186.5,226.9 186,226.4 184.9,226.1 184.6,225.8 184,225.6 
		183.1,225.5 182.5,225.5 181.7,224.7 180.8,224.2 180.4,223.7 179.9,223.4 179.4,223.6 178.8,223.8 178.6,223.9 178.3,223.8 
		177.3,223.7 176.5,223.6 175.8,223.3 175.1,222.4 172.5,220.8 172,220 171.7,219.6 171.1,219.4 170,219.3 169.1,217.9 168.5,217.5 
		167.8,217.5 166.8,217.5 166.7,216.8 166.6,215.9 166.2,214.7 166.3,213.9 166.6,212.9 167.4,208.6 167.4,208 167.4,207.4 
		167.2,207 167,206.1 163.4,205.3 162.3,205.4 153.8,208.5 153.4,208.1 152.7,206.4 152.3,205.2 151.6,203.3 151.4,202.8 
		150.2,199.8 149.9,199.4 141.6,200.7 142.4,206.2 133.3,208 134.9,213.8 123.9,214.8 124.3,215.4 124.7,215.8 125,216.1 
		125.5,216.8 126,217.3 126.6,217.9 127,218.3 127.1,218.3 127.5,218.5 128.1,218.8 128.5,218.8 129.1,218.9 129.3,219.1 
		129.9,219.3 130.1,219.4 130.5,219.7 130.9,220 131.3,220.2 132,221.2 132.6,222 133.1,222.6 133.6,223.1 133.7,223.4 134.4,224.6 
		134.7,225.4 135,226.3 135.3,227.2 135.5,227.9 135.8,228.6 136.1,229.1 136.3,229.7 136.7,230.4 137,230.9 137.2,231.2 
		137.5,231.5 137.9,231.6 138.8,232.3 139.9,232.9 140.4,233.2 141.1,233.4 141.9,233.8 142.4,234.2 143.1,234.6 143.2,234.8 
		143.9,235.2 144.6,235.8 145.2,236.1 145.7,236.6 146,236.9 146.1,237.1 146.5,237.5 146.8,238.2 147,238.7 147.3,239.2 
		147.6,239.9 147.8,240.3 148.1,240.7 148.1,241.2 148.2,241.8 148.3,242 148.6,242.4 149,242.7 149.4,243.1 149.7,243.4 
		150.1,243.5 150.6,243.7 150.7,243.9 151,244.1 151.4,244.5 151.5,244.7 151.9,245.1 152.6,245.7 153,246.5 153.2,247.3 
		153.2,248.4 153,248.9 153,249 153.6,249.3 	"/>
	<path class="st0" d="M56,387.5v-0.8l0.3-0.1H57v-0.7v-0.4l0.1-0.4l-0.4-0.3l-0.3-0.9v-0.4l-0.4-0.7v-0.3l0.1-0.3l0.1-0.5l0.7-0.9
		v-0.4l-0.7-0.3l-0.5-0.2l0.1-0.5l0.1-0.3l0.1-0.1l0.1-0.5v-0.4l0.3-0.3l0.1-0.1l0.1-0.8v-0.7l0.3-0.5l0.8-1.2l0.4-0.1l3,0.7
		l0.8,0.3l0.8-0.1l0.4-0.8l0.4-1l1.4-1.1L66,371l0.4-1.2l0.5-0.4l1.1,0.1l1.3-0.3l1.1-0.4l1.3-1.7l9.5-10.3l21.5,18.6l0.3-0.8v-1.3
		l0.9-2.1v-0.4l-0.1-0.9v-0.7l0.1-0.3l-0.8-0.9l0.1-0.4l0.4-0.9v-1.1l0.1-1.2l0.7-1.9l-0.3-2.8V359v-0.7l0.5-0.1l0.3-0.3v-0.3
		l-0.1-0.4l0.5-1.2l0.4-0.8l-4-3.8l-9.5-8.9l-3.7-3.4l-2-1.9l-0.7-0.1l-0.8,0.1l-0.8,0.7l-0.8-0.3h-0.3L82,338l-0.7-0.3l-1.1-0.3
		l-0.3-0.8l-0.4-0.7l-0.1-0.7l-0.1-0.5l-0.4-0.3l-0.8-0.4l-1.1-0.3l-1.3,0.4l-0.7,0.1l-0.9-0.5l-0.8-0.7l-0.5-0.3H72l-0.8,0.3
		l-0.5-0.8l-0.1-0.1l-0.8,0.3h-0.4l-0.1-0.4l-0.1-0.5l-0.4-0.4l-0.7-0.9l-0.4-0.5h-0.3l-0.7-0.1l-0.5-0.4l-0.3-0.4l-0.3-0.3
		l-0.9-0.1l-0.5-0.1l-0.4-0.7l-0.1-0.5l-0.3-0.4l-0.5-0.4l-0.3-0.3l-0.1-0.7v-0.4l0.1-0.5v-0.4V324l-0.5-1.3l-0.3-0.4l-0.7-0.1
		l-0.3-1.2l-0.7-0.3l-0.8-0.4l-0.3-0.5l-0.3-0.4l-0.1-0.3h-0.4v-0.5l0.4-0.5l0.3-0.4v-1.5l-0.5-0.7l-0.1-0.7h-0.5l-0.7,0.3h-0.8
		l-1.5,0.2l-0.3-0.3l-0.4,0.4l-1.1,0.9l-0.9,1l-0.5,0.5l-0.4,0.5l-0.3,0.1l-0.4,0.4l-0.1,0.3l-0.3,0.5l-0.3,0.5L50,321l-0.3,0.7
		l-0.3,0.8l-0.4,0.7l-0.3,0.5l-0.3,0.7l-0.3,0.5v0.5l-0.1,0.5l-0.1,0.8v0.5l-0.1,0.3v0.3l-0.3,0.3h-0.1h-0.3l-0.4-0.1h-0.1h-0.3
		l-0.1,0.4l-0.1,0.3l-0.4,0.8v0.1l-0.4,0.7l-0.1,0.1l-0.5,0.7l-0.4,0.3l-0.3,0.4l-0.1,0.5l-0.1,0.7v0.7l-0.1,0.7v0.4l-0.1,0.8
		l-0.1,0.5l-0.3,0.5l-0.3,0.4l-0.4,0.4l-0.3,0.5l-0.4,0.3l-0.3,0.4l-0.3,0.4l-0.2,0.3l-0.1,0.4l-0.3,0.4l-0.1,0.1l-0.1,0.1l-0.5,0.4
		l-0.5,0.3l-0.4,0.3l-0.4,0.4l-0.3,0.3l-0.3,0.3l-0.4,0.4l-0.3,0.4l-0.3,0.5l-0.1,0.4l-0.1,0.4l-0.1,0.4v0.8l0.3,1.2l0.3,1.2
		l0.1,0.3v0.3l0.3,0.4l0.5,0.5l0.7,0.4l0.3,0.3l0.4,0.1h0.3l0.3,0.3l0.1,0.3v0.3l0.3,0.4l0.1,0.3l0.3,0.3l0.4,0.3l0.5,0.1l0.5,0.1
		l0.5,0.5l0.4,0.4l0.1,0.5l0.1,0.7l-0.1,0.7l-0.1,0.3l-0.3,0.5l-0.1,0.7l-0.3,0.5l-0.3,0.4l-0.3,0.4l-0.3,0.4l-0.5,0.5l-0.5,0.5
		l-0.3,0.3l-0.1,0.5l0.1,0.3l0.1,0.3l0.3,0.3l0.3,0.1v0.1v0.7v0.9l-0.3,0.7v0.4v0.4l0.1,0.1l-0.1,0.5l-0.1,0.4v0.3l-0.1,0.4l0.1,0.5
		v0.1l0.3,0.5l0.2,0.4l-0.3,0.1l-0.3,0.1l-0.3,0.1l-1.6,0.1l-1.5,0.1l-0.7-0.1h-0.4l-0.3,0.7l-0.1,0.4l-0.4,1l-0.1,0.5v0.7l0.8,1.6
		l1,1.9l0.5,0.5c0.4,0.5,0.9,1,1.3,1.4l1.1-0.9l2.8-0.1l3.7,2.6l3.2,3.4l1.5,3.2l2.5,2l0.7,1.2l0.9,0.5l0.9-0.3v-0.3L56,387.5
		L56,387.5z"/>
	<polygon class="st0" points="56.5,315.2 57.2,315.2 57.9,314.9 58.4,314.9 58.6,315.6 59.1,316.2 59.1,317.7 58.8,318.1 
		58.4,318.6 58.4,319.1 58.8,319.1 59,319.4 59.2,319.8 59.5,320.3 60.3,320.7 60.9,321 61.2,322.2 61.9,322.3 62.1,322.7 62.7,324 
		62.7,324.1 62.7,324.5 62.5,325.1 62.5,325.5 62.7,326.1 62.9,326.4 63.4,326.8 63.7,327.2 63.8,327.7 64.2,328.4 64.8,328.5 
		65.7,328.6 66,328.9 66.2,329.3 66.7,329.7 67.4,329.8 67.7,329.8 68.1,330.4 68.7,331.3 69.1,331.7 69.3,332.2 69.4,332.6 
		69.8,332.6 70.6,332.3 70.7,332.5 71.2,333.3 72,333 72.9,333 73.5,333.3 74.3,333.9 75.2,334.5 75.9,334.3 77.2,333.9 78.2,334.2 
		79,334.6 79.4,334.9 79.6,335.4 79.7,336 80.1,336.7 80.3,337.5 81.4,337.8 82.1,338 83.2,337.8 83.5,337.8 84.3,338 85.1,337.4 
		85.9,337.2 86.6,337.4 88.5,339.2 92.2,342.6 101.7,351.5 105.7,355.3 116.3,365.1 131.3,348.2 130.4,347.5 129.3,346.3 
		129.3,346.1 129.3,345.7 129.2,344.8 128.7,344.5 128.1,344.2 127.8,343.3 127.5,341.8 127.1,338.7 126.8,337.4 125.5,335.1 
		124.6,334.5 124.3,333.5 123.4,332.6 119.3,331.5 117.3,330.6 115.5,329.4 115.1,328.4 113.2,326.8 112,326.4 111.4,325.9 
		111.5,324.1 111.5,322.8 111.1,322.2 110.1,320.9 109.4,319.9 108.7,319.1 108.6,318.3 108.3,317.7 107.7,317 107.2,316.8 
		106.3,316.1 105.6,315.4 105.2,314.5 105,314.2 104.6,314.1 104.4,313.3 104.4,312.1 103.2,311.1 102.5,310.4 102.5,309.1 
		102.9,308 103.1,306.6 102.9,306.2 103.1,305.3 102.8,304.8 101.9,303.8 100.4,302.9 99.6,302.1 98.7,301.4 98.2,300.4 97.8,299.6 
		97,299.1 96.6,298.8 96.7,298.1 96.3,297.4 95.3,296.7 94.6,297.2 94.1,297.6 93.7,297.7 92.9,298 92,298 90.9,298 89.8,297.9 
		89.3,297.9 89.1,297.9 88.9,297.9 88.4,298.1 88.1,298.4 88,298.4 87.7,298.7 87.6,298.7 87.3,299.1 86.3,300 85.4,300.8 
		85.2,300.9 84.2,301.6 82.7,302.2 81,302.9 80.1,303 79,303.3 78.1,303.5 77.2,303.8 76.4,304 75.5,304.1 74.5,304.1 73.2,304 
		71.9,303.7 71,303.5 70,303.5 69.3,303.5 68.6,303.8 68.1,304 67.8,304.1 67.1,304.3 66.5,304.8 65.6,305.3 64.5,306.1 63.6,307.1 
		61.2,309.1 57.2,312.1 58.4,313.2 57.8,313.6 56.5,314.1 55.8,314.5 55.7,314.6 54.9,315 54.7,315.2 55,315.4 	"/>
	<path class="st0" d="M125.6,425.8v-0.4V425l-0.7-0.4l-0.5,0.3v-0.3v-0.3l0.3-0.3l0.3-0.3l-0.1-0.1h-0.4l-0.4-0.3V423l-0.1-0.4
		l0.1-0.3l0.1-0.3l0.1-0.4l-0.1-0.7l-0.1-0.4V420v-0.5v-0.7l0.8-0.7l0.9-0.1l0.8-0.1l0.4-0.3l0.7-0.7l0.9-0.8l1.5-12.4l0.5-0.8
		l0.5-0.3l0.9-0.9l0.7-1.5l0.3-0.5v-1.7l0.3-2.8l0.5-1.9l0.5-1.3l0.3-0.7v-0.9v-0.7v-0.4l-0.3-0.7l-0.3-0.7l-0.1-0.5l-0.3-0.5
		l0.1-0.7l0.1-0.3l0.3-0.7l0.1-0.3l0.1-0.5v-0.5v-0.1l-0.3-0.7V383l-0.1-1.3l-17.7-16.6l-10.6-9.8l-0.4,0.8l-0.5,1.2l0.1,0.4v0.3
		l-0.3,0.3l-0.5,0.1v0.7v0.9l0.3,2.8l-0.7,1.9l-0.1,1.2v1.1l-0.4,0.9l-0.1,0.4l0.8,0.9l-0.1,0.3v0.7l0.1,0.9v0.4l-0.9,2.1v1.3
		l-0.3,0.8l-21.6-18.6l-9.5,10.3l-1.3,1.7l-1.1,0.4l-1.3,0.3l-1.1-0.1l-0.5,0.4L66,371l-0.8,1.3l-1.5,1.1l-0.4,1l-0.4,0.8l-0.8,0.1
		l-0.8-0.3l-3-0.7l-0.4,0.1l-0.8,1.2l-0.3,0.5v0.7l-0.1,0.8l-0.1,0.1l-0.3,0.3v0.4l-0.1,0.5l-0.1,0.1l-0.1,0.3l-0.1,0.5l0.5,0.3
		l0.7,0.3v0.4l-0.7,0.9l-0.1,0.5l-0.1,0.3v0.3l0.4,0.7v0.4l0.3,0.9l0.4,0.3l-0.1,0.4v0.4v0.7h-0.7l-0.3,0.1v0.8v0.3v0.3l1.8-0.5
		l-0.1,1.5l0.8,0.5l1,4.5l3.6,3.6H64l1.1-1.7l2.5,0.7l0.7,2.9l1.5,2.6v1.9l3.2,2.8l0.8,0.5l1.6-2.2h3.2l0.3,1.3l2,0.7v0.9l-1.2,1
		l0.7,0.9l2.2,1.6l3.6,1.6l0.4,2.2l1.3-0.7l1.8,0.7l1.1,2l-0.7,3.2l1.1,0.8l-0.1,0.7l-1.2,0.3v1l2,0.8l2.5,3l2.2-0.8l0.9-3.3
		l2.5-1.2l3.8,0.5l3-0.4l0.4-1.2l1.2-0.1l0.8,0.4l1.1,2.8l-0.8,0.7v0.7l0.7,0.5l2.9-0.1l1.7,0.4l4.1-0.4l7.1,3
		c0.1-0.8,0.2-1.6,0.3-2.4L125.6,425.8z"/>
	<path class="st0" d="M161.8,405.6l-0.4-0.5l-0.5,0.1h-0.3l-0.4,0.3l-0.3,0.4l-0.1,0.3l-0.4,0.4h-0.1v-0.3V406l-0.3-0.5h-0.1h-0.1
		l-0.4,0.4H158l-0.4,0.3l-0.5,0.1l-0.3,0.1l-0.4,0.1h-0.5l-0.3-0.3l-0.1-0.1l-0.4-0.3l-0.3,0.1h-0.1l-0.3-0.1h-0.3l-0.1,0.3
		l-0.4,0.3l-0.4-0.1l-0.3-0.4l-0.4-0.4h-0.4l-0.4-0.1l-0.7-0.1h-0.5l-0.5,0.1l-1.1,0.3l-0.7,0.3l-0.4-0.4l-0.1-0.5l-0.3-0.3
		l-0.3,0.3l-0.4,0.4l-0.5-0.4l-0.9-0.3l-0.5,0.3l-0.1-0.3v-0.4v-0.4l-0.8-0.3l-0.5-0.1l-0.4,0.1l-0.3,0.3l-0.4-0.1l-0.3-0.3
		l-0.4-0.1h-0.3h-0.1l-0.5,0.4l-1.4-0.3l-1.1,0.3l-0.7-0.3l-0.4-0.4l-0.7-0.9l-0.5-0.1l-1.3-0.4l-0.8-0.1l-0.7-0.4l-0.4-1.3
		l-0.3,0.5l-0.7,1.5l-0.9,0.9l-0.5,0.3l-0.5,0.8l-1.5,12.4l-0.9,0.8l-0.7,0.7l-0.4,0.3l-0.8,0.1l-0.9,0.1l-0.8,0.7v0.7v0.5v0.7
		l0.1,0.4l0.1,0.7l-0.1,0.4l-0.1,0.3l-0.1,0.3l0.1,0.4v0.4l0.4,0.3h0.4l0.1,0.1l-0.3,0.3l-0.3,0.3v0.3v0.3l0.5-0.3l0.7,0.4v0.4v0.4
		l0.4,0.3c-0.1,0.8-0.2,1.6-0.3,2.4l0.9,0.4l2.1,3.4l0.4,6.3l-3.3,6.7l-1.3,5.1l-3.2,3.6l-1.1,4.4l-1.8,3.8l-0.3,5.5l-1.2,2l0.8,1.5
		l-0.5,1.3l0.4,0.3l3.6,0.1l6.1-1.5l3.4-1.5l0.7-0.7l-0.3-0.7l-4,0.7l-0.5-0.5l0.5-0.9l3.8-0.5l-0.1-1.3l-1.5-0.5l-0.3-1.1l0.4-0.3
		l1.3,0.7l0.7-0.4l-0.5-2.2l0.7-0.4l1.3,0.7l1.7-0.7l1.2,0.8l-0.9,1.8l-1.3,0.4l-1.1-0.4L132,465l0.1,3.8l0.5,0.5l10.3-9l0.7-1.9
		l-2-4l1.7-0.8l0.9-3.2l1.8-2l0.3-1.2l-1.2-3.7l-1.3,1l-1.1-1.7l0.4-1.8l3.3-0.9l0.8,0.7l0.4,2.2l-0.7,2.2l1.3,2.5l-0.7,0.8
		l-1.7,0.8l-0.9,2.1l0.1,3.2l3.8-3.7l3.4-6.5l2.4-3.2l-0.4-1.7l-3.2,0.8l0.3-2l-2.2-0.4l0.5-0.7l2.1-0.3l0.5-2.6l1.2-0.8l-0.4,3.4
		l0.4,0.5l1.2-0.7l0.9-2.5l1.3-0.9l2.5-5.1l2.8-3.7l0.1-0.9l-1.9-0.9l1.2-0.4l0.4-1.6l2.9-0.4l1.4-1.3l1.7-4.1l2.1-2.6l1.6-1.3
		l4-1.5l0.5-2.2l-0.9-1.5l-1.6,0.4l-3.2,2.2l-1.6-0.9l-0.8,1l0.4,1.8l-3,2.4l0.8-4.9l-2.2-0.8l-2.9-0.3l0.5-0.6
		c0-0.1-0.1-0.3-0.1-0.4L161.8,405.6L161.8,405.6z"/>
	<path class="st0" d="M200,371.3l-2.2-2.1l-0.7-1.2l0.1-1.5l-1.4-1.6l0.1-2.5l0.7-0.3l-1.1-3.8h0c-0.1-0.2-0.2-0.5-0.3-0.7l-0.5,0.5
		l-0.8,0.7l-0.7-0.7l-0.9,0.3l0.1,0.5l0.7,1.2L193,361h-0.8l-0.8-0.7l-0.3-0.9l0.3-1v-0.3l-0.3-0.3l-0.5-0.1l-0.3,0.3v0.9l-0.1,0.8
		l-0.4,0.1l-0.4-0.1l-0.1-0.5l-0.1-0.5l-0.3-0.4l-0.5,0.1l-0.5,0.3l-0.7,0.1l-0.7-0.4l-0.4-0.4l-0.3-0.1l-0.8,0.3l-0.3-0.1l-0.4-0.9
		l-0.7-0.4l-0.4-0.5l-0.5-0.3l-0.3,0.1l-0.3-0.3l-0.4-0.3l-0.5-0.3h-0.3l-0.4,0.5l-0.4-0.1l-0.1-0.9l-0.4-0.4l-2.4-1.9l-0.7-1
		l-0.4-0.1l-0.7-0.3l-0.9-0.3l-1.6-0.3l-2-2.2l-2.2-1.7l-1.7-0.8l-0.5-0.3l-0.9,0.9l-0.3,0.3l-0.3-0.3l0.1-0.5l-0.1-0.3l-0.1-0.3
		h-0.3l-0.3,0.3l-0.3,0.3l-0.5-0.3h-0.3l-0.5-0.4l-0.5-0.3l-0.4-0.7l-0.4-0.4l-0.1-1.2l0.3-0.9l-0.3-1.5l0.1-0.8l0.4-0.9l-0.1-0.8
		l-0.5-1.2l-0.4-0.7v-0.8l-0.1-0.5l-0.5-0.7l-0.9-1l-6.1-5.1l-2.2-1.8l-3.6,4l-9.4,10.4l-6.9,7.9l-15.1,16.9l17.7,16.6l0.1,1.3v0.4
		l0.3,0.7v0.1v0.5l-0.1,0.5l-0.1,0.3l-0.3,0.7l-0.1,0.3l-0.1,0.7l0.3,0.5l0.1,0.5l0.3,0.7l0.3,0.7v0.4v0.7v0.9l-0.3,0.7l-0.5,1.3
		l-0.5,1.9l-0.3,2.8v1.7l0.4,1.3l0.7,0.4l0.8,0.1l1.3,0.4l0.5,0.1l0.7,0.9l0.4,0.4l0.7,0.3l1.1-0.3l1.4,0.3l0.5-0.4h0.1h0.3l0.4,0.1
		l0.3,0.3l0.4,0.1l0.3-0.3l0.4-0.1l0.5,0.1l0.8,0.3v0.4v0.4l0.1,0.3l0.5-0.3l0.9,0.3l0.5,0.4l0.4-0.4l0.3-0.3l0.3,0.3l0.1,0.5
		l0.4,0.4l0.7-0.3l1.1-0.3l0.5-0.1h0.5l0.7,0.1l0.4,0.1h0.4l0.4,0.4l0.3,0.4l0.4,0.1l0.4-0.3l0.1-0.3h0.3l0.3,0.1h0.1l0.3-0.1
		l0.4,0.3l0.1,0.1l0.3,0.3h0.5l0.4-0.1l0.3-0.1l0.5-0.1l0.4-0.3h0.4l0.4-0.4h0.1h0.1l0.3,0.5v0.3v0.3h0.1l0.4-0.4l0.1-0.3l0.3-0.4
		l0.4-0.3h0.3l0.5-0.1l0.4,0.5v0.5c0,0.1,0.1,0.3,0.1,0.4l0.7-0.9l-1.3-1.7l0.8-0.9l2.2,1.2l1.1-1.2l1.7,1.2l2.4-0.8l4.9,0.8
		l1.6-1.9l-0.9-2.2l1.2-2.5l0.5-0.3l1.6,1l0.8-0.1l0.1-1.7l1.2-1.3l0.5-3.3l1.4-0.7h2l0.9,0.5l0.3,1.5l-0.9,1.8l-0.9,0.4l0.8,0.5
		l-0.1,0.7l-3,2.1l-0.3,2l-1.4,2.2l-0.1,1.3l1.5-0.1l5.6-4.6l4.4-1.7l5.8-3.8l-0.5-2.5l-1.9-0.7v-1.3l-1.6-0.5v-1.3l-0.7-0.4l-3-0.4
		l-2.1,1.2l-0.4-4l2.5-1.3l0.7-1v-2.9l0.7-0.9h1.1l0.5-2.4l0.8,0.1l0.1,0.7l1.7,0.3l0.3,2l1.8,2.2l1.9-1.2l-1.6-3.4l1.5-1.3
		l-0.9-1.5l-0.9-0.1l-0.1-0.5l0.7-0.9l1.4,0.1l0.3,0.9l1.1,0.1l0.5-0.7L200,371.3z"/>
	<path class="st0" d="M249.5,263.1l-0.1-2l-0.9-0.9h-2.6l-2.2,1.2l-2.1-0.5l-1.1-1.2l-0.5-3.3l0.5-0.8l0.1,0.4l0.3-0.9l-1.7-1.3
		l-0.3-0.1l-0.8-0.3l-0.4-0.5l-0.1-0.7l-0.5,0.5l-0.1,0.1l-3.2,4.4l-2.2,2.5l-0.1-0.3l-0.5-0.4v-0.7l-0.1-0.5l-0.3-0.5l-0.9-0.1
		l-0.4-0.1l-0.7-0.4h-0.7l-0.9-0.1h-0.7l-0.7-0.1l-0.5-0.1l-0.4,0.1l-0.9,0.4l-1.1,0.3H222l-1.2-0.3l-1.3-0.4l-0.4-0.7l-0.3-0.5
		l0.3-1.1l0.1-0.7l-0.4-1.2l-0.7-1.6l-0.7-0.9l-0.5-0.4l-0.1-1.7l-0.1-0.5l-0.3-0.8l-0.4,0.1l-4.1-0.1l-4-0.3l-11.5-0.3l-5.7,5
		l-10.6,9.6l-3.7,2.1l0.1,0.4l0.3,0.7l0.1,0.3l0.7,1.6l0.1,0.3l0.7,1.7l1.1,2.2l0.4,0.7l1.2,4.1l1.2,2.6l0.4,0.9l0.1,0.1l-0.1,0.3
		l0.3,0.3v0.3l0.5,0.9v0.4l0.1,0.4l0.4,0.7l0.1,0.5l0.1,0.4l0.3,0.4l0.8,2.1l0.3,1l0.3,0.4l0.3,0.5v0.3l0.7,1.6l0.1,0.5l0.4,1.2
		l0.3,0.1l0.1,0.4l0.1,0.3l0.1,0.5l0.7,1.8l2.1,4.9l0.1,0.3l1.2,2.9l0.9,2.4l1.6,4.2l0.3,0.5l0.1,0.1l0.3,0.7l0.5,1.2v0.3l4,9.4
		l-0.7,23l-0.1,3.8v0.9v0.3v0.4v0.5v0.4l-0.1,1.3l-0.1,0.3v0.1l-0.3,0.4v0.1l-0.1,0.4l-0.1,0.4l-0.1,0.5l-0.1,0.3v0.5l-0.1,0.3v0.5
		l-0.3,0.3l-0.1,0.4l-0.1,0.3l-0.7,0.1l-0.4-0.1H196l-0.4,0.1l-0.1,0.1h-0.3l0.1,0.4l0.3,0.5v0.7l-0.4,0.3c0.1,0.2,0.2,0.5,0.3,0.7
		l0.5-0.3l2,1.3l0.4,2l4.5,0.3l-0.3-1.2l0.5-0.5l0.8,0.4l0.1,0.9l1.3,0.3l1.2-0.7l2,1.5l-0.4,0.9l0.7,1l-0.8,0.4l-0.3,2l0.4,0.4
		l0.9-0.7l1.9,0.3v-1l1.4-1.7l-0.1-2l-4-2.9l-0.3-1.2L207,357l0.1-2.4l1.3,0.8l0.7-1.6l1.4-0.4l0.5-2.9l1.3-0.8l1.4,1v-1.9l1.1-0.4
		l0.8,0.9l1.7-0.5l-0.5-1.7l0.9-1.3V345h1.2l-0.3-2.5l1.2,0.3l1.3-0.8l1.3,0.3l1.4-2.2v-1.2l1.1-1.2l2.9-1.5l-1.3-0.8l0.8-1.7
		l1.4-0.7l0.1-1.7l1.9,0.1l0.9-1.5l0.1-0.3l-2.6-0.5l-0.4-0.7l2.1-0.4l-0.3-3l-3.4-0.7v-3.3l1.2-2.2l-0.9-2.4l1.9-1.7l0.7-3.6l2-0.8
		l-0.1-0.8l-1.7-0.3v-0.5l2.4-1.1l1.3-3.4l2-1.2l-0.9-0.8l-3-0.1v-0.9l2.5-0.3l0.9-4.6l1.3-2.5l2.5-2.1v-0.7l-0.8-0.4h-5.1l-2.5-1.9
		l-2.5-0.1l-0.4-1.5l3-0.4l2,1.6l2.4,0.5l2.8-1.5l0.4-1.6l-0.3-1l0.9-2l-1.3-1.6l0.7-1.5l-0.8-0.5l-1.4,0.9l-1.4-0.7l-0.3-0.7
		l0.8-1.6l2.2,0.4l0.8-0.8l1.2,0.3l0.3-0.7l-0.8-0.9l-3.2-0.4l-0.1-0.5l0.8-1L235,272l1.2-0.4l1.7,1.7l1.9,0.3l0.9,1.6l1.6-0.1
		l0.3-2.1l1.5-1.6l0.1-2l-0.9-0.3l-2.9,1l-0.4-0.5c-0.5,0-1.1,0.1-1.6,0.1l-0.9-0.9h-0.8l-0.5-1.3l0.9-0.4l0.8,0.9l3.6,0.7l4-2.2
		l1.3,0.3l-0.9,2.8v5.9l-2.6,9.5l-0.9,0.8l1.2,3.2l-1.3,3.7l-0.7,5.3l-0.7,12.5l-1.2,3l0.4,3.6l-0.4,0.7l-1.1-0.4l-0.5,1l1.1,0.1
		l0.7,0.8l0.7-0.1l0.9-2.4l0.3-5.5l1.9-9.8l0.3-8.2l3-16.2l-0.1-2.5L249.5,263.1z"/>
	<path class="st0" d="M232.8,153L232.8,153L232.8,153z"/>
	<path class="st0" d="M223.6,167.8l-0.3-0.4l-0.3-0.1l-0.5,0.1l-0.8,0.1l-1.6-0.1l-0.7,0.1l-0.5,0.1l-1.7-0.3v0.1l-0.4,0.8l-0.7,0.1
		l-1.5,0.4l-2,0.3l-0.3,0.1l-0.1-0.1l-0.4-0.3l-0.7-0.9l-0.3-0.7v-1.1l-0.3-0.1l-2,0.1l-11,1.3l-8.1,0.7l-0.9,0.1l-0.5-0.7l-1.2,0.5
		l-1.1,1.1l-1.9,0.7l-2,1.1l-1.3,1.2l-0.5,1.9l0.3,0.9v0.4l1.1,2.1l0.7,0.9l1.6,1.3l0.9,1.1l1.1,2.5l0.5,0.3l2.6,0.5l0.4,1.3
		l0.4,1.2l-0.1,0.7l-1.1,0.5l-1.7,0.7l-0.1,0.1l-0.5,0.4l-0.1,0.3l-0.3,0.3l-0.3,0.3l-0.5,0.9l-0.5,0.7l-0.3,0.3l-0.4,0.3l-2.2,2.1
		l-0.9,1.1l-0.3,0.3l-1.3,1.4l-0.4,0.1l-3.2,2.4l-0.8,0.1l-1.5,0.4l-0.1,0.1l-0.9,0.5l-0.1,0.1l-0.8,3.8l-1.8,3l-0.1,0.1l-0.9,0.5
		l-0.3,0.3l-0.3,0.1l-0.7,0.1l-0.8,4.2l-0.3,1.1l-0.1,0.8l0.4,1.2l0.1,0.9l0.1,0.7h0.9h0.8l0.5,0.4l0.9,1.5l1.1,0.1l0.7,0.1l0.3,0.4
		l0.5,0.8l2.6,1.6l0.7,0.9l0.7,0.3l0.8,0.1l1.1,0.1l0.3,0.1l0.3-0.1l0.5-0.3l0.5-0.1l0.5,0.3l0.4,0.5l0.9,0.5l0.8,0.8h0.5l0.9,0.1
		l0.7,0.1l0.3,0.3l1.1,0.4l0.5,0.4v0.5l-0.5,3.2l1.3,0.1l0.3,0.1h1.1l0.4,0.1l0.3,0.1l0.3,0.1l3.4-2.2l4.5-2.5l0.5-0.3l0.1-0.1
		l0.4-0.8V225v-0.3l0.1-0.3v-0.1l12.8-14.3l3.8-4l2.5-2.6l0.7-0.7v-0.1h0.1v-1.1l0.1-2.6v-1.3v-0.1l1.2-1.6h0.7l1.1-0.4
		c0.1-0.3,0.1-0.7,0.1-1l-5.5-2.8l-0.9-3l-2.4-1.8l-1.6-0.4l-1.3,0.4l-2,3.8l-2.1,0.3l-1.7-0.7l2.9-2.1l2.6-3.4l2-0.1l2.2,0.8
		l1.4,1.7l0.7,0.1l0.5-3.6l1.4-2.5l-0.3-2.6l0.4-1.6l1.6-2l2.9-1.2l1.3-5.3l0-0.2c-0.1,0-0.1,0-0.2,0L223.6,167.8z"/>
	<path class="st0" d="M232.7,153l-1.9-1.7l-1.7,0.3l-4.2-0.1l-0.7-0.3l-0.7-1.5l-0.8-1.3l-1.7-0.8l-2.8-0.5l-2.8-1.1l-2-0.8h-0.9
		l-0.8,0.9l-1.2,0.4l-0.9-0.4l-0.8-0.3l-0.7-0.3l-0.8,0.1l-0.5-0.3l-2.2-1.8l-1.4-0.9l-1.7-0.7l-2.4,2.2H199l-1.7,1.7v0.1l-1.2,1.1
		H196l-1.2,1.2l-1.2,1.6l-0.1,0.3l-2,0.9l-0.8,0.5l-0.1,0.4v0.3v0.1l0.1,0.1v0.1l-0.4,0.9h-0.1h-0.4h-0.1h-0.1l-0.3,0.7l0.5,0.8
		l0.4,1.6l0.4,1.1l3.3-1.6l1.2,0.4l1.8-1.3l0.1,0.4v1.7l-0.5,2l-0.8,2.1l-2.2,2.6l-2.8,2.2l-0.8,0.7l-1.6,0.7l0.5,0.7l0.9-0.1
		l8.1-0.7l11-1.3l2-0.1l0.3,0.1v1.1l0.3,0.7l0.7,0.9l0.4,0.3l0.1,0.1l0.3-0.1l2-0.3l1.5-0.4l0.7-0.1l0.4-0.8v-0.1l1.7,0.3l0.5-0.1
		l0.7-0.1l1.6,0.1l0.8-0.1l0.5-0.1l0.3,0.1l0.3,0.4l0.3,0.5c0.1,0,0.1,0,0.2,0l-0.1-2.6l1.2-4.9l2.1-2l2.1-0.1l0.9-0.7l1.9-2.8
		L232.7,153L232.7,153z"/>
	<path class="st0" d="M257.9,206.6l-0.7-1.6l-0.7-6.5l-1.6-4.2l-1.3-2l-1.6-1.1l-1.1,0.5v0.5l1.1,1.3l0.1,2.4h1.9l0.7,0.7l-0.4,1.9
		l2.1,5.1l0.7,7.3l-0.4,2.5l-0.9,2.5l-1.7,0.1l0.1,0.8l-0.7,1.3l-1.4-0.8l-0.9,1.3h-0.5l0.1-1.5l-0.8-1.8l1.3,0.3l1.2-0.5l-0.1-1.1
		l2.5-1.7l0.3-2.6l-3.3-1.1l-2.2,1.2l-0.4,0.9l-1.8,0.1l-2.6,2.2L244,212l7.9-5.7l1.6,0.5l1.9,1.4l-0.3-3.4l-1.7-2.4l-8.6-2.2
		l-4.4-3.2l-3.3-0.9l-2.8-2h-1.1l-0.7,0.9h-1.3l-1.4-0.3l-1.9-1.4l-1.6,2.8l-2.8,1.1l0.5-0.8l-0.3-0.8l-2.2-1.1
		c-0.1,0.3-0.1,0.7-0.1,1l-1.1,0.4h-0.7l-1.2,1.6v0.1v1.3l-0.1,2.6v1.1h-0.1v0.1l-0.7,0.7l-2.5,2.6l-3.8,4l-12.8,14.3v0.1l-0.1,0.3
		v0.3v0.3l-0.4,0.8l-0.1,0.1l-0.5,0.3L193,229l-3.4,2.2l-0.3-0.1L189,231l-0.4-0.1h-1.1l-0.3-0.1l-1.3-0.1h-0.3v0.1v0.3v0.1v0.1
		l0.1,0.1h0.1v0.1l0.1,0.1h0.1v0.1l0.1,0.1l0.1,0.3l0.1,0.4h-0.1l-0.3,0.1l-0.4,0.3l-0.3,0.3l-0.3,0.1h-0.1l-0.5,0.3l-0.4,0.3
		L184,234l-0.1,0.1l-1.3,0.8l-1.2,0.8h-0.1l-1.9,1.1l-1.2,0.5l-0.1,0.1l-0.3,0.1v0.3l-0.3,0.3v0.4l-0.3,0.5l-0.1,0.1l-0.3,0.3v0.1
		l-0.5,0.5l-0.1,0.3v0.1l-0.5,0.9l-0.4,0.7l-0.7,0.7l-0.9,0.1h-0.1l-0.3,0.1l-0.4,0.1l-0.3,0.1l-0.7,0.1l-0.5,0.3l-0.1,0.4l-0.3,0.1
		l-0.7-0.1l-0.4-1.2l-0.9,0.5l-0.8,0.4l2.9,7.7l3.6,7.3l1.5,2.9l0.4,0.9l3.7-2.1l10.6-9.6l5.7-5l11.5,0.3l4,0.3l4.1,0.1l0.4-0.1
		l0.3,0.8l0.1,0.5l0.1,1.7l0.5,0.4l0.7,0.9l0.7,1.6l0.4,1.2l-0.1,0.7l-0.3,1.1l0.3,0.5l0.4,0.7l1.3,0.4l1.2,0.3h0.7l1.1-0.3l0.9-0.4
		l0.4-0.1l0.5,0.1l0.7,0.1h0.7l0.9,0.1h0.7l0.7,0.4l0.4,0.1l0.9,0.1l0.3,0.5l0.1,0.5v0.7l0.5,0.4l0.1,0.3l2.2-2.5l3.2-4.4l0.1-0.1
		l0.5-0.5l0.1,0.7l0.4,0.5l0.8,0.3l0.3,0.1l1.7,1.3l-0.3,0.9l0.9,2.3l1.7,1.5l3.2-1.5l2.1,0.4l0.8-0.8l0.3-5.7l1.6-7l-0.8-0.5
		l-1.9,0.8l-1.2-0.1l-1.2-0.5l-1.4-1.9l0.4-0.7l1.8,1.1h0.7l0.5-1.1h0.7l1.7,1.3l1.2-0.4l1.4-4.2v-3l2.6-7.7l0.3-6.4l1.6-5.3
		l-0.3-3.8L257.9,206.6z"/>
</g>
</svg>
