<?xml version="1.0" encoding="utf-8"?>
<!-- Generator: Adobe Illustrator 24.1.2, SVG Export Plug-In . SVG Version: 6.00 Build 0)  -->
<svg version="1.1" id="Layer_1" xmlns="http://www.w3.org/2000/svg" xmlns:xlink="http://www.w3.org/1999/xlink" x="0px" y="0px"
	 viewBox="0 0 500 500" style="enable-background:new 0 0 500 500;" xml:space="preserve">
<style type="text/css">
	.st0{display:none;fill:none;stroke:#00AEEF;stroke-width:6;stroke-miterlimit:10;}
	.st1{display:none;fill:none;stroke:#009BFF;stroke-width:6;stroke-miterlimit:10;}
	.st2{display:none;fill:none;stroke:#009BFF;stroke-width:5;stroke-miterlimit:10;}
	.st3{display:none;fill:#009BFF;}
	.st4{fill:#F7F5F0;stroke:#404040;stroke-width:1.5;stroke-miterlimit:10;}
	.st5{fill:#EF3E26;stroke:#404040;stroke-width:1.5;stroke-miterlimit:10;}
</style>
<path class="st0" d="M125.9,228.7"/>
<line class="st1" x1="124.9" y1="228.1" x2="227.9" y2="169.8"/>
<line class="st2" x1="130.4" y1="225.2" x2="217.4" y2="152"/>
<path class="st3" d="M180.7,190.4c6.1-3.5,11.3-8.3,17-12.4c1.6-1.2,3.3-2.2,5-3.2c1-0.6,0.1-2.1-0.9-1.6c-6.2,3.4-11.3,8.3-17,12.4
	c-1.6,1.2-3.3,2.2-5,3.2C178.8,189.4,179.7,191,180.7,190.4z"/>
<polygon class="st4" points="236.2,117 238,118.1 238.1,117 "/>
<polygon class="st4" points="236.9,107.8 237,107.4 234.7,107.3 234.7,108 234.7,108.4 233.7,108.5 233.7,109 231.6,109 231.1,109 
	229.1,109 229,108.3 228.3,108.3 228.3,109.4 228.2,116.3 228.2,117 228.3,119.2 226.9,119.2 227.1,119.7 227.5,120.2 228,120.6 
	229,120.7 230.1,120.6 230.4,120.6 231.1,120.7 231.1,120.3 232.2,120.7 233.4,121.1 234.5,121.7 235.8,122.1 236.9,123.2 
	237.3,123.9 237.6,124.6 237.7,124.7 238,125.4 238.2,125 238.5,124.9 238.7,124.4 239.8,124 240.2,123.3 240.6,123.3 241.4,122.4 
	241.6,121.6 241.9,121.3 242.4,121 242.6,120.4 242.6,119.9 242.8,119.5 243,119.2 241.4,119.2 239.8,119.3 239.5,119.3 
	239.2,118.8 238.2,118.5 238,118.1 236.2,117 238.1,117 238.1,113.9 238.2,110.9 238.2,108.5 238.2,108 237.6,107.8 "/>
<polygon class="st4" points="202.6,225.3 220.4,231.4 223.6,233.3 226.5,232.6 226.5,232.2 226.5,226.1 223.6,226.1 222.9,226.1 
	222.9,221.7 222.9,219.1 223.3,219.1 223.5,213.9 223.3,212 223.3,210.8 223.2,207.2 223.5,207.3 223.5,206.9 223.5,205.9 
	223.5,203.6 223.5,202.4 223.6,197.9 226.9,197.9 226.9,196.1 226.4,195.8 226.1,195.3 209.2,194.7 208.7,195.1 208.1,195.1 
	208.1,195.5 206.6,197.1 206.7,197.5 186.4,197.2 186.1,196.5 183.5,189.9 178.9,190 174.5,189.9 174.5,197.1 174.5,198.2 
	174.4,199.6 174.4,200.7 174.4,201.9 174.2,203 174.2,204.4 174.2,205.1 174.2,206.3 174.2,207.6 174.2,208.8 174.1,209.9 
	174.1,211.2 174.1,212.3 173.9,220.9 195.2,221.3 "/>
<polygon class="st4" points="143,310.9 144.1,310.9 145.4,310.9 152.2,310.9 153.2,311 156,310.9 159.6,311 165.8,311.2 
	168.7,311.2 171,311.2 172.1,311.2 173.4,311.2 174.5,311.2 175.6,311.2 176.7,311.2 177.8,311.2 179.1,311.3 186.2,311.6 
	194.1,311.6 197.7,311.6 198.8,311.6 199.9,311.6 201.1,311.6 202.4,311.7 203.5,311.7 222.2,311.7 222.2,311.3 229,311.6 
	229,296.6 236.3,296.8 243.6,297.3 243.6,297.6 247.1,297.5 248.2,297.5 249.6,297.5 250.7,297.5 250.7,296.4 250.7,290.6 
	250.7,289.5 250.7,288.2 250.8,283.2 251.9,283.2 259.3,283.2 259.4,277.7 259.4,276.5 259.4,274 259.4,269.3 259.4,266.8 
	259.4,264.6 259.4,262.1 259.3,258.6 259.3,257.5 259.3,255 259.1,247.8 249.9,247.8 248.8,247.8 245,247.8 226.4,247.6 
	226.5,240.5 226.5,237 226.5,234.7 226.5,232.6 223.6,233.3 220.4,231.4 202.6,225.3 195.2,221.3 173.9,220.9 153.2,220.4 
	152.1,220.4 146.1,220.3 140.5,220.2 139.1,220.2 139.1,222.5 139.1,227.4 139.1,228.6 139.1,229.9 139.1,231.1 139.1,232.3 
	139.1,233.6 138.9,239.5 138.5,246.9 139.2,247 139.1,254.5 138.9,261.4 138.9,263 138.8,266.6 138.7,267.9 138.7,269.1 
	138.5,277.7 138.4,282.4 138.7,282.4 138.7,283.1 138.7,285.4 138.5,289.2 138.5,290.3 138.5,291.5 138.5,292.8 138.5,294 
	138.4,295.1 138.4,297.5 138.4,298.6 138.4,299.8 138.2,301.1 138.2,302.3 138.2,307 138.2,308.3 138.1,310.8 140.6,310.8 "/>
<polygon class="st4" points="186.4,197.2 206.7,197.5 206.6,197.1 208.1,195.5 208.1,195.1 208.7,195.1 209.2,194.7 226.1,195.3 
	226.4,195.8 226.9,196.1 226.9,197.9 230.4,197.8 231.9,197.8 244.5,197.8 244.5,191 238.2,190.7 238.2,183.8 238.2,182.7 
	238.1,169.5 229.1,169.3 228.9,169.3 224.1,169.3 222.5,169.3 221.2,169.1 216.8,169.1 214.7,169.1 197,169.1 195.8,169.1 
	192.3,169 191.8,169 185.7,168.8 182.9,168.8 182.7,168.8 181.8,168.7 180.7,168.7 179.6,168.7 177.5,168.7 177.3,168.7 
	174.9,168.6 176.2,171.8 180.7,182.9 180.9,183.5 183.5,189.9 186.1,196.5 "/>
<polygon class="st4" points="177.5,168.7 179.6,168.7 180.7,168.7 181.8,168.7 182.7,168.8 182.9,168.8 185.7,168.8 191.8,169 
	192.3,169 195.8,169.1 197,169.1 214.7,169.1 216.8,169.1 221.2,169.1 222.5,169.3 224.1,169.3 228.9,169.3 229.1,169.3 
	238.1,169.5 238.1,166.5 238,162.1 237.7,162.1 237.8,161.4 237.8,158.5 237.8,153.8 237.8,150.6 237.8,147.8 237.8,143.5 
	237.8,142.3 238,133.4 238,131.8 238,126.4 238,125.4 237.7,124.7 237.6,124.6 237.3,123.9 236.9,123.2 235.8,122.1 234.5,121.7 
	233.4,121.1 232.2,120.7 231.1,120.3 231.1,120.7 230.4,120.6 230.1,120.6 229,120.7 228,120.6 227.5,120.2 227.1,119.7 
	226.9,119.2 228.3,119.2 228.2,117 228.2,116.3 228.3,109.4 228.3,108.3 229,108.3 229.1,109 231.1,109 231.6,109 233.7,109 
	233.7,108.5 234.7,108.4 234.7,108 234.7,107.3 237,107.4 236.9,107.8 237.6,107.8 238.2,108 238.1,105.1 233.8,104.9 228.3,104.9 
	213.9,104.8 196.5,104.8 196.6,102.3 196.9,90.7 196.9,87.2 195.6,87.2 194.6,87.1 189.8,87.1 162.6,86.6 161.2,86.6 160,86.4 
	158.9,86.4 157.8,86.4 156.5,86.4 155.4,86.3 153.1,86.1 150.7,86.1 148.4,86 148.4,88.5 148.4,89.7 148.2,91.9 148.2,93.1 
	148.1,95.5 148.1,96.8 148.1,99 147.9,101.5 147.9,102.7 147.8,103.8 148.1,103.8 149.2,104 150.3,104 151.3,104 152.5,104 
	152.6,104 155,104.1 159.8,104.3 162.1,104.4 163.3,104.4 166.5,104.4 168,104.4 168.7,104.4 168.7,105.2 168.7,106.5 168.7,110.2 
	168.6,114.8 168.6,118.5 168.6,119.5 168.4,122 168.4,124.4 168.4,125.7 168.4,126.7 168.4,127.9 168.4,129.2 168.4,130.3 
	168.4,131.5 168.4,132.8 168.4,133.7 168.4,136.2 168.3,143.3 168.3,147.3 168.3,151.7 168.1,161.8 172.6,161.8 174.9,168.6 
	177.3,168.7 "/>
<polygon class="st4" points="229,311.6 222.2,311.3 222.2,311.7 203.5,311.7 202.4,311.7 201.1,311.6 199.9,311.6 198.8,311.6 
	197.7,311.6 194.1,311.6 186.2,311.6 179.1,311.3 177.8,311.2 176.7,311.2 175.6,311.2 174.5,311.2 173.4,311.2 172.1,311.2 
	171,311.2 168.7,311.2 165.8,311.2 159.6,311 156,310.9 153.2,311 152.2,310.9 145.4,310.9 144.1,310.9 143,310.9 140.6,310.8 
	138.1,310.8 136.9,310.6 131.5,310.5 124.1,310.3 118.9,310.1 118.8,317.2 118.6,322.5 118.2,332.7 127.3,332.9 127.9,333.3 
	127.8,333.9 128.2,334 128.7,334.3 129.1,334.4 129.1,335.2 128.9,335.6 128.2,335.8 127.9,336.2 128,336.5 128,336.6 128,337 
	128,337.5 128.2,337.6 128,338 128.2,338.4 128.3,338.5 128.6,338.8 128.4,339.1 128.4,339.5 128.3,339.8 128.3,339.9 128.3,340.2 
	128.4,340.5 128.4,340.8 128.4,341 128.6,341.3 128.7,341.5 128.7,341.6 128.7,341.9 128.6,342.3 128.6,342.6 128.9,342.8 
	129.1,343 129.3,343.3 129.3,343.7 129.1,344 129,344.4 128.6,344.8 128.3,345.1 128.2,345.5 128.2,346 127.8,346.4 127.9,346.9 
	127.9,347 128.3,347.7 128.3,348.1 128.4,348.5 128.4,348.8 128.3,349.2 128,349.6 128,350 128.2,350 128.6,350.3 128.7,350.5 
	128.9,350.6 129,350.9 129.1,351 129.1,351.3 129.3,351.6 129.3,351.7 129.4,351.8 129.5,352.1 129.7,352.2 130,352.7 130.1,352.8 
	130.2,353.1 130.4,353.1 130.8,353.1 130.9,353.1 131.3,353.1 131.5,353.2 131.8,353.5 131.8,353.6 132,353.9 132.3,354 
	132.6,353.8 132.9,353.6 133,353.6 133.3,353.9 133.4,354.6 133.1,355.4 133.3,355.6 133.6,356.1 133.7,356.5 133.6,357.1 
	133.3,357.6 132.9,358.5 132.9,359 133,359.7 133,360.3 133.1,361 133.1,361.5 133.4,361.9 134,362.1 134.5,362.6 134.7,363.7 
	134.9,364 135.1,364.4 134.8,364.8 134.8,365.7 135.4,366.4 135.6,367.2 136.5,367.7 136.6,368.3 136.7,368.7 136.9,369.1 
	136.9,369.4 136.6,369.5 136.6,369.8 136.6,370.5 136.7,371.5 136.7,372.6 136.6,373 136.5,373.3 136.5,373.5 136.6,374 
	136.5,374.2 136.5,374.4 136.2,374.6 135.9,375.2 135.9,375.6 136,375.9 136.2,376.5 136.2,376.7 136,377.1 135.8,377.8 
	136.3,378.7 136.6,379.8 136.9,380.3 136.9,380.6 137.1,380.7 138.2,381.1 139.5,381.7 140.1,382 141.3,382.1 142.6,382.1 
	143.8,382.1 144.1,382.1 145.4,382.1 151.3,382.3 152.4,382.3 153.5,382.3 156.9,382.4 158.2,382.4 159.3,382.4 161.6,382.4 
	162.7,382.4 164,382.4 165.1,382.4 165.1,381.1 165.2,379.9 165.2,375.2 165.2,374 165.4,370.5 165.4,369.4 165.4,368.2 
	167.9,368.2 170.2,368.3 171.4,368.3 172.6,368.3 173.8,368.3 174.9,368.3 177.3,368.3 178.4,368.3 179.6,368.4 180.7,368.4 
	182,368.4 183.1,368.4 184.2,368.4 185.4,368.4 186.5,368.4 187.8,368.4 188.9,368.6 191.2,368.6 193.6,368.6 193.4,367.3 
	193.6,365 195.9,364 198.3,362.8 199.4,362.2 200.6,361.7 201.7,361 203,360.3 230.9,346.6 230.9,335.4 230.9,318.9 229,318.9 "/>
<polygon class="st4" points="405.9,348.6 405.9,347.5 405.6,327.1 405.5,323.5 405.5,316.8 408.5,316.8 408.5,312.1 408.5,311 
	408.5,309.6 408.4,307.2 408.4,306 408.4,302.7 417.8,302.5 420.1,302.3 422.4,302.3 422.4,295.1 415.3,295.3 412.7,295.3 
	411.6,295.3 408.1,295.3 408,290.4 407.7,282.4 399.5,282.3 399,260.8 391.9,261 385.1,261 377.8,261.2 378,268.3 370.9,268.4 
	369.8,268.4 367.3,268.4 366.2,268.4 362.6,268.6 361.4,268.6 359,268.6 356.8,268.6 353.3,268.7 352.1,268.7 346,268.7 
	344.9,268.7 341.3,268.7 340.2,268.7 335.4,268.7 335.2,265 335.2,262.6 335.2,261.2 328.3,261.4 328.3,271.1 328.4,274.5 
	328.4,275.8 328.4,278.2 328.4,280.6 328.4,282.7 328.7,283.1 328.7,286.5 328.7,287.7 328.7,288.9 328.7,289.9 328.9,291.1 
	328.9,294.7 328.9,297.1 328.9,298.2 328.9,299.5 328.9,300.5 328.9,301.8 328.9,302.9 328.9,304.1 328.9,306.5 329,307.6 
	328.9,308.8 328.9,309.9 328.9,310.9 329,312.3 329,313.4 329,317.7 329.5,318.1 329.4,319.5 329.4,320.6 329.4,321.7 329.4,322.8 
	329.4,324 329.4,325.1 328.2,325.1 328.2,326.7 328.2,327.8 328.2,329.1 328.2,331.4 328.2,332.7 328.2,333.9 328.3,337.3 
	328.3,338.4 328.3,339.5 327.3,339.5 323.9,339.5 321.6,339.5 321.6,339.7 319.4,339.8 318.2,339.8 316,339.8 315.3,339.8 
	314.6,340.1 313.4,340.1 312.2,340.1 309.9,340.1 300.5,340.1 300.5,346.9 300.5,350.5 300.5,353.9 298,353.9 298,356.8 298,390 
	300.6,390 301.7,390 302.9,390 304.1,390 305.2,390 306.6,390 307.7,389.9 309.9,389.9 311.1,389.9 312.4,389.9 312.4,389.7 
	312.8,389.7 321.6,389.9 323.9,389.9 325.1,389.9 326.1,389.9 326.4,389.9 326.8,389.9 327.5,389.9 328,389.9 328.6,390 331.5,390 
	332,390 332.6,390 333.3,389.9 333.3,388.6 333.3,382.7 333.3,381.3 333.3,375.2 333.3,373 333.1,368.2 333.1,367 333.1,364.7 
	333.1,363.6 333.1,362.5 333.1,361.2 333.1,358.5 333.1,353.4 333.3,353.4 334.2,353.4 334.4,353.4 335.4,353.4 335.6,353.4 
	337,353.4 337.7,353.4 338.1,353.4 338.8,353.4 341.2,353.2 341.6,353.2 342.4,353.2 343.4,353.2 346.8,353.2 347.4,353.2 
	348.6,353.2 349.3,353.2 366.3,352.9 366.8,352.9 369.1,352.9 369.8,352.9 370.3,352.8 370.9,352.8 372.1,352.8 372.7,352.8 
	373.4,352.8 373.8,352.8 374.5,352.8 376.8,352.8 378.1,352.7 379.2,352.7 379.5,352.7 380.3,352.7 380.7,352.7 381,352.7 
	382.6,352.7 382.9,352.7 384.5,352.7 385,352.7 385.7,352.7 386.4,352.5 386.7,352.5 387.2,352.5 387.6,352.5 387.9,352.5 
	391.1,352.5 391.8,352.5 392.8,352.5 393.9,352.5 395,352.5 398.4,352.4 400.5,352.2 402.8,352.2 406,352.1 "/>
<polygon class="st4" points="312.2,340.1 313.4,340.1 314.6,340.1 315.3,339.8 316,339.8 318.2,339.8 319.4,339.8 321.6,339.7 
	321.6,339.5 323.9,339.5 327.3,339.5 328.3,339.5 328.3,338.4 328.3,337.3 328.2,333.9 328.2,332.7 328.2,331.4 328.2,329.1 
	328.2,327.8 328.2,326.7 328.2,325.1 329.4,325.1 329.4,324 329.4,322.8 329.4,321.7 329.4,320.6 329.4,319.5 329.5,318.1 
	329,317.7 329,313.4 329,312.3 328.9,310.9 328.9,309.9 328.9,308.8 329,307.6 328.9,306.5 328.9,304.1 328.9,302.9 328.9,301.8 
	328.9,300.5 328.9,299.5 328.9,298.2 328.9,297.1 328.9,294.7 328.9,291.1 328.7,289.9 328.7,288.9 328.7,287.7 328.7,286.5 
	328.7,283.1 328.4,282.7 328.4,280.6 328.4,278.2 328.4,275.8 328.4,274.5 328.3,271.1 328.3,261.4 328.2,257.8 328.2,256.5 
	328.2,242.7 328.2,240.2 327,240.2 325.8,240.2 324.7,240.2 323.6,240.2 321.1,240.2 320,240.4 318.8,240.4 315.4,240.4 
	314.2,240.4 311.8,240.4 310.7,240.4 309.6,240.4 308.5,240.4 304.9,240.4 302.6,240.4 300.1,240.4 300.2,242.7 300.2,245.1 
	300.2,247.6 286.4,247.7 280.2,247.8 279,247.8 272,247.8 264.9,247.8 262.3,247.8 261.5,247.8 259.1,247.8 259.3,255 259.3,257.5 
	259.3,258.6 259.4,262.1 259.4,264.6 259.4,266.8 259.4,269.3 259.4,274 259.4,276.5 259.4,277.7 259.3,283.2 251.9,283.2 
	250.8,283.2 250.7,288.2 250.7,289.5 250.7,290.6 250.7,296.4 250.7,297.5 249.6,297.5 248.2,297.5 247.1,297.5 243.6,297.6 
	243.6,297.3 236.3,296.8 229,296.6 229,311.6 229,318.9 230.9,318.9 247,318.9 247.5,318.9 249.3,318.9 249.9,318.9 250.6,318.9 
	251.1,318.9 251.8,318.9 252.9,318.9 254,318.9 254.7,318.9 258.7,318.9 262.2,318.9 264.7,318.9 272.7,318.9 272.7,325.8 
	286.5,325.7 293.4,325.7 300.5,325.8 300.5,340.1 309.9,340.1 "/>
<polygon class="st4" points="369.4,204.3 365.9,204.3 364.7,204.3 364.5,204.3 364.7,211.4 357.8,211.7 357.8,214.6 357.8,218.8 
	351,218.9 349,218.9 342.1,218.9 339.8,219.1 335.2,219.2 329.8,219.2 328,219.2 328.2,237.9 328.2,239.1 328.2,240.2 328.2,242.7 
	328.2,256.5 328.2,257.8 328.3,261.4 335.2,261.2 335.2,262.6 335.2,265 335.4,268.7 340.2,268.7 341.3,268.7 344.9,268.7 
	346,268.7 352.1,268.7 353.3,268.7 356.8,268.6 359,268.6 361.4,268.6 362.6,268.6 366.2,268.4 367.3,268.4 369.8,268.4 
	370.9,268.4 378,268.3 377.8,261.2 385.1,261 391.9,261 391.8,246.3 391.4,246.4 391,218.2 378.9,218.5 378.6,204 370.6,204.1 "/>
<polygon class="st4" points="391.8,246.3 391.9,261 399,260.8 399.5,282.3 407.7,282.4 408,290.4 408.1,295.3 411.6,295.3 
	412.7,295.3 415.3,295.3 422.4,295.1 422.4,302.3 453,301.2 452.9,295.8 452.8,286.8 452.8,280.7 452.8,278.7 452.8,274.9 
	452.6,266.2 452.5,264.6 452.4,261.5 452.4,258.8 452.4,258.3 452.4,257.6 451.9,241.6 405.6,242.7 405.3,239.1 404.9,217.9 
	400.1,217.9 391,218.2 391.4,246.4 "/>
<polygon class="st4" points="341.4,169 314.2,169.3 301,169.4 301.2,183.5 301.3,205.1 301.3,206.2 301.3,215.6 301.5,216.8 
	301.5,219.2 300,219.1 300.1,233.3 300.1,234.5 300.1,240.4 302.6,240.4 304.9,240.4 308.5,240.4 309.6,240.4 310.7,240.4 
	311.8,240.4 314.2,240.4 315.4,240.4 318.8,240.4 320,240.4 321.1,240.2 323.6,240.2 324.7,240.2 325.8,240.2 327,240.2 
	328.2,240.2 328.2,239.1 328.2,237.9 328,219.2 329.8,219.2 335.2,219.2 339.8,219.1 342.1,218.9 349,218.9 351,218.9 357.8,218.8 
	357.8,214.6 357.8,211.7 364.7,211.4 364.5,204.3 364.7,204.3 365.9,204.3 369.4,204.3 370.6,204.1 378.6,204 378.2,189.9 
	378.6,189.7 378.4,174.4 378.1,168.6 "/>
<polygon class="st4" points="300.1,233.3 300,219.1 301.5,219.2 301.5,216.8 301.3,215.6 301.3,206.2 301.3,205.1 301.2,183.5 
	287.1,183.6 273,183.8 259.6,183.8 252.2,183.9 245.2,183.8 239.4,183.8 238.2,183.8 238.2,190.7 244.5,191 244.5,197.8 
	231.9,197.8 230.4,197.8 226.9,197.9 223.6,197.9 223.5,202.4 223.5,203.6 223.5,205.9 223.5,206.9 223.5,207.3 223.2,207.2 
	223.3,210.8 223.3,212 223.5,213.9 223.3,219.1 222.9,219.1 222.9,221.7 222.9,226.1 223.6,226.1 226.5,226.1 226.5,232.2 
	226.5,232.6 226.5,234.7 226.5,237 226.5,240.5 226.4,247.6 245,247.8 248.8,247.8 249.9,247.8 259.1,247.8 261.5,247.8 
	262.3,247.8 264.9,247.8 272,247.8 279,247.8 280.2,247.8 286.4,247.7 300.2,247.6 300.2,245.1 300.2,242.7 300.1,240.4 
	300.1,234.5 "/>
<polygon class="st4" points="238.1,117 238,118.1 238.2,118.5 239.2,118.8 239.5,119.3 239.8,119.3 241.4,119.2 243,119.2 
	242.8,119.5 242.6,119.9 242.6,120.4 242.4,121 241.9,121.3 241.6,121.6 241.4,122.4 240.6,123.3 240.2,123.3 239.8,124 
	238.7,124.4 238.5,124.9 238.2,125 238,125.4 238,126.4 238,131.8 238,133.4 237.8,142.3 237.8,143.5 237.8,147.8 237.8,150.6 
	237.8,153.8 237.8,158.5 237.8,161.4 237.7,162.1 238,162.1 238.1,166.5 238.1,169.5 238.2,182.7 238.2,183.8 239.4,183.8 
	245.2,183.8 252.2,183.9 259.6,183.8 273,183.8 273.1,169.5 273,154.7 273,153.6 273,152.7 272.5,115.7 272.7,107 272.7,104.9 
	262.6,104.8 262.3,104.8 261.2,104.8 260.1,104.8 259,104.8 255,104.8 252.5,104.8 251.7,104.8 250.1,104.8 250.1,105.2 
	249.9,105.8 250,105.9 250.1,105.9 250.3,106.2 250.7,106.2 250.8,110.8 250.3,110.8 245.4,110.8 245.2,110.8 243.5,110.9 
	241.7,110.9 238.2,110.9 238.1,113.9 "/>
<polygon class="st4" points="409.6,150.9 404.2,151 391.9,129.2 391,127.3 387.1,120.3 386.9,120.3 384.9,121.4 384,122 
	361.2,122.5 360.4,122.7 349.6,122.7 319.7,123.5 318.6,123.8 318.5,124.4 318.3,124.6 318.2,125 318.1,125 317.8,124.6 
	317.6,124.2 317.6,124 317.5,123.9 317,123.9 316.4,123.5 315.9,123.1 315.4,123.1 314.6,122.5 314.2,122.2 313.2,121.4 
	312.5,120.9 312.2,120.9 311.7,120.7 311.1,120.6 310.5,120.7 309.9,120.7 309.8,120.4 309.6,120.2 309.4,120 309.1,119.9 
	308.7,119.6 308.2,119.5 307.5,119.3 307,119.3 306.4,119.3 306,119.2 305.3,119.1 305.2,118.6 304.8,118.5 304.5,118.4 
	304.2,118.4 297,115.7 293.4,115.7 287.6,115.7 286.2,115.7 282.2,115.7 272.5,115.7 273,152.7 273,153.6 273,154.7 273.1,169.5 
	273,183.8 287.1,183.6 301.2,183.5 301,169.4 314.2,169.3 341.4,169 378.1,168.6 378.4,174.4 385.3,170.2 395.8,164.1 395.8,165.9 
	406.6,165.8 410.5,165.8 410.2,153.5 410,150.9 "/>
<polygon class="st4" points="282.2,115.7 286.2,115.7 287.6,115.7 293.4,115.7 297,115.7 304.2,118.4 304.5,118.4 304.8,118.5 
	305.2,118.6 305.3,119.1 306,119.2 306.4,119.3 307,119.3 307.5,119.3 308.2,119.5 308.7,119.6 309.1,119.9 309.4,120 309.6,120.2 
	309.8,120.4 309.9,120.7 310.5,120.7 311.1,120.6 311.7,120.7 312.2,120.9 312.5,120.9 313.2,121.4 314.2,122.2 314.6,122.5 
	315.4,123.1 315.9,123.1 316.4,123.5 317,123.9 317.5,123.9 317.6,124 317.6,124.2 317.8,124.6 318.1,125 318.2,125 318.3,124.6 
	318.5,124.4 318.6,123.8 319.7,123.5 349.6,122.7 360.4,122.7 361.2,122.5 361.8,122.1 361.8,122 361.6,121.1 361.5,121.1 
	361.4,120.9 361.2,120.6 361.2,120.2 361.4,120.2 361.4,120 361.5,119.9 361.4,119.6 361.1,119.5 360.9,119.5 360.8,119.3 
	360.7,119.2 360.7,119.1 360.5,118.9 360.7,118.9 361.2,117.7 361.5,117.5 361.5,117.4 361.1,117 360.9,116.8 360.8,116.8 
	359.8,116.2 359.7,116 359.8,115.9 360,115.9 360.1,115.9 360.4,115.7 360.4,115.3 360.4,114.8 360.5,114.6 360.7,114.6 
	360.7,114.8 360.8,114.9 360.8,115.1 360.9,115.1 361.1,115.2 361.1,115.1 361.4,114.9 361.4,114.8 360.9,114.5 360.8,114.2 
	361.1,113.9 361.2,113.9 361.5,113.8 361.5,113.7 361.5,113.5 361.5,113.4 361.4,113.4 361.2,113.1 361.4,112.8 361.5,112.8 
	361.9,112.8 362,112.8 362.2,112.8 362.3,112.7 362.7,111.7 362.7,111.6 362.6,111.4 362.5,111.3 362.3,111.3 362.2,111.3 
	362,111.2 361.9,110.9 362,110.9 362.2,110.8 362.6,110.6 362.9,110.8 363.1,110.8 362.9,110.2 362.6,110.1 362.5,110.2 362,110.3 
	362,110.2 361.9,110.2 361.9,109.8 361.9,109.7 362,109.4 362.2,109.2 362.3,109.2 362.5,109.2 362.6,109.4 362.7,109.4 
	362.9,109.2 363,109.1 363,109 362.9,108.8 362.7,108.7 362.6,108.7 362.3,108.5 362.2,108.5 362.2,108.4 362.2,108.3 362.2,108.1 
	362.6,108 362.7,108 363.1,108 363.6,107.8 363.7,107.8 363.7,107.7 363.6,107.4 362.7,106.5 362.3,106.2 362.3,106.1 362.2,106.1 
	362,105.9 362.3,105.5 362.7,105.1 362.9,104.5 362.9,104.4 362.7,104.3 362.2,103.8 361.8,103.6 361.6,103.6 361.5,103.6 
	361.4,103.4 361.2,103.3 361.2,103.2 361.4,102.4 361.5,101.6 361.4,101.3 361.4,101.2 361.2,100.9 361.1,100.8 360.9,100.8 
	360.7,100.8 360.5,100.7 360.4,100.7 360.2,100.5 360.1,100.5 360.1,100.4 360.2,100 360.2,99.8 360.2,99.6 360.5,99.4 360.7,99.3 
	360.4,99 360.1,98.3 360,98.2 359.5,97.6 359.1,97.1 358.9,96.5 359,96.4 359,96.2 358.6,94.8 358.3,94.7 358.2,94.7 357.9,94.6 
	357.8,94.3 357.3,92.9 357.3,92.8 357.5,92.8 357.5,92.6 357.6,92.5 357.8,92.5 357.9,92.5 357.9,92.6 357.9,92.8 358,93.1 
	358.2,93.1 358.2,92.9 358.3,92.9 358.5,91.9 358.5,91.8 358.5,91.7 358.2,91.4 358,91.2 357.8,91 357.6,91 357.8,90.3 357.8,90.2 
	357.8,90 357.6,89.9 357.2,89.6 357.1,89.3 356.9,89.3 356.9,89.5 356.9,89.6 356.9,89.9 356.9,90 356.8,90 356.5,90 356.4,90 
	356.4,89.9 356.4,89.5 356.4,89.3 356.4,88.9 356.2,88.5 356.4,87.9 356.6,87.1 356.6,87 356.6,86.8 356.5,86.8 356.5,86.7 
	356.2,86.6 342.8,86.8 341,86.8 338.7,86.8 336.7,86.8 334.1,86.8 328.3,87 328.3,83.4 303.5,83.5 300.8,83.5 295.4,83.5 
	294.8,84.2 292.8,85.6 293.3,86.1 293.6,87.1 293.7,87.7 293.6,88.8 293.2,89.7 292.1,91.1 292.3,92.4 291.9,92.9 292.1,94.3 
	291.5,95.4 291.1,96.2 291.2,96.9 291.4,97.8 290.8,98.3 290.1,98.6 290.1,98.7 290.5,99.6 290.3,100.4 290.1,100.7 289.4,101.5 
	288.5,101.6 287.9,101.9 287.2,102 286.7,103.2 286.2,103.6 285.1,104.1 284.7,104.4 284.7,104.7 284.7,105.4 284.6,105.9 
	284,106.1 283.2,106.5 282.4,107.4 281.7,107.3 281,107.2 280.3,107.4 278.4,106.9 277.7,107.6 277.5,108.3 277.1,108.5 
	276.6,108.5 276.3,108.4 275.9,108.3 275.5,107.8 275.3,107.8 275.2,107.7 275,107.7 274.9,107.7 274.4,108 273.5,107.7 272.7,107 
	272.5,115.7 "/>
<polygon class="st4" points="356.5,86.8 356.6,86.8 356.6,87 356.6,87.1 356.4,87.9 356.2,88.5 356.4,88.9 356.4,89.3 356.4,89.5 
	356.4,89.9 356.4,90 356.5,90 356.8,90 356.9,90 356.9,89.9 356.9,89.6 356.9,89.5 356.9,89.3 357.1,89.3 357.2,89.6 357.6,89.9 
	357.8,90 357.8,90.2 357.8,90.3 357.6,91 357.8,91 358,91.2 358.2,91.4 358.5,91.7 358.5,91.8 358.5,91.9 358.3,92.9 358.2,92.9 
	358.2,93.1 358,93.1 357.9,92.8 357.9,92.6 357.9,92.5 357.8,92.5 357.6,92.5 357.5,92.6 357.5,92.8 357.3,92.8 357.3,92.9 
	357.8,94.3 357.9,94.6 358.2,94.7 358.3,94.7 358.6,94.8 359,96.2 359,96.4 358.9,96.5 359.1,97.1 359.5,97.6 360,98.2 360.1,98.3 
	360.4,99 360.7,99.3 360.5,99.4 360.2,99.6 360.2,99.8 360.2,100 360.1,100.4 360.1,100.5 360.2,100.5 360.4,100.7 360.5,100.7 
	360.7,100.8 360.9,100.8 361.1,100.8 361.2,100.9 361.4,101.2 361.4,101.3 361.5,101.6 361.4,102.4 361.2,103.2 361.2,103.3 
	361.4,103.4 361.5,103.6 361.6,103.6 361.8,103.6 362.2,103.8 362.7,104.3 362.9,104.4 362.9,104.5 362.7,105.1 362.3,105.5 
	362,105.9 362.2,106.1 362.3,106.1 362.3,106.2 362.7,106.5 363.6,107.4 363.7,107.7 363.7,107.8 363.6,107.8 363.1,108 362.7,108 
	362.6,108 362.2,108.1 362.2,108.3 362.2,108.4 362.2,108.5 362.3,108.5 362.6,108.7 362.7,108.7 362.9,108.8 363,109 363,109.1 
	362.9,109.2 362.7,109.4 362.6,109.4 362.5,109.2 362.3,109.2 362.2,109.2 362,109.4 361.9,109.7 361.9,109.8 361.9,110.2 
	362,110.2 362,110.3 362.5,110.2 362.6,110.1 362.9,110.2 363.1,110.8 362.9,110.8 362.6,110.6 362.2,110.8 362,110.9 361.9,110.9 
	362,111.2 362.2,111.3 362.3,111.3 362.5,111.3 362.6,111.4 362.7,111.6 362.7,111.7 362.3,112.7 362.2,112.8 362,112.8 
	361.9,112.8 361.5,112.8 361.4,112.8 361.2,113.1 361.4,113.4 361.5,113.4 361.5,113.5 361.5,113.7 361.5,113.8 361.2,113.9 
	361.1,113.9 360.8,114.2 360.9,114.5 361.4,114.8 361.4,114.9 361.1,115.1 361.1,115.2 360.9,115.1 360.8,115.1 360.8,114.9 
	360.7,114.8 360.7,114.6 360.5,114.6 360.4,114.8 360.4,115.3 360.4,115.7 360.1,115.9 360,115.9 359.8,115.9 359.7,116 
	359.8,116.2 360.8,116.8 360.9,116.8 361.1,117 361.5,117.4 361.5,117.5 361.2,117.7 360.7,118.9 360.5,118.9 360.7,119.1 
	360.7,119.2 360.8,119.3 360.9,119.5 361.1,119.5 361.4,119.6 361.5,119.9 361.4,120 361.4,120.2 361.2,120.2 361.2,120.6 
	361.4,120.9 361.5,121.1 361.6,121.1 361.8,122 361.8,122.1 361.2,122.5 384,122 384.9,121.4 386.9,120.3 387.1,120.3 391,127.3 
	391.9,129.2 404.2,151 409.6,150.9 410,150.9 410.2,153.5 413.4,153.4 420.4,153.1 425.7,153.1 426.2,152.9 427.2,152 426.5,131.5 
	426.8,131.5 426.6,124.4 425.9,103.2 426.6,103.2 426.5,96 398.4,96.7 398.3,89.5 384.2,89.7 384.2,86.1 356.2,86.6 356.5,86.7 "/>
<polygon class="st4" points="383.9,68.2 384.2,86.1 384.2,89.7 398.3,89.5 398.4,96.7 426.5,96 426.6,103.2 425.9,103.2 
	426.6,124.4 448.5,123.8 447.6,93.8 447.5,93.1 447.5,91.8 446.6,61.5 446.7,61.5 446.7,61.4 449.2,61.2 449.1,57.8 448.9,49.6 
	448.8,47.1 448.7,45 448,22.5 447.9,20.4 442.5,20.6 418.4,21.2 383.1,22.3 "/>
<polygon class="st4" points="316.8,23.5 314.6,23.2 312.4,23.2 309.6,23.4 304.6,23.4 304.6,23.8 304,24 303.7,24.3 303.7,24.6 
	303.4,25 303.8,25.3 303.7,26.1 304.2,26.7 304.5,27.6 304.6,28.7 304.5,29.1 305.1,29.6 305.2,30.1 305.6,30.5 305.6,30.8 
	305.2,31.8 304.9,33 304.8,33.3 304.6,34 304.2,34.4 304.1,35.5 304.2,36.1 304.5,36.5 304.5,37 304.5,37.5 304.2,37.6 304.2,38.1 
	304,38.6 304.1,38.8 304.4,39.1 304.4,39.2 304,39.9 304.2,41.3 304.2,41.7 304.4,42.4 304.5,42.7 304.5,43.4 304.6,43.5 
	304.5,44.1 304.5,44.5 304.5,44.9 304.5,45 304.2,45.5 304.1,45.6 304.1,45.8 304,45.8 303.8,45.8 303.5,45.8 303.4,45.8 303,46.6 
	302.7,46.6 302.4,46.2 301.7,46.2 301.3,46 300.9,46 300.5,45.5 299.2,45.6 298.7,45.6 298.4,46.7 298.1,47.7 297.9,47.7 
	297.5,47.4 296.8,48 296.2,48 295.6,48.7 295.2,49.2 295.2,49.8 295.4,50.2 295.6,50.6 295.5,51.1 295.8,51.6 295.9,52 296.1,52.4 
	296.3,52.7 296.2,53.1 296.1,53.3 295.9,53.5 295.8,53.6 295.5,53.9 295.2,54.2 295.1,54.6 295.1,55.3 295.2,55.7 295.5,56 
	296.1,56.8 296.2,57.1 296.3,57.5 296.3,57.9 296.3,58.6 296.3,58.9 295.8,59.4 294.8,59.4 294.7,59.7 294.8,59.7 295.1,60.4 
	295.8,60.8 295.9,60.8 296.2,61.5 296.5,61.7 296.6,62.1 296.6,62.6 296.8,63 297.3,63.3 297.5,63.6 297.7,64.2 298,64.4 
	298.3,64.7 298.1,65 297.7,65.1 297.3,65.5 297.2,65.8 297,66.4 296.9,66.6 296.8,67.1 296.8,67.6 296.6,68.2 297,68.4 297.3,69.1 
	297,69.5 297.2,70.2 297,71.1 297.7,71.3 297.9,71.6 297.9,71.9 298,72.3 298,72.7 298,73 298,73.1 298,74 297.9,74.2 297.5,74.7 
	297.5,74.8 297.9,74.9 297.9,75.3 298,75.6 297.9,76 297.9,76.2 297.9,76.4 298,76.9 297.6,77.7 297.6,78.7 297.6,80.5 298.1,82.4 
	297.7,82.5 297.7,82.8 297.6,82.8 297.3,83 297,83 296.8,82.8 295.9,83 295.4,83.5 300.8,83.5 303.5,83.5 328.3,83.4 328.3,87 
	334.1,86.8 336.7,86.8 338.7,86.8 341,86.8 342.8,86.8 356.2,86.6 384.2,86.1 383.9,68.2 383.1,22.3 364.9,22.8 362,22.9 "/>
<polygon class="st4" points="450.8,205.1 450.7,202.3 450.3,188.2 434.4,188.6 434.7,196 427.6,196.1 427.9,203.3 421,203.3 
	421.1,210.3 414,210.5 407.1,210.6 407,217.8 404.9,217.9 405.3,239.1 405.6,242.7 451.9,241.6 451.9,241.6 451.9,240.2 
	451.7,236.2 "/>
<polygon class="st4" points="453,301.2 422.4,302.3 420.1,302.3 417.8,302.5 408.4,302.7 408.4,306 408.4,307.2 408.5,309.6 
	408.5,311 408.5,312.1 408.5,316.8 405.5,316.8 405.5,323.5 405.6,327.1 405.9,347.5 405.9,348.6 406,352.1 402.8,352.2 403,357.4 
	403,358.6 403,359.9 403,361.1 403.1,362.4 403.1,366.1 403.1,367.3 403.4,373 403.4,374.2 403.5,380.2 403.5,381.3 403.7,387.1 
	403.8,388.4 405.2,388.4 406.3,388.2 407.8,388.2 409.9,388.2 410.2,388.2 410.2,389.5 410.2,390.8 410.3,394.9 410.3,396.1 
	410.5,402.2 410.6,403.4 410.6,409.1 410.7,410.2 410.7,416.1 410.9,417.4 411,423.5 411,425.8 411.1,430.9 433.3,430.4 
	434.4,430.4 437,430.2 438,430.2 439.2,430.2 456,429.8 453.9,355.5 453.7,351.6 453.6,348 453.5,337 453.4,327.7 453.2,316.3 "/>
<polygon class="st4" points="426.6,124.4 426.8,131.5 426.5,131.5 427.2,152 426.2,152.9 425.7,153.1 420.4,153.1 413.4,153.4 
	410.2,153.5 410.5,165.8 406.6,165.8 395.8,165.9 395.8,164.1 385.3,170.2 378.4,174.4 378.6,189.7 378.2,189.9 378.6,204 
	378.9,218.5 391,218.2 400.1,217.9 404.9,217.9 407,217.8 407.1,210.6 414,210.5 421.1,210.3 421,203.3 427.9,203.3 427.6,196.1 
	434.7,196 434.4,188.6 450.3,188.2 449.7,169.3 449.7,169.1 449.1,145.7 448.5,123.8 "/>
<polygon class="st4" points="253.9,24.5 254,25.1 255,28 255.1,28.3 255.1,28.5 255.1,29.1 255.4,29.8 255.5,30.1 255.9,31.4 
	256.2,33.2 256.2,34.8 255.9,36.9 255.3,38.8 255.4,43.5 255.7,44.4 255.8,45.6 255.5,46.6 256.2,49.2 256.4,51 255.3,50.9 
	255.3,52.2 255.9,52 256.1,52.7 256.5,54.5 256.5,56 257.1,57.5 257.5,59.9 257.6,61.9 257.8,63.5 258,64.2 258.2,65.4 258.3,67.2 
	257.9,68.2 257.3,69.5 257.2,70.6 257.3,72.2 257.5,73.6 257.5,74.2 257.2,75.1 256.6,76.3 256.1,76.9 255.5,77 255.4,77 
	254.4,77.6 253.8,78 253.2,78.1 252.8,78.1 252.4,78.1 252.1,78.2 251.9,78.4 251.8,78.5 251.7,78.9 250.8,80.5 250.6,80.9 
	250.8,81 253.2,82 259.1,84.6 262,85.7 263.6,86.3 263.8,86.7 265.8,89.2 266.2,89.9 266.8,90.6 267.6,91.7 269.6,94.6 271.3,96.9 
	279.3,101.1 285.1,104.1 286.2,103.6 286.7,103.2 287.2,102 287.9,101.9 288.5,101.6 289.4,101.5 290.1,100.7 290.3,100.4 
	290.5,99.6 290.1,98.7 290.1,98.6 290.8,98.3 291.4,97.8 291.2,96.9 291.1,96.2 291.5,95.4 292.1,94.3 291.9,92.9 292.3,92.4 
	292.1,91.1 293.2,89.7 293.6,88.8 293.7,87.7 293.6,87.1 293.3,86.1 292.8,85.6 294.8,84.2 295.4,83.5 295.9,83 296.8,82.8 297,83 
	297.3,83 297.6,82.8 297.7,82.8 297.7,82.5 298.1,82.4 297.6,80.5 297.6,78.7 297.6,77.7 298,76.9 297.9,76.4 297.9,76.2 297.9,76 
	298,75.6 297.9,75.3 297.9,74.9 297.5,74.8 297.5,74.7 297.9,74.2 298,74 298,73.1 298,73 298,72.7 298,72.3 297.9,71.9 297.9,71.6 
	297.7,71.3 297,71.1 297.2,70.2 297,69.5 297.3,69.1 297,68.4 296.6,68.2 296.8,67.6 296.8,67.1 296.9,66.6 297,66.4 297.2,65.8 
	297.3,65.5 297.7,65.1 298.1,65 298.3,64.7 298,64.4 297.7,64.2 297.5,63.6 297.3,63.3 296.8,63 296.6,62.6 296.6,62.1 296.5,61.7 
	296.2,61.5 295.9,60.8 295.8,60.8 295.1,60.4 294.8,59.7 294.7,59.7 294.8,59.4 295.8,59.4 296.3,58.9 296.3,58.6 296.3,57.9 
	296.3,57.5 296.2,57.1 296.1,56.8 295.5,56 295.2,55.7 295.1,55.3 295.1,54.6 295.2,54.2 295.5,53.9 295.8,53.6 295.9,53.5 
	296.1,53.3 296.2,53.1 296.3,52.7 296.1,52.4 295.9,52 295.8,51.6 295.5,51.1 295.6,50.6 295.4,50.2 295.2,49.8 295.2,49.2 
	295.6,48.7 296.2,48 296.8,48 297.5,47.4 297.9,47.7 298.1,47.7 298.4,46.7 298.7,45.6 299.2,45.6 300.5,45.5 300.9,46 301.3,46 
	301.7,46.2 302.4,46.2 302.7,46.6 303,46.6 303.4,45.8 303.5,45.8 303.8,45.8 304,45.8 304.1,45.8 304.1,45.6 304.2,45.5 304.5,45 
	304.5,44.9 304.5,44.5 304.5,44.1 304.6,43.5 304.5,43.4 304.5,42.7 304.4,42.4 304.2,41.7 304.2,41.3 304,39.9 304.4,39.2 
	304.4,39.1 304.1,38.8 304,38.6 304.2,38.1 304.2,37.6 304.5,37.5 304.5,37 304.5,36.5 304.2,36.1 304.1,35.5 304.2,34.4 304.6,34 
	304.8,33.3 304.9,33 305.2,31.8 305.6,30.8 305.6,30.5 305.2,30.1 305.1,29.6 304.5,29.1 304.6,28.7 304.5,27.6 304.2,26.7 
	303.7,26.1 303.8,25.3 303.4,25 303.7,24.6 303.7,24.3 304,24 304.6,23.8 304.6,23.4 272.4,23.4 269.9,23.4 268.4,23.4 253.9,23.4 
	"/>
<polygon class="st4" points="164.4,445.2 164.5,438.1 164.5,436.9 164.5,432.3 164.5,431.1 164.5,427.6 164.5,425.1 164.5,424 
	164.7,418.1 164.7,416.8 164.7,415.7 164.7,414.5 164.7,413.2 164.7,411 164.8,409.1 164.8,408 164.8,406.9 164.8,403.8 
	164.8,402.6 164.9,401.5 164.9,396.6 165.1,395.4 165.1,390.8 165.1,388.4 165.1,387.1 165.1,384.9 165.1,383.8 165.1,382.4 
	164,382.4 162.7,382.4 161.6,382.4 159.3,382.4 158.2,382.4 156.9,382.4 153.5,382.3 152.4,382.3 151.3,382.3 145.4,382.1 
	144.1,382.1 143.8,382.1 142.6,382.1 141.3,382.1 140.1,382 136.7,382 129.8,381.8 122.6,381.8 122.5,384.3 122.5,385.6 
	122.3,387.7 122.3,388.8 120.1,388.8 118.9,388.6 101.5,388.5 101.1,402.7 100.9,406 100.9,410.2 100.9,411.3 100.8,417.1 
	100.8,417.9 100.6,419.5 100.5,424.2 101.5,424.2 101.3,430 101.3,431.2 101.2,437.2 101.1,438.4 100.9,442 100.9,445.6 
	101.5,445.6 101.3,447.3 101.3,448.3 164.5,449.4 164.4,446.4 "/>
<polygon class="st4" points="101.5,445.6 100.9,445.6 100.9,442 97.4,441.9 96.3,441.9 92.8,441.7 89.3,441.6 83.1,441.5 82,441.3 
	79.6,441.3 79.6,438.8 79.8,435.4 80,429.4 80.2,425.7 80.3,423.5 79.3,423.5 79.5,422.2 79.6,416.4 80.2,398.4 80.2,397.2 
	80.6,387.9 80.2,387.9 79.3,387.9 78.8,387.9 76.4,387.8 75.9,387.8 73,387.7 73,386.5 73,385.3 73,384.1 73.1,380.7 72,380.6 
	70.9,380.6 68.6,380.5 67.3,380.5 66.1,380.5 64.9,380.5 63.7,380.5 62.6,380.3 61.5,380.3 60.2,380.3 59.1,380.2 59.1,378.9 
	59.3,373.1 59.3,371.9 59.4,365.9 58.3,365.9 57.2,365.9 56,365.8 53.8,365.7 50,365.5 47.8,365.4 46.5,365.2 45.9,365.2 45.9,367 
	45.9,368.2 45.7,372.7 45.6,374.6 45.6,376 45.5,380.2 45.2,386.5 44.9,395.6 44.9,396 44.9,396.2 44.9,397.5 44.8,399.8 
	44.7,400.3 44.5,407.7 44.5,408.5 44.2,414.5 43.7,432 43.7,432.3 43.6,432.5 43.5,436.2 43.5,436.3 43.5,436.9 41.9,483.6 
	47.8,483.7 100.3,485.1 101.1,448.3 101.3,448.3 101.3,447.3 "/>
<polygon class="st4" points="332.2,432 333.3,432 333.1,424.4 333.1,423.3 333.1,421.1 333.1,419.8 333,411.5 332.9,411.5 
	332.7,400.9 332.7,399.7 332.7,397.3 332.6,396.2 332.6,390.4 332.6,390 332,390 331.5,390 328.6,390 328,389.9 327.5,389.9 
	326.8,389.9 326.4,389.9 326.1,389.9 325.1,389.9 323.9,389.9 321.6,389.9 312.8,389.7 312.4,389.7 312.4,389.9 311.1,389.9 
	309.9,389.9 307.7,389.9 306.6,390 305.2,390 304.1,390 302.9,390 301.7,390 300.6,390 298,390 298,356.8 298,353.9 300.5,353.9 
	300.5,350.5 300.5,346.9 300.5,340.1 300.5,325.8 293.4,325.7 286.5,325.7 272.7,325.8 272.7,318.9 264.7,318.9 262.2,318.9 
	258.7,318.9 254.7,318.9 254,318.9 252.9,318.9 251.8,318.9 251.1,318.9 250.6,318.9 249.9,318.9 249.3,318.9 247.5,318.9 
	247,318.9 230.9,318.9 230.9,335.4 230.9,346.6 230.9,354.2 228.3,354.2 228.4,359.3 228.3,361.7 228.3,378.4 228.3,379.6 
	228.3,401.9 228.2,404.5 228.2,411.7 228.2,418.8 228.2,426 228.2,427.2 228.2,428.3 228,432.4 305.2,432.4 306.4,432.4 
	307.8,432.3 309.9,432.3 311.3,432.3 312.1,432.3 312.7,432.3 317.4,432.2 318.5,432.2 319.6,432.2 320.7,432.2 321.9,432.2 
	325.1,432.2 328.3,432.2 328.7,432 "/>
<polygon class="st4" points="387.4,431.4 389.6,431.4 389.7,431.4 390.8,431.4 391.5,431.4 392.1,431.4 393.2,431.4 394.5,431.2 
	411.1,430.9 411,425.8 411,423.5 410.9,417.4 410.7,416.1 410.7,410.2 410.6,409.1 410.6,403.4 410.5,402.2 410.3,396.1 
	410.3,394.9 410.2,390.8 410.2,389.5 410.2,388.2 409.9,388.2 407.8,388.2 406.3,388.2 405.2,388.4 403.8,388.4 403.7,387.1 
	403.5,381.3 403.5,380.2 403.4,374.2 403.4,373 403.1,367.3 403.1,366.1 403.1,362.4 403,361.1 403,359.9 403,358.6 403,357.4 
	402.8,352.2 400.5,352.2 398.4,352.4 395,352.5 393.9,352.5 392.8,352.5 391.8,352.5 391.1,352.5 387.9,352.5 387.6,352.5 
	387.2,352.5 386.7,352.5 386.4,352.5 385.7,352.7 385,352.7 384.5,352.7 382.9,352.7 382.6,352.7 381,352.7 380.7,352.7 
	380.3,352.7 379.5,352.7 379.2,352.7 378.1,352.7 376.8,352.8 374.5,352.8 373.8,352.8 373.4,352.8 372.7,352.8 372.1,352.8 
	370.9,352.8 370.3,352.8 369.8,352.9 369.1,352.9 366.8,352.9 366.3,352.9 349.3,353.2 348.6,353.2 347.4,353.2 346.8,353.2 
	343.4,353.2 342.4,353.2 341.6,353.2 341.2,353.2 338.8,353.4 338.1,353.4 337.7,353.4 337,353.4 335.6,353.4 335.4,353.4 
	334.4,353.4 334.2,353.4 333.3,353.4 333.1,353.4 333.1,358.5 333.1,361.2 333.1,362.5 333.1,363.6 333.1,364.7 333.1,367 
	333.1,368.2 333.3,373 333.3,375.2 333.3,381.3 333.3,382.7 333.3,388.6 333.3,389.9 332.6,390 332.6,390.4 332.6,396.2 
	332.7,397.3 332.7,399.7 332.7,400.9 332.9,411.5 333,411.5 333.1,419.8 333.1,421.1 333.1,423.3 333.1,424.4 333.3,432 334.4,432 
	340.1,431.9 341.2,431.9 359.4,431.8 369.8,431.7 381.4,431.5 "/>
<polygon class="st4" points="228,432.4 228.2,428.3 228.2,427.2 228.2,426 228.2,418.8 228.2,411.7 228.2,404.5 228.3,401.9 
	228.3,379.6 228.3,378.4 228.3,361.7 228.4,359.3 228.3,354.2 230.9,354.2 230.9,346.6 203,360.3 201.7,361 200.6,361.7 
	199.4,362.2 198.3,362.8 195.9,364 193.6,365 193.4,367.3 193.6,368.6 191.2,368.6 188.9,368.6 187.8,368.4 186.5,368.4 
	185.4,368.4 184.2,368.4 183.1,368.4 182,368.4 180.7,368.4 179.6,368.4 178.4,368.3 177.3,368.3 174.9,368.3 173.8,368.3 
	172.6,368.3 171.4,368.3 170.2,368.3 167.9,368.2 165.4,368.2 165.4,369.4 165.4,370.5 165.2,374 165.2,375.2 165.2,379.9 
	165.1,381.1 165.1,382.4 165.1,383.8 165.1,384.9 165.1,387.1 165.1,388.4 165.1,390.8 165.1,395.4 164.9,396.6 164.9,401.5 
	164.8,402.6 164.8,403.8 164.8,406.9 164.8,408 164.8,409.1 164.7,411 164.7,413.2 164.7,414.5 164.7,415.7 164.7,416.8 
	164.7,418.1 164.5,424 164.5,425.1 164.5,427.6 164.5,431.1 164.5,432.3 164.5,436.9 164.5,438.1 164.4,445.2 164.4,446.4 
	164.5,449.4 217.1,450.3 217.3,449.6 217.1,449.3 216.8,449.2 216.7,449 216.2,448.3 214.2,448 214.1,448 213.9,448 213.8,447.8 
	212.3,446.8 212.3,446.6 212.2,446.6 212.2,446.4 212.2,446 212.2,445.8 212.2,445.5 212.2,445.3 211.8,445.2 211.6,445.2 
	211.2,444.7 211,444.5 210.2,443.7 209.9,443.4 209.9,443.3 209.8,443.2 209.9,443 209.9,442.8 210,442.8 210.2,442.2 210.2,442 
	209.6,441.3 209.4,441.2 209.2,440.9 209.2,440.8 209.4,440.5 209.4,440.2 209.8,439.9 210,439.7 210.3,439.5 210.6,439.4 
	210.9,439.4 211,439.2 211.1,439.2 211.3,439.1 211.3,439 210.7,438.7 210.6,438.7 210.5,438.7 210.3,438.5 210.3,438.4 
	210.3,438.3 210.5,438.2 210.9,437.5 210.9,437.5 210.9,437 211,436.9 211.1,436.6 211.3,436.5 211.4,436.3 211.4,436.3 211,436.1 
	210.9,436.2 210.7,436.2 210.6,436.1 210.6,436 210.5,436 210.5,436 210.5,435.9 210.6,435.6 210.7,435.5 210.8,435.5 211.1,434.7 
	211.1,434.7 211.1,434.6 210.3,434.5 210.2,434.5 210.1,434.5 209.9,434.5 209.9,434.4 209.9,434.4 209.8,434.1 209.8,433.9 
	209.9,433.6 209.9,433.4 210.2,433.1 210.3,433 210.6,432.9 210.7,432.9 211.1,432.4 "/>
<polygon class="st4" points="73,101.8 98.8,102.7 106,102.9 113.1,103.2 113.6,103.2 114.1,103.2 115.3,103.3 131.5,103.6 
	134.1,103.6 144.3,103.8 145.6,103.8 146.7,103.8 147.8,103.8 147.9,102.7 147.9,101.5 148.1,99 148.1,96.8 148.1,95.5 148.2,93.1 
	148.2,91.9 148.4,89.7 148.4,88.5 148.4,86 148.4,83.5 148.5,82.4 148.5,81.2 148.6,75.5 148.6,74.2 148.6,71.6 148.8,68.2 
	148.8,67.1 149.2,61.1 149.2,60 149.3,54.3 149.3,48.8 149.7,48.8 149.9,42.4 149.6,41.7 149.9,41.6 149.9,40.5 149.9,39 
	149.9,38.4 150.1,38.6 150.4,38.7 150.7,38.3 150.7,36.8 151.3,35.8 152.4,35.4 153.1,34.8 153.3,34.4 153.6,34.1 154.2,34.4 
	154.6,34.5 155.1,34.1 155.5,33.7 155.7,33 156,32.6 156.6,32.3 157.2,32.3 157.3,31.9 157.9,32.1 158.6,31.5 158.9,31 159.8,30.8 
	160.5,30.3 160.8,29.8 160.9,29.1 160.8,28.6 160.5,28 160.5,27.1 160.8,26.5 160.8,25.7 161.5,25 162.5,24 162.6,23.1 162.8,22.5 
	127.4,21.9 119.8,21.7 119.3,21.7 118.9,21.7 114.9,21.5 114.9,21.5 108.9,21.4 100.5,21.1 90.4,20.9 57.7,19.9 57.2,31.9 
	57.1,38.1 56.8,45.9 56.4,56 54.9,101.2 "/>
<polygon class="st5" points="69.5,187.7 86.8,188.1 88.3,188.1 90.3,188.2 90.5,180.7 90.8,173.8 90.9,171.6 91.1,166.8 91.2,159.6 
	98,160 105.1,160 112,160.3 112.5,160.4 118.9,160.4 122.5,160.5 123.7,160.5 125.9,160.5 126.2,160.5 127.6,160.7 133,160.8 
	133.3,160.8 134.5,160.8 136.5,160.8 139.9,161 139.9,158.5 140.1,157.4 146.8,157.6 147,160.3 147,161.1 147.2,161.1 153.5,161.4 
	153.9,161.4 168.1,161.8 168.3,151.7 168.3,147.3 168.3,143.3 168.4,136.2 168.4,133.7 168.4,132.8 168.4,131.5 168.4,130.3 
	168.4,129.2 168.4,127.9 168.4,126.7 168.4,125.7 168.4,124.4 168.4,122 168.6,119.5 168.6,118.5 168.6,114.8 168.7,110.2 
	168.7,106.5 168.7,105.2 168.7,104.4 168,104.4 166.5,104.4 163.3,104.4 162.1,104.4 159.8,104.3 155,104.1 152.6,104 152.5,104 
	151.3,104 150.3,104 149.2,104 148.1,103.8 147.8,103.8 146.7,103.8 145.6,103.8 144.3,103.8 134.1,103.6 131.5,103.6 115.3,103.3 
	114.1,103.2 113.6,103.2 113.1,103.2 106,102.9 98.8,102.7 73,101.8 54.9,101.2 52.9,158.7 52.8,164.4 52.8,165.5 52.7,166.3 
	52.6,167.5 52.6,167.7 52.6,169 52.6,169.5 52,187 "/>
<polygon class="st4" points="162.6,23.1 162.5,24 161.5,25 160.8,25.7 160.8,26.5 160.5,27.1 160.5,28 160.8,28.6 160.9,29.1 
	160.8,29.8 160.5,30.3 159.8,30.8 158.9,31 158.6,31.5 157.9,32.1 157.3,31.9 157.2,32.3 156.6,32.3 156,32.6 155.7,33 155.5,33.7 
	155.1,34.1 154.6,34.5 154.2,34.4 153.6,34.1 153.3,34.4 153.1,34.8 152.4,35.4 151.3,35.8 150.7,36.8 150.7,38.3 150.4,38.7 
	150.1,38.6 149.9,38.4 149.9,39 149.9,40.5 149.9,41.6 149.6,41.7 149.9,42.4 149.7,48.8 149.3,48.8 149.3,54.3 149.2,60 
	149.2,61.1 148.8,67.1 148.8,68.2 148.6,71.6 148.6,74.2 148.6,75.5 148.5,81.2 148.5,82.4 148.4,83.5 148.4,86 150.7,86.1 
	153.1,86.1 155.4,86.3 156.5,86.4 157.8,86.4 158.9,86.4 160,86.4 161.2,86.6 162.6,86.6 189.8,87.1 194.6,87.1 195.6,87.2 
	196.9,87.2 196.9,90.7 196.6,102.3 196.5,104.8 213.9,104.8 228.3,104.9 233.8,104.9 238.1,105.1 238.2,108 238.2,108.5 
	238.2,110.9 241.7,110.9 243.5,110.9 245.2,110.8 245.4,110.8 250.3,110.8 250.8,110.8 250.7,106.2 250.3,106.2 250.1,105.9 
	250,105.9 249.9,105.8 250.1,105.2 250.1,104.8 251.7,104.8 252.5,104.8 255,104.8 259,104.8 260.1,104.8 261.2,104.8 262.3,104.8 
	262.6,104.8 272.7,104.9 272.7,107 273.5,107.7 274.4,108 274.9,107.7 275,107.7 275.2,107.7 275.3,107.8 275.5,107.8 275.9,108.3 
	276.3,108.4 276.6,108.5 277.1,108.5 277.5,108.3 277.7,107.6 278.4,106.9 280.3,107.4 281,107.2 281.7,107.3 282.4,107.4 
	283.2,106.5 284,106.1 284.6,105.9 284.7,105.4 284.7,104.7 284.7,104.4 285.1,104.1 279.3,101.1 271.3,96.9 269.6,94.6 267.6,91.7 
	266.8,90.6 266.2,89.9 265.8,89.2 263.8,86.7 263.6,86.3 262,85.7 259.1,84.6 253.2,82 250.8,81 250.6,80.9 250.8,80.5 251.7,78.9 
	251.8,78.5 251.9,78.4 252.1,78.2 252.4,78.1 252.8,78.1 253.2,78.1 253.8,78 254.4,77.6 255.4,77 255.5,77 256.1,76.9 256.6,76.3 
	257.2,75.1 257.5,74.2 257.5,73.6 257.3,72.2 257.2,70.6 257.3,69.5 257.9,68.2 258.3,67.2 258.2,65.4 258,64.2 257.8,63.5 
	257.6,61.9 257.5,59.9 257.1,57.5 256.5,56 256.5,54.5 256.1,52.7 255.9,52 255.3,52.2 255.3,50.9 256.4,51 256.2,49.2 255.5,46.6 
	255.8,45.6 255.7,44.4 255.4,43.5 255.3,38.8 255.9,36.9 256.2,34.8 256.2,33.2 255.9,31.4 255.5,30.1 255.4,29.8 255.1,29.1 
	255.1,28.5 255.1,28.3 255,28 254,25.1 253.9,24.5 253.9,23.4 250.9,23.4 249.6,23.5 247.2,23.5 246,23.5 245,23.5 243.9,23.5 
	241.2,23.5 222.5,23.6 217.2,23.5 215.4,23.5 214.3,23.5 201.7,23.5 201.3,23.5 200.2,23.5 198,23.5 197.7,23.2 197.7,23.1 
	162.8,22.5 "/>
<polygon class="st4" points="57.5,330.5 70.5,331.1 71,331.1 102.2,332 103.8,332.2 115.7,332.6 117.5,332.6 118.2,332.7 
	118.6,322.5 118.8,317.2 118.9,310.1 124.1,310.3 131.5,310.5 136.9,310.6 138.1,310.8 138.2,308.3 138.2,307 138.2,302.3 
	138.2,301.1 138.4,299.8 138.4,298.6 138.4,297.5 138.4,295.1 138.5,294 138.5,292.8 138.5,291.5 138.5,290.3 138.5,289.2 
	138.7,285.4 138.7,283.1 138.7,282.4 138.4,282.4 138.5,277.7 138.7,269.1 138.7,267.9 138.8,266.6 138.9,263 138.9,261.4 
	139.1,254.5 139.2,247 138.5,246.9 138.9,239.5 139.1,233.6 139.1,232.3 139.1,231.1 139.1,229.9 139.1,228.6 139.1,227.4 
	139.1,222.5 139.1,220.2 51,218.1 51,218.8 50.9,219.4 50.8,220.6 50.8,222.8 50.7,224.6 50.7,224.7 50.4,233.2 50.4,233.6 
	50.4,234.4 50.3,236.9 50.3,239.1 50.2,240.1 50.2,241 50.2,242.1 50.1,243.3 50,244.9 50,245.9 49.9,247.3 49.8,250.5 49.7,254.2 
	49.6,257.6 49.5,261.4 49.4,262.1 48.2,298.6 47.9,307.4 47.9,308.5 47.2,327.9 47.1,330.2 47.1,330.3 "/>
<polygon class="st4" points="46.5,365.2 47.8,365.4 50,365.5 53.8,365.7 56,365.8 57.2,365.9 58.3,365.9 59.4,365.9 59.3,371.9 
	59.3,373.1 59.1,378.9 59.1,380.2 60.2,380.3 61.5,380.3 62.6,380.3 63.7,380.5 64.9,380.5 66.1,380.5 67.3,380.5 68.6,380.5 
	70.9,380.6 72,380.6 73.1,380.7 73,384.1 73,385.3 73,386.5 73,387.7 75.9,387.8 76.4,387.8 78.8,387.9 79.3,387.9 80.2,387.9 
	80.6,387.9 80.2,397.2 80.2,398.4 79.6,416.4 79.5,422.2 79.3,423.5 80.3,423.5 80.2,425.7 80,429.4 79.8,435.4 79.6,438.8 
	79.6,441.3 82,441.3 83.1,441.5 89.3,441.6 92.8,441.7 96.3,441.9 97.4,441.9 100.9,442 101.1,438.4 101.2,437.2 101.3,431.2 
	101.3,430 101.5,424.2 100.5,424.2 100.6,419.5 100.8,417.9 100.8,417.1 100.9,411.3 100.9,410.2 100.9,406 101.1,402.7 
	101.5,388.5 118.9,388.6 120.1,388.8 122.3,388.8 122.3,387.7 122.5,385.6 122.5,384.3 122.6,381.8 129.8,381.8 136.7,382 
	140.1,382 139.5,381.7 138.2,381.1 137.1,380.7 136.9,380.6 136.9,380.3 136.6,379.8 136.3,378.7 135.8,377.8 136,377.1 
	136.2,376.7 136.2,376.5 136,375.9 135.9,375.6 135.9,375.2 136.2,374.6 136.5,374.4 136.5,374.2 136.6,374 136.5,373.5 
	136.5,373.3 136.6,373 136.7,372.6 136.7,371.5 136.6,370.5 136.6,369.8 136.6,369.5 136.9,369.4 136.9,369.1 136.7,368.7 
	136.6,368.3 136.5,367.7 135.6,367.2 135.4,366.4 134.8,365.7 134.8,364.8 135.1,364.4 134.9,364 134.7,363.7 134.5,362.6 
	134,362.1 133.4,361.9 133.1,361.5 133.1,361 133,360.3 133,359.7 132.9,359 132.9,358.5 133.3,357.6 133.6,357.1 133.7,356.5 
	133.6,356.1 133.3,355.6 133.1,355.4 133.4,354.6 133.3,353.9 133,353.6 132.9,353.6 132.6,353.8 132.3,354 132,353.9 131.8,353.6 
	131.8,353.5 131.5,353.2 131.3,353.1 130.9,353.1 130.8,353.1 130.4,353.1 130.2,353.1 130.1,352.8 130,352.7 129.7,352.2 
	129.5,352.1 129.4,351.8 129.3,351.7 129.3,351.6 129.1,351.3 129.1,351 129,350.9 128.9,350.6 128.7,350.5 128.6,350.3 128.2,350 
	128,350 128,349.6 128.3,349.2 128.4,348.8 128.4,348.5 128.3,348.1 128.3,347.7 127.9,347 127.9,346.9 127.8,346.4 128.2,346 
	128.2,345.5 128.3,345.1 128.6,344.8 129,344.4 129.1,344 129.3,343.7 129.3,343.3 129.1,343 128.9,342.8 128.6,342.6 128.6,342.3 
	128.7,341.9 128.7,341.6 128.7,341.5 128.6,341.3 128.4,341 128.4,340.8 128.4,340.5 128.3,340.2 128.3,339.9 128.3,339.8 
	128.4,339.5 128.4,339.1 128.6,338.8 128.3,338.5 128.2,338.4 128,338 128.2,337.6 128,337.5 128,337 128,336.6 128,336.5 
	127.9,336.2 128.2,335.8 128.9,335.6 129.1,335.2 129.1,334.4 128.7,334.3 128.2,334 127.8,333.9 127.9,333.3 127.3,332.9 
	118.2,332.7 117.5,332.6 115.7,332.6 103.8,332.2 102.2,332 71,331.1 70.5,331.1 57.5,330.5 47.1,330.3 47.1,330.4 46.5,349.2 
	46.4,351.6 46.4,352.7 46.4,353.4 46.3,355.1 46.3,355.8 46.3,356.1 46.2,357.5 46.1,358.8 46.1,359.7 46,361.6 45.9,365.2 "/>
<polygon class="st4" points="51,217.1 51,217.7 51,218.1 139.1,220.2 140.5,220.2 146.1,220.3 152.1,220.4 153.2,220.4 173.9,220.9 
	174.1,212.3 174.1,211.2 174.1,209.9 174.2,208.8 174.2,207.6 174.2,206.3 174.2,205.1 174.2,204.4 174.2,203 174.4,201.9 
	174.4,200.7 174.4,199.6 174.5,198.2 174.5,197.1 174.5,189.9 178.9,190 183.5,189.9 180.9,183.5 180.7,182.9 176.2,171.8 
	174.9,168.6 172.6,161.8 168.1,161.8 153.9,161.4 153.5,161.4 147.2,161.1 147,161.1 147,160.3 146.8,157.6 140.1,157.4 
	139.9,158.5 139.9,161 136.5,160.8 134.5,160.8 133.3,160.8 133,160.8 127.6,160.7 126.2,160.5 125.9,160.5 123.7,160.5 
	122.5,160.5 118.9,160.4 112.5,160.4 112,160.3 105.1,160 98,160 91.2,159.6 91.1,166.8 90.9,171.6 90.8,173.8 90.5,180.7 
	90.3,188.2 88.3,188.1 86.8,188.1 69.5,187.7 52,187 51.9,189 51.8,194.3 51.7,196.4 51.7,196.8 51,216 51,216.4 "/>
</svg>
