<?xml version="1.0" encoding="utf-8"?>
<!-- Generator: Adobe Illustrator 24.1.2, SVG Export Plug-In . SVG Version: 6.00 Build 0)  -->
<svg version="1.1" id="Layer_1" xmlns="http://www.w3.org/2000/svg" xmlns:xlink="http://www.w3.org/1999/xlink" x="0px" y="0px"
	 viewBox="0 0 500 500" style="enable-background:new 0 0 500 500;" xml:space="preserve">
<style type="text/css">
	.st0{fill:#F7F5F0;stroke:#404040;stroke-width:1.5;stroke-miterlimit:10;}
	.st1{fill:#F7F5F0;stroke:#404040;stroke-width:1.5;}
	.st2{fill:#EF3E26;stroke:#404040;stroke-width:1.5;stroke-miterlimit:10;}
	.st3{display:none;fill:none;stroke:#00AEEF;stroke-width:6;stroke-miterlimit:10;}
	.st4{display:none;fill:none;stroke:#009BFF;stroke-width:6;stroke-miterlimit:10;}
	.st5{display:none;fill:none;stroke:#009BFF;stroke-width:5;stroke-miterlimit:10;}
	.st6{display:none;fill:#009BFF;}
	.st7{fill:#EF3E26;}
</style>
<path class="st0" d="M272.7,230.4c0-0.3,0-0.7,0-1l0,0c-0.1,0.3-0.2,0.6-0.3,0.9l-0.4,1.1h-0.2l-0.4-1.1c-0.1-0.3-0.2-0.6-0.3-0.9
	l0,0c0,0.3,0,0.7-0.1,1.1l-0.1,1h-0.3l0.2-2.4h0.4l0.4,1.2c0.1,0.3,0.2,0.5,0.2,0.8l0,0c0.1-0.2,0.1-0.5,0.3-0.8l0.4-1.1h0.4
	l0.1,2.4h-0.3L272.7,230.4z"/>
<path class="st0" d="M275.1,230.6c0,0.5-0.3,0.9-0.8,0.9c0,0-0.1,0-0.1,0c-0.5,0-0.8-0.4-0.8-0.8c0,0,0-0.1,0-0.1
	c0-0.5,0.3-0.9,0.8-0.9c0,0,0.1,0,0.1,0c0.5,0,0.8,0.4,0.8,0.8C275.1,230.6,275.1,230.6,275.1,230.6z M273.8,230.6
	c0,0.4,0.2,0.7,0.5,0.7s0.5-0.3,0.5-0.7c0-0.3-0.1-0.7-0.5-0.7S273.8,230.3,273.8,230.6z"/>
<path class="st0" d="M275.5,230.2c0-0.2,0-0.3,0-0.5h0.3v0.3l0,0c0.1-0.2,0.4-0.3,0.6-0.3c0.2,0,0.6,0.1,0.6,0.7v1h-0.3v-1
	c0-0.3-0.1-0.5-0.4-0.5c-0.2,0-0.4,0.1-0.4,0.3c0,0.1,0,0.1,0,0.1v1h-0.3L275.5,230.2z"/>
<path class="st0" d="M279,230.7c0,0.5-0.3,0.9-0.8,0.9c0,0-0.1,0-0.1,0c-0.5,0-0.8-0.4-0.8-0.8c0,0,0-0.1,0-0.1
	c0-0.5,0.3-0.9,0.8-0.9c0,0,0.1,0,0.1,0C278.7,229.8,279,230.1,279,230.7C279,230.6,279,230.6,279,230.7z M277.7,230.7
	c0,0.4,0.2,0.7,0.5,0.7s0.5-0.3,0.5-0.7c0-0.3-0.1-0.7-0.5-0.7C277.9,230,277.7,230.3,277.7,230.7z"/>
<path class="st0" d="M224.7,267.9c0-0.3,0-0.7,0-1l0,0c-0.1,0.3-0.2,0.6-0.3,0.9l-0.4,1.1h-0.2l-0.4-1.1c-0.1-0.3-0.2-0.6-0.3-0.9
	l0,0c0,0.3,0,0.7-0.1,1.1l-0.1,1h-0.3l0.2-2.4h0.4l0.4,1.1c0.1,0.3,0.2,0.6,0.2,0.8l0,0c0.1-0.3,0.2-0.5,0.3-0.8l0.4-1.1h0.4
	l0.1,2.4h-0.3L224.7,267.9z"/>
<path class="st0" d="M226.7,268.5c0,0.1,0,0.3,0,0.4h-0.3l0-0.2l0,0c-0.1,0.2-0.3,0.3-0.5,0.2c-0.3,0-0.5-0.2-0.5-0.5c0,0,0,0,0,0
	c0-0.4,0.4-0.6,1-0.6v0c0-0.2-0.1-0.4-0.3-0.4c0,0,0,0-0.1,0c-0.2,0-0.3,0-0.4,0.1l-0.1-0.2c0.2-0.1,0.4-0.1,0.6-0.1
	c0.5,0,0.6,0.4,0.6,0.7L226.7,268.5z M226.4,268c-0.3,0-0.7,0-0.7,0.4c0,0.1,0.1,0.3,0.2,0.3c0,0,0,0,0,0c0.2,0,0.4-0.1,0.4-0.3
	c0,0,0-0.1,0-0.1V268z"/>
<path class="st0" d="M228.7,266.4l0,2.1c0,0.1,0,0.3,0,0.4h-0.3v-0.3l0,0c-0.1,0.2-0.3,0.3-0.6,0.3c-0.4,0-0.8-0.4-0.7-0.8
	c0,0,0,0,0,0c-0.1-0.5,0.3-0.9,0.7-0.9c0,0,0,0,0.1,0c0.2,0,0.4,0.1,0.5,0.3l0,0v-1L228.7,266.4z M228.4,267.9c0,0,0-0.1,0-0.1
	c0-0.2-0.2-0.4-0.4-0.4c-0.3,0-0.5,0.3-0.5,0.7s0.1,0.6,0.5,0.6c0.2,0,0.4-0.1,0.5-0.4c0,0,0-0.1,0-0.1L228.4,267.9z"/>
<path class="st0" d="M229.4,268.1c0,0.3,0.2,0.6,0.5,0.6c0,0,0.1,0,0.1,0c0.2,0,0.3,0,0.5-0.1l0.1,0.2c-0.2,0.1-0.4,0.1-0.6,0.1
	c-0.4,0-0.8-0.3-0.8-0.8c0,0,0-0.1,0-0.1c-0.1-0.5,0.3-0.9,0.8-0.9c0,0,0.1,0,0.1,0c0.4,0,0.7,0.4,0.7,0.8c0,0,0,0,0,0.1
	c0,0,0,0.1,0,0.1L229.4,268.1z M230.3,267.9c0-0.2-0.1-0.5-0.4-0.5c0,0,0,0-0.1,0c-0.3,0-0.5,0.2-0.5,0.5L230.3,267.9z"/>
<path class="st0" d="M231,267.8c0-0.2,0-0.4,0-0.5h0.3v0.3l0,0c0.1-0.2,0.3-0.4,0.5-0.4h0.1v0.3c0,0-0.1,0-0.1,0
	c-0.2,0-0.4,0.2-0.4,0.4c0,0,0,0.1,0,0.1v0.9H231V267.8z"/>
<path class="st0" d="M233.3,268.6c0,0.1,0,0.3,0,0.4h-0.3l0-0.2l0,0c-0.1,0.2-0.3,0.3-0.5,0.2c-0.3,0-0.5-0.2-0.5-0.5c0,0,0,0,0,0
	c0-0.4,0.4-0.6,1-0.6v0c0-0.2-0.1-0.4-0.3-0.4c0,0,0,0-0.1,0c-0.2,0-0.3,0-0.4,0.1l-0.1-0.2c0.2-0.1,0.4-0.1,0.6-0.1
	c0.3,0,0.6,0.2,0.6,0.6c0,0.1,0,0.1,0,0.2L233.3,268.6z M233,268.1c-0.3,0-0.7,0-0.7,0.4c0,0.1,0.1,0.3,0.2,0.3c0,0,0,0,0,0
	c0.2,0,0.4-0.1,0.4-0.3c0,0,0-0.1,0-0.1V268.1z"/>
<path class="st1" d="M177.9,185.9l-0.6,0.3l-0.3-0.3l0,0c-4.8-0.8-9.6-1.5-13.1-1.9c-2.1-0.3-3.6-0.4-4.4-0.4v0l-0.2,1.1l-1.1,0.9
	v0.7l1.6,2l0.5-0.3l0.2,0.2l0.4,2.3l1.5-0.2l0.2,0.8l-0.6,0.9l0.4,1.2l-0.8,0.4v0.4l0.2,0.3l-1.1,0.2l-0.3,0.7l0.3,0.9l0.4,0.3
	l1.2,0.2c0,0,0.4,1.6-0.1,1.8h-1l0.7,1.8l-0.2,0.5l-0.4,0.3l-0.1,1.1l-0.6,0.5l-0.9,0.2l-0.7,0.7l-0.4-0.2l-0.4,0.9l-0.1,0.2l0,0.3
	l-0.4,0.2l0,0.5l0.1,0.7l0.1,0.7l-0.2,1.7l-0.4,0.6v0.5l-0.9,0.1l-0.6,0.4l-0.7,0.1l-0.9,1.1l-0.2,1.2l-0.7,1l-0.3,1.2
	c0,0-0.8,0.4-1.2-0.1c-0.5,0.3-2.4,1.3-2.4,1.3l-1-0.5l-0.6-0.6c-0.2,0.2-0.5,0.4-0.6,0.6l0.5,0.3l0.5,1.4l0.6,0.6
	c0.3-0.1,0.6,0,0.8,0.1c0.3,0.2,0.7,0.2,1,0c0.4-0.1,0.8-0.2,1.1-0.2l1.6-0.7l0.8-0.9c0,0-0.4-1.4,0.7-1.6c0.4,0.4,0.7,0.6,0.7,0.6
	h0.5l0.2-0.6h0.9l0.9,0.4l0.7-0.4l-0.2-0.4c-0.2-0.1-0.3-0.2-0.5-0.4c-0.2-0.8,0.9-1.1,0.9-1.1v-0.3l0.7-0.2l0.8-1.1l0-0.8l-0.2-0.5
	l0.3-0.3l0.4,0.2l0.3-0.5l0.2-0.5l0.8-1c0.1-0.1,0.1-0.3,0.1-0.5c0.1-0.4,1.1,0,1.1,0h0.7c0.1,0.1,0.1,0.2,0.1,0.3
	c0,0.3,0.1,0.6,0.4,0.7c0.2,0.1,0.6,0.3,0.6,0.3l0.1,0.3c0.1-0.1,0.2-0.3,0.4-0.4c0.4,0.5,3.1,0.1,3.1,0.1l0.6-0.2l0.4-0.5l0.6,0
	l0.9,0.4h0.9l0.4-0.2c0.1,0,0.2,0,0.3,0.1c0.9-0.5,1.3,0,1.3,0l0.3,0l0.4-0.6l0.6-0.1l1.6-0.9l0.2,0.2l1.2-0.8l0.4,0.2l0.3,0.5
	l0.4-0.6h0.4l0.5-10.1v-0.1L177.9,185.9z"/>
<path class="st1" d="M182.6,232.5c-0.2-1.4,0.7-13.3,0.9-15.4l0,0l-0.5-0.5l-1.8-6.8l-1-3.6v0h-0.4l-0.4,0.6l-0.3-0.5l-0.4-0.2
	l-1.2,0.8l-0.2-0.2l-1.6,0.9l-0.6,0.1l-0.4,0.6l-0.3,0c0,0-0.4-0.5-1.3,0c-0.1,0-0.2-0.1-0.3-0.1l-0.4,0.2h-0.9l-0.9-0.4l-0.6,0
	l-0.4,0.5l-0.6,0.2c0,0-2.7,0.4-3.1-0.1c-0.1,0.1-0.3,0.2-0.4,0.4l-0.1-0.3c0,0-0.3-0.1-0.6-0.3c-0.3-0.1-0.4-0.4-0.4-0.7
	c0-0.1-0.1-0.2-0.1-0.3h-0.7c0,0-1-0.4-1.1,0c0,0.2,0,0.3-0.1,0.5l-0.8,1l-0.2,0.5l-0.3,0.5l-0.4-0.2l-0.3,0.3l0.2,0.5l0,0.8
	l-0.8,1.1l-0.7,0.2v0.3c0,0-1.1,0.3-0.9,1.1c0.2,0.1,0.3,0.2,0.5,0.4l0.2,0.4l-0.7,0.4h0v0.6l0.2,0.2l-0.6,0.7v1.2
	c0,0,0.4-0.3,0.7,0.1c0.2,0.5,0.4,0.8,0.1,1.1s-0.7,0.9-0.7,1.2s0.3,1.1,0.4,1.5s0.4,1.5,0.4,1.5l-0.5,0.2l0.1,0.4l-0.3,0.3l0.1,0.5
	l-0.3,0.3l-0.2,0.8l0.2,0.7l0.4-0.2l0.8,0.9l-0.6,0.6l0.1,0.5l-0.1,0.1l-0.3,0.4l-0.7,13.2l0.3,0c0,0,0.4,1.1,1.7,0.8
	c0.1,0.1,0.1,0.2,0.2,0.3v0.7l0.4,0.1l0.7,0.8l9.1-8.1l0.7,0.2l0.2-1.1l0.8-0.4l0.8,0.5l0-0.7l1-0.3l0.1-0.8l0.7,0.3l2.1-1.1
	c0.2,0.1,0.4,0.2,0.5,0.3c0.6-0.6,1-0.1,1-0.1l0.6,0.2l1.4-0.9l1.6,1.1l0.4-0.2l0.8,0.4l0.2-0.7l0.1-0.4
	C182.8,232.5,182.7,232.5,182.6,232.5z"/>
<path class="st1" d="M149.2,144l-1,0.3c-0.1-0.1-0.1-0.1-0.2-0.2c-0.6,0.8-0.9-1.2-0.9-1.2l0.5-0.4l-0.4-0.4l0.3-0.4
	c0-0.4,0-0.8,0.1-1.2c0.6-0.1,0.7-0.7,0.5-0.8c-0.1-0.2-0.3-0.5-0.3-0.8c-0.1-0.3,1.1-0.5,1.1-0.5l-0.6-1l0.4-0.4l0.6,0.1
	c0.1-0.2,0.2-0.4,0.3-0.6c0.6-0.4,0.2-1.5,0.1-1.5c-0.3,0-0.9-0.6-0.9-0.6l-0.9-1.4l-0.5-0.2l-0.5-0.9l0.3-0.4l-0.8-0.4l-0.1-0.1
	l-29.2-2.3l-4,0l0.1,0.1l-0.2,2.3l0.9,0.1l0.1,1.7l0.6,0.2l-0.3,3.9l0.2,0.8l-0.2,1.4l5.6,0.5l-0.4,3.4l0.2,1.6l-0.2,1.2l-0.4,0.7
	l0,2.6c5.7,0.1,22.5,1.6,22.5,1.6l0.2-1.4l4.8,0.3l0,0.9l-0.2,0.6l4.4,0.2l0.7-2.2l0.2-0.8l0-0.7l0.2-0.3c0,0-0.1-0.3-0.2-0.6
	c0.3-0.3,0.2-0.5,0-0.9c-0.2-0.4,0.1-1.1,0.4-1.3c0.2-0.1,0.4-0.3,0.5-0.5L149.2,144z"/>
<path class="st1" d="M129.6,175.7l0.4-0.3l0.2-0.1l-0.5-0.9l-0.5-0.9l0.8-1.1l2.2,0.1l-1.7-1.6c-0.6,0.1-0.5-0.9-0.5-0.9l-0.4-0.4
	c0,0,0-0.2,0-0.5c0.4-0.1,0.4-1,0.4-1.4c-2-0.3-2-1.6-2-1.6l-0.9-0.1l0.1-0.8c0-0.1-0.1-0.2-0.1-0.4c0.3-0.7,0.2-1.5-0.1-2.2l0.1-1
	l0.6,0.2c0.2-0.1,0.3-0.1,0.4-0.2c-0.3-0.2-0.5-0.6-0.5-1l0.4-0.4l-0.6-0.1c0,0-0.1-0.5-0.3-0.9c-0.7,0.2-0.6-0.9-0.6-0.9l-0.7-0.2
	l-0.2,0.1l-1.2,0.2c-0.2-0.3-0.5-0.5-0.8-0.6c-0.3,0-0.7-0.2-0.9-0.4c-0.2-0.2-0.6-0.3-0.8-0.1c0,0-0.1,0.1-0.1,0.1
	c-0.6,0.6-1.2-0.6-1.4-0.9c-0.2-0.3-0.3-0.8-0.8-1.1c-0.3-0.2-0.6-0.6-0.8-0.9h-0.2l-0.7-0.7l-0.6-1.4l0.3-0.7l0.1-0.8h0.5l0.6-1
	c-0.3-0.3-0.7-0.6-1.1-0.8c0.3,0,0.7,0,1.2,0l0-2.6l0.4-0.7l0.2-1.2l-0.2-1.6l0.4-3.3l-5.6-0.5l-0.4,2.5l-1.6-0.2l-0.3,0.7l-3.2-0.5
	v0.4l-0.8,0l-0.1,0.5l-0.7-0.3l-0.2,2.5h-0.4l0.2,0.9l-0.3,1.3l0.7,0.2l-0.2,1.3l0.3,0.1l0,0.7h0.3l0,1.1c0.2,0.3,0.4,0.6,0.5,0.9
	c0,0.5,0,2.1,0,2.1l0.6,0.1c0,0.6,0.1,1.3,0.2,1.9c-0.2-0.1-0.5-0.1-0.8,0l0,0.7l-1.5,2.3l-1.2-0.2l0,1.7l-0.4,0.1l-0.2,1.9l-0.4,0
	l-0.1,1.3c0,0,0.2,0.4,1,0.4c0,0.4,0,0.7,0.4,0.8c-0.1,0.4-0.2,1.4-0.2,1.4s0.9,0.9,1.2,1.1c0.3,0.3,1,0.3,1.5,0.3
	c-0.1,0.2-0.1,0.4-0.2,0.5l0.4,0.3l-0.1,1.7h0.2l-0.1,0.5c0.1,0.3,0.3,0.5,0.6,0.6c0,0.4,0.1,1.3,0.1,1.3l1.4,0l0.5,0.4l0.1,0.7
	l1.9,0.8l0,0.4h0.7l0.2,0.4l0.3,0.7l0.4-0.2l0.2,0.6l0.9,0.6l0.1,0.3l0.7,0.5l0,0.7l1.1,2l-0.2,0.4c0,0,0.1,0.6,0.5,0.7l0.2,0.6
	l0.7,0.4h0.5c0.4,0.1,0.7,0.4,0.8,0.8c0.2,0.4,0.3,0.7,0.5,1.1v0.1l6.1-1.3l1.9-2.8l0.5-0.2l0-0.9l0.5-0.7l0.6,0.2l0.3-0.7l-0.3-1
	L129.6,175.7z"/>
<path class="st1" d="M183.2,248l19.7-8.3l-9.4-10l-0.1-0.1l-2.7-3.1l-1.3-1.9l-5.8-7.3c-0.2,2.2-1.1,14-0.9,15.4c0.1,0,0.2,0,0.4,0
	l-0.1,0.4l-0.2,0.7l-0.8-0.4l-0.4,0.2l-1.6-1.1l-1.4,0.9l-0.6-0.2c0,0-0.3-0.5-1,0.1c-0.2-0.1-0.3-0.2-0.5-0.3l-2.1,1.1l-0.7-0.3
	l-0.1,0.8l-1,0.3l0,0.7l-0.8-0.5l-0.8,0.4l-0.2,1.1l-0.7-0.2l-9.1,8.1l-0.4,0.3h-0.1l-0.4,0.3l0.1,0.4c0.4,0.4,0.7,0.9,0.9,1.4
	c-0.2,0.2-0.4,0.4-0.6,0.6l0.6,0.9v0.6l0.4,0.1l0.5-0.1l0.9,0.4l0,0.4l-0.6,1l0.2,0.4l-0.2,0.4l0.5,0.7l-0.2,0.3l0.2,0.6l-0.8,0.8
	c0,0-1.5,0.2-1.3,0.8c-0.1,0.3-0.1,1.5-0.1,1.5c0.3,0.2,0.6,0.5,0.6,0.9l0.9,0.5l0.3,2l-0.1,0.4l0.1,0.2c0,0,0,1.3,1,0.9
	c0-0.4,0-0.7,0-0.7l0.9-0.7l1,0.5l0.2,0.4l1.2,0l0.1-0.4l0.6-0.4l0.5,1.1l1,0.1c0,0.5,0.1,0.9,0.4,1.4l10.8-9.8l-0.5-0.2l-0.2-1.2
	l0-0.6l-0.5,0.1l0.5-0.6L183.2,248z"/>
<path class="st1" d="M161.2,196.4l-0.4-0.3l-0.3-0.9l0.3-0.7l1.1-0.2l-0.2-0.3v-0.4l0.8-0.4l-0.4-1.2l0.6-0.9l-0.2-0.8l-1.5,0.2
	l-0.4-2.3l-0.2-0.2l-0.5,0.3l-1.6-2v-0.7l1.1-0.9l0.2-1.1v0l0.5-1.2l-0.3-0.8l-0.9-0.5l-0.8,1.1l-1.1,0.1l-0.6-1.4l0.2-0.3l-0.4-0.3
	l-0.8-0.2l0.2-1.1l-0.2-0.6l0.1-1l-0.6-0.4l-0.1-0.4l-1.4,0.5l-0.6-0.3l-0.6-0.8c0.4-0.1,0.6-0.5,0.7-0.9s-0.4-0.6-0.8-0.8
	c-0.2-0.1-0.4-0.3-0.4-0.5l-19.3-1.3l-2.2-0.1l-0.8,1.1l0.5,0.9l0.5,0.9l-0.2,0.1l0.4,0.6l1.2,0.8l0.4-0.3l0.6,0.2l0.2-0.2l1.4,0.4
	l0.3,1.4l0.6,1.1l0.1,1.6l0.9,1.4l0,1.5c0,0,0.9,0.2,0.8,0.9c0,0.5,0.5,1.2,0.7,1.1c0.3,0,0.5,0.3,0.6,0.7c0,0.4-0.2,1.2-0.2,1.2
	l0.5-0.3l0.9,1.9l-0.2,0.2l0.5,2.1l0,0.6l0.5,0.9l1.6,0l0.5,0.5l0.3,0.5l0.7,0.3l0.7-0.5l0.4-0.2l0.6-0.7l0.9-0.3l0.4-0.5l0.6,0.4
	c0.4,0.1,0.9,0,1.2-0.2c0.6-0.3,1.8,0,2.1,0.2c0.5,0.4,1.1,0.5,1.7,0.4l0.4,0.2l0.5-0.4l0.2,0.5l0.7-0.4l0.4-0.4l0.7,0.4l0.4-0.2
	l0.5,0.7l-0.4,10.2l3.6,0.4l0.4-0.9l0.4,0.2l0.7-0.7l0.9-0.2l0.6-0.6l0-1.1l0.4-0.3l0.2-0.5l-0.7-1.8h1c0.5-0.2,0.1-1.8,0.1-1.8
	L161.2,196.4z"/>
<path class="st1" d="M140.7,202.2l-0.2-0.6l0-0.9l-0.5-1.1l-0.7-1c0,0-0.7-1.1-0.4-2c0.3-0.9,0.8-2.3,0.8-2.3v-0.9h0.4l-0.5-0.9
	l0-0.6l-0.5-2.1l0.2-0.2l-0.9-1.9l-0.5,0.3c0,0,0.1-0.9,0.2-1.2c-0.1-0.4-0.3-0.7-0.6-0.7s-0.7-0.6-0.7-1.1c0.1-0.7-0.8-0.9-0.8-0.9
	l0-1.5L135,181l-0.1-1.6l-0.5-1l-0.3-1.5l-1.4-0.4l-0.2,0.2l-0.6-0.2l-0.4,0.3l-1.2-0.8l-0.4-0.6l-0.4,0.3l0.8,1.1l0.3,1l-0.3,0.7
	l-0.6-0.2l-0.5,0.7l0,0.9l-0.5,0.2l-1.9,2.8l-6.1,1.3l-0.2,0.9l-0.5,0.6l0,0.9l-0.5,1l0.9,1.9c0,0,1.5-0.1,1.9,1.8
	c0.2,0,0.4,0,0.5,0l0.2,1.3l0.5,1v0.6l0.5-0.1l0.3,0.2l-0.2,0.4l1.2,0.4l-0.1,0.6l-0.7,0.7l1.1,1l0.1,0.7l0.6,0.6l-0.4,0.6l0.5,0.5
	c0.4,0.2,0.7,0.6,0.8,1.1c0.1,0,0.2,0.1,0.4,0.1l0,0.7l0.5,0.7l-0.3,0.4v0.9c0,0-0.1,0.4,0.6,0.4c-0.1,0.2-0.2,0.4-0.2,0.7l0.8,0.6
	l0.4,1.2l-0.2,0.7v1.4l-0.4-0.1l0,1.4l6.6,0.4l0.1-0.4c0,0-1-0.4-0.7-1.2c0.2-0.3,0.3-0.6,0.3-1c0.3-0.1,0.6-0.1,0.6-0.1l-0.2-1.5
	l-0.6-0.3l0.9,0l-0.8-0.4l0-0.4l0.1-0.4l0.9,0.2l-0.5-1c0,0,0.3-0.7,0-1.1l5.1,0.2L140.7,202.2z"/>
<path class="st1" d="M301.2,251.6l-36.3-0.9c0.2,0.4,0.3,0.8,0.3,1.2c-0.3,0.1-1.3,0.7-0.9,1.2c-0.1,0.3-0.3,0.9-0.3,0.9l0.8,1.3
	l-0.6,0.3c-0.2,0.4-0.1,0.9,0.3,1.2c0.5,0.3,1.4,0.8,1.4,0.8l1-0.5l1,1.8c0.2,0.5,0.4,1,0.8,1.4l-0.4,0.8l-0.4,0.2v0.5l-0.1,0.3
	l0.5,0.6l-0.4,0.5l0.7,0.7c0,0-0.2,0.8-0.3,1c0.1,0.3,0.1,0.5,0.1,0.8c0.2,0.3,1.2,1.4,2.1,0.5c0.2,0.1,0.5,0.3,0.7,0.3l0.4,0.8
	l0.5,0l0.2,0.4c0,0,1-0.2,1.1,0.1c0.1,0.3,0.7,0.9,1.2,0.9s0.7,0.4,0.7,1c0.2,0.1,0.7,0.1,0.7,0.2s0,0.4,0,0.4l0.7-0.2
	c0,0,0.8,0.5,0.4,1c-0.1,0.2-0.1,0.4,0.1,0.5c0,0,0.1,0,0.1,0c0.2,0.1,0.6,0.9,0.2,1.2c0.2,0.2,0.3,0.4,0.4,0.6l-0.3,0.4
	c0.5,0.3,0.8,1,0.7,1.6c0.2,0.2,0.5,0.4,0.5,0.7c0,0.5,0.2,1,0.6,1.4c0.3,0.3,0,0.9,0.5,1.2c-0.2,0.2-0.6,0.6-0.2,1
	c0,0.5,0.1,1.8-0.9,1.6c-0.1,0.1-0.2,0.2-0.3,0.4l0.8,1.5l-0.3,0.8c0.3,0.5,0.4,1.1,0.3,1.6h0.3c0,0,0.9,0.3,0.9,0.9
	c0,0.4,0.1,0.8,0.1,1.2l-1,0.6c0,0-0.3,0.1,0,0.3c0.3,0.2,0.3,0.2,0.4,0.5c0,0.3,0.8,0.2,0.8,0.5c-0.2,0-0.4,0.2-0.3,0.4
	c0,0.1,0.1,0.2,0.2,0.3c0.3,0.2,0.8,0.6,0.3,1.1c0.2,0.1,0.4,0.1,0.6,0.3c0,0,0.4,1,0.9,1c0.2,0,0.5,0.6,0.1,0.6s-0.4,0.3-0.4,0.5
	s-0.2,0.9,0.2,1.1s0.8,0.2,0.9,0.5s0.8,0.4,0.5,0.7c-0.2,0.3-0.1,0.5,0.2,0.5s0.4,0.2,0.3,0.5c-0.2,0.3-0.2,0.6,0,0.7s0.1,0.2,0,0.3
	c-0.1,0.1-0.7,0.3-0.3,0.6c0.2,0.1,0.4,0.4,0.4,0.7c0.2-0.1,0.9,0,0.7,0.8c0,0.5,0.2,0.9,0.6,1c0.5,0.2,1,0.2,1.5-0.1
	c0.1,0,0.2-0.1,0.2-0.1v0.3c0,0,1.1,0.2,0.6,0.9c-0.3,0.4-0.6,0.7-1,0.9c0.1,0.2,0.2,0.4,0.3,0.7l0.5,0l0.2,0.4l0.3-0.1l0.3,0.8
	l0.9,0.5c0,0.4-0.1,0.7-0.3,1c-0.2,0.2-0.3,0.5-0.2,0.8c-0.2,0.1-0.5,0.1-0.5,0.5s0,1,0,1l0.4,0.4l-0.2,0.9c0,0,0.6,1.1,0.5,1.4
	c-0.1,0.3,0,0.6,0.3,0.8c0.2,0.1,0.3,0.3,0.2,0.5c0,0.1,0.5,0.3,0.6,0.4c0.2,0.1,0.1,0.7,0.6,0.7c-0.1,0.2-0.3,0.6-0.3,0.6
	s0.5,0.5,0.1,0.7c-0.4,0.2-0.4,0.2-0.3,0.6c0.1,0.4,0.2,0.8,0.2,1.1c0,0-0.3,0.7,0.1,1c0.1,0,0.5,0,0.5,0.5
	c-0.1,0.4-0.3,0.9-0.1,1.2c0.3,0.4,0.4,0.9,0.5,1.3h0.2v0.9l0.9,0.6l0,0.4l0.3,0.3v0.4c0,0-1.2,0.8,0,1.4c0.1,0,0.3,0,0.5,0.4
	s0.2,0.6,0.1,0.8s-0.3,0.9,0.1,1.4c-0.1,0.2-0.1,0.4-0.1,0.5c0,0,0.3,0.9,0,0.8s-0.7-0.2-0.7,0.2s0,1.6,0,1.6l0.2,0.2l-0.4,0.3v1.5
	h0l3.3,0.1l0-0.6l11.5,0.2l74.8,1.3l0.1-0.8l3.8,0L301.2,251.6z"/>
<path class="st1" d="M236.1,188.9l0.1,0.3l-0.5,0.7c0,0.5-0.3,0.9-0.8,1.1c-0.1,0.2-0.1,0.4-0.1,0.4l-0.2,0.6l0.1,0.3l-0.2,0.7
	c0,0-0.3,0.8-0.2,0.9s0.3,0.1,0.3,0.1l0.2,0.4h0.3l0,0.4l0.4,0.6l-0.2,0.2l0.1,0.5l0.7,1.2l-0.1,0.4l0.5,0.4l-0.1,0.7l0.5,0.2
	l-0.1,0.5l0.1,0.4c0,0-0.1,0.4-0.3,0.5c-0.2,0.1-0.4,0.4-0.2,1.1c-0.1,0.2-0.3,0.5-0.5,0.7l0,0.6c0,0,0.3,0.2,0.2,0.5
	c-0.1,0.4-0.4,0.6-0.8,0.6c-0.3-0.1-0.6-0.2-0.6-0.2l-0.9,0.5l0.1,0.5h0.2l0.2,0.8l-1.1,0.5l0.1,0.4v0.7l-0.4,0.3l-0.2,0.2l0.1,1.5
	l-0.3,0.3l0.5,0.3l0.1,0.6l0.7,0.4l-0.4,0.3l0.4,0.6l0.3,0.2l-1,0.5l-0.1,1.1l-0.4,0.4l1.1,0.5l0.1,0.4l0.5-0.3l0.3,0.4l-0.1,0.3
	c0,0-0.1,0.9,1.2,1c0,0.2,0.1,0.4,0.2,0.5l0.6-0.2l0.5,0.4l0.4,0.1l0-0.6l0.3-0.6l0.2,0.6l0.2,0.3v0.6l0.7,0.1l-0.2,0.6l0.4,0.3
	l-0.1,0.7l0.7,0.1l0.5-1l0.2,0.4l0.6,0l0.6,0.3l1.5,0.9l0.3,0l0.3,0.9h0.6l0.1,0.6l0.3,0.4l0,0.4l0.4,0.6l-0.1,0.3
	c0,0,0.1,0.6-0.6,1.5c0.1,0.1,0.2,0.2,0.2,0.2l-0.4,0.5l0.4,0.4c0,0-0.3,1.2,0.8,1.1c0.1,0.2,0.1,0.4,0.1,0.6l0.3-0.2l0.7,0.5
	l-0.2,0.6l0.7,0.1c0,0,1,0.1,1.1,0.6c0.1,0,0.3,0,0.3,0l0,0.3l0.3,0.2l-0.3,0.7l-0.2,0.1l0,0.7l-0.2,0.4l0.9,0.1l-0.5,0.4l0.2,0.4
	l-0.5,0.5l0.6,0.3l-0.1,0.9l-0.6,0.1l-0.2,0.6l-0.7,0.1l-0.5,0.8l-0.1,0.5l-0.7,0.5l0.5,0.4c0.4-0.1,0.9,0.1,1,0.6
	c0.2,0.1,0.4,0.1,0.6,0.1c0,0,0.7-1.6,1.4-1.1c0.4,0.1,1.3,0.4,1.6,0.1c0.2,0,0.6,0.1,1.1,0.7c0.2,0.5,0.7,1.2,1.1,1.4
	c0.4,0.1,0.9,1.1,0.6,1.8c0.1,0.2,0.1,0.5,0.1,0.8c0.2,0.2,0.5,0.6,0.9,0.7c0,0.4-0.1,0.9-0.3,1.2c0.3,0.2,0.5,0.5,0.6,0.8
	c0,0,0,0,0,0.1c0.2,0.1,0.3,0.2,0.5,0.3c0.2,0.4,0.5,0.6,1,0.6c0.2,0.2,0.4,0.4,0.7,0.6l0.5-0.3l0.3,0.1l0.1,0.4
	c0,0,0.2,0.6,0.8,0.1c0.2,0.2,0.9,1.3,0.9,1.3l0.3,0l0.3,0.8c0,0,0.7-0.1,0.8,1.3c0,0.3,0,0.5,0.4,0.4c0.4-0.1,2-0.9,2.3,0
	c0,0.1,0,0.4,0.2,0.5c0.2,0.1,0.3,0.3,0.4,0.5l36.3,0.9L236.1,188.9z"/>
<path class="st1" d="M307.5,339.6v-1.4h-1.5l0-1.4l0.8,0l0-4.5l-11.5-0.2l0,0.6l-3.3-0.1h0l-2.3-0.2L274,332l-2,0.2l-40.3-1.5
	l-25.6-1h0l-0.5,8.2l4.3,0.3l-0.2,4.2h0.7v0.7h0.7v0.7l0.8,0v0.8h0.7l-0.2,0.7l0.8,0.2l-0.2,1.4l4.6,0.2l0,4.2l2.6,0l0,4.4l5.7,0.3
	l-0.2,4.1l4.4,0.1l-0.4,4.4l2.8-0.2l-0.2,0.7h0.8l-0.3,8.6c0.3,0,0.7,0.1,1,0.2h0.2c0.6,0,2.3,0,2.3,0v1l4.3,0.2l-0.2,1.1l1.4,0v2.1
	l10.6,0.4l0,1l3.7,0c-0.2-0.6-0.4-1-0.5-1.2l49,1.1l1.5,0l0.7-29.1l-0.2-1.5h0.2l0-5.5h-0.2l0.3-4.3L307.5,339.6z"/>
<path class="st1" d="M279.8,278.9c-0.4-0.3-0.1-0.9-0.5-1.2c-0.3-0.4-0.5-0.9-0.6-1.4c0-0.3-0.3-0.5-0.5-0.7
	c0.1-0.6-0.2-1.2-0.7-1.6l0.3-0.4c-0.1-0.2-0.3-0.5-0.4-0.6c0.4-0.4,0-1.2-0.2-1.2c-0.2,0-0.3-0.2-0.3-0.4c0,0,0-0.1,0-0.1
	c0.4-0.5-0.4-1-0.4-1l-0.7,0.2c0,0-0.1-0.4,0-0.4c0.1,0-0.5-0.1-0.7-0.2c0-0.5-0.3-1-0.7-1s-1-0.6-1.2-0.9s-1.1-0.1-1.1-0.1
	l-0.2-0.4l-0.5,0l-0.4-0.8c-0.3-0.1-0.5-0.2-0.7-0.3c-0.9,0.8-1.9-0.2-2.1-0.5c0-0.3,0-0.5-0.1-0.8c0-0.2,0.3-1,0.3-1l-0.7-0.7
	l0.4-0.5l-0.5-0.6l0.1-0.3v-0.5l0.4-0.2l0.4-0.8c-0.3-0.4-0.6-0.9-0.8-1.4l-1-1.8l-1,0.5c0,0-0.9-0.5-1.4-0.8
	c-0.4-0.3-0.5-0.8-0.3-1.2l0.6-0.3l-0.8-1.3c0,0,0.2-0.6,0.3-0.9c-0.4-0.5,0.6-1.1,0.9-1.2c0-0.4-0.1-0.9-0.3-1.2
	c-0.1-0.2-0.2-0.4-0.4-0.5c-0.3-0.1-0.2-0.4-0.2-0.5c-0.3-0.9-1.9-0.1-2.3,0s-0.3-0.1-0.4-0.4c-0.1-1.4-0.8-1.3-0.8-1.3l-0.3-0.8
	l-0.3,0c0,0-0.7-1-0.9-1.3c-0.6,0.4-0.8-0.1-0.8-0.1l-0.1-0.4l-0.3-0.1l-0.5,0.3c-0.2-0.2-0.5-0.4-0.7-0.6c-0.4,0.1-0.8-0.2-1-0.6
	c-0.2-0.1-0.3-0.2-0.5-0.3c0,0,0,0,0-0.1l-11.8,11c-0.1,0.2-0.1,0.4,0.1,0.6c0.2,0.3-0.3,0.2-0.4,0.2s-0.1,0.3,0.1,0.4
	c0.2,0.1,0.1,0.2-0.2,0.3s-0.6,0.5-0.3,1.2c0.1,0.4,0.1,0.8-0.1,1.1c0.3,0.4,0.4,0.9,0.3,1.3c-0.1,0.1-0.5,0.7-0.5,1
	c-0.1,0.1-0.2,0.3,0,0.5s0.2,0.4,0,0.6c-0.2,0.2-0.3,0.5-0.3,0.8c-0.2,0-0.4,0-0.4,0l-0.4,0.2l0,0.7l-0.5,0.1l-0.5,0.7h-0.5
	l-0.3-0.6c0,0-0.8-0.2-1.1,0.1c0,0.3,0,0.7,0,0.7h-1l-0.3,0.9l0.1,0.4l-0.2,0.4l-0.6,0.1l-0.3-0.8l0.1-0.7l-0.7-0.8l-0.4,0.2l-0.3,1
	l-0.5-0.5l-0.5-0.6l-0.5,0.2l0.1,0.8l-0.4,0.6l0.6,0.2l0.3-0.2l0.3,0.8l-0.2,0.3l-0.6,0.2l-0.2,0.7l-0.2,0.7l-0.7-0.2l-0.4-0.5h-0.4
	c-0.1,0.4-0.2,0.7-0.3,1.1c0.1,0.1,0.1,0.3,0,0.5l-0.4,0.6c0,0-0.3-1.3-1.2-0.7c0,0.5-0.1,1.3-0.1,1.3l-0.5,0.1c0,0-0.8-0.4-1.2,0.1
	c-0.3,0.4-0.6,0.7-1,0.9c-0.4,0.2-0.9,1.1-0.4,1.8l-0.8,0.3c0,0,0.2,1.2-0.6,1.1c-0.2,0-0.5,0.8-0.9,1c0.1,0.2,0.1,0.5,0.1,0.7
	l-0.8,0.8l-0.4,0.7l-0.7-0.3l-0.2-0.5l-0.4,0l-0.1,0.6l-0.7,0l-0.6-0.4l-1.1,0.5l-0.5-0.2l-0.4,0v0.5h-1.4l-0.5-0.3l-0.3,0.6
	c-0.6-0.2-1.2,0-1.4,0.6c0,0,0,0.1,0,0.1c-0.2-0.1-0.4-0.2-0.6-0.3c-0.2-0.3-0.6-0.3-0.9-0.1c-0.1-0.3-0.5-0.6-1.2,0.2
	c-0.8-0.1-1.7,0.1-2.3,0.7c-0.2-0.1-0.5-0.4-1,0.2c-0.1,0.4-0.1,0.7-0.3,0.8c-0.2,0-0.3-0.1-0.4-0.2v-0.5l-0.7,0l-1.5,0.9l-1.6-0.2
	c-0.7-0.7-1.8-1-2.7-0.7c-0.1-0.1-0.2-0.2-0.3-0.3l0.4-0.8l-0.4-0.3l-0.3-0.7l-0.6,0.1l-0.3-0.7l-0.7-0.3l-0.2-0.7
	c0,0-0.6,0-0.7-0.3s-0.6-1.5-0.6-1.5l0.6-1l-0.5-0.3l0.2-0.3l-1.3-2.8c0,0,0.1-1.8-1.3-1.7c-0.1-0.2-0.2-0.5-0.4-0.7
	c0,0,0.1-0.1-0.1-0.5l-15.2,13.6l11.7,12.9l-0.4,7.8c0,0-0.5,0.6-0.9,0.5s-0.6-0.1-0.7,0c-0.1,0.2-0.4,0.1-0.6,0
	c-0.2-0.1-0.7,0.6-0.9,0.9s0.4,0.9,0,1.5l0.3,0.4c0,0-0.6,0.5-0.1,0.8c0.5,0.4,0.9,0.6,0.9,0.6l0.8,1.4l-0.7,1l-0.3,0.4l-0.5,0
	l-0.1,1.5c0.5,0.4,0.7,1.1,0.5,1.7c0.2,0.2,1.1,0.8,1.8,0.1c0.4,0.1,0.6,0.5,0.5,0.9c0,0,0,0.1,0,0.1c-0.2,0.5-0.1,1.2,1.8,1.9
	c0.2,0.4,0.2,0.6,0.6,0.7c-0.1,0.3,0.1,0.6,0.5,0.7c0.1,0,0.3,0,0.4-0.1c0.3,0.3,0.6,0.5,0.9,0.6c0.1,0.5,0.3,0.8,1,1.1
	c0.2,0.3,0.6,0.7,0.7,1.2l0.4-0.5l0.5,0l0.6,0.4l1.5,0.2c0,0-0.4,0.8,0.3,1c0.3,0.1,0.6,0.6,0.6,1.1c0,0.4,0.1,0.8,0.8,0.8l0,0
	l14.7-12.6l0.3-10.7l8.3,0.2c0,0-0.4-0.8,0.4-0.7c0.8,0.1,1,0.1,1.4-0.3h0.7c0,0,0.6-0.5,0.6,0c0,0.5,0,0.5,0.4,0.2
	c0.4-0.3,3-2.5,3.5-3l0.1-0.1l4.2-4l6.4,0.3l0.2-4.3l12.4,0.7l0.2-4.1l16.7,0.8l0-0.5l7.1,0.2c0-0.6-0.1-1.1-0.3-1.6l0.3-0.8
	l-0.8-1.5c0.1-0.1,0.2-0.2,0.3-0.4c1.1,0.3,1-1.1,0.9-1.6C279.2,279.5,279.6,279.1,279.8,278.9z"/>
<path class="st1" d="M233.3,301l0.2-4.3l-1.7,0c-0.5,0.4-3.2,2.7-3.5,3c-0.4,0.3-0.4,0.2-0.4-0.2s-0.6,0-0.6,0h-0.7
	c-0.4,0.4-0.6,0.4-1.4,0.3s-0.4,0.7-0.4,0.7l-8.3-0.2l-0.3,10.8l-14.7,12.5c0.5,0,1,0.1,1.6,0.2l1.2,1.3c0,0-0.3,0.3-0.1,0.5
	c-0.3,0.2-1,1-0.5,1.3c0.1,0.4,0.2,0.6,0.6,0.7c0.4,0.1,1,0.3,0.9,1.9l0.9,0.2h0l25.6,1l1-17l0.2,0l0.3-6.3l2.1,0.2l0.3-6.6
	L233.3,301z"/>
<path class="st1" d="M180,281.9l-0.5-0.5l-7.8-4.6l-0.1-0.6l-0.3-0.5l-0.1-0.4c-0.2,0-0.3-0.1-0.5-0.2c0-0.4-0.1-0.7-0.3-1
	c-0.3-0.3-0.2-0.7-0.4-1.1s-0.8,0-0.8,0c-0.3-0.2-0.6-0.4-0.9-0.6c-0.1-0.4-0.1-0.7,0.1-1.1l0.4-0.2l0.4-0.5l-0.4-0.3l-7.5-0.4
	l-0.8-0.9l-0.4-0.2l-0.2-0.4l-0.6,0.1l-0.1,0.5l-0.9-0.4l-1,1.1c0,0,0.4,0.3-0.1,0.7c-0.5,0.4-1,0.8-1,0.8v0.3l-0.7,0.3l-0.1,0.7
	L155,273l-0.3-0.3l-0.1-0.2l-0.7,0.1l-0.5-0.5l-0.4-0.2c-0.1,0.4-0.3,0.8-0.5,1.1c0,0.2,0,0.5,0.1,0.7c0.2,0.3,0.7,1.4,0.7,1.4
	l0.9,0.5l3.3,4.2c0,0,1.2-0.8,1.1,0.2c0,0.2,0.1,0.4,0.3,0.5s0.6,1,0.4,1.1c-0.2,0.2-1.2,0.2-1.1,0.5c0.2,0.4,0.3,0.9,0.4,1.3
	c0.1,0,0.2-0.1,0.4-0.1l0.5,0.5c0,0,0.9-0.6,1.4,0.9c0.3,0,0.6,0,0.6,0l0.5,0.4l0.6-0.2c0.5,0.1,0.8,0.5,0.8,1
	c0,0.4,0.2,0.7,0.5,0.9c0.2,0.2,0.5,0.4,0.2,0.7c0,0.3-0.1,1.3-0.1,1.3l-0.5,0l0.2,0.4l0,0.6c0,0,1.2,0.5,1.1,1.5
	c0,0.2-0.6,0.8-0.6,1.1c0,0.3,0,0.3,0.3,0.2s0.7-0.3,0.9,0c0.1,0.1,0.6,0.1,0.9-0.1c0.4-0.2,0.8-0.1,0.9,0.3s0,1.2,0.6,1.5
	c0.3,0.2,0.6,0.4,0.8,0.7l-0.1,0.4l5.8,6.3l-0.2,2.5c0.3,0.1,0.5,0.4,0.5,0.8c0.3-0.2,0.6-0.4,0.9-0.4c0.4,0,0.6-0.1,0.6-0.4
	s0-0.8,0.3-0.6c0.3,0.1,0.5,0.4,0.6,0.6c0.2,0.2,0.5,0.2,0.8,0c0,0,0.1-0.1,0.1-0.1c0.2-0.4,0.7-0.8,0.8-1.2c0.3,0,0.9,0.3,1.2,1.1
	c0.4-0.2,0.7-0.3,0.7-0.3s1,0.5,1.2,1.1s0.4,0.9,0.9,0.9c0.1,0,0.3,0.1,0.3,0.5s0.4,0.5,0.7,0.6c0.2,0.1,0.4,0.3,0.4,0.5
	c0.2,0.2,0.4,0.4,0.5,0.7c0.1,0.2,0.3,0.8,0.7,0.7c0.4-0.1,0.9-0.3,1.2,0.2c0.3,0,0.5-0.3,0.6-0.5c0-0.3,0.1-2.4-0.9-3.3
	c0-0.7-0.3-1.3-0.9-1.6c0.1-0.1,0.3-0.1,0.4-0.2l0.9,0.6l0.4,0.8l0.4-0.2l0.8,1.1c0.4-0.5-0.2-1.2,0-1.5s0.7-0.9,0.9-0.9
	c0.2,0.1,0.5,0.1,0.6,0s0.3-0.1,0.7,0c0.4,0,0.9-0.5,0.9-0.5l0.4-7.8L180,281.9z"/>
<path class="st1" d="M214.5,261.4l-0.3-0.1l-0.7-1.1l-0.8-0.1l-1.4-0.7l-1.3-1.2c0,0-0.2-0.6-0.3-0.9c0.6-0.8-0.5-1.7-0.5-1.7
	l-1.6-3.4l-0.4-0.2l-0.6-1.6l-0.4-0.3l0-0.3l0.4-0.6l0-0.7l-0.9-1.4l0.2-0.2l-0.5-0.6l-0.1-1l-2.4-5.5l0,0l-19.7,8.3l-3.9,1.9
	l-0.5,0.6l0.5-0.1l0,0.6l0.2,1.2l0.5,0.2l-10.8,9.8c0.1,0.2,0.2,0.3,0.3,0.5c-0.2,0.4-0.6,1.2-0.6,1.2l-0.7,0.3l1.5,1.1
	c0,0,0.2,0.6-0.7,0.6c0.1,0.3,0.1,0.6,0.1,0.9l-0.7,0.3h-0.3l0.6,1.4c0,0-1.3,0.4-0.1,1.5l0.4,0.4l0.4,0.3l-0.4,0.5l-0.4,0.2
	c-0.2,0.3-0.2,0.7-0.1,1.1c0.3,0.2,0.6,0.4,0.9,0.6c0,0,0.7-0.4,0.8,0c0.2,0.4,0.1,0.8,0.4,1.1c0.2,0.3,0.4,0.6,0.3,1
	c0.2,0.1,0.3,0.1,0.5,0.2l0.1,0.4l0.3,0.5l0.1,0.6l7.8,4.6l0.5,0.5l15.2-13.6l2.9-2.6l2.3-0.7l1.2-0.6l0.9,0.3l1.4-0.4
	c0.2-0.1,0.3-0.3,0.3-0.5c0.5-0.1,0.9-0.3,1.2-0.7c0.1,0,0.7,0,2.2-0.2s1.8,0.1,1.8,0.1c0.2-0.1,0.4-0.2,0.5-0.4
	c0.5,0.4,1.1,0.4,1.6,0c0,0,0.3,0.1,0.7,0.2c0.4-0.2,0.9-0.4,1.3-0.4c0.3,0,0.6-0.1,0.9-0.2l0.1-0.1L214.5,261.4z"/>
<path class="st1" d="M243.6,255.1l11.8-11c-0.1-0.3-0.3-0.6-0.6-0.8c0.2-0.4,0.3-0.8,0.3-1.2c-0.4-0.1-0.7-0.5-0.9-0.7
	c0-0.3,0-0.5-0.1-0.8c0.2-0.8-0.2-1.7-0.6-1.8s-0.9-0.9-1.1-1.4c-0.6-0.6-1-0.7-1.1-0.7c-0.3,0.3-1.2-0.1-1.6-0.1
	c-0.7-0.5-1.4,1.1-1.4,1.1c-0.2,0-0.4-0.1-0.6-0.1c-0.1-0.4-0.6-0.7-1-0.6l-0.5-0.4l-0.6-0.5l-0.2-1.1c0,0-0.4-0.4-0.5-0.5l-11,10.2
	l-0.2,3.1l-1.2-0.2v1.8l-1.5-0.1v2.2l-4.3-0.1l-11.8,10.9l-0.1,0.1c-0.3,0.1-0.6,0.2-0.9,0.2c-0.5,0-0.9,0.2-1.3,0.4
	c-0.4-0.1-0.7-0.2-0.7-0.2c-0.5,0.4-1.1,0.3-1.6,0c-0.1,0.2-0.3,0.3-0.5,0.4c0,0-0.3-0.4-1.8-0.1c-1.5,0.2-2.1,0.2-2.2,0.2
	c-0.3,0.4-0.7,0.6-1.2,0.7c-0.1,0.2-0.2,0.4-0.3,0.5l-1.4,0.4l-0.9-0.3l-1.2,0.6l-2.3,0.7l-2.9,2.6c0.2,0.4,0.1,0.5,0.1,0.5
	c0.1,0.2,0.3,0.5,0.4,0.7c1.4-0.1,1.3,1.7,1.3,1.7l1.3,2.8l-0.2,0.3l0.5,0.3l-0.6,1c0,0,0.5,1.2,0.6,1.5c0.1,0.3,0.7,0.3,0.7,0.3
	l0.2,0.7l0.7,0.3l0.3,0.7l0.6-0.1l0.3,0.7l0.4,0.3l-0.4,0.8c0.1,0.1,0.2,0.2,0.3,0.3c1-0.2,2,0,2.7,0.7l1.6,0.2l1.5-0.9l0.7,0v0.5
	c0.1,0.1,0.3,0.1,0.4,0.2c0.2-0.1,0.2-0.3,0.3-0.8c0.5-0.7,0.8-0.4,1-0.2c0.6-0.6,1.5-0.8,2.3-0.7c0.7-0.8,1-0.5,1.2-0.2
	c0.3-0.2,0.7-0.2,0.9,0.1c0.2,0.2,0.4,0.3,0.6,0.3c0.2-0.6,0.8-0.9,1.3-0.8c0,0,0.1,0,0.1,0l0.3-0.6l0.5,0.3h1.4v-0.5l0.4,0l0.5,0.2
	l1.1-0.5l0.6,0.4l0.7,0l0.1-0.6l0.4,0l0.2,0.5l0.7,0.3l0.4-0.7l0.8-0.8c0-0.2-0.1-0.5-0.1-0.7c0.4-0.2,0.7-1,0.9-1
	c0.8,0.1,0.6-1.1,0.6-1.1l0.8-0.3c-0.6-0.7,0-1.6,0.4-1.8c0.4-0.2,0.7-0.5,1-0.9c0.4-0.6,1.2-0.1,1.2-0.1l0.5-0.1
	c0,0,0.1-0.8,0.1-1.3c0.9-0.6,1.2,0.7,1.2,0.7l0.5-0.6c0.2-0.2,0.2-0.4,0-0.5c0.1-0.4,0.1-0.8,0.3-1.1h0.4l0.4,0.5l0.7,0.2l0.2-0.7
	l0.2-0.7l0.6-0.2l0.2-0.3l-0.3-0.8l-0.3,0.2l-0.6-0.2l0.4-0.6l-0.1-0.8l0.5-0.2l0.5,0.6l0.5,0.5l0.3-1l0.4-0.2l0.7,0.8l-0.1,0.7
	l0.3,0.8l0.6-0.1l0.2-0.4l-0.1-0.4l0.3-0.9h1c0,0,0-0.4,0-0.7c0.2-0.4,1.1-0.1,1.1-0.1l0.3,0.6h0.5l0.5-0.7l0.5-0.1l0-0.7l0.4-0.2
	c0,0,0.2,0,0.4,0c0-0.3,0.1-0.6,0.3-0.8c0.2-0.2,0.2-0.4,0-0.6s-0.1-0.3,0-0.5c0-0.3,0.4-0.9,0.5-1c0.1-0.5,0-1-0.3-1.3
	c0.2-0.3,0.2-0.7,0.1-1.1c-0.2-0.7,0-1.1,0.3-1.2s0.4-0.2,0.2-0.3s-0.3-0.4-0.1-0.4s0.6,0,0.4-0.2
	C243.6,255.6,243.6,255.4,243.6,255.1z"/>
<path class="st1" d="M237,199.6l0.1-0.5l-0.5-0.2l0.1-0.7l-0.5-0.4l0.1-0.4l-0.7-1.2l-0.1-0.5l0.2-0.2l-0.4-0.6l0-0.4h-0.3l-0.2-0.4
	c0,0-0.2-0.1-0.3-0.1s0.2-0.9,0.2-0.9l0.2-0.7l-0.1-0.3l0.2-0.6c0,0,0-0.2,0.1-0.4c0.5-0.1,0.9-0.5,0.8-1.1l0.5-0.7l-0.1-0.3
	l-11.8-11.4v0.4c0,0,0.8,0.2,0.8,1.2c0,0.4,0,0.8,0.1,1.2l0.2,0.4l-0.7,0.4H224l-0.1,1.2l-0.5,0.1c-0.2,0.5-0.5,0.9-0.9,1.3
	c0.2,0.3,0.1,0.8-0.2,1c0,0,0,0,0,0c-0.3,0.2-0.6,0.3-0.8,0.4l-4.1,3.3l-0.3,9.4v0l-0.2,3l0.7-0.3l1.2,1l4.9,4l0.7-0.5l0.5-0.2
	l0.7-0.6l0.9-0.1c0,0,0.5-1.1,1.6-0.9c0.5-0.3,1-0.6,1-0.6l1.5,0.3l0.4,0.3l0.1,1.4l-0.2,0.8l1.2,0.9l1,1.1l0.4-0.3v-0.7l-0.1-0.4
	l1.1-0.5l-0.2-0.8h-0.2l-0.1-0.5l0.9-0.5c0,0,0.3,0.1,0.6,0.2c0.4,0,0.7-0.3,0.8-0.6c0.1-0.2-0.2-0.5-0.2-0.5l0-0.6
	c0.2-0.2,0.4-0.4,0.5-0.7c-0.2-0.6,0-1,0.2-1.1c0.2-0.1,0.3-0.5,0.3-0.5L237,199.6z"/>
<path class="st1" d="M248.8,232.1l-0.2-0.4l0.5-0.4l-0.9-0.1l0.2-0.4l0-0.7l0.2-0.1l0.3-0.7l-0.3-0.2l0-0.3c0,0-0.2,0-0.3,0
	c-0.1-0.6-1.1-0.6-1.1-0.6l-0.7-0.1l0.2-0.6l-0.7-0.5l-0.3,0.2c0-0.2-0.1-0.4-0.1-0.6c-1,0.1-0.8-1.1-0.8-1.1l-0.4-0.4l0.4-0.5
	c0,0-0.1-0.1-0.2-0.2c0.7-0.9,0.6-1.5,0.6-1.5l0.1-0.3L245,222l0-0.4l-0.3-0.4l-0.1-0.6h-0.6l-0.3-0.9l-0.3,0l-1.5-0.9l-0.6-0.3
	l-0.6,0l-0.2-0.4l-0.5,1l-0.7-0.1l0.1-0.7l-0.4-0.3l0.2-0.6l-0.7-0.1v-0.6l-0.2-0.3l-0.2-0.6l-0.3,0.6l0,0.6l-0.4-0.1l-0.5-0.4
	l-0.6,0.2c-0.1-0.1-0.1-0.3-0.2-0.5c-1.3-0.1-1.2-1-1.2-1l0.1-0.3l-0.3-0.4l-0.5,0.3l-0.1-0.4l-1.1-0.5l0.4-0.4l0.1-1.1l0.9-0.5
	l-0.3-0.2l-0.4-0.6l0.4-0.3l-0.7-0.4l-0.1-0.6l-0.5-0.3l0.3-0.3l-0.1-1.5l0.2-0.2l-1-1.1l-1.2-0.9l0.2-0.8l-0.1-1.4l-0.4-0.3
	l-1.5-0.3c0,0-0.5,0.3-1,0.6c-1.1-0.2-1.6,0.9-1.6,0.9l-0.9,0.1l-0.7,0.6l-0.5,0.2l-0.7,0.5l-4.9-4c-0.1,0.2-0.4,0.4-0.4,0.4
	l-0.4-0.1l-0.3,0.4c0,0-1.2,0-1.5,0.8c-0.4,0-0.8,0-1.1-0.1c0,0-2.2,0.8-2.7,2c-0.2,0.5-0.5,1-0.9,1.4c0,0-1,0.7-1.2,1.2
	c-0.1,0.4-0.4,0.6-0.8,0.7c-0.1,0.2-0.1,0.4-0.2,0.6l-0.5,0.5l0,0.4l-0.8,0.5l0,0.6l-0.8,0.5c-0.1,0.8-0.6,1.5-1.2,1.9
	c0,0.3,0,0.6,0,0.6l-0.4,0c-0.2,0.3-0.4,0.5-0.6,0.7c-0.5,0.6-0.8,1.2-1,1.9c-0.4,0.2-0.9,0.5-0.9,0.5s0.3,1.2-0.8,1.3
	c0,0.3-0.1,0.8-0.1,0.8l-0.4,0l-0.5,0.9l-0.3,1.2c0,0-1.3-0.1-1.3,0.5c0,0.3-0.2,0.7-0.4,0.6c-0.2-0.1-0.9-0.2-0.9,0.2
	c0.1,0.1,0.1,0.3,0.1,0.3l-0.2,0.1l0.7,0.9l0,0.4l-0.9,0.5l-0.2,0.3l0.2,0.4l-0.2,0.4l-0.9,0.4l0,0.5l-0.4,0.3l-0.5-0.2l-0.3,0.4
	l0,0.4c-0.1,0.2-0.3,0.3-0.5,0.3c-0.4,0.1-0.8,0.4-1.1,0.8c-0.1,0.2-0.2,0.5-0.2,0.5l-0.5,0.6l0.1,0.1l9.4,10l0.1-0.1l0.5-0.8
	l-0.7-0.8v-0.4l0.2-0.4l0.3,0.3h0.5l0.5,0.4l0.4,0.5l0.4,0.1l0,0.6c0,0,1.2-0.2,0.9-0.9s-0.7-1.4-0.7-1.4l0-0.5l-0.5-0.9h0.9
	l0.3-0.4l1.1,0.3l0.9-0.4c0,0,0.2-0.7,0.7-0.5c0.1-0.1,0.1-0.5,0.1-0.9c0.3,0.1,0.7,0.4,0.7,0.4l0.4-0.2l0.6,0.2l0.6-0.5l-0.2-0.4
	l0.5-0.9l0.4,0.7l0.3-0.2l0.6,0.4l0.9-0.1l-0.2-0.3l0.9-0.6l0.4-0.7c0,0,0.3-0.6,0.7-0.3c0.4,0.3,1.4,1.1,1.4,1.1l0.3-0.3l2,1.5h0.4
	l0.4,0.6l0.6,0.5l0.4-0.2l1.1,0.6l0.2-0.4l0.3,0.2l0.6-0.4l1.5,0l0.2,0.4l0.7,0.4l0.6-0.4l0.6,0.1l0.9-0.5l0.3-0.4l0.9-0.2l0.6-0.4
	l0.4,0.3l0.5-0.6l0.9,0.1l0.5-0.9l-0.1-0.7c0,0,0.4-1.1,1.2-0.6c0.1-0.2,0.4-0.5,0.6-0.4c0.6-0.3,0.9-0.6,0.9-1c0-0.3,0.3-1.4,2-1.3
	c0.1,0.2,0.2,0.9,0.8,1c0.2,0.5,0.4,0.8,0.4,0.8l0.5,0.4l0.4-0.2l0.4,0.7l0.4-0.9l1.4,0.2l0.3,0.5h0.3l0.2,1.1l1.1-0.3l0,0.5
	l0.9,0.2l-0.1,0.7c0,0,2,1.1,1.8,1.8l0,0c0.1,0.1,0.5,0.5,0.5,0.5l0.2,1.1l0.6,0.5l0.7-0.5l0.1-0.5l0.5-0.9l0.7-0.1l0.2-0.6l0.6-0.1
	l0.1-0.9l-0.6-0.3L248.8,232.1z"/>
<path class="st1" d="M217.1,188.6l-0.8-0.4H216l-0.6,0.9l0.4,0.4l-0.8,0.9c0,0,0.1,1.1-0.6,1.1l-0.4,0.1c-0.5,0-1.1,0.1-1.6,0.3
	c-0.1-0.1-0.2-0.2-0.2-0.2l-0.4,0l0,0.4l-0.3,1.3l-0.4,0.5h-0.8l-0.4,0.4l-0.2,0.7l-1.2,0.1l-0.2,0.4l-0.7,0.3l-0.7-0.2l-0.4,0.2
	l-0.3-0.4l-0.9,0.2l-1.3,0.5l-0.5-0.1l-0.8,0.2l-0.6,0.1h-0.9l-0.9,0.5h-1.1l-0.5-0.2l-1.1,0.4l-1.8,0l-1.2-0.7l-0.7,0l-0.8-1
	l-0.3,0.1l-0.5-0.7l-1.1-0.1l-0.3-0.3l-0.8-0.1l-0.1,0.3l-0.3-0.4c0,0-2.2-0.6-2.9,0.9c-0.2,0-0.4,0-0.5,0l-0.2,0.6h-0.2l-0.6-0.6
	l-0.3,0.6l-0.3,0h-0.5l-0.2-0.6l-0.6,0.4l-0.5-0.1l-0.7,0.2l-0.4,0.1l-0.4-0.4l-0.1,0.4l-0.7,0.2l-0.5,10.1v0l0.9,3.6l0.9,0.4l0.3,0
	l0.4-0.4l0.6,0.3l0.9-0.5l0.3,0.4l0.5,0.3l0-0.4c0.1-0.1,0.2-0.1,0.4-0.2c0.4-1,1.1-0.6,1.1-0.6s0.2-0.5,0.4-0.9
	c0.5,0,1-0.4,1.1-0.9l1.9-0.2l0.6,0.3l0.1-0.6l1.5-0.7l1-0.1c0,0,0.4-0.3,0.6-0.6c1.2,0.4,1.8-1.1,1.8-1.1l0.4-0.1v-1l0.3-1l1.5-0.2
	l1-0.6l0.8,0l1.2-1.2l1.1-0.2l0.3,0.2l1.6-1.3l1.1,0.4l0.3,0.4l0.7-0.4l0.4,0.2l0.5-0.2l0.3,0.3l0.4-0.4l0.7,0c0,0,0.1-0.1,0.4-0.2
	c0.4,0.7,1.2-0.3,1.2-0.3l0.6,0.1l0.2-0.2l0.6,0.1l0.6-0.6c0,0,1.1,0.3,1.7,0.4c0.3,0.1,0.7,0,0.9-0.2l1,0.3l0.3-0.4l0.5-0.2l0.9,0
	l0.3-9.4L217.1,188.6z"/>
<path class="st1" d="M217.6,200.5l-0.7,0.3l0.2-3v0l-0.9,0l-0.5,0.2l-0.3,0.4l-1-0.3c-0.3,0.2-0.6,0.3-0.9,0.2
	c-0.6-0.1-1.7-0.4-1.7-0.4l-0.6,0.6l-0.6-0.1l-0.2,0.2l-0.6-0.1c0,0-0.8,1-1.2,0.3c-0.2,0.1-0.4,0.2-0.4,0.2l-0.7,0l-0.4,0.4
	l-0.3-0.3l-0.5,0.2l-0.4-0.2l-0.7,0.4l-0.3-0.4l-1.1-0.4l-1.6,1.3l-0.3-0.2l-1.1,0.2l-1.2,1.2l-0.8,0l-1,0.6l-1.5,0.2l-0.3,1v1
	l-0.4,0.1c0,0-0.5,1.5-1.7,1.2c-0.2,0.2-0.6,0.6-0.6,0.6l-1,0.1l-1.5,0.7l-0.1,0.6L190,207l-1.9,0.2c-0.1,0.5-0.5,0.9-1.1,0.9
	c-0.2,0.4-0.4,0.9-0.4,0.9s-0.7-0.4-1.1,0.6c-0.1,0.1-0.3,0.1-0.4,0.2l0,0.4l-0.5-0.3l-0.3-0.4l-0.9,0.5l-0.6-0.3l-0.4,0.4l-0.3,0
	l-0.9-0.4l1.8,6.8l0.5,0.5l0,0l5.8,7.3l1.3,1.9l2.7,3.1l0.5-0.6c0,0,0.1-0.3,0.2-0.5c0.3-0.4,0.7-0.6,1.1-0.8c0.2,0,0.4-0.2,0.5-0.3
	l0-0.4l0.3-0.4l0.5,0.2l0.4-0.3l0-0.5l0.9-0.4l0.2-0.4l-0.2-0.4l0.2-0.3l0.9-0.5l0-0.4l-0.7-0.9l0.2-0.1c0,0-0.1-0.2-0.1-0.3
	c0.1-0.4,0.8-0.3,0.9-0.2c0.2,0.1,0.4-0.3,0.4-0.6c0.1-0.6,1.3-0.5,1.3-0.5l0.4-1.2l0.5-0.9l0.4,0c0,0,0.1-0.5,0.1-0.8
	c1.1-0.1,0.8-1.3,0.8-1.3s0.5-0.2,0.9-0.5c0.2-0.7,0.6-1.4,1-1.9c0.2-0.2,0.4-0.5,0.6-0.7l0.4,0c0,0,0-0.3,0-0.6
	c0.7-0.4,1.1-1.1,1.2-1.9l0.8-0.5l0-0.6l0.8-0.5l0-0.4l0.5-0.5c0.1-0.2,0.1-0.4,0.2-0.6c0.4-0.1,0.7-0.4,0.8-0.7
	c0.2-0.5,1.2-1.2,1.2-1.2c0.4-0.4,0.7-0.9,0.9-1.4c0.4-1.2,2.7-2,2.7-2c0.4,0.1,0.8,0.1,1.1,0.1c0.3-0.7,1.5-0.8,1.5-0.8l0.3-0.4
	l0.4,0.1c0,0,0.2-0.3,0.4-0.4L217.6,200.5z"/>
<path class="st1" d="M242.9,232.7l0.1-0.7l-0.9-0.2l0-0.5l-1.1,0.3l-0.2-1.1h-0.3l-0.3-0.5l-1.4-0.2l-0.4,0.9l-0.4-0.7l-0.4,0.2
	l-0.5-0.4c0,0-0.1-0.3-0.4-0.8c-0.6-0.1-0.7-0.7-0.8-1c-1.8-0.1-2,0.9-2,1.3c0,0.4-0.4,0.7-0.9,1c-0.2-0.1-0.4,0.2-0.6,0.4
	c-0.9-0.6-1.2,0.6-1.2,0.6l0.1,0.7l-0.5,0.9l-0.9-0.1l-0.5,0.6l-0.4-0.3l-0.6,0.4l-0.9,0.2l-0.3,0.4l-0.9,0.5l-0.6-0.1l-0.6,0.4
	l-0.7-0.4l-0.2-0.4l-1.5,0l-0.6,0.4l-0.3-0.2l-0.2,0.4l-1.1-0.6l-0.4,0.2l-0.5-0.5l-0.4-0.6h-0.4l-2-1.5l-0.3,0.3c0,0-1-0.7-1.4-1.1
	c-0.4-0.3-0.7,0.3-0.7,0.3l-0.4,0.7l-0.9,0.6l0.2,0.3l-0.9,0.1l-0.6-0.4l-0.3,0.2l-0.4-0.7l-0.5,0.9l0.2,0.4l-0.6,0.5l-0.6-0.2
	l-0.4,0.2c0,0-0.4-0.2-0.7-0.4c0,0.3,0,0.8-0.1,0.9c-0.6-0.2-0.7,0.5-0.7,0.5l-0.9,0.4l-1.1-0.3l-0.3,0.4h-0.9l0.5,0.9l0,0.5
	c0,0,0.4,0.7,0.7,1.4s-0.9,0.9-0.9,0.9l0-0.6l-0.4-0.1l-0.4-0.5l-0.5-0.4h-0.5l-0.3-0.3l-0.2,0.4v0.4l0.7,0.8l-0.5,0.8l-0.1,0.1l0,0
	l2.4,5.5l0.1,1l0.5,0.6l-0.2,0.2l0.9,1.4l0,0.7l-0.4,0.6l0,0.3l0.4,0.3l0.6,1.6l0.4,0.2l1.6,3.4c0,0,1,0.9,0.5,1.7
	c0.1,0.4,0.3,0.9,0.3,0.9l1.3,1.3l1.4,0.7l0.8,0.1l0.7,1.1l0.3,0.1l0.3,0.8l11.8-10.9l4.3,0.1v-2.2l1.5,0.1v-1.8l1.2,0.2l0.2-3.1
	l11-10.2l0,0C244.9,233.8,242.9,232.7,242.9,232.7z"/>
<path class="st2" d="M127.2,231.1l0.4-0.3v-0.4l-0.2-0.2l-0.4,0.2v-0.2l-0.5-0.6c0.1-0.1,0.2-0.2,0.2-0.3c0.1-0.2,0.2-0.4,0.1-0.7
	c-0.1-0.4-0.2-0.7-0.1-1.1c-0.2-0.3-0.9-1.3-0.9-1.3l-0.5,0.2l-0.4-0.2c0,0-1.3,0.5-1.4,0c-0.1,0-0.1,0-0.2,0L123,227
	c0,0-0.4,0.1-0.6,0.4c-0.2-0.1-0.4-0.2-0.4-0.2l-0.4,0.1c0.1,0.4,0.2,0.8,0.2,1.3c-0.1,0.4-0.3,1.6-0.2,2c0,0.1,0.1,0.3,0.1,0.5
	l4.3,0.2c0-0.1,0.1-0.4,0.2-0.2c0.2,0.3,0.5,0.7,0.7,1c0-0.2,0-0.4,0-0.4l-0.5-0.6l0.1-0.5h0.2l0,0.3L127.2,231.1z"/>
<path class="st1" d="M293.2,328.1c0-0.2,0.1-0.4,0.1-0.5c-0.4-0.5-0.1-1.2-0.1-1.4c0-0.2,0-0.3-0.1-0.8s-0.3-0.4-0.5-0.4
	c-1.2-0.6,0-1.4,0-1.4v-0.4l-0.3-0.3l0-0.4l-0.9-0.6v-0.9h-0.2c0-0.5-0.2-0.9-0.5-1.3c-0.2-0.2,0.1-0.8,0.1-1.2s-0.3-0.4-0.5-0.5
	c-0.4-0.3-0.1-1-0.1-1c0-0.4-0.1-0.8-0.2-1.1c-0.1-0.4-0.1-0.4,0.3-0.6c0.4-0.2-0.1-0.7-0.1-0.7s0.2-0.4,0.3-0.6
	c-0.5,0-0.4-0.6-0.6-0.7c-0.2-0.1-0.6-0.3-0.6-0.4c0-0.2,0-0.4-0.2-0.5c-0.3-0.2-0.4-0.5-0.3-0.8c0.1-0.3-0.5-1.4-0.5-1.4l0.2-0.9
	l-0.4-0.4c0,0,0-0.6,0-1s0.3-0.4,0.5-0.5c0-0.3,0-0.6,0.2-0.8c0.2-0.3,0.3-0.6,0.3-1l-0.9-0.5l-0.3-0.8l-0.3,0.1l-0.2-0.4l-0.5,0
	c-0.1-0.2-0.2-0.5-0.3-0.7c0.4-0.2,0.8-0.5,1-0.9c0.5-0.6-0.6-0.9-0.6-0.9v-0.3c-0.1,0-0.2,0.1-0.2,0.1c-0.5,0.2-1,0.3-1.5,0.1
	c-0.4-0.2-0.7-0.6-0.6-1c0.1-0.8-0.6-0.9-0.7-0.8c0-0.3-0.2-0.6-0.4-0.7c-0.3-0.2,0.2-0.5,0.3-0.6c0.2-0.1,0.2-0.2,0-0.3
	s-0.1-0.4,0-0.7s0-0.5-0.3-0.5c-0.3,0-0.4-0.2-0.2-0.5c0.2-0.3-0.5-0.5-0.5-0.7s-0.5-0.3-0.9-0.5s-0.3-0.9-0.2-1.1s0.1-0.4,0.4-0.5
	c0.3,0,0.1-0.6-0.1-0.6c-0.5,0-0.9-1-0.9-1c-0.2-0.1-0.4-0.2-0.6-0.3c0.4-0.5,0-0.9-0.3-1.1c-0.2-0.1-0.2-0.3-0.1-0.5
	c0.1-0.1,0.2-0.2,0.3-0.2c-0.1-0.4-0.8-0.3-0.8-0.5s-0.1-0.3-0.4-0.5c-0.2-0.2,0-0.3,0-0.3l1-0.5c0-0.4,0-0.8-0.1-1.2
	c-0.1-0.6-0.9-0.9-0.9-0.9h-0.3l-7.1-0.3l0,0.5l-16.7-0.8l-0.2,4.1l-12.4-0.7l-0.2,4.3l-6.4-0.3l-4.2,4l-0.1,0.1l1.7,0l-0.2,4.3
	l2.2,0l-0.3,6.6l-2.1-0.2l-0.3,6.3l-0.2,0l-1,17l40.3,1.5l2-0.2l15.8,0.6l2.3,0.2v-1.5l0.4-0.3l-0.2-0.2c0,0,0-1.2,0-1.6
	c0-0.4,0.4-0.3,0.7-0.2C293.5,329,293.2,328.1,293.2,328.1z"/>
<path class="st1" d="M176.9,65.7c-1.4-0.1-2.9-0.2-4.3-0.3c-18.7-1.2-35.5-2.3-38.4-2.5c0.1,0.3,0.3,0.5,0.7,0.4
	c0,0.2,0.2,0.4,0.5,0.5c0.2,0,0.6,0.2,0.5,0.5c-0.1,0.3-0.2,0.6-0.1,0.8c0.1,0.4,0,0.9-0.3,1.2c0,0.4,0,0.8-0.3,0.8
	c-0.2,0-1,0.6-2,0.3c-0.4,0.2-1,0.5-1,1.1c0.4-0.1,0.9,0.2,0.6,0.6c-0.3,0.5-0.4,1-0.3,1.6c0.1,0.6-0.3,1-0.6,0.8
	c-0.1-0.2-0.4-0.2-0.6,0c-0.1,0-0.1,0.1-0.1,0.1c-0.2,0.3-0.5,0.8-1.1,0.6c-0.4,0.4-0.7,1-0.8,1.6c0,0.5-0.1,0.9-0.4,1.3
	c0.2,0.5,0.4,1.9-0.5,2c-0.3,0.8-0.6,1.7-1.2,1.8c-0.4,0.4-0.6,0.6-0.6,0.6s1,2.3-1.1,3.2c-0.6,0.3-1.1,0.5-1.1,0.5v0.4l0.4,0.7
	c0,0-0.6,2.1-1.4,1.4c-0.2,0.1-0.4,0.4-0.2,0.7c0,0.4,0.1,0.8,0.1,0.8l0.3,0.2l0.2,0.5l-0.4,0.7c0,0,0.9,0.3,0.9,0.4
	c-0.1,0.4-0.1,2,0.5,2.4c0.2,0.2,0.1,0.5-0.3,0.6l-0.9-0.4l-0.8,0.3l0,0.6l-0.6-0.3l-1.1,0.8l-0.1,0.6c0,0-0.4,0.3-0.4,0.6
	c-0.3,0.1-0.7,0.2-1,0.2l-0.4,0.2c0,0-0.8-0.1-0.8,0.2c0.2,0.3,0,0.7-0.3,0.8c-0.1,0-0.2,0.1-0.2,0.1c-0.5,0.1-1,0.5-1.2,1
	c0.1,0.1-0.3,0.8-0.3,0.8l-0.6-0.4l-0.6,0.2l-0.3,0.5l0,0.3l-0.7,0.4l-0.2-0.4l-0.5,0.3H113l0,1.1c0,0-0.6,0.4-0.7,0.8
	c-0.1,0.4-0.4,0.5-0.6,0.6c-0.3,0.2-0.5,0.6-0.5,1c-0.1,0-0.3,0-0.3,0l-0.2-0.2l-0.5,0.1l0.1,0.4c0,0,0.2,0.9-0.1,1.3
	c-0.2,0.2-0.2,0.8-0.1,1.4c0.2-0.1,0.5-0.2,0.8-0.2c0.4-0.3,0.8-0.6,1.3-0.7c0.4,0,0.8-0.2,1.2-0.4c0.1,0.4,0.5,0.6,0.9,0.4
	c0,0,0,0,0,0c0.4-0.2,0.7-0.3,0.7-0.3l0.2,0.3l0.7-0.1c0,0,1.3-1.7,1.8-1.4c0.3,0.2,0.8,0.2,1.1-0.1c0.5,0,0.9,0,0.9,0l0.3-0.4
	l0.6,0.2c0,0,1.8-0.8,2.2,0.1c0,0.2-0.1,0.4-0.1,0.5l0.8,0l0.7,0.5l0.5,0l0,0.4c0,0,1,0.3,1.7-0.3c0.2-0.2,0.4-0.4,0.7-0.2
	c0.4-0.4,1-0.7,1.1-1.1c0.2,0.1,0.4,0.2,0.6,0.2c0,0,2-1.5,2.6-0.9c0.2,0.2,1.1,0.1,1.2,0.4s0.5,0,0.8,0.3l1-0.2c0,0,0.3,0.6,2,0.3
	c0.2,0.1,0.5,0.2,0.7,0.3l0.8-0.3l0.4,0.4l0.8-0.6l0.4,0.4c0.4,0,0.8-0.1,1.1-0.5c0.2,0.1,0.4,0.1,0.6,0.1l0.4-0.2l0.9,0.6
	c0,0,0.6-0.8,1.2-0.8s1.6,0,2.4-0.5c0.6-0.1,1.6-0.2,2-0.4c0.2,0.2,0.4,0.2,0.8,0c0.4-0.2,1.2-0.2,1.9,0.2s1.6,0.7,2.4-0.1
	c0.1,0.1,0.3,0.2,0.4,0.4l0.2-0.3h0.3c0,0,1.4-1.2,2-0.3c0.6-0.2,1.1-0.5,1.9,0c0.4,0.1,1.9,0.8,2.4-0.2c0.7-0.1,1.4-0.3,1.9,0.1
	s0.7,0.4,0.9,0.8c0.6,0,1.2-0.2,1.4,0c0.2,0.2,0.6,0.3,1.2-0.3c0.6,0,1.7,0,3,0.1c1.5,0.1,3.1,0.2,4.6,0.3l0.8-0.2l0.5,0.3h0.2
	l0.2-2.6l0.2-0.1l1.3-19.5l-0.5,0L176.9,65.7z"/>
<path class="st1" d="M219.1,129.8l-0.3-0.1c0,0,0.2-1,0.2-1.4c-0.9,0-1.1-1-1.8-1.5s-0.9-2.3-0.9-2.3l-0.7-0.1l0.1-1.4l-0.4-0.1
	l0.1-1.9l-1.4-0.2v-1l-0.6,0l-0.1-0.5c0,0-1.2,0.1-2.2,0s-2.8-1.3-2.9-1.8c-0.1-1.1-1.4-1.2-1.4-1.5c0-0.3-0.2-0.4-0.2-0.9
	s-0.4-0.5-0.8-0.5c-0.4,0-0.3-0.7-0.6-0.8c-1.1-2.1-3-2-3-2s0-0.6,0-1.1c-2.9-0.2-2.9-1.3-2.9-1.3s-1.9-0.3-2.5-0.3
	c0-0.4-0.7-0.3-1.2-0.2c-0.5,0.1-0.8,0.7-0.8,0.7l-0.7-0.2c0,0,0,0.9-0.1,1.3c-0.9-0.2-0.9,0.3-1.4,0.3c-0.2,0.6-0.8,1.1-1.4,1.3
	l-0.3,2.1l-0.7-0.2v0.4h-1.4l0.2-0.7l-0.7-0.1v-0.7l-2.1-0.2l-0.1-0.6l-1.4-0.2v-1l-0.6-0.1l0.6-9.2l-10-0.4h-0.2l-0.5-0.3l-0.8,0.2
	c-1.5-0.1-3.2-0.3-4.6-0.3l-0.3,0.6l1,0.4c0,0-0.9,1.5-0.1,2.5l-0.4,0.3c0.2,0.3,0.3,0.7,0.4,1c0.3,0,1.2,0.1,1.2,0.1l0.4-0.2
	c0,0,1.3,1.1,1.8,0.6c0.3,0.3,0.4,0.6,0.3,1c0.3,0,0.4,0,0.4,0s0.2,0.5,0.4,0.6c-0.1,0.3-0.2,0.5-0.5,0.6c-0.2-0.2-0.4-0.3-0.4-0.3
	l-0.2,0.2c0,0,0.7,0.8,0.2,1.5c0.4,0.3,0.5,0.9,0.1,1.4c-0.1,0.1-0.2,0.2-0.3,0.2c0.1,0.5,0.2,1.4-0.7,1.3c-0.2,0.1-0.4,0.2-0.5,0.4
	l-0.5,0.6l-0.2-0.2l-0.9-0.3l-0.3,0.3l0.3,0.4l-0.4,0.2l-0.1,1.2l1.5,0.3v1.5l0.7,0.1c0.1,0.5,0.2,1,0.1,1.6
	c0.5,0.3,0.5,1.4-0.8,1.6c-0.8,0.9-1.1,2.6-1.1,3c0.1,0,0.3,0,0.4,0l-0.2,1.4H170l0,1.3l0.3,0l-0.1,0.7l-0.7,0.1l-0.2,0.7l0.7,0
	l0.1,1.4c0,0,1.1,1,1.8,1c0,0.4,0.1,0.9,0.3,1.3l0.6,0.1l0.5,0.8c0.1,0.6,0.6,1.1,1.1,1.3c0,0.4,0,0.9,0,0.9l0.7-0.1
	c0,0-0.2,0.9,0.5,0.9c0.2,0.3,0.4,0.6,0.7,0.8l0,0.6h0.8l-0.1,1.3h0.7l0,0.6l0.8,0.1c0,0,0.2,1.5,1.2,1.4c0,0.5,0,1.4,0,1.4l0.6,0.1
	c0.7,0.3,1.2,0.9,1.5,1.6c0.5-0.7,1.8-1.4,2-1.6c0.2-0.1,0.4-0.3,0.7-0.3c0.1,0,0.2,0,0.3-0.1c0.4-0.1,1.2-0.9,1.6-1.2
	c1-0.7,1.1-2.1,1.1-3.1s1.1-1.3,1.5-1.4c0.2-0.4,0.6-0.6,1.1-0.8c0.2,0.1,0.3,0.2,0.4,0.4c0.5,1.7,1.5,1.2,1.5,1.2l0.1,1.2l0.5,0.2
	c0.1,0.1,0.2,0.3,0.3,0.4c0.7-0.6,1.3-0.5,1.5-0.3c0.3,0.3,0.7,0.5,1.1,0.7c0.2,0.4,0.5,0.6,0.9,0.8l0.4,0.7
	c0.1-0.1,0.2-0.2,0.3-0.3c0.8-0.1,0.6-1.2,0.6-1.2l19,0.9c0.1-0.5,0.2-1.2,0.2-1.4c1,0.2,1.4-2.1,1.4-2.1l0.2-4.9h0.4L219.1,129.8z"
	/>
<path class="st1" d="M180.4,141.5l-0.6-0.1c0,0,0-0.9,0-1.4c-1,0.1-1.2-1.4-1.2-1.4l-0.8-0.1l0-0.6h-0.7l0.1-1.3h-0.8l0-0.6
	c-0.3-0.2-0.5-0.4-0.7-0.8c-0.7-0.1-0.5-0.9-0.5-0.9l-0.7,0.1c0,0,0-0.5,0-0.9c-0.6-0.2-1-0.7-1.1-1.3l-0.5-0.8l-0.6-0.1
	c-0.1-0.4-0.2-0.9-0.3-1.3c-0.7,0-1.8-1-1.8-1l-0.1-1.4l-0.7,0l0.2-0.7l0.7-0.1l0.1-0.7l-0.3,0l0-1.3h0.3l0.2-1.4
	c-0.1,0-0.3,0-0.4,0c0-0.4,0.3-2.1,1.1-3c1.3-0.2,1.3-1.3,0.8-1.6c0.1-0.5,0-1.1-0.1-1.6l-0.7-0.1v-1.5l-1.5-0.3l-0.1,1.1
	c0,0-0.1,0.6-1.4,0.4c0,0.2,0.1,0.4-0.3,0.4l-0.3,0.3l-0.6-0.2v0.3h-3.2l-0.1,2c0,0-1.6,1.2-1.6,1.7c0,0.5-0.1,1.2-0.1,1.2l-0.5,0
	l-0.1,0.7l-2.1-0.3l-0.2,0.4l-0.7,0.4c-0.1,0.3-0.2,0.5-0.4,0.7c-0.3,0.2-0.5,1.1-0.7,2.3c-0.3,0.2-0.6,0.4-0.9,0.7
	c-0.5,0-1.4,0-1.4,0l0.4,0.2l-9.3-0.6l0.2,0.3l-0.6,0.6l-0.1,0.7l-0.5,0.4l0.5,0.6l-0.4,0.8l0.5,0.7l0.1,0.1l0.8,0.4l-0.3,0.4
	l0.5,0.9l0.5,0.2l0.9,1.4c0,0,0.6,0.6,0.9,0.6c0.1,0,0.6,1.1-0.1,1.5c-0.1,0.2-0.2,0.4-0.3,0.6l-0.6-0.1l-0.4,0.4l0.6,1
	c0,0-1.2,0.1-1.1,0.5c0.1,0.3,0.2,0.6,0.3,0.8c0.2,0.2,0.1,0.7-0.5,0.8c0,0.4-0.1,0.8-0.1,1.2l-0.3,0.4l0.4,0.4l-0.5,0.4
	c0,0,0.3,2,0.9,1.2c0.1,0.1,0.1,0.2,0.2,0.2l1-0.3l3.4,0.2c-0.1,0.2-0.2,0.4-0.5,0.5c-0.4,0.1-0.6,0.9-0.4,1.3s0.3,0.6,0,0.9
	c0.1,0.3,0.2,0.6,0.2,0.6l-0.2,0.3l0,0.7l-0.2,0.8l-0.7,2.2l0,0l0.1,0.5c0,0-0.9,1.2-0.3,1.6c-0.3,0.3-0.4,0.3-0.4,0.3
	c-0.1,0.4-0.2,0.8-0.3,1.2l10.6,0.8h0.1l0.5-0.6c0,0,0.4,0.3,0.7,0.6c0.5-0.5,0.8-0.1,0.9,0.3c1.9-1.3,2.2,0,3.1-0.6
	c0-1,1.3-0.5,2-0.9c0.8,0.4,1.7-0.6,1.9-1c0.6,0,0.5-0.3,0.5-0.5c0.3-0.2,0.4-1,0.5-1.2c-0.4-0.3,0.6-0.9,0.9-1.2
	c-0.5-1-0.2-1.6,0.3-1.9c1-0.8,1.2-2.6,1.2-2.6l1,0l0.1,0.4h1.2l0-0.6l2.2,0.1v0.4c0,0,0.6,0.1,1,0.1c0.7-0.3,0.5-1.8,0.5-1.8
	l1.5-0.4c0-0.3,0-0.6,0.1-0.9c0,0,0.8,0,1.1,0c0-0.2,0.1-0.3,0.2-0.5C181.6,142.4,181.1,141.8,180.4,141.5z"/>
<path class="st1" d="M135.5,63.8c-0.2,0-0.5-0.2-0.5-0.5c-0.4,0.1-0.6-0.1-0.7-0.4c0-0.2,0-0.3,0.1-0.4c-1.2-0.8-0.8-1.4-0.5-1.8
	c-0.3-0.6-0.1-0.8,0.2-0.8c-0.3-0.4-0.2-0.8,0-1.2c-0.5-1.1,0.5-1,0.5-1l-0.2-0.7l0.9-0.5l-0.6-0.8l-0.1-0.5c-0.4,0-0.9-0.1-1.3-0.2
	c0.1-0.6-0.9-1.1-1.4-1c-0.5,0.2-0.2,1.2-0.2,1.2s0,0.2-0.3,0.3c0,0.3,0,0.3-0.2,0.3c-0.4-0.4-0.7-0.2-0.9-0.3
	c-0.4-0.4-0.9,0.2-0.9,0.2l0,0.9l-0.4,0.1v0.7c-0.1-0.1-0.2-0.2-0.4-0.3c-0.7,0.7-1.2,0.8-1.6,0.7s-0.8,0.7-0.9,1.1
	c-0.1,0.4-0.9,0.6-1.3,0.5c-0.2,0.3-0.5,0.3-0.8,0.5c-0.1,1.2-0.7,0.8-0.7,0.8l-0.2,0.6c0,0-0.2,0-0.3,0c-0.2-1.1-1.1-0.3-1.3,0
	c-0.9-0.8-2.2-0.2-2.4,0.1c-0.1,0.2-0.4,0.2-0.6,0.2l-0.2,0.5l-0.2,0.1l-0.5-0.7l-0.5,0.4l0.4,0.6l-0.2,0.3l0.2,0.6l-0.4,0.4
	c0,0.3,0,0.5,0.1,0.8c-0.8,0.6-0.4,0.8-0.4,1c-0.6,1.2,1,1.7,1.4,1.6c0,0.4,0.8,2.1,0.8,2.1l-0.2,0.2v0.5l-0.5,0.3
	c0,0-0.1,0.3-0.2,0.4c-0.8,0.3-1.1,0.1-1.1-0.3c0-0.2-0.2-0.5-0.4-0.6l-1.5,0l-0.3,0.2l-0.9,0.2c0,0-0.4-1-0.4-1.5
	c0.1-0.5-0.6-1.2-1.3-1.3c-0.7-0.1-0.9-1-0.9-1c-0.2,0-0.4,0-0.7,0c-0.3-0.4-1,0-1,0l-0.2-0.2l-1.1-0.1c0,0-0.1,0-0.4,0.3
	c-0.4-0.4-1-0.6-1.6-0.4c-0.1-1.3-0.7-1.6-0.8-2c0-0.4-0.2-0.4-0.4-0.4c0-1.4-1-1.1-1.2-0.7c-0.1-1.2-1.4-1.5-1.4-1.5l-0.7,0.7
	l-0.1-0.6l-0.4-0.1l-0.1-0.5c-0.1-0.1-0.1-0.1-0.2-0.2c-0.1,0.1-0.2,0.1-0.3,0.2c-0.4,0.2-0.5,0.1-0.5,0.1l-0.4,0.2l0.2,0.5L99.9,62
	l-0.1,1.4c0,0-0.3,0.7-0.5,1.1s-0.6,0.2-0.8,0.5c-0.3,0.5,0.4,1.3,0.8,1.2s0.5,0.3,0.5,0.3v1.1l0.5,0.2l-0.2,0.5
	c0,0.1,0.1,0.2,0.2,0.4c-1,0.1-0.9,1.2-0.9,1.2L99.1,70v0.4l-0.8,0.5l0.2,0.3c0,0,0,0.2-0.1,0.5c-1.6,0.4-1.4,1.4-1.4,1.4l-1-0.4
	L95.6,72l-0.4,0.3l-0.1-0.5l-0.6-0.6l-0.6,0.1c0,0,0.1,0.3,0.1,0.4c-0.3,0-0.5,0.2-0.8,0.5c-0.8-0.6-1.1,0.5-1.1,0.5l0.3,0.7
	l-0.3,0.3l0.5,0.6c0,0,0,0.4,0.1,0.7c-0.1,0.8,0.6,0.7,0.6,0.7l0.2,0.8l0.3,0.5c-0.1,0.1-0.2,0.3-0.3,0.4c0,0.3,0.1,0.5,0.3,0.7
	c0.2,0.1,0.3,0.4,0.2,0.6c0,0,0,0.1-0.1,0.1c-0.2,0.2-0.2,0.6,0,0.8c0.2,0.5,0.1,1-0.2,1.4c0.2,0.2,0.4,0.4,0.4,0.8L91,117.1h0.1
	l-0.1,1.1l22.5,1.8c0.6-0.5-0.2-1.1-0.2-1.1s0-0.5,0-0.8c-0.3-0.2-0.1-0.5,0.2-0.8c0-0.2-0.2-0.5-0.1-0.8c0.2-0.3-0.2-0.9-0.4-0.9
	s-0.2-0.4,0-0.9c0.3-0.7,0.2-1.5-0.2-2.1l0.2-0.5c-0.2-0.2-0.5-0.3-0.7-0.4c0.1-0.6,0.3-1.2,0.6-1.6c0.2-0.3,0.3-0.6,0.2-1
	c-0.2-0.2-0.1-1,0-1.3c-0.1-0.2-0.2-0.2,0.1-0.6s-0.9-0.4-1.1-0.6c-0.3-0.3-0.6-0.5-0.9-0.8c0,0-0.2,0.2-0.3,0.3
	c-0.4-0.3-0.7-0.7-0.8-1.2c-0.2-0.6-0.1-1.2,0.1-1.4c0.3-0.3,0.1-1.3,0.1-1.3l-0.1-0.4l0.5-0.1l0.2,0.2c0,0,0.2,0,0.3,0
	c0-0.4,0.2-0.8,0.5-1c0.2-0.1,0.5-0.2,0.6-0.6c0.1-0.4,0.7-0.8,0.7-0.8l0-1.1h0.9l0.5-0.3l0.2,0.4l0.7-0.4l0-0.3l0.3-0.5l0.6-0.2
	l0.6,0.4c0,0,0.4-0.7,0.3-0.8c0.2-0.5,0.6-0.9,1.2-1c0.3,0,0.6-0.3,0.6-0.7c0-0.1,0-0.2-0.1-0.2c0.1-0.3,0.8-0.2,0.8-0.2l0.4-0.2
	c0.3,0,0.7-0.1,1-0.2c0-0.3,0.4-0.6,0.4-0.6l0.1-0.6l1.1-0.8l0.6,0.3l0-0.6l0.8-0.3l0.9,0.4c0.3-0.1,0.5-0.4,0.3-0.6
	c-0.5-0.4-0.5-2-0.5-2.4c0-0.1-0.9-0.4-0.9-0.4l0.4-0.7l-0.2-0.5l-0.3-0.2c0,0-0.1-0.4-0.1-0.8c-0.2-0.2,0-0.6,0.2-0.7
	c0.8,0.8,1.4-1.4,1.4-1.4l-0.4-0.7v-0.4c0,0,0.5-0.2,1.1-0.5c2.1-0.9,1.1-3.2,1.1-3.2s0.2-0.3,0.6-0.6c0.7-0.1,0.9-1,1.2-1.8
	c0.9-0.1,0.7-1.5,0.5-2c0.2-0.4,0.4-0.9,0.4-1.3c0.1-0.6,0.4-1.2,0.8-1.6c0.6,0.2,0.9-0.3,1.1-0.6c0.1-0.2,0.3-0.3,0.5-0.2
	c0.1,0,0.1,0.1,0.1,0.1c0.2,0.2,0.6-0.3,0.6-0.8c-0.1-0.5,0-1.1,0.3-1.6c0.3-0.4-0.2-0.7-0.6-0.6c0-0.5,0.6-0.8,1-1.1
	c0.9,0.3,1.7-0.3,2-0.3c0.3,0,0.4-0.4,0.3-0.8c0.3-0.3,0.4-0.8,0.3-1.2c-0.1-0.3-0.1-0.6,0.1-0.8C136.1,63.9,135.8,63.8,135.5,63.8z
	"/>
<path class="st1" d="M173.5,107.3c0,0-0.1,0-0.4,0c0.1-0.4-0.1-0.7-0.3-1c-0.5,0.6-1.8-0.6-1.8-0.6l-0.4,0.2c0,0-0.9-0.1-1.2-0.1
	c-0.1-0.3-0.2-0.7-0.4-1l0.4-0.3c-0.7-1,0.1-2.5,0.1-2.5l-1-0.4l0.3-0.6c-1.3-0.1-2.4-0.1-3-0.1c-0.6,0.7-0.9,0.6-1.2,0.3
	c-0.2-0.2-0.8,0-1.4,0c-0.3-0.4-0.4-0.4-0.9-0.8s-1.2-0.2-1.9-0.1c-0.5,1-1.9,0.4-2.4,0.2c-0.8-0.5-1.2-0.2-1.9,0
	c-0.6-0.8-2,0.3-2,0.3h-0.3l-0.2,0.3c-0.1-0.1-0.3-0.2-0.4-0.4c-0.7,0.8-1.7,0.5-2.4,0.1s-1.6-0.4-1.9-0.2s-0.6,0.2-0.8,0
	c-0.4,0.3-1.4,0.3-2,0.4c-0.9,0.6-1.8,0.5-2.4,0.5c-0.6,0-1.2,0.8-1.2,0.8l-0.9-0.6l-0.4,0.2c-0.2,0-0.4-0.1-0.6-0.1
	c-0.3,0.3-0.6,0.5-1.1,0.5l-0.4-0.4l-0.8,0.6l-0.4-0.4l-0.8,0.3c-0.2-0.2-0.4-0.3-0.7-0.3c-1.6,0.3-2-0.3-2-0.3l-1,0.2
	c-0.3-0.3-0.7,0-0.8-0.3c-0.1-0.3-1.1-0.2-1.2-0.4c-0.6-0.6-2.6,0.9-2.6,0.9c-0.2,0-0.4-0.1-0.6-0.2c-0.1,0.3-0.7,0.7-1.1,1.1
	c-0.4-0.2-0.6,0.1-0.7,0.2c-0.7,0.6-1.7,0.3-1.7,0.3l0-0.4l-0.5,0l-0.7-0.5l-0.8,0c0-0.2,0.1-0.4,0.1-0.5c-0.4-0.8-2.2-0.1-2.2-0.1
	L120,102l-0.3,0.4c0,0-0.4,0-0.9,0c-0.3,0.3-0.7,0.4-1.1,0.1c-0.5-0.3-1.8,1.4-1.8,1.4l-0.7,0.1l-0.2-0.3c0,0-0.2,0.1-0.7,0.3
	c-0.4,0.2-0.8,0-0.9-0.4c0,0,0,0,0,0c-0.3,0.2-0.8,0.4-1.2,0.4c-0.5,0.1-0.9,0.3-1.3,0.7c-0.3,0-0.6,0.1-0.8,0.2
	c0.1,0.5,0.4,0.9,0.8,1.2c0.1-0.1,0.3-0.3,0.3-0.3c0.3,0.2,0.6,0.5,0.9,0.8c0.2,0.2,1.3,0.2,1.1,0.6c-0.2,0.4-0.2,0.5-0.1,0.6
	c-0.1,0.3-0.2,1.2,0,1.3c0.1,0.3,0,0.7-0.2,1c-0.3,0.5-0.6,1-0.6,1.6c0.2,0.1,0.5,0.3,0.7,0.4l-0.2,0.5c0.4,0.6,0.4,1.4,0.2,2.1
	c-0.2,0.4-0.3,0.8,0,0.9c0.3,0,0.6,0.7,0.4,0.9c-0.2,0.3,0,0.6,0.1,0.8c-0.3,0.3-0.6,0.7-0.2,0.8c0,0.3,0,0.8,0,0.8s0.8,0.6,0.2,1.1
	l0,0c0.3,0,0.5,0.2,0.7,0.3l-0.3,1.1l0.4,0.7c0,0,0.1,1.2-1.5,1.2c0.2,0.8,0.1,1.6-0.4,2.3c0.2,0.2,0.1,0.4-0.2,0.7
	c0.2,0.1,0.3,0.3,0.5,0.5l0.1,1.6l0.1,0.2l4,0l29.2,2.3l-0.5-0.7l0.4-0.8l-0.5-0.6l0.5-0.4l0.1-0.7l0.6-0.6l-0.2-0.3l9.3,0.6
	l-0.4-0.2c0,0,1,0.1,1.4,0c0.3-0.3,0.6-0.5,0.9-0.7c0.2-1.2,0.5-2.2,0.7-2.3c0.2-0.2,0.3-0.4,0.4-0.7l0.7-0.4l0.2-0.4l2.1,0.3
	l0.1-0.7l0.5,0c0,0,0.1-0.6,0.1-1.2s1.6-1.7,1.6-1.7l0.1-2h3.2v-0.3l0.6,0.2l0.3-0.3c0.3,0,0.3-0.2,0.3-0.4c1.3,0.2,1.4-0.4,1.4-0.4
	l0.1-1.1l0.1-1.2l0.4-0.2l-0.3-0.4l0.3-0.3l0.9,0.3l0.2,0.2l0.5-0.6c0.1-0.2,0.3-0.3,0.5-0.4c0.9,0.1,0.8-0.8,0.7-1.3
	c0.5-0.3,0.6-0.8,0.4-1.3c-0.1-0.1-0.1-0.2-0.2-0.3c0.5-0.7-0.2-1.5-0.2-1.5l0.2-0.2c0,0,0.2,0.1,0.4,0.3c0.2-0.1,0.4-0.4,0.5-0.6
	C173.6,107.8,173.5,107.3,173.5,107.3z"/>
<path class="st1" d="M151.9,169.6c0.8-0.5-0.3-1.6-0.3-1.6v-0.9c-0.1-0.1-0.2-0.3-0.3-0.4c-1.1,0.6-1.6-0.6-1.7-1.1
	c-0.1-0.5-0.2-1-0.4-1.4c-0.2-0.4-0.9-0.4-0.9-0.4l-0.1-0.4l0.2-0.4l0.6,0.3l0.2-0.5c-0.2-0.2-0.4-0.5-0.6-0.7
	c-0.1-0.3-0.2-0.6-0.4-0.8c0,0,0.1-0.2,0.1-0.4c0.6-0.1,0.7-1,0.4-1.4c-1-1.5,0.4-2.8,0.7-3.1c-0.1-0.4,0.2-0.9,0.4-1.1
	c0-0.1,0.1-0.1,0.1-0.2c0.1-0.4,0.2-0.8,0.3-1.2c0,0,0.1-0.1,0.4-0.3c-0.6-0.4,0.3-1.6,0.3-1.6l-0.1-0.5l0,0l-4.4-0.2l0.2-0.6l0-0.9
	l-4.8-0.3l-0.2,1.4c0,0-16.8-1.5-22.5-1.6c-0.5,0-0.9,0-1.2,0c0.4,0.2,0.8,0.5,1.1,0.8l-0.6,1h-0.5l-0.1,0.8l-0.3,0.7l0.6,1.4
	l0.7,0.7h0.2c0.2,0.4,0.4,0.7,0.8,0.9c0.5,0.3,0.6,0.8,0.8,1.1c0.2,0.3,0.8,1.5,1.4,0.9c0.2-0.2,0.6-0.3,0.8-0.1c0,0,0.1,0,0.1,0.1
	c0.3,0.2,0.6,0.4,0.9,0.4c0.3,0.1,0.6,0.3,0.8,0.6l1.2-0.2l0.2-0.1l0.7,0.2c0,0-0.1,1.1,0.6,0.9c0.2,0.4,0.3,0.9,0.3,0.9l0.6,0.1
	l-0.4,0.4c0,0.4,0.2,0.8,0.5,1c-0.1,0.1-0.3,0.2-0.4,0.2l-0.6-0.2l-0.1,1c0.3,0.7,0.4,1.5,0.1,2.2c0.1,0.1,0.1,0.2,0.1,0.4l-0.1,0.8
	l0.9,0.1c0,0,0,1.4,2,1.6c0,0.4,0,1.3-0.4,1.4c0,0.3,0,0.5,0,0.5l0.4,0.4c0,0-0.1,1,0.5,0.9l1.7,1.6l19.3,1.3c0-0.1,0-0.2,0-0.4
	c0.1-0.1,0.2-0.3,0.1-0.4c-0.2-0.1-0.2-0.4-0.2-0.4l-0.1-0.3l0.5-0.3v-0.5l0.4-0.2l0.2-0.6l0.9-0.2
	C152.7,170.3,152.3,170,151.9,169.6z"/>
<path class="st1" d="M165.8,171.4c-1.4-0.1-2.6,1.1-2.6,1.1l-0.7-0.2l-0.4,0.9h-0.3c0,0-0.4,1.1-0.7,1.7c-0.1-0.4-0.1-0.9,0-1.4
	l-0.2-0.5l0.3-0.4l-0.5-1.3l0.6-0.9l-0.9-1.2l-0.2-1.3l0.9-1.5c0-0.1,0-0.3-0.1-0.4c-0.9,0-0.4-0.9-0.1-1.5
	c-0.1-0.2-0.7-1.6-0.6-2.3c0.1-0.7-0.2-1-0.4-1.4c1-1.2,0-1.5-0.2-1.7c-0.2-0.6,0-1.2,0.4-1.7l0.1-1.6l-10.6-0.8
	c0,0.1-0.1,0.1-0.1,0.2c-0.2,0.2-0.5,0.8-0.4,1.1c-0.4,0.2-1.7,1.6-0.7,3.1c0.2,0.3,0.1,1.3-0.4,1.4c0,0.1-0.1,0.4-0.1,0.4
	c0.2,0.2,0.3,0.5,0.4,0.8c0.2,0.3,0.4,0.5,0.6,0.7l-0.2,0.5l-0.6-0.3l-0.2,0.4l0.1,0.4c0,0,0.8,0,0.9,0.4c0.2,0.4,0.3,0.9,0.4,1.4
	c0,0.5,0.6,1.7,1.7,1.1c0.1,0.1,0.2,0.2,0.3,0.4v0.9c0,0,1.1,1.1,0.3,1.6c0.4,0.3,0.8,0.7,1.2,1l-0.9,0.2l-0.2,0.6l-0.4,0.2v0.5
	l-0.5,0.3l0.1,0.3c0,0,0.1,0.3,0.2,0.4s0.1,0.3-0.1,0.4c-0.1,0.1-0.1,0.2,0,0.4c0,0.2,0.2,0.4,0.4,0.5c0.5,0.2,0.9,0.4,0.8,0.8
	c-0.1,0.4-0.3,0.8-0.7,0.9l0.6,0.8l0.6,0.3l1.4-0.5l0.1,0.4l0.6,0.4l-0.1,1l0.2,0.6l-0.2,1.1l0.8,0.2l0.4,0.3l-0.2,0.3l0.6,1.4
	l1.1-0.1l0.8-1.1l1,0.5l0.3,0.8l-0.5,1.2c0.8,0,2.3,0.2,4.4,0.4l0.1-0.9l0.6,0.1l0.5-8.3h2.1l0.2-3.6
	C166.8,171.5,166.4,171.4,165.8,171.4z"/>
<path class="st1" d="M183.8,145l0.8-3.7c-0.3,0-0.5,0.1-0.7,0.3c-0.2,0.2-1.5,0.9-2,1.6c-0.1,0.1-0.2,0.3-0.2,0.5
	c-0.3,0.1-1,0-1.1,0c0,0.3-0.1,0.6-0.1,0.9l-1.5,0.4c0,0,0.2,1.5-0.5,1.8c-0.4,0-1-0.1-1-0.1v-0.4l-2.2-0.1l0,0.6h-1.2l-0.1-0.4
	l-1,0c0,0-0.2,1.8-1.2,2.6c-0.5,0.4-0.8,0.9-0.3,1.9c-0.3,0.2-1.3,0.9-0.9,1.2c-0.1,0.3-0.2,1-0.5,1.2c0,0.2,0.1,0.5-0.5,0.5
	c-0.3,0.4-1.1,1.4-1.9,1c-0.7,0.5-2-0.1-2,0.9c-0.9,0.5-1.1-0.8-3.1,0.6c-0.2-0.3-0.4-0.7-0.9-0.3c-0.3-0.2-0.7-0.6-0.7-0.6
	l-0.5,0.6h-0.1l-0.1,1.6c-0.4,0.4-0.6,1.1-0.4,1.7c0.2,0.2,1.2,0.5,0.2,1.7c0.1,0.4,0.5,0.8,0.4,1.4c-0.1,0.7,0.5,2.1,0.6,2.3
	c-0.3,0.5-0.9,1.5,0.1,1.5c0,0.1,0.1,0.3,0.1,0.4l-0.9,1.5l0.2,1.3l0.9,1.2l-0.6,0.9l0.5,1.3l-0.2,0.4l0.2,0.5
	c-0.1,0.4-0.1,0.9,0,1.4c0.3-0.6,0.7-1.7,0.7-1.7h0.3l0.4-0.9l0.7,0.2c0,0,1.2-1.2,2.6-1.1c0.6,0,1,0.1,1.7-0.2
	c0.1,0,0.1-0.1,0.2-0.1c0.4-0.2,1.2-0.6,1.2-0.6c0.1-0.4,0.5-0.6,0.9-0.6c0.5-0.2,1.8-1,2.1-0.8c0.3,0.2,0.4,0.6,0.8,0.8l0,0
	l0.4-9.6l0.5-0.4l0-0.7l0.4-0.2l-0.2-0.7l1-0.5l0.7,0.2l1.1-2.3h0.4l0.1-0.4c0,0,0.8,0,1.1,0c0.5-0.5,0.9-1.1,1.2-1.8
	c1.6,0.1,1.8-0.8,1.8-0.8l0.7,0.4l0.2-0.4l0.8,0.6c0.2-0.1,0.5-0.2,0.7-0.4l-0.1-5.9l-0.4,0l-0.5-1.2l1.1-0.9L183.8,145z"/>
<path class="st1" d="M233.1,395.5c0-0.2,0.8-19.2,0.8-21.5h-0.2c-0.3-0.1-0.7-0.1-1-0.2c-0.2,0-0.5,0-0.7,0v0.2l-1.8-0.1l-1.8-1.3
	l-0.5-0.7c0,0-0.2-0.3-0.5-0.5c-0.2-0.2-0.3-0.3-0.5-0.2s-0.3,0.1-0.4-0.1c-0.1-0.1-0.4-0.2-0.5-0.1c-0.2-0.5-0.6-0.9-1.1-1.1
	l-0.5,0.2l-0.5-0.4l-0.9,0.4l-0.1-0.4l-0.9,0.2l-0.3-0.4l-0.9-0.6l-0.4,0.2c-0.1-0.1-0.2-0.1-0.3-0.2c0-0.5-0.7-0.6-0.7-0.6
	s-0.7-0.4-1.1-0.7c-0.1-0.3-0.2-0.6-0.3-0.9c-0.7-0.1-1.1-0.6-1.5-0.5c-0.3,0.1-0.6,0.2-0.8,0.2v-0.4c-0.3-0.3-0.5-0.6-0.8-0.8
	c-1.9,0.4-2.5-0.5-2.7-0.7c-0.7,0-1.4-0.9-1.4-0.9l-0.2,0.1c0,0-0.9-0.4-1.1-0.5c-0.1-0.3-0.4-0.6-0.7-0.7c-0.6-0.3-1.5,0.7-1.8,1
	c-0.3,0.3-0.8,0.6-1.2,0.7c-0.5,0.1-0.5,0.4-0.3,0.6c-0.6,0.1-0.6,0.7-0.5,1c0,0.2-0.1,0.5-0.3,0.5c-0.3,0-0.6,0.1-0.8,0.3l-1.2-0.1
	l-0.3-0.4l-0.4,0.6l-1.5,0.1l-0.6,0.5l-0.4-0.6h-0.3c-0.3,0.5-0.2,1.1,0,1.5c0.4-0.2,0.5,0.2,0.5,0.2l0,0.4l0.5,0.5l-0.1,0.4
	l0.3,0.3l0,1.2l-0.3,0.3l0.1,0.5c0,0-0.4,0.1-0.7,0.2c-0.1-1.7-1.3-1.8-1.3-1.8l-0.5-0.8l-2.9-1.8l-2.3-0.4l-1.6,0.4
	c-0.1,0.1-0.2,0.2-0.4,0.4c-0.4,0.1-1.3-0.3-1.3-0.3l-0.4,0.6l-0.3,0l-0.3-0.5l-0.4,0.2l-0.2,0.2l-0.7,0.4l-0.6-1.1l-0.8,2.3v0.4
	l-0.4,0.9l0.3,0.2l0.4-0.2l0.4,0.2l0.3,0.9l0.9,0.9c0,0,0.3,1.5-1.1,5.1l0.2,0.2l0.1,0.7c0.4,0.3,0.6,0.6,0.7,1.1
	c0.1,0.4,0.4,0.9-0.1,1.5c-0.3,0.3-0.5,1.5-0.7,2.3c-0.1,0-0.1,0-0.2,0c0,0-0.7,1.7-0.8,2.1c-0.1,0.4-0.3,0.8-0.5,1.2
	c0.1,0,0.3,0.1,0.4,0.1l0.1,0.4c0,0,0.8,0.3,0.9,0.6l0.4-0.2l1.1,0c0.3,0.3,0.6,0.5,1,0.7c0.3,0.1,1.6,0.9,1.6,0.9
	c0.2,0.3,0.3,0.6,0.4,0.9c0,0.2,0.1,0.5,0.3,0.6c0.1,0.1,0.6,0.8,0.6,0.8l0.1,1.4l0.2,0.2h0.4l0.2,0.4l0.1-0.4h1.1l0.9-0.4l0.5,0.2
	c0.5-0.1,0.9-0.2,1.4-0.2c0.4,0,1.8,0,2.3-0.5c0.3,0,1.9,0.4,1.9,0.4l1.4-0.2l1.9,0.2c0.4-0.2,0.8-0.2,1.2-0.2
	c0.6,0.1,0.7,0.1,1.1,0.4c0.3,0.3,1.3,0.4,1.5,0.3c0.1-0.1,0.1-0.2,0.2-0.3c0,0,0.4,0.4,0.4,0.4s0.9,0,0.9,0l0.5,0.2
	c0,0,0.4-0.6,1.2,0.4c0.4,0.2,0.8,0.5,1.2,0.7l1.5,0.2l0.7,0.7l0.7,0.2l0.5,0.5h0.9l0.4,0.2l0.4-0.5l1.6,0l2.8,1.2l0.9-0.1l0.2-0.2
	h0.2l0.4-0.5l0.5-0.2l1.4,0.2c0.7-0.2,1.7-0.4,2.3,0.2c0.4,0,0.7,0,0.7,0l1.7,1.3l0.9,0.2l0.3,0.3l0.6,0.1l0.1-0.4l0.7-0.4
	c0,0,0.6-0.3-0.1-1.1c-0.1-0.1,0.1-0.4,0.3-0.4c0.3-0.1,0.4-0.4,0.3-0.7c0,0,0,0,0,0C232.9,395.8,233.1,395.7,233.1,395.5z"/>
<path class="st1" d="M265.2,404.5c0,0-7.2-19.3-9.2-24.5l-3.7,0l0-1l-10.6-0.4v-2.1l-1.4,0l0.2-1.1l-4.3-0.2v-1c0,0-1.7,0-2.3,0
	c-0.1,2.2-0.8,21.2-0.8,21.5c0,0.2-0.2,0.3-0.1,0.6c0.1,0.3,0,0.6-0.2,0.7c0,0,0,0,0,0c-0.3,0-0.4,0.3-0.3,0.4
	c0.6,0.7,0.1,1.1,0.1,1.1l-0.7,0.4l-0.1,0.4l-0.6-0.1l0.4,0.3h0.4l0.9,0.9l0.4,0l1.7,2h0.7c0,0,1.4,1.7,2.5,2.1
	c0.4,0.1,1.2,0.3,1.5,0.8c0.2,0.5,0.5,1.1,0.5,1.1l-0.2,0.3c0.2,0.6,1.1,3.1,1.4,3.6c0.2,0.2,0.4,0.4,0.7,0.5l0.5,0.2l2.5,2.2
	c0.5,0.1,1.1,0.2,1.6,0.4c0.7,0.3,1.5,0.5,2.3,0.5c0.3,0.2,0.6,0.8,1.6,0.9l0.4,0.2h0.2l1.5,0.8l0.2-1.4l6.3-4.3l4.9,0.3l0-3.6
	l1.4,0.2L265.2,404.5z"/>
<path class="st1" d="M169.8,265.4l-1.5-1.1l0.7-0.3c0,0,0.4-0.8,0.6-1.2c-0.1-0.1-0.2-0.3-0.3-0.5c-0.2-0.4-0.3-0.9-0.4-1.4l-1-0.1
	l-0.5-1.1l-0.6,0.4l-0.1,0.4l-1.2,0l-0.2-0.4l-1-0.5l-0.9,0.7c0,0,0,0.4,0,0.7c-1,0.4-1-0.9-1-0.9l-0.1-0.2l0.1-0.4l-0.3-2l-0.9-0.5
	c0-0.4-0.2-0.7-0.6-0.9c0,0,0.1-1.2,0.1-1.5c-0.3-0.5,1.3-0.8,1.3-0.8l0.8-0.8l-0.2-0.6l0.2-0.3l-0.5-0.7l0.2-0.4l-0.2-0.4l0.6-1
	l0-0.4l-0.9-0.4l-0.5,0.1L161,249v-0.6l-0.6-0.9c0.2-0.2,0.4-0.4,0.6-0.6c-0.1-0.5-0.4-1-0.9-1.4l-0.1-0.4l0.4-0.3l-14.8-1l-0.7,0.5
	l-1.1,0.3l-0.6,0.4l-1.2-0.6l-0.6,0.2l-0.9-0.4c-0.6,0.1-1.2,0.4-1.6,0.8l-1,0.2c-0.3-0.1-0.6-0.2-0.9-0.3c-0.8-0.3-1.1-0.6-1.2-0.8
	l-0.3,0.1l0.3,0.4c-0.1,0.1-0.3,0.1-0.4,0.2c-0.4-0.4-1-0.5-1.4-0.1c-0.1,0-0.1,0.1-0.1,0.1c-0.1,0.3-0.4,0.5-0.6,0.6
	c-0.1,0.1-0.4,0.1-0.2,0.4c0.1,0.3,0,0.6-0.2,0.8c0.3,0.5,0.3,1.1-0.1,1.5c-0.6,0.8,0.4,2.1,0.4,2.1l0.8,1.5
	c-0.1,0.1-0.2,0.2-0.4,0.3c0.7,0.1,0.6,0.5,0.6,0.5v0.2c0.3,0.3,0.5,0.6,0.7,1l0.6,0.2l1.1,1.8h0.5l0.5,0.7l0.4-0.3l0.2,1
	c0,0,0.2,0.1,0.4,0.2c-0.1,0.8,0.5,1.5,1.3,1.6l0.2,0.8l0.7,0l0.7,0.7l1.3,0.4l0.3,0.5c0.2,0,0.4,0.1,0.6,0.1
	c0.4,0.6,1.9,0.7,1.9,0.7s0.4,0.4,0.7,0.7c0.5,0,0.6,0.4,0.4,0.6c0.6,0.5,2.3,1.3,2.3,1.3s0.8,1.2,1.1,1.5c0.2,0.4,0.5,0.6,0.3,0.8
	c-0.9,0.5-0.6,0.8-0.6,0.8s0.5-0.1,0.7-0.2c0.1,0.3,0.9,0.4,0.9,0.4l-0.2,0.7l1.2,0.6c0,0,0.2,0.6,0.4,0.9c-0.1,0.4,0.6,0.5,0.7,0.4
	c0.3-0.7,1.2,0.5,1.2,0.5l1,0.5l-0.2,0.9l0.3,0.3l0.7-0.1l0.1-0.7l0.7-0.3v-0.3c0,0,0.6-0.4,1-0.8s0.1-0.7,0.1-0.7l1-1.1l0.9,0.4
	l0.1-0.5l0.6-0.1l0.2,0.4l0.4,0.2l0.8,0.9l7.5,0.4l-0.4-0.4c-1.1-1.1,0.1-1.5,0.1-1.5l-0.6-1.4h0.3l0.7-0.3c0-0.3-0.1-0.6-0.1-0.9
	C170,266,169.8,265.4,169.8,265.4z"/>
<path class="st1" d="M304.6,397.9l0.1-5.1h-0.4l0.2-12.7l-49-1.1c0.1,0.2,0.2,0.6,0.5,1.2c2,5.2,9.2,24.5,9.2,24.5l0,2.6l-1.4-0.2
	l0,3.6l-4.9-0.3l-6.3,4.3l-0.2,1.4l0.1,0.1l0.7,0.1l0.5,0.2l2.1,0.4l1.4,1.1l0.4,0.5l0.7-0.3l0.2-0.3l1.8-0.5l2.5,0l0.4-0.4l2.5,0.2
	l0.9-0.2l0.5,0.2l0.5-0.2l0.5,0.2l0.4-0.2l0.1,0.3c0,0,2.1,1,2.6,2.6c0.1,0.1,0.3,0.2,0.4,0.4l1.9,3.7c0,0,1.6,3.8,0.8,3.5
	c0.2,0.3,0.4,0.5-0.2,1.1c0,0.1,0,0.1,0,0.2l-0.4,0.2l-0.2,0.3c0,0-0.4,0-0.3,0.7c-0.2,0-0.4,0-0.4,0l0.4,0.5c0,0.4,0.1,0.7,0.3,1
	c0.6,0,1.2,0.1,1.8,0.2c0.4,0.4,0.7,0.9,2.5,1.5c0.2,0.3,0.4,0.5,0.5,0.3c0.1-0.1,0.2-0.2,0.3-0.3l-0.2-0.2l0.2-0.2l0.1-0.3l0.1,0.4
	l0.2-0.1h0.2l-0.2-0.7l0.4-0.3l0.5-0.2l0.4,0.4c0,0,0.2,0.1,0.8-0.1c0-0.2,0.2-0.4,0.4-0.5c0.3-0.1,0.6-0.4,0.9-0.6
	c0.2,0,0.4,0,0.6,0l1.2,0.3l0.3,0.4c0.2,0.1,0.5,0.2,0.7,0.3l1.2-0.5l-0.4-0.7c0,0-0.2-0.1,1.1-2c0.2-0.1,0.3-0.2,0.3-0.2
	s0.2-2,1.5-2.3c0.8-0.5,1.6-1.1,2.3-1.8l0-2.1l7.7,0.2l-0.4-0.3v-0.7h-0.4v-0.4l0.7-1.4h0.7l0-0.8l1.2,0.2l0.4-0.2l0.3-1.7l1.9-5.2
	l1.5-6L304.6,397.9z"/>
<path class="st1" d="M135.8,243.9c0-0.1-0.1-0.1-0.1-0.2l-0.1-1.6l-0.4-0.3h-0.4l-0.2,0.4l0.4,0.4l0.1,0.4h-0.3l-0.5-0.5l-0.3,0
	c-0.2-0.1-0.4-0.2-0.6-0.4c-0.2-0.2-0.3-0.3-0.5-0.4c-0.1-0.1-0.2-0.2-0.1-0.4c0.1-0.2,0.6-0.7,0.1-1c-0.4,0.1-0.8-0.1-1-0.4
	c-0.3-0.5-0.9-1.3-0.9-1.3s-0.2-0.4-1.1,0c-0.3-0.1-0.9-0.2-0.9-0.2l-0.3-0.5l-0.2-0.5l-0.3,0.1l-1.1,0v-0.2h-0.2
	c-0.1-0.3-0.3-0.5-0.5-0.7c0.1-0.2,0.2-0.4,0.2-0.4s0.2,0.1,0.3-0.2c-0.1-0.1-0.1-0.1-0.2-0.2l0-0.4l-0.7-0.2l0.2-0.2l-0.4-0.4
	l-0.2,0.2l0-0.3l0.1-0.3h0.5v-0.2l-0.2-0.2l0-0.5l-0.2,0.1l-0.2-0.2l0.3-0.4c0.1-0.6,0-1.2-0.2-1.7l0,0l-4.3-0.2
	c0.1,0.5,0.2,1,0.2,1l0,1.6l-0.4,1.8l0.2,0.2l-0.4,0.3l0.2,0.2l-0.2,0.4l-0.3-0.2l-0.2,0.2c0.1,0.7,0.1,1.5,0,2.2
	c-0.1,0.4-0.4,1.3,0,1.5c0,0.1,0,0.5,0,0.5l0.3,0.2l0,0.3h0.2c0,0,0.1-0.4,0.9-0.1c0.2,0,0.3,0.1,0.4,0.2l0.5,1.2l0.2,1.9l0.8,2.6
	l0.2,0.2v0.7l0.4,0.4l-0.4,1.6c-0.1,0.6-0.2,1.2-0.3,1.8c-0.2,0.5-0.5,1.8-0.4,2.3c0.2,0.7,0.2,1.5,0.3,2.2c0.1,0,0.1,0.1,0.2,0.2
	v0.4c0,0,1.6,0,1.4,1.7c0.2,0.1,0.3,0.2,0.5,0.2l0,0.3l0.2,0.2l0.2,0.8l0.2,0l0,0.4c0,0,0.7-0.5,1-0.3c0.1,0.1,0.3,0.3,0.5,0.5
	l0.2-0.3l-0.7-1.7l-0.2-1.9l2.9,0.1l0.2-1.3l3.4,0.2l0.1-3.1v-0.2c0,0,0.1-0.4-0.6-0.5c0.1-0.1,0.3-0.2,0.4-0.3l-0.8-1.5
	c0,0-0.9-1.4-0.4-2.1c0.4-0.4,0.5-1,0.1-1.5c0.2-0.2,0.3-0.5,0.2-0.8c-0.1-0.3,0.1-0.4,0.2-0.4c0.3-0.1,0.5-0.4,0.6-0.6
	c0.4-0.4,1-0.5,1.4-0.1c0.1,0,0.1,0.1,0.1,0.1c0.1-0.1,0.3-0.1,0.4-0.2l-0.3-0.4L135.8,243.9z"/>
<path class="st1" d="M204.4,327.6c-0.4-0.1-0.4-0.3-0.6-0.7c-0.5-0.4,0.2-1.1,0.5-1.3c-0.2-0.2,0.1-0.5,0.1-0.5l-1.2-1.3
	c-0.5-0.1-1-0.1-1.6-0.2l0,0c-0.7,0-0.8-0.4-0.8-0.8c0-0.5-0.2-1-0.6-1.1c-0.7-0.2-0.3-1-0.3-1l-1.5-0.2l-0.6-0.4l-0.5,0l-0.4,0.5
	c-0.1-0.5-0.5-0.9-0.7-1.2c-0.8-0.3-0.9-0.6-1-1.1c-0.4-0.1-0.7-0.4-0.9-0.6c-0.3,0.2-0.6,0.1-0.8-0.2c-0.1-0.1-0.1-0.3-0.1-0.4
	c-0.4-0.1-0.4-0.3-0.6-0.7c-1.9-0.8-2-1.4-1.8-1.9c0.2-0.4,0-0.8-0.4-0.9c0,0-0.1,0-0.1,0c-0.7,0.7-1.6,0.1-1.8-0.1
	c0.2-0.6,0.1-1.3-0.5-1.7l0.1-1.5l0.5,0l0.3-0.4l0.7-1l-0.8-1.4c0,0-0.4-0.3-0.9-0.6s0.1-0.8,0.1-0.8l-0.3-0.4l-0.8-1.1l-0.4,0.2
	l-0.4-0.8l-0.9-0.6c-0.1,0.1-0.3,0.1-0.4,0.2c0.6,0.4,0.9,1,0.9,1.6c1,0.9,0.9,3.1,0.9,3.3c0,0.3-0.3,0.5-0.6,0.5
	c-0.3-0.5-0.8-0.3-1.2-0.2s-0.6-0.4-0.7-0.7c-0.1-0.3-0.3-0.5-0.5-0.7c0-0.2-0.1-0.5-0.4-0.5c-0.3-0.1-0.7-0.2-0.7-0.6
	s-0.1-0.5-0.3-0.5c-0.5,0-0.7-0.4-0.9-0.9s-1.2-1.1-1.2-1.1s-0.3,0.1-0.7,0.3c-0.4-0.8-0.9-1-1.2-1.1c0,0.5-0.5,0.8-0.8,1.2
	c-0.1,0.3-0.5,0.4-0.7,0.2c-0.1,0-0.1-0.1-0.1-0.1c-0.1-0.3-0.4-0.5-0.6-0.6c-0.3-0.1-0.3,0.3-0.3,0.6c0,0.4-0.2,0.4-0.6,0.4
	c-0.4,0-0.7,0.2-0.9,0.4c0-0.4-0.2-0.7-0.5-0.8l0.2-2.5l-5.8-6.2l0.1-0.4c-0.2-0.3-0.5-0.5-0.8-0.7c-0.6-0.3-0.5-1.1-0.6-1.5
	c-0.1-0.5-0.5-0.5-0.9-0.3s-0.8,0.2-0.9,0.1c-0.2-0.3-0.7-0.1-0.9,0c-0.2,0.1-0.3,0-0.3-0.2s0.6-0.9,0.6-1.1c0-0.9-1.1-1.5-1.1-1.5
	l0-0.6l-0.2-0.4l0.5,0c0,0,0.1-1,0.1-1.3c0.2-0.3,0-0.5-0.2-0.7c-0.3-0.2-0.5-0.6-0.5-0.9c0-0.5-0.4-0.9-0.8-1l-0.6,0.2l-0.5-0.4
	c0,0-0.3,0-0.6,0c-0.5-1.5-1.4-0.9-1.4-0.9l-0.5-0.5c-0.1,0-0.2,0.1-0.4,0.1c-0.1-0.5-0.2-0.9-0.4-1.3c-0.1-0.3,0.8-0.4,1.1-0.5
	c0.2-0.1-0.2-1-0.4-1.1c-0.2-0.1-0.4-0.2-0.3-0.5c0.1-1-1.1-0.2-1.1-0.2l-3.3-4.2l-0.9-0.5c0,0-0.5-1.1-0.7-1.4
	c-0.1-0.2-0.1-0.5-0.1-0.7c0-0.3,0-0.6-0.1-0.9c-0.2-0.8-1.1-0.3-1.3,0.1c-0.7-0.8-1.4-0.3-1.4-0.3l-0.4-0.4
	c-0.1,0.2-0.3,0.3-0.4,0.4c-0.8-0.4-1.4,1-1.4,1h-0.3l-0.2-0.2l-0.9,0.9l0.1,0.6l-0.3,0.3l0,0l0.1,1.2c0,0,0.4,0.5,0.4,0.6
	c0,0.2,0,0.4,0.2,0.6c-0.2,0.2-0.4,0.5-0.6,0.7v0.9l-0.2,0.4l0.2,0.2l-0.2,0.2l0.4,0.5l0,0.2l-0.5-0.6l-0.2,1.8c0,0-1.3,5.6-3.4,4.9
	c-0.3-0.6-0.5-0.9-0.5-0.9l-0.7-0.4l-0.2-0.4H140l-0.2,0.9h-0.2l-0.2,0.3c0,0-0.5-0.1-0.7,1.2c-0.2-0.1-0.4-0.1-0.4-0.1l-0.2,0.2
	l0.2,0.2l0.2,0l0.2,0.6h0.2l0.2,0.2l0.2,0l0-0.2l0.7,0.4l0.2,0.5L140,289l0.1,0.4l0,0.5l-0.5,0.2l-0.3-0.2l-0.2,0.2
	c0.4,0.3,0.6,0.8,0.5,1.2c-0.1,0-0.2,0.1-0.3,0.1l0.1,0c0,0,0.6,1.5,0.2,1.9c0.2,0.2,0.7,1.1,0.7,1.1v0.9l0.2,0.4l-0.2,0.3l0.3,0.4
	c0.1,0.2,0,0.5-0.2,0.7c0.1,0.1,0.1,0.1,0.2,0.2l-0.2,0.5l0.3,0.7l0.2,0.6l-0.1,0.1l0,0.9l-0.4,0.4l0.6,0l0.4,0.4v0.2
	c0.1,0.2,0.3,0.4,0.5,0.5c0.3,0.1,0.7,0.6,1,1.4c0.1,0.1,0.1,0.3,0.1,0.3l0.9,0.9l0.7,0.2c0,0,2.5,1.5,3.2,2.4
	c0.2,0.3,0.2,0.5,0.6,0.7c0.2,0.1,0.4,0.3,0.6,0.5c0.1,0.2,1.9,2.5,1.9,3.7c0.2,0.4,0.5,0.9,0.5,0.9l0.5,0.2v0.7l0.7,1.3l0.3,0.4
	h0.4l1.6,0.7l0.4,0.6l0.5,1.2l0.1,1.1l0.4,1l0,0.9l0.3,0.9l-0.1,0.2l0.7,0.9l1.2,1.1l0.9,1.5l1.6,1.6l0,0.1l44.4,2.7l0.1,0
	C205.4,327.9,204.7,327.7,204.4,327.6z"/>
<path class="st1" d="M225.1,180.3c-0.1-0.4-0.1-0.8-0.1-1.2c0-1-0.8-1.2-0.8-1.2v-0.4l-3.5-3.4l0.2-3.3l-5.4-0.2l-0.4,1.1l-1.3,0.4
	h-1.9v0.4l-3.3-0.1l-4.1-0.6l-0.4,0.6l0,0.4l-0.4,0.7v0.4c0,0-0.8,1.2-1.1,1.4c-0.3,0.3-1,1.2-1.7,1.2l-1.3,0.7
	c-0.5,0.1-0.9-0.3-1-0.8c-0.1-0.2-0.2-0.3-0.7-0.3c-0.1-0.1-0.1-0.3-0.2-0.4h-0.9l-0.7-0.3l0-0.2l-0.7-0.4l-0.3-0.3l0.1-0.5
	l-0.2-0.5l-0.7,0.4c-0.4-0.1-0.7-0.5-0.7-1c-0.2-0.2-0.5-0.5-0.5-0.5l-1.2-0.1l-1.1,0.6c-0.1-0.2-0.4-0.3-0.6-0.1c0,0,0,0-0.1,0
	l-0.6,0.2l-0.1,0.8l-0.8-0.1l-0.2,0.4l0.2,0.4l-0.4,0.4l-1-0.4l-0.5,0.4l-0.7-0.6l-0.5-0.2l-0.3,1.4l-0.6-0.2l-0.4,0.3l-1.6,0.7
	l-1.2,0l-0.5,0.7l0.3,0.6l-0.6,0.3l0.2,0.5l-0.3,0.5l0.2,0.6l-0.8,0.1l-0.6,0.5l0.3,0.7l-0.8-0.1l0,1.1l-0.8,1.2l-0.5,1.5l-0.6,0.2
	l0.3,1.1l0,0l0.3,0.3l0.6-0.3l2.8,10.1v0.1l0.7-0.2l0.1-0.4l0.4,0.4l0.4-0.1l0.7-0.2l0.5,0.1l0.6-0.4l0.2,0.6h0.5l0.3,0l0.3-0.6
	l0.6,0.6h0.2l0.2-0.6c0.2,0,0.4,0,0.5,0c0.7-1.5,2.9-0.9,2.9-0.9l0.3,0.4l0.1-0.3l0.8,0.1l0.3,0.3l1.1,0.1l0.5,0.7l0.3-0.1l0.8,1
	l0.7,0l1.2,0.7l1.8,0l1.1-0.4l0.5,0.2h1.1l0.9-0.5h0.9l0.6-0.2l0.8-0.2l0.5,0.1l1.3-0.5l0.9-0.2l0.3,0.4l0.4-0.2l0.7,0.2l0.7-0.3
	l0.2-0.4l1.2-0.1l0.2-0.7l0.4-0.4h0.8l0.4-0.5l0.3-1.3l0-0.4l0.4,0c0,0,0.1,0.1,0.2,0.2c0.5-0.2,1-0.4,1.6-0.3l0.4-0.1
	c0.8,0.1,0.6-1.1,0.6-1.1l0.8-0.9l-0.4-0.4l0.6-0.9h0.3l0.8,0.4l0.2-0.2l4.2-3.3c0.3-0.1,0.6-0.2,0.8-0.4c0.3-0.2,0.4-0.6,0.3-0.9
	c0,0,0,0,0,0c0.4-0.4,0.7-0.8,0.9-1.3l0.5-0.1l0.1-1.1h0.6l0.7-0.4L225.1,180.3z"/>
<path class="st1" d="M232.2,365.2l0.2-0.7l-2.8,0.2l0.4-4.5l-4.4-0.1l0.2-4.1l-5.7-0.3l0-4.4l-2.6,0l0-4.2l-4.6-0.2l0.2-1.4
	l-0.8-0.2l0.2-0.7h-0.7v-0.8l-0.7,0v-0.7h-0.7v-0.7h-0.7l0.2-4.2l-4.3-0.3l0.4-8.2l-0.9-0.2l-0.1,0l-44.4-2.7l0.1,0.3l0.5,0.5
	l0.1,0.5l-0.2,0.4h0.4l0.1,0.4l-0.2,0.3v1.5l0.9,1.2l0.2,1.3h0.5l0.4,0.2h0.2l0.4,0.4l0.7,0.2h0.4l0.5,0.5h0.2l0.3,0.4v-0.4
	c0,0,0.2-0.2,1,0.5c0.3,0.2,0.5,0.5,0.8,0.8l0.2,0.5c0.4,0.3,0.6,0.8,0.7,1.3c0.1,0.1,0.2,0.2,0.4,0.4l0.3,1.2c0,0,1.2,1.6,1.4,1.8
	c0.3,0.3,0.5,0.5,0.7,0.8c0.2,0.3,0.4,0.5,0.7,0.7c0.2,0.2,0.3,0.4,0.4,0.6c0.1,0.2,0.2,0.4,0.3,0.5l0.5,0.2l0.2-0.2l0.5,0.2h0.2
	l0.6,0.4l0.3,0.4h1.2l0.9,0.4c0.1,0.3,0.2,0.6,0.4,0.9c0.2,0.3,0.4,0.6,0.5,0.9l0.2,1.2l-0.2,0.5l0.2,0.7l-0.5,2.5l-0.7,0.9v0.3
	h-0.2l0,0.7l-0.2,0.2c0.1,0.7,0.4,1.3,1,1.8c0.2,0.3,0.6,0.7,0.6,0.7l0.9,0.7l0.2,0l0.7,0.5l0.9,0.4l0.5,0.7l0.5,0.2h0.2V358
	l0.2-0.2c0.4,0.1,0.7,0.2,1,0.4c0.7-0.1,1.3,0.3,1.6,0.9c0.4,0.1,1,0,1.2,0.6s0.7,3.6,0.7,3.6s-0.5,2.7-0.5,3.2
	c-0.1,0.2-0.2,0.7-0.5,1.3l0.6,1.1l0.7-0.4l0.2-0.2l0.4-0.2l0.3,0.5l0.3,0l0.4-0.6c0,0,0.9,0.4,1.3,0.3c0.1-0.1,0.2-0.2,0.4-0.4
	l1.6-0.4l2.3,0.4l2.9,1.8l0.5,0.8c0,0,1.2,0,1.3,1.8c0.3-0.1,0.7-0.2,0.7-0.2l-0.1-0.5l0.3-0.3l0-1.2l-0.3-0.3l0.1-0.4l-0.5-0.5
	l0-0.4c0,0,0-0.4-0.5-0.2c-0.3-0.5-0.3-1,0-1.5h0.3l0.4,0.6l0.6-0.5l1.5-0.1l0.4-0.6l0.3,0.4l1.2,0.1c0.2-0.2,0.5-0.3,0.8-0.3
	c0.2-0.1,0.3-0.3,0.3-0.5c0-0.3,0-1,0.5-1c-0.1-0.2-0.1-0.5,0.3-0.6c0.5-0.1,0.9-0.3,1.2-0.7c0.3-0.3,1.1-1.3,1.8-1
	c0.3,0.1,0.6,0.4,0.7,0.7c0.2,0.1,1.1,0.5,1.1,0.5l0.2-0.1c0,0,0.7,0.9,1.4,0.9c0.1,0.2,0.8,1,2.7,0.7c0.3,0.3,0.6,0.5,0.8,0.8v0.4
	c0.3,0,0.6-0.1,0.8-0.2c0.3-0.2,0.8,0.3,1.5,0.5c0.1,0.3,0.3,0.6,0.3,0.9c0.4,0.3,1.1,0.7,1.1,0.7s0.7,0.1,0.7,0.6
	c0.1,0.1,0.2,0.1,0.3,0.2l0.4-0.2l0.9,0.6l0.3,0.4l0.9-0.2l0.1,0.4l0.9-0.4l0.5,0.4l0.5-0.2c0.5,0.2,0.9,0.6,1.1,1.1
	c0.2-0.1,0.4,0,0.5,0.1c0.2,0.2,0.2,0.1,0.4,0.1c0.2,0,0.3,0,0.5,0.2s0.5,0.5,0.5,0.5l0.5,0.7l1.8,1.3l1.8,0.1v-0.2
	c0.2,0,0.5,0,0.7,0l0.3-8.6L232.2,365.2z"/>
<path class="st1" d="M445.6,405.1l-1.1-1.7c0,0-1.3-0.5-2-0.7c-1.1-1.5-1.9-1.9-2.3-1.9c-0.4,0-0.7-1-0.7-1l-1.6-1.2l-1.8,0
	c0,0,0.2-0.8,0.4-1.2c-0.1-4.7-2.5-5.6-2.5-5.6l0.5-0.6l-0.7-0.9l-0.3-1.3l-0.5-0.4l0.3-0.4l-0.6-2.1c0,0-0.3,0-0.7,0.1
	c0-0.5-0.6-1.1-1.3-1.5c-0.7-0.4-2.2-1.8-2.3-2.9s-1.3-2.8-1.8-3c-0.6-0.2-0.9-0.8-0.7-1.4c0,0,0,0,0,0c0.1-0.4,0.3-0.6,0.1-1
	s-0.3-0.6-0.1-1s0.1-0.6-0.1-1s-0.2-1.4,0-2.1c0.1-0.2,0.1-0.5,0.1-0.7l-40.1-38.6l-3.8,0l-0.1,0.8l-74.8-1.3l0,4.4l-0.8,0l0,1.4
	h1.5v1.4l-0.7,0l-0.3,4.3h0.2l0,5.5h-0.2l0.2,1.5L306,380l-1.5,0l-0.2,12.7h0.4l-0.1,5.1l0.4,7.8l-1.5,6l-1.9,5.2l-0.3,1.7l-0.4,0.2
	l-1.2-0.2l0,0.8H299l-0.7,1.4v0.4h0.4v0.7l0.4,0.3l4.4,3.6l0.1-0.4l-0.3-0.4h1.1v-1.7l1.8,0l0-2.3l2.2-0.7v-2.4l7.4,0.3l-0.3,0.9
	l6.3,0.1v0.6l12,0.1l0-1.4l65,0.5l0-2.2l35.5-0.4c0.2-0.8,0.6-1.5,1.4-1.4c0.8,0.2,1.6-0.3,1.8-1.1c1.2,0.1,2.2-1.1,2.7-1.8
	c2,0.5,2.7-1.9,2.7-1.9l1.4-1.2l0.5-1.5l0.9-0.1l0.3-0.4L445.6,405.1z"/>
<path class="st1" d="M398.6,416.9l0,2.2l-65-0.5l0,1.4l-12-0.1v-0.6l-6.3-0.1l0.3-0.9l-7.4-0.3v2.4l-2.2,0.7l0,2.3l-1.8,0v1.7h-1.1
	l0.3,0.4l-0.1,0.4l-0.2,0.7l0.7,0l3.1,4.5l1.8,0.6l0.2,2.4l2.3,0.4l2.4,2.1l-3.9,5.9v1.4l5.9,0.1l-0.2,0.7l5.1,2.2v0.8l8.5,0.2
	l0,0.3l34,0.1l4.6,0.3h0l50.9-0.3V448l8.2-0.1l1.7-3.4c0,0,0.5-0.3,0.9-0.5c-0.1-0.4,0.1-0.7,0.8-1.1c0.5-0.3,0.7-0.9,0.4-1.4
	c-0.1-0.1-0.1-0.2-0.2-0.3c-0.4-0.4,0.1-1.2,0.4-1.7c0.2-0.5,0-0.8,0.1-1.1c0.1-0.3-0.3-0.7,0-0.9c0.2-0.1,0.4-0.4,0.2-0.7
	c0-0.1-0.1-0.1-0.2-0.2c-0.4-0.2,0.1-1.1,0.5-1.3c1.1-0.3,0.3-2.1,0.3-2.1s0.1-0.2,0.2-0.8c-0.6-1.6-1-3.3-1.2-5
	c2-0.4,0.2-2.2,0.2-2.2h0.5c0,0-0.2-0.2-0.7-0.7s-0.1-1.2,0.2-1.8c0.9,0.4,2-1.9,2-1.9c0-0.3,0-0.5,0-0.8c1.2,0.1,1.2-1.6,1.3-2.6
	c0-0.3,0.1-0.6,0.2-0.9L398.6,416.9z"/>
<path class="st1" d="M433.6,474.6c0-0.1-0.1-0.3-0.2-0.4c0.6-0.4,0.1-1-0.3-1.3s-0.3-0.8,0-1.2c0.8-1.1-0.4-2-1-2.3
	c0-0.9-0.8-1.7-0.8-1.7s-1.2-0.3-1.6-0.4c-0.3-0.1-0.7-0.1-1,0.2c-0.5,0.3-1.1,0.5-1.5,0c-0.3-0.4-0.8-0.7-1.2-0.9l-0.4,0.8
	c0,0-0.5-0.4-0.8-0.6c0-0.7-0.2-1.5-0.8-2c0,0-0.4-0.2-0.5-0.3c0.1-1,0.4-1.9,1-2.7c0.5-0.8,0.3-3.6,0.3-3.6s-0.1-0.4-0.2-0.9
	c0.3-0.2,0.5-0.6,0.5-1l-0.5-1l-0.4-1.5l-0.5-0.7v-1.2c-0.1-0.5-0.2-0.9-0.4-1.4c-0.3-0.9,0-1.2,0.4-1.5c0.8,0.3,2.1,0,2.1,0
	l0.5-1.1l-8.2,0.1v0.4l-50.9,0.3l0,0v16.7l-0.9,0l0,17l-0.2,0l-0.1,5.5l57-4.9l0.3-0.9l0.7-0.2c0,0,3.5,0.4,5.1,0.6
	c1.6,0.2,2-1.7,1.9-1.9c-1.3-1.7,1-3.4,1.7-3.3c0.4,0,0.8-0.3,1-0.7L433.6,474.6z"/>
<path class="st1" d="M311.2,434.4l-2.3-0.4l-0.2-2.4l-1.8-0.6l-3.1-4.5l-0.7,0l0.2-0.7l-4.4-3.6l-7.7-0.2l0,2.1
	c-0.7,0.6-1.5,1.2-2.3,1.8c-1.3,0.3-1.5,2.3-1.5,2.3s-0.1,0.1-0.3,0.2c-1.3,1.8-1.1,2-1.1,2l0.4,0.7l-1.2,0.5c0,0,0,0,0,0.1
	c0.3,0.1,0.8,0.3,0.9,0.7c0.3,0.2,1.2,0.9,1.2,0.9s2.4,3.1,3.3,3.6c0.9,0.5,1.9,1.2,2,1.6c0.3,0.1,2.1,0.7,2.1,0.7l0.5,0.5l0.7,0.4
	l1.2,1.3h0.2l1,0.5c0.4,0.4,0.6,0.8,0.9,1.3c0.1,0,0.2,0.1,0.3,0.2l-0.1,0.2l0.4,0.4l0.3,0l0.2,0.5l0.4,0.2l0.4,1.2l0.7-0.2l0.7,0
	l1.1,0.7l1.2,1.2l1.1,1.9l0.8-3.2c0.3,0,0.6,0,1,0l1.9-0.9l0-1.7v-1.4l3.9-5.9L311.2,434.4z"/>
<path class="st1" d="M367.5,465.3v-16.7l-4.6-0.3l-34-0.1l0-0.3l-8.5-0.2v-0.8l-5.1-2.2l0.2-0.7l-5.9-0.1l0,1.7l-1.9,0.9
	c-0.3,0-0.6,0-1,0l-0.8,3.2l0.1,0.1l0.7,0.1l0.5,0.6l0.5,0.2c1.4,1.2,2.6,2.6,3.6,4.1c1.3,2.1,4.1,5.6,4.3,6.4
	c0.1,0.4,0.4,0.8,0.6,1.1c0.2,0.3,0.4,0.7,0.4,1.1c0.1,0.4,0.3,1.5,0.5,1.8c0.2,0.4,0.4,0.8,0.4,1.3c0.1,0.4,0.2,0.7,0.5,1
	c0.2,0.3,0.3,0.6,0.3,0.9c0.1,0.4,0.8,3.6,0.8,3.6l0,0.9c0,0,0.9,1,0,3c-0.2,0-0.4,0-0.6,0l-0.4,0.2v1.2l0.9,1.1l0.4,1.8l0,0.2
	l0.2,0l-0.3,0.3v0.7l-0.2,0.2c0,0,0.4,1.9,0.3,2.4c0.1,0.2,0.2,0.5,0.2,0.8c0.1,0.1,0.2,0.2,0.2,0.2h0.2l0-0.2l0.5-0.7l0.9-0.4
	l0.9,0.4l0,0.3l1,1.2l1,2.9l-0.2,1.2l0.4,1.6l41.6-3.5l0.1-5.5l0.2,0l0-17L367.5,465.3z"/>
<path class="st1" d="M154,271.3c0,0-0.9-1.1-1.2-0.5c-0.1,0.1-0.7,0-0.7-0.4c-0.1-0.3-0.4-0.9-0.4-0.9l-1.2-0.6l0.2-0.7
	c0,0-0.8-0.1-0.9-0.4c-0.2,0.1-0.7,0.2-0.7,0.2s-0.3-0.3,0.6-0.8c0.3-0.2,0-0.4-0.3-0.8c-0.3-0.4-1.1-1.5-1.1-1.5s-1.7-0.8-2.3-1.3
	c0.1-0.2,0.1-0.6-0.4-0.6c-0.3-0.4-0.7-0.7-0.7-0.7s-1.5-0.1-1.9-0.7c-0.2,0-0.4,0-0.6-0.1l-0.3-0.5l-1.3-0.4l-0.7-0.7l-0.7,0
	l-0.2-0.8c-0.8-0.1-1.4-0.8-1.3-1.6c-0.2-0.1-0.4-0.2-0.4-0.2l-0.2-1l-0.4,0.3l-0.5-0.7h-0.5l-1.1-1.8l-0.6-0.2
	c-0.2-0.3-0.5-0.7-0.7-1l-0.1,3.1l-3.4-0.2l-0.2,1.3l-2.9-0.1l0.2,1.9l0.7,1.7l-0.2,0.3l0.5,0.5l1.9,3.6l0.4,0.2l1.7,1.8l0.4,0.2
	v0.5l0.5-0.2l0.6,0.7l0.2,0l0.9,0.5c0.4,0,0.8,0.1,1.1,0.4c0.5,0,1.7,0,1.7,0c0.1-0.3,0.3-0.5,0.6-0.7c0.1,0,0.1,0.1,0.2,0.2h0.4
	l0.2,0.2l0.6,0.2l0.2,0.2l0.2-0.2l0.4-0.2l0.2-0.4l0.9-0.4c0,0,1.2,0,2.5,2.1c0.6,1.1,1.5,3.1,1.5,3.1l0.2,0.7l0.3,0.5l0.3-0.3
	l-0.1-0.6l0.9-0.9l0.2,0.2h0.3c0,0,0.6-1.5,1.4-1c0.1-0.1,0.3-0.3,0.4-0.4l0.4,0.4c0,0,0.6-0.5,1.4,0.3c0.2-0.4,1-0.9,1.3-0.1
	c0.1,0.3,0.1,0.6,0.1,0.9c0.3-0.3,0.4-0.7,0.5-1.1l0.4,0.2l0.5,0.5l0.7-0.1l0.1,0.2l0.2-0.9L154,271.3z"/>
<path class="st1" d="M224.4,28.6c0,0-0.2-0.1-0.5-0.3c-3.3,0.4-3.9,0.1-3.9,0.1L197.3,27l-0.3,0.3c-0.5,0-0.9-0.1-1.4-0.3
	c-1.6,0.2-12.7-0.8-12.7-0.8l-0.9,0.3l-0.5-0.4l-6.5-0.5l-0.2,2.8l-0.4,0l-0.6,8.3l0.5,0.1l-1.8,28.6c1.4,0.1,2.8,0.2,4.3,0.3
	c19.9,1.2,40.9,2.4,48.9,2.5l1.9-39.4C226.6,28.6,225.5,28.5,224.4,28.6z"/>
<path class="st1" d="M101.5,20.2c-1.8-0.2-4.3-0.2-5.5-0.4c-2.1,0.5-10-0.8-10.5-1c-2.3,0.3-10.3-0.4-10.3-0.4
	c0,2.1-0.3,8.4-2.7,10.5l1.3,1l0.1,0.2l0.5,0.2l0.2,0l0.4,0.5l0.3,0l0.6,0.6l0.6,1.1l-0.1,0.8c0,0,0.2,1.4,0.1,1.9
	c0.1,0,0.2,0,0.4,0l0.4,1.9l0.3,0.5v2.1c0,0,0.1,0.5,1.1,1c0.3,0.3,0.6,0.6,0.9,0.9l-1.4-0.5l-0.4,0.2l-0.1,0.3l0.4,0l-0.3,0.8
	l0.3,1l0.1,1.3l10.5,1.1l-0.3,3.9l4,0.3c0.1-0.2,0.2-0.5,0.2-0.8c0.4,0,0.7-0.3,0.7-0.8c-0.1-0.1-0.3-0.2-0.5-0.3
	c0.3-0.2,0.7-0.4,1.1-0.5c0,0,0.5-1,0.7-1.4c-1.1-0.5-0.9-2-0.9-2.3c-0.2-0.2-0.2-0.5-0.1-0.7c0,0,0.1-0.1,0.1-0.1
	c0-0.6-0.5-1-1.1-1c-0.1,0-0.2,0-0.3,0.1c-0.7-1,0.2-1.5,0.2-1.5L92,40.1l0.1-0.6l-0.9,0.4c0-0.1-0.1-0.1-0.1-0.2
	c0-0.8,1.3-1.8,1.3-1.8c0.1,0,0.3,0,0.4,0c-0.3-0.6-0.2-1.8-0.2-1.8s0.8-0.9,1.1-1.2c-0.4-0.6,0-0.7,0.2-0.8
	c0.1-0.4-0.1-0.8-0.4-1.1c0-1.7-0.4-2.4-0.4-2.4l0.5-0.1c0,0,0.1-0.4,0.2-0.6c-0.4,0-0.6-0.4-0.6-0.7s-0.4-0.5-0.4-0.8
	c0.4-0.2,0.8-0.3,1.3-0.3c-0.1-0.9,0.8-1.1,0.8-1.1c0-0.1-0.1-0.3-0.2-0.4C95,25,96,25.8,96,25.8l0.3,0.4l0.7-1.5
	c0,0,0.7,0.3,1.1,0.5c0.4-0.2,0.7-1.1,0.8-1.9c0.5-0.6,0.5-1.4,0.2-2l0.4-0.4L101.5,20.2z"/>
<path class="st1" d="M225.8,68.2c-8-0.1-29-1.3-48.9-2.5l-0.9,13.6l0.5,0l-1.3,19.6l-0.2,0.1l-0.2,2.6l10,0.4l-0.6,9.2l0.6,0.1v1
	l1.4,0.2l0.1,0.6l2.1,0.2v0.7l0.7,0.1l-0.2,0.7h1.4v-0.4l0.7,0.2l0.3-2.1c0.7-0.2,1.2-0.6,1.4-1.3c0.5,0,0.5-0.4,1.4-0.3
	c0.1-0.4,0.1-1.3,0.1-1.3l0.7,0.2c0,0,0.2-0.6,0.8-0.7c0.5-0.1,1.2-0.2,1.2,0.2c0.6,0,2.5,0.3,2.5,0.3s0,1.1,2.9,1.3
	c0,0.4,0,1.1,0,1.1s1.9,0,3,2c0.3,0.1,0.2,0.8,0.6,0.8s0.9,0,0.8,0.5c0,0.5,0.2,0.6,0.2,0.9s1.3,0.4,1.4,1.5
	c0.1,0.5,1.9,1.8,2.9,1.8s2.2,0,2.2,0l0.1,0.5l0.6,0v1l1.4,0.2l-0.1,1.9l0.4,0.1l-0.1,1.4l0.7,0.1c0,0,0.2,1.8,0.9,2.3
	c0.7,0.4,0.9,1.5,1.8,1.5c0,0.4-0.2,1.4-0.2,1.4l0.3,0.1v1.4h-0.4l-0.2,4.9c0,0-0.4,2.3-1.4,2.1c0,0.2-0.2,0.9-0.2,1.4l4.9,0.2V139
	h0.6L225.8,68.2z"/>
<path class="st1" d="M174.9,28.4l0.2-2.8c-6.1-0.4-14.3-1-15.1-1c-1.2,0-1.4,0-3.7-0.5c-2.4-0.2-32.5-2.4-34.4-2.6
	c-2.2,0-4.4-0.1-6.5-0.5c-1.6-0.2-6-0.2-6.9-0.2s-4.6-0.3-6.5-0.5l-0.5-0.1l-2,0.7l-0.4,0.4c0.4,0.6,0.3,1.5-0.2,2
	c-0.1,0.7-0.4,1.6-0.8,1.9C97.6,25,97,24.8,97,24.8l-0.7,1.5L96,25.8c0,0-1-0.8-1.4,0.8c0.1,0.1,0.1,0.3,0.2,0.4
	c0,0-0.9,0.2-0.8,1.1c-0.4,0-0.9,0.1-1.3,0.3c0.1,0.3,0.4,0.5,0.4,0.8c0,0.3,0.3,0.7,0.6,0.7c-0.1,0.2-0.2,0.6-0.2,0.6L93,30.6
	c0,0,0.4,0.7,0.4,2.4c0.3,0.2,0.5,0.7,0.4,1.1c-0.1,0-0.6,0.2-0.2,0.8c-0.2,0.3-1.1,1.2-1.1,1.2s-0.1,1.1,0.2,1.8
	c-0.1,0-0.3,0-0.4,0c0,0-1.2,1-1.3,1.8c0.1,0.1,0.1,0.1,0.1,0.2l0.9-0.4L92,40l0.5,0.7c0,0-0.8,0.5-0.2,1.5c0.6-0.2,1.2,0.1,1.4,0.6
	c0,0.1,0.1,0.2,0.1,0.3c-0.2,0.2-0.3,0.5-0.1,0.7c0,0,0.1,0.1,0.1,0.1c-0.1,0.3-0.2,1.8,0.9,2.3c-0.2,0.5-0.7,1.4-0.7,1.4
	c-0.4,0.1-0.8,0.2-1.1,0.5c0.2,0.1,0.3,0.2,0.5,0.3c0,0.4-0.3,0.7-0.7,0.8c-0.1,0.3-0.1,0.5-0.2,0.8l5.8,0.4
	c0.2,0.1,0.4,0.3,0.5,0.5c0.2,0.3,0.4,0.4,0.2,0.7c-0.1,0.2-0.1,0.4,0,0.5c0.1,0.3,0.1,0.6,0.1,1c0.2,0.2,0.3,0.4,0.5,0.5v0.6
	c0,0,0.5,0.5-0.2,1c0.1,0.3,0.4,0.6,0.7,0.7c0,0.4,0,0.7-0.1,1.1l-0.5,0.8c0,0,1.3,0.4,0.6,0.8c0.2,0.3,0.5,0.7,0.7,1.1l0.2,1.2
	c0.1,0,0.2-0.1,0.3-0.2c0.1,0.1,0.1,0.1,0.2,0.2l0.1,0.5l0.4,0.1l0.1,0.6l0.7-0.8c0,0,1.3,0.3,1.4,1.5c0.2-0.4,1.2-0.7,1.2,0.7
	c0.2,0,0.4-0.1,0.4,0.4c0.1,0.4,0.7,0.8,0.8,2c0.6-0.2,1.2-0.1,1.6,0.4c0.3-0.3,0.4-0.3,0.4-0.3l1.1,0.1l0.2,0.2c0,0,0.7-0.4,1,0
	c0.2,0,0.4,0,0.7,0c0,0,0.2,0.9,0.9,1c0.7,0.1,1.3,0.7,1.3,1.3c-0.1,0.6,0.4,1.5,0.4,1.5l0.9-0.2l0.3-0.2l1.5,0
	c0.2,0.2,0.3,0.4,0.4,0.6c0,0.4,0.3,0.6,1.1,0.3c0.2-0.1,0.2-0.4,0.2-0.4l0.5-0.3v-0.5l0.2-0.2c0,0-0.8-1.7-0.8-2.1
	c-0.4,0.1-2-0.4-1.4-1.6c-0.1-0.2-0.4-0.4,0.4-1c-0.1-0.3-0.1-0.5-0.1-0.8l0.4-0.4l-0.2-0.6l0.2-0.3l-0.4-0.6l0.5-0.4L118,62
	l0.2-0.1l0.2-0.5c0.2,0,0.4-0.1,0.6-0.2c0.2-0.3,1.5-0.9,2.4-0.1c0.2-0.3,1.1-1.1,1.3,0c0.2,0,0.3,0,0.3,0l0.2-0.6
	c0,0,0.6,0.4,0.7-0.8c0.3-0.1,0.7-0.1,0.8-0.5c0.4,0.1,1.1,0,1.2-0.5s0.6-1.1,0.9-1.1c0.4,0,0.8-0.1,1.6-0.7
	c0.1,0.1,0.3,0.2,0.4,0.3v-0.7l0.4-0.1l0-0.9c0,0,0.5-0.6,0.9-0.2c0.2,0.1,0.5,0,0.9,0.3c0.3,0,0.2-0.1,0.2-0.3
	c0.3-0.1,0.3-0.3,0.3-0.3s-0.3-1.1,0.2-1.2s1.5,0.4,1.4,1c0.4,0.1,0.9,0.2,1.3,0.2l0.1,0.5l0.6,0.8l-0.9,0.5l0.2,0.7
	c0,0-1.1,0-0.5,1c-0.3,0.3-0.3,0.8,0,1.2c-0.3,0.1-0.5,0.3-0.2,0.8c-0.2,0.4-0.7,1,0.5,1.8c-0.1,0.1-0.1,0.3-0.1,0.4
	c2.9,0.2,19.7,1.3,38.3,2.5l1.8-28.6l-0.5-0.1l0.6-8.3L174.9,28.4z"/>
<path class="st1" d="M197.3,157.6l-0.6,0.4l-0.4-0.3l-1.3,0.5c-0.1,0.2-0.1,0.3-0.2,0.5c-0.9-0.1-1.5,0.7-2,1.3
	c-2.4,1.5-2.8,2.1-3.2,2.2c-0.6,0-0.7,0.3-0.7,0.6c0,0.4-0.1,0.7-0.4,1c-2.1,0.4-3.4,1.9-3.8,2.4c-0.4,0.4-0.5,0.8-0.9,0.8
	c0.1,0.3-0.3,1.5-0.6,2.1c-0.4,0.6-0.8,1.2-1.2,1.7c-0.7,1.2-1.7,1.1-2,0.7c-0.3-0.4-1-0.3-1-0.3l-1-1.3l-0.6,0.6l-0.9,0.3l-0.4,0.5
	c-0.1-0.2-0.3-0.3-0.4-0.5c-0.6,0.7-0.9,0.2-1-0.1c-0.1-0.3-0.9-0.4-0.9-0.4l-0.3,0c0,0-0.4-0.2-0.8-0.4l0,0
	c-0.4-0.2-0.5-0.6-0.8-0.8s-1.7,0.6-2.1,0.8c-0.4-0.1-0.8,0.2-0.9,0.6c0,0-0.8,0.3-1.2,0.6c-0.1,0-0.1,0.1-0.2,0.1l-0.2,3.6h-2.1
	l-0.5,8.3l-0.6-0.1l-0.1,0.9c3.4,0.4,8.3,1.1,13.1,1.9l-0.3-1.1l0.6-0.2l0.5-1.5l0.8-1.2l0-1.1l0.8,0.1l-0.3-0.7l0.6-0.5l0.8-0.1
	l-0.2-0.6l0.3-0.5l-0.2-0.5l0.6-0.3l-0.3-0.6l0.5-0.7l1.2,0l1.6-0.7l0.4-0.3l0.6,0.2l0.3-1.4l0.5,0.2l0.7,0.6l0.5-0.4l1,0.4l0.4-0.4
	l-0.2-0.4l0.2-0.4l0.8,0.1l0.1-0.8l0.6-0.2c0.2-0.2,0.5-0.2,0.7,0c0,0,0,0,0,0.1l1-0.6l1.2,0.1c0,0,0.4,0.3,0.5,0.5
	c0,0.4,0.3,0.8,0.7,1l0.7-0.4l0.2,0.5l-0.1,0.5l0.3,0.3l0.7,0.4l0,0.2l0.7,0.3h0.9c0.1,0.1,0.1,0.3,0.2,0.4c0.4,0,0.6,0.1,0.7,0.3
	c0.1,0.5,0.5,0.8,1,0.8l1.3-0.7c0.7,0.1,1.5-0.9,1.7-1.2c0.3-0.2,1.1-1.4,1.1-1.4v-0.4l0.4-0.7l0-0.4l0.4-0.6l4.1,0.6l3.3,0.1v-0.4
	h1.9l1.3-0.4l0.4-1.1l5.4,0.3l0.6-12.1L197.3,157.6z"/>
<path class="st1" d="M160.2,243.6l-0.4-0.1v-0.7c0-0.1-0.1-0.2-0.2-0.3c-1.4,0.2-1.7-0.8-1.7-0.8l-0.3,0l0.7-13.2l0.3-0.4l-3.2,1
	c0,0-11.9,2.8-12.8,3c-0.4-0.5-0.9-0.9-1.5-1.1l-0.4-0.6l0-0.4l0.5-0.2l-0.5-0.9l-1.2-0.9l-3.6-0.5l-0.4-0.8l-0.6,0.5l-0.7-0.6
	l0.2-0.8c-0.1,0-0.2-0.1-0.3-0.1c-0.3-0.5-0.7-0.9-1.2-1.2l0.3-0.2l-0.1-0.2l-0.1-0.4l-0.9-0.5l-0.5-0.7l-0.4-0.2l-0.6,0.4l-1.1-0.1
	c0.1,0.1,0.2,0.2,0.2,0.4c-0.1,0.1-0.2,0.1-0.3,0.2l0.1,0.4c0,0,0.6,2.1,0.5,2.3l-1.5,0.1l-0.2,0.2l0.2,0.2c0.3,0.1,0.6,0,0.9-0.1
	c0.1,0,0.2,0.1,0.2,0.2l-0.4,0.1l-0.3,0.3l-0.4-0.1l0,0.2l0.3,0.2l-0.3,0.2l0.8,0.3c0,0,1.3-0.2,1.8,0.4c0,0.1,0,0.1,0,0.2l0.4,0
	c0.5,0.3,0.8,0.7,1.1,1.2c0.1,0,0.1,0,0.1,0v0.4l0.2,0c0,0,0.2,0.5,0.4,0.5l-0.2,0.2l-0.2-0.2c0,0-0.9,0-0.9-0.6
	c0.3-0.1,0.5-0.2,0.2-0.6c-0.6-0.5-1.1-0.9-1.7-1.3l-1.2-0.1l-1.1-0.4l0.2,0.6h0.1c0,0,0,0.3,0.5,0.6c0.1-0.1,0.1-0.1,0.2-0.2l0.4,0
	l-0.2,0.4l0.1,0l0.2,0.2h0.4l0.2,0.2c0,0,0.8,0,1,0.4s0.6,0.8,0.4,1.1c-0.3,0-0.5,0-0.5,0l0.3,0.5l-0.4,0.4l0.5,0.4l0.6,0.7l0.3-0.2
	l0-0.4l0.5-0.2c0.1,0.2,0.2,0.4,0.4,0.5c0,0.2,0,0.9,0.9,1.6c0.2,0.3,0.3,0.7,0.3,1c-0.1,0.1-0.2,0.2-0.2,0.2l0.2,0.4l0,2.6
	c0.1,0.1,0.2,0.2,0.3,0.4c0.1,0.2,0.2,0.8,0.5,0.9c0,0.1,0,0.1,0,0.2l0.3,0.7l0.1,1.2l0.1,0.9l0.6,0l1.2,0.2l0.3,1.2l-0.1,0.5
	l0.4-0.1l1.7-0.2l0.1,0.1l0.9,0.4l0.6-0.2l1.2,0.6l0.6-0.4l1.1-0.3l0.7-0.5l14.9,1.1h0.1l0.4-0.3L160.2,243.6z"/>
<path class="st1" d="M203,151.4l-0.2-0.3c0,0-0.5,0.1-0.9-0.6c0-0.2,0.1-1.1-0.5-1.4c0.1-0.4-0.3-1.8-2.8-1.4
	c-0.3-0.2-0.6-0.2-0.9-0.2c-0.1-0.1-0.2-0.1-0.3-0.2l-0.9,0.5v0.3l-0.9,0.3l-0.2,0.6c0,0-1.2,1.8-4.3,2.4c-0.2,0-0.5-0.1-0.7-0.2
	l-4.6,1c0,0-1.2-0.3-1.9,0.4c-0.2,0.2-0.4,0.3-0.6,0.4c-0.2,0.1-0.5,0.3-0.7,0.4l-0.8-0.6l-0.2,0.4l-0.7-0.4c0,0-0.2,0.9-1.8,0.8
	c-0.2,0.7-0.6,1.3-1.2,1.8c-0.3,0-1.1,0-1.1,0l-0.1,0.4h-0.4l-1.1,2.3l-0.7-0.2l-1,0.5l0.2,0.7l-0.4,0.2l0,0.7l-0.5,0.4l-0.4,9.6
	c0.4,0.2,0.8,0.4,0.8,0.4l0.3,0c0,0,0.8,0.1,0.9,0.4s0.4,0.7,1,0.1c0.2,0.1,0.3,0.3,0.4,0.5l0.4-0.5l0.9-0.3l0.6-0.6l1,1.3
	c0,0,0.7,0,1,0.3c0.3,0.4,1.3,0.5,2-0.7c0.4-0.5,0.9-1.1,1.2-1.7c0.4-0.6,0.7-1.8,0.6-2.1c0.4,0,0.5-0.4,0.9-0.8s1.7-2,3.8-2.4
	c0.2-0.3,0.4-0.6,0.4-1c0-0.4,0.1-0.7,0.7-0.6c0.4,0,0.7-0.7,3.2-2.2c0.5-0.6,1.1-1.3,2-1.3c0.1-0.1,0.1-0.3,0.2-0.5l1.3-0.5
	l0.4,0.3l0.6-0.4l24.2,1.2l0.3-6.2L203,151.4z"/>
<path class="st1" d="M221.8,139.1v0.7l-4.9-0.2l-19-0.9c0,0,0.1,1.2-0.6,1.2c-0.1,0.1-0.2,0.2-0.3,0.3l-0.4-0.7
	c-0.4-0.1-0.7-0.4-0.9-0.8c-0.4-0.1-0.8-0.3-1.1-0.7c-0.2-0.2-0.8-0.3-1.5,0.3c-0.1-0.1-0.2-0.2-0.2-0.4l-0.5-0.2l-0.1-1.2
	c0,0-1,0.4-1.5-1.2c-0.1-0.2-0.2-0.3-0.4-0.4c-0.4,0.1-0.8,0.4-1.1,0.8c-0.4,0.1-1.4,0.3-1.5,1.4s-0.1,2.4-1.1,3.1
	c-0.4,0.3-1.1,1.1-1.6,1.2c-0.1,0-0.2,0-0.3,0.1l-0.8,3.7h-0.4l-1.1,0.9l0.5,1.2l0.4,0l0.1,5.9c0.2-0.1,0.4-0.3,0.6-0.4
	c0.7-0.7,1.9-0.4,1.9-0.4l4.6-1c0.2,0.1,0.4,0.2,0.7,0.2c3.1-0.7,4.3-2.4,4.3-2.4l0.2-0.6l0.9-0.3v-0.3l0.9-0.5
	c0.1,0.1,0.2,0.2,0.3,0.2c0.3,0,0.6,0,0.9,0.2c2.5-0.4,2.8,1.1,2.8,1.4c0.7,0.4,0.5,1.2,0.5,1.4c0.4,0.6,0.9,0.6,0.9,0.6l0.2,0.3
	l18.8,1.1l0.6-13.5L221.8,139.1z"/>
<path class="st1" d="M128.9,205.3l-0.8-0.6c0.1-0.2,0.1-0.5,0.2-0.7c-0.7,0-0.6-0.4-0.6-0.4v-0.9l0.3-0.4l-0.5-0.7l0-0.7
	c-0.1-0.1-0.2-0.1-0.4-0.1c-0.1-0.5-0.4-0.9-0.8-1.1l-0.5-0.5l0.4-0.6l-0.6-0.7l-0.1-0.7l-1.1-1l0.7-0.7l0.1-0.6l-1.2-0.4l0.2-0.4
	l-0.3-0.2l-0.5,0.1v-0.6l-0.5-1l-0.2-1.3c-0.2,0-0.4,0-0.5,0c-0.4-1.9-1.9-1.8-1.9-1.8l-0.9-1.9l0.5-1l0-1l0.5-0.6l0.2-0.9v-0.1
	c-0.2-0.4-0.4-0.7-0.5-1.1c-0.1-0.4-0.4-0.6-0.8-0.8h-0.5l-0.7-0.4l-0.2-0.6c-0.4-0.1-0.5-0.7-0.5-0.7l0.2-0.4l-1.1-2l0-0.7
	l-0.7-0.5l-0.1-0.3l-0.9-0.6l-0.2-0.6l-0.4,0.2L114,175l-10-0.8l0,0.6l-2.1-0.2l-0.2,1.4l-8.7-0.6l-0.2,1.4l-4.9-0.5v0.4l-0.3-0.1
	c0,0-0.2,0.4-0.4,0.6l0.1,0.2l-0.2,0.2l0.3,0.3l0.7,0.2l1.3,1.3c0.1,0.2,0.2,0.4,0.4,0.6c0.3,0.3,0.5,0.8,0.5,1.2
	c0.2,0.1,0.8,0.4,1,1.8c0.1,0.1,0.2,0.1,0.4,0.2l0.3,1.1l0.4,0.4v0.3c0.7,0.3,1.1,0.9,1,1.6c0,0.1,0,0.3,0.3,0.2
	c0.1,0.2,0.2,0.4,0.2,0.4l0.7,0.4l0.2,0.5c0,0,0.8-0.1,1.5,1.6c0.2,0,0.3,0,0.3,0l1.5,1l1.2,1.1c0,0,0.4,0.8,0.9,0.9
	c0.1,0,0.2,0.1,0.3,0.1l0.4,0.5l-0.2,0.4l0.1,0.4c0.2,0.1,0.2,0.3,0.3,0.5c0.2,0.1,0.4,0.2,0.4,0.2s0,0.9,0.2,1.2
	c0.2,0.2,0.3,0.3,0.3,0.3l0.5,1.3c0,0.7-0.1,1.4-0.3,2.1c0,0.2-0.1,0.3,0,0.5c0.1,0.2,0.2,0.4,0.3,0.5l0.2-0.1l-0.1-0.4l0.1-0.4
	c0,0-0.1-0.7,0-0.8c0.3,0.1,0.7,0.5,0.6,0.7c-0.1,0.1-0.2,0.4-0.2,0.4c0.3,0,1.1,0,1.4,0.7c0.1,0.1,0.2,0.2,0.3,0.4l0.4-0.2
	l-0.2-0.4l1.3-0.2l1.2,0.3l1.3-0.1l5.6,5.7l0.9,0l0.4,0.5l1,0.4h0.6l0.5,0.6l0.8,0.2l0.2-0.2l0.7,0.2l0.2-0.4h0.8l0.8,1.5l1.2,0.9
	c0,0,0-0.1-0.1-0.1c0.3,0.1,0.5,0.3,0.6,0.6c0.1,0.4,0.3,0.8,0.4,0.8l1.3-0.1l0.2-0.2l0.2,0.4c0,0,0.4,0.1,1.8-1.2
	c0-0.2,0-0.5,0-0.5l0.3,0.1l1.3,0.1l0-1.4l0.4,0.1v-1.4l0.2-0.7L128.9,205.3z"/>
<path class="st1" d="M158.4,204.4l0.1-0.2l-3.6-0.4l0.4-10.2l-0.5-0.6l-0.4,0.2l-0.7-0.4l-0.4,0.4l-0.7,0.4l-0.2-0.5l-0.5,0.4
	l-0.4-0.2c-0.6,0.1-1.2,0-1.7-0.4c-0.2-0.2-1.4-0.6-2.1-0.2c-0.4,0.2-0.8,0.3-1.2,0.2l-0.6-0.4l-0.4,0.5l-0.9,0.3l-0.6,0.7l-0.4,0.2
	l-0.7,0.5l-0.7-0.3l-0.3-0.5l-0.5-0.5l-1.6,0h-0.4v0.9c0,0-0.4,1.4-0.8,2.3s0.4,2,0.4,2l0.7,1l0.5,1.1l0,0.9l0.2,0.6l-0.3,0.6
	l-5.1-0.2c0.3,0.4,0,1.1,0,1.1l0.5,1l-0.9-0.2l-0.1,0.4l0,0.4l0.8,0.4l-0.9,0l0.6,0.4l0.2,1.5c0,0-0.3,0.1-0.6,0.1
	c0,0.3-0.1,0.7-0.3,1c-0.2,0.8,0.7,1.2,0.7,1.2l-0.1,0.4l-6.6-0.4l-1.3-0.1l2,0.9c0,0,1.3,1.2,1.6,1.3c0.1,0.2,1,1.6,1.2,1.8
	c0,0.2,0,0.4,0,0.4c0.1,0.1,0.2,0.3,0.1,0.5c2.6-0.4,3.4,1.2,3.6,1.5c0.9,0.6,4-1.1,4-1.1l1.3,0.3l0.6-0.2l1.4,0
	c0,0,0.9,0.5,1.6,0.9s2.6,0.3,2.7-0.2c0-0.1,0.1-0.3,0.2-0.4c0.2-0.2,0.4-0.4,0.6-0.6l0.6,0.6l1,0.5c0,0,1.8-1,2.4-1.3
	c0.3,0.5,1.2,0.1,1.2,0.1l0.3-1.2l0.7-1l0.2-1.2l0.9-1.1l0.7-0.1l0.6-0.4l0.8,0l0-0.5l0.4-0.6l0.2-1.7l-0.1-0.7l-0.1-0.7l0-0.5
	l0.4-0.2L158.4,204.4z"/>
<path class="st1" d="M159.2,226.8l-0.8-0.9l-0.4,0.2l-0.2-0.7l0.2-0.8l0.3-0.3l-0.1-0.5l0.3-0.3l-0.1-0.4l0.5-0.2
	c0,0-0.3-1.1-0.4-1.5s-0.3-1.1-0.4-1.5s0.4-0.9,0.7-1.2s0.1-0.6-0.1-1.1s-0.7-0.1-0.7-0.1v-1.2l0.6-0.7l-0.2-0.2v-0.6h0l-0.8-0.5
	h-0.9l-0.2,0.6H156c0,0-0.3-0.2-0.7-0.6c-1,0.2-0.7,1.6-0.7,1.6l-0.8,0.9l-1.6,0.7c-0.4,0-0.8,0.1-1.1,0.2c-0.3,0.2-0.7,0.2-1,0
	c-0.3-0.1-0.5-0.1-0.8-0.1l-0.6-0.6l-0.5-1.4l-0.5-0.3c-0.1,0.1-0.1,0.3-0.2,0.4c-0.1,0.5-1.9,0.7-2.7,0.2s-1.6-0.9-1.6-0.9l-1.4,0
	l-0.6,0.2l-1.3-0.3c0,0-3.1,1.8-4,1.1c-0.2-0.4-1-1.9-3.6-1.5c0,0.3-0.2,0.8-0.9,1.4c0,0.1,0,0.1,0,0.2l-0.4,0l0,0.2l-0.4,0.4H130
	c0,0-0.6,0.5-1,0.3s-1-0.5-1-0.5l-0.2,0.3l0.3,0.9l-0.6,0.5l-0.3,0v0.6l-0.4,0.3l-0.2,0l0,0.4l-0.5-0.3v-0.4h-0.7l0.2,0.3l0.2,0.1
	v0.5l0.4,0.2v0.5l0.3,0l0.5,0.5c0,0,0.1,0.1,0,0.3c-0.1,0.1-0.2,0.3-0.2,0.4c0.2-0.1,0.4-0.1,0.6-0.1c0,0,0.1,0.7,0.5,0.2
	c-0.1-0.2-0.3-0.7-0.3-0.7h0.4l0.2,0.7l0.2-0.1h0.4l-0.3,0.1c0.4-0.1,0.8,0,1.1,0.2c0,0.1,0,0.3,0,0.3c0.1,0.1,0.1,0.1,0.1,0.2
	l1.1,0.1l0.6-0.4l0.4,0.2l0.5,0.7l0.9,0.5l0.1,0.4l0.1,0.2l-0.3,0.2c0.5,0.3,0.9,0.7,1.2,1.2c0.1,0.1,0.2,0.1,0.3,0.1l-0.2,0.8
	l0.7,0.6l0.6-0.5l0.4,0.8l3.6,0.5l1.2,0.9l0.5,0.9l-0.5,0.2l0,0.4l0.4,0.6c0.6,0.2,1.2,0.5,1.5,1.1c0.8-0.2,12.8-3,12.8-3l3.2-1
	l0.1-0.1l-0.1-0.5L159.2,226.8z"/>
<path class="st1" d="M99.9,67.5v-1.1c0,0-0.2-0.4-0.5-0.3c-0.3,0.1-1.1-0.6-0.8-1.2c0.2-0.3,0.6-0.1,0.8-0.5s0.5-1.1,0.5-1.1
	l0.1-1.4l0.2-0.3l-0.2-0.5l0.4-0.2c0,0,0.2,0.1,0.5-0.1l-0.2-1.2c-0.2-0.4-0.4-0.7-0.7-1.1c0.7-0.4-0.6-0.8-0.6-0.8l0.5-0.8
	c0.1-0.4,0.1-0.7,0.1-1.1c-0.3-0.1-0.6-0.4-0.7-0.7c0.7-0.5,0.2-1,0.2-1v-0.6c-0.2-0.2-0.4-0.3-0.5-0.5c0-0.3,0-0.7-0.1-1
	c-0.1-0.2-0.1-0.4,0-0.5c0.3-0.4,0-0.4-0.2-0.7c-0.1-0.2-0.3-0.4-0.5-0.5L92.5,50l-4-0.3l0.3-4l-10.5-1.1l0.1,1.4
	c0,0-0.9,4.4-1.5,5.4c0,0.5,0.1,0.8-0.2,1.3c-0.3,0.6-0.5,1.2-0.6,1.9c-0.1,0.1-0.2,0.2-0.2,0.2s-1,3.8-2.1,5.4
	c-0.1-0.1-0.3-0.1-0.4-0.2v0.2l-0.1,0.3l0.1,0.3l-0.2,0.9l0.1,0.5l-0.1,1l0.3,0.2l0,0.6c0,0,1.6,0.7,1.1,2.2S73,71.7,73,71.7
	l-0.6,0.7c-0.9,1.9-2,3.8-3.2,5.6c0,0.1,0.1,0.2,0.1,0.3L69,78.7c-0.2,0.2-3.5,5-3.5,5s0.3,0,0,0.4c-0.2,0.3-0.4,0.6-0.7,0.8l-2,4.4
	l-0.5,0.5l0.2,0.4l-0.4,1.2l-0.9,1.5l0.5,1.7c0,0,1,0.2,0.8,3.1c0.2,0.6,0.6,1,0.2,2.1c-0.4,1.1-0.7,1.7-0.5,2.2
	c0.2,0.5,0.7,0.7,1,1.1c0.5,0.9,1.2,1.6,2,2.2c0.1,0.1,0.2,0.3,0.2,0.4c0,0,1.5,0.8,2,1.7c0.2,0.3,0.2,0.6,0.5,0.8
	c0.3,0.2,0.5,0.4,0.7,0.6c0.2,0.2,0.4,0.4,0.7,0.4c0.6,0.2,1.2,0.7,1.5,1.3c0.4,0.8,0.7,1.4,0.7,1.4s-0.5,1.9,0.1,2.2
	c0.1,0,0.1,0,0.1-0.1h0.6c0.4,0.6,0.8,1.1,1.3,1.6l17.3,1.6l3.1-35.4c0-0.3-0.2-0.6-0.4-0.8c0.3-0.4,0.3-0.9,0.2-1.4
	c-0.2-0.3-0.1-0.6,0-0.8c0.2-0.2,0.2-0.5,0-0.6c0,0-0.1-0.1-0.1-0.1c-0.2-0.1-0.4-0.4-0.3-0.7c0.1-0.1,0.2-0.2,0.3-0.4l-0.3-0.5
	l-0.2-0.8c0,0-0.6,0.1-0.6-0.7c0-0.4-0.1-0.7-0.1-0.7l-0.5-0.6l0.3-0.3l-0.3-0.7c0,0,0.2-1.1,1.1-0.5c0.3-0.3,0.5-0.5,0.8-0.5
	C94,71.5,94,71.3,94,71.3l0.6-0.1l0.6,0.6l0.1,0.5l0.4-0.3l0.5,0.8l1,0.4c0,0-0.2-1,1.4-1.4c0-0.3,0.1-0.5,0.1-0.5l-0.2-0.3l0.8-0.5
	V70l0.3-0.2c0,0-0.1-1.2,0.9-1.2c-0.1-0.1-0.1-0.2-0.2-0.4l0.2-0.5L99.9,67.5z"/>
<path class="st1" d="M124.8,222.2l-0.7-0.2l-0.4-0.4c0,0,0.3-0.8-0.8-1.1c-0.2-0.4-0.4-0.9-0.4-0.9l0.9,0.4l0.4-0.3
	c-0.1-0.1-0.2-0.2-0.4-0.3c-0.2-0.1-0.5-0.4-0.2-1.1c0.2,0.1,0.4,0.1,0.4,0.1l0.2-0.4l0.2,0c0,0,0.1-0.5,0.5-0.3
	c0.2,0.1,0.3,0.2,0.4,0.1c0.1-0.3,0.1-0.6-0.2-0.8c-0.2-0.1-0.5-0.3-0.7-0.4c-0.2-0.1-0.5-0.5-0.9-0.6c0.1-0.5,0.4-1.8,0.4-1.8
	l0.4-0.5v-1.2l-0.2-0.2l0-0.5l-0.5-0.4c-0.1-0.1-0.2-0.3-0.2-0.5c0-0.3-0.1-0.6-0.3-0.9l-1.2-0.9l-0.8-1.5h-0.8l-0.2,0.4l-0.7-0.2
	l-0.2,0.2l-0.8-0.2l-0.5-0.6h-0.6l-1-0.4l-0.4-0.5l-0.9,0l-5.6-5.8l-1.3,0.1l-1.2-0.3l-1.3,0.2l0.2,0.4l-0.4,0.2c0,0,0,0.1,0,0.1
	c0,0.1,0.1,0.3,0.2,0.4l0.3,0v0.7h0.2c0.4,0.5,0.5,1.2,0.2,1.7c-0.2,0-0.2,0.1-0.3,0c-0.2-0.2-0.4-0.4-0.6-0.6v0.3l0.5,0.7l0,0.5
	l0.5,1.3l-0.2,0.4l0.5,0.4c0.2,0.5,0.2,1,0,1.5c-0.3,0.8-1.3,3.5-1.3,3.5l-1.7,3.1l-0.4,0.4v0.2l0.6,0l0.5,0.2l0.2-0.2l0.8,0.3
	l-0.7-0.7c0.3-0.8,1.1-1.3,1.9-1.4c0.1,0.1,0.2,0.2,0.2,0.4l2.3,0.4c0,0,2,0.9,2.1,2c0.1,0.1,0.3,0.1,0.4,0.2
	c0.3,0.6,0.5,1.1,0.6,1.8c0.2,0.1,0.6,0.4,0.6,0.4l0,0.2c0,0,1.3,0.1,1.3,1.3c0,0.3,0.3,0.6,0.6,0.6c0.1,0.1,0.1,0.3,0.2,0.4h0.3
	v-0.2l0.5-0.4l-0.2-0.6l0.1-0.3l-0.5-0.4l0.5-0.5l0.5,0.5l0.4,0.1l0.4,0.8L116,221l0.6,0.3l0.2-0.3c0,0,0.7,1.8,1.6,1.5
	c0.1,0.2,0.3,0.3,0.6,0.4l0.3,0.7h0.4c0,0,0.1,0.3,0.5,0.4c0.1,0.3,0.3,0.9,0.3,0.9l0.6,0.2l0.2,0.7l0.3-0.1l0.2-0.2l0.6,0.4
	l0.7-0.3l0.2,0.2l0.2-0.5h0.2l-0.1-0.4l0-0.9l-0.7-0.4l-0.5-0.9l-0.4-0.1v-0.3l0.4,0l0.5,0.4l-0.2-0.5l0.5,0l0.6,0.3
	c0.1,0.4,0.2,0.8,0.5,1.1h0.2l-0.2-0.4l0.3,0l0.4-0.4h0.2L124.8,222.2z"/>
<path class="st1" d="M113.8,174.5h-0.7l0-0.4l-1.9-0.8l-0.1-0.7l-0.5-0.4l-1.4,0c0,0-0.1-0.9-0.1-1.3c-0.3-0.1-0.5-0.3-0.6-0.6
	l0.1-0.5h-0.2l0.1-1.7l-0.4-0.3c0-0.2,0.1-0.4,0.2-0.5c-0.4,0-1.2,0-1.5-0.3s-1.2-1.1-1.2-1.1s0.1-0.9,0.2-1.4
	c-0.4-0.1-0.4-0.3-0.4-0.8c-0.9,0-1-0.4-1-0.4l0.1-1.3l0.4,0l0.2-1.9l0.4-0.1l0-1.7l1.2,0.2l1.5-2.3l0-0.7c0.3-0.1,0.5-0.1,0.8,0
	c-0.1-0.6-0.2-1.3-0.2-1.9l-0.6-0.1c0,0-0.1-1.6,0-2.1c-0.1-0.4-0.2-0.7-0.5-0.9l0-1.1h-0.3l0-0.7l-0.3-0.1l0.2-1.3l-0.7-0.2
	l0.3-1.3l-0.2-0.9h0.4l0.2-2.5l0.7,0.3l0.1-0.5l0.8,0v-0.4l3.2,0.5l0.3-0.7l1.6,0.2l0.4-2.5l0.2-1.4l-0.2-0.8l0.3-3.9l-0.6-0.2
	l-0.1-1.7l-0.9-0.1l0.2-2.3l-0.1-0.1l-0.1-0.2l-0.1-1.6c-0.1-0.2-0.3-0.4-0.5-0.5c0.3-0.2,0.4-0.5,0.2-0.7c0.4-0.7,0.6-1.5,0.4-2.3
	c1.5,0,1.5-1.2,1.5-1.2l-0.4-0.7l0.3-1.1c-0.2-0.2-0.4-0.3-0.7-0.3l0,0l-22.4-1.8l0.1-1.1h-0.1l-17.3-1.6h0c0.1,0.2,0.1,0.4,0.1,0.4
	l0.4,0.2l1.7,3.2l0.6,0.6l0.8,2.5l0.8,1l0.7,0.2l0.4,0.5l0.3,2.2l-0.2,1.2l0.2,0.9l-0.2,0.3l0.1,0.1c0,0-0.1,0.8,0.2,0.9
	c0.3,0.1,0.5,0.4,0.6,0.7c0.1,0.2,0.5,1,0.4,1.4c-0.1,0.5,0,0.9,0.2,1.4l-0.2,0.9l0.2,0.6l-0.4,0.9l0.3,0.9v0.5l0.3,0.4l0,0.7
	l-0.4,1.5c0,0-0.7,1.3-1.2,1.7c-0.1,0.3-0.4,1.8-0.4,1.8h-0.3l0.2,0.2v0.5l-0.3,0l0.5,0.7h-0.4l0.1,0.6l-0.3,0.3l0.2,0.3l-0.2,0.8
	v0.2l-0.2,0.4l0.2,0.2l0,0.9l-0.2-0.3l-0.1,0.2l0.4,0.5c0,0-0.1,0.6,0.3,0.4c0,0.1,0,0.2,0,0.4l0.2,0.5l-0.4,0.2l0.1,0.2l0.4,0v1
	h-0.4c0,0-0.1,0.6,0.3,0.4c0.1,0.3,0.6,1.8,0.6,1.8l-0.1,0.3L80,154l-0.4,0.1l0.3,0.4l-0.4,0.2c0.1,0.2,0.2,0.4,0.1,0.6
	c0.1,0.1,0.2,0.1,0.3,0.2l0.2,0.6c0,0,0.6,1.1,0.7,1.3c-0.1,0.1-0.1,0.2-0.2,0.4l0,0.1l0.2,0l0.5,0.5v0.6l-0.2,0.1l0.1,0.2l0,0.2
	l0.3,0.5c0,0.4,0,0.9,0.1,1.3c0.2,0.5,0.8,3.2-1.7,6.1c-0.1,0-0.1,0.1-0.2,0.1l0.5,0.9l-0.2,0.2v0.3l0.5,0.2l0.4,0.7l0.7,0.8l0,0.2
	c0,0,0.9,0.4,1,0.9c0,0.7,0.4,1.4,1,1.8l0.2,0l0.4,0.4l0.2,0.5l-0.1,0.1l0.3,0.2l0.4,0l0.6,0.9l1.1,1.1l0.3,0.7
	c0.2-0.2,0.4-0.6,0.4-0.6l0.3,0.1v-0.4l4.9,0.5l0.2-1.4l8.7,0.6l0.2-1.4l2.1,0.2l0-0.6l10,0.8L113.8,174.5z"/>
<path class="st1" d="M191.8,413.7l0.3,0l0.9-0.9l0.5,0.3l0.3,0l0.4-0.4l0.7-0.3l0.2-0.1L195,412l0.2,0l0.3,0.8l-0.2,0.1v0.5l1.2,0.1
	l0.5,0.5l0.3,0.6l0.4,0.4l-0.7,0.2l-0.9-0.2h-0.6c0,0-0.4,0.2-0.6,0.1s-0.8-0.5-0.8-0.5l-1.1-0.4l-0.5,0.2l-0.5-0.2h-0.6
	L191.8,413.7z"/>
<polygon class="st1" points="200.1,416.2 200.1,416.4 200.6,416.5 201.3,417.6 201.6,418.5 202.3,419.4 202.3,419.8 202.5,419.7 
	202.7,420.1 203.6,420.6 203.9,421 204.7,421.4 205,421.2 205.5,420.7 207.3,420.7 208.6,419.8 208.9,419.5 209.6,419.3 
	210.9,419.3 210.9,418.8 210.7,418.6 210.5,417.7 210.6,417.4 209.3,417.5 207.7,416.2 207.6,415.8 207.9,415.2 207.9,414.7 
	207.4,414.6 207,415 206.8,415 206.6,415.2 206.1,415.3 204.2,415 203.8,415 203.4,415.3 202.6,415.8 201.9,415.8 201.9,416 
	200.6,415.6 200.1,415.6 199.9,415.8 199.7,415.6 199.7,415.8 "/>
<path class="st1" d="M213.2,412.8l0.4,0.2l1.6,0.2l0.2,0.2h0.4l0.1,0.2c0,0,1,0.3,1.3,0.7c0.1,0.1,0.2,0.1,0.3,0.1l0.7-0.3l0.9,0.2
	l0.2-0.2h0.4l0.2,0.2l0.4,0.1l0.4,0.4l0.2-0.2l0.2,0.2l0.6,0.2h0.2l0.2,0.4l0.4,0.2l0.4,0.6l0.2,0l0.7,0.2l0.4-0.2l0.4,0.4l0.2-0.2
	l0.2,0.3l0.4,0l0.2-0.2h0.2l0.6-0.5v-0.5l0.5-0.3h0.2l0.2-0.2l0.2,0.2l0.9-0.2l0.5,0.4l0.5,0.2l0.3,0.4l-0.5,0.5h-0.4v0.4l-0.2,0.2
	l-0.2,0.7l-0.2,0.1h-0.7l-1.6,0.4l-0.2-0.2l-1.8,0L223,418l-1.2,0.5h-0.2l-0.4,0.4l-1.4-0.2l-0.3,0.2H218l-0.4-0.2H217l-0.3-0.4
	h-0.9l-0.4-0.4l-0.5-0.4l-0.5-1.2l0.6-0.9l-0.5-0.9l-0.9-0.7h-0.6l-0.2-0.2h0.4l0-0.4L213.2,412.8z"/>
<polygon class="st1" points="232.2,416.7 233.1,416.7 233.4,417.1 233.3,417.3 232.9,417.1 232.4,416.9 "/>
<polygon class="st1" points="233.7,417 234.6,417.1 234.6,417.2 234.4,417.3 234,417.3 233.7,417.2 "/>
<polygon class="st1" points="235.2,416.7 235.6,416.7 235.6,416.8 235.3,417 235.3,416.9 235.2,416.9 "/>
<polygon class="st1" points="227.2,452 227.4,452.2 229.6,453.4 230,453.5 231,454.9 231.6,454.9 231.4,455.1 231,455.1 
	230.9,455.4 229.8,455.6 228,455.2 227.7,454.9 226.6,454.7 225.7,453.9 225.9,453.6 225.6,453.2 225.6,453.1 225.4,452.5 
	225.6,452.3 226.1,452.7 226.5,452.3 227,452.2 "/>
<path class="st1" d="M266,444.3l2.1,0l0.6,0.7l0.8,0.5l0.2,0.4h0.2l0.4-0.2l0.4,0.2l0.5,0.2l0.7,0.7h0.9l0.9,0.5h0.3l0.4,0.4
	l0.5-0.2l0.2,0.4h-0.2l0,0.7l0.2,0l0.5,0.9l0.7,0.7l0.2,0.7h0.4l0.4,0.2l0.2,0.9v0.5l-0.9,0.3h-0.2l-1.2-0.7l-1.6-0.2h-1.8
	c-0.3-0.1-0.6-0.3-0.9-0.4c-0.2-0.2-0.9-1.3-0.9-1.3V450l0.2-0.3v-0.4l0.2-0.2V449l0.2-0.2l-0.2-0.2l-0.2-0.7l0.2-0.2l-0.2-0.5
	c-0.2-0.2-0.4-0.4-0.7-0.5c0-0.1,0-0.1,0-0.2l-0.4,0.2l0,0.2l-0.4-0.4l-0.5,0.1l-0.2-0.3h-0.4l-0.3,0.2c-0.3-0.1-0.6-0.3-0.7-0.6
	c0-0.1-0.1-0.2-0.1-0.2l-0.6-0.6l-0.1-0.4l-0.2-0.2v-0.2l-0.1-0.1l0-0.1h0.1L266,444.3z"/>
<polygon class="st1" points="247.7,443.4 248.1,443 248.1,443.7 247.9,444.1 247.5,444.1 247.2,443.4 "/>
<path class="st1" d="M265,465.6l0.2,0.2h0.3l0.4-0.2l0.3,0.4c0,0,0.2,0.9,0.4,1.1c0,0,0.1,0,0.2,0l0.5,1.4l0.7,0.7l1.2,1.6l1.2,1.1
	l0.5,0.7l3,2.7l0.5,0.7l0.4,0.4h-0.4l-0.3-0.2l-0.4,0l-0.4-0.2h-0.5v0.2h-0.4l-0.1,0.4l-0.3,0.2l0,0.2l-0.4,0.2
	c-0.1-0.3-0.3-0.5-0.5-0.7c-0.3-0.1-0.5-0.3-0.7-0.5l-0.5-0.2l-0.2-0.5l-0.5-0.2l-0.1-0.3h-0.4v-0.3l-0.3-0.5l0.2-0.5L268,473
	l-0.3-0.9l-0.5-0.4v-0.4l-0.2-0.2v-0.1l-0.5-1.6l-0.4-0.2l-0.3-0.9l0.1-0.2l-0.3-0.5l-0.1-0.7l-0.4-0.4h-0.4l-0.2-0.2l0.2-0.6
	L265,465.6z"/>
<polygon class="st1" points="406.9,45.6 406.7,45.4 406.5,45.2 406.3,45.1 406.3,45.1 407.1,45.8 407.1,45.7 "/>
<polygon class="st1" points="405.6,43.2 405.5,43.1 405.6,43.5 405.6,43.4 "/>
<polygon class="st1" points="405.6,43.5 405.5,43.6 405.5,43.9 405.5,44.2 405.5,44.5 405.7,44.7 405.9,44.8 406.1,44.9 406.3,45.1 
	405.6,44.5 "/>
<path class="st0" d="M299.2,124.9"/>
<path class="st3" d="M125.9,228.7"/>
<line class="st4" x1="124.9" y1="228.1" x2="227.9" y2="169.8"/>
<line class="st5" x1="130.4" y1="225.2" x2="217.4" y2="152"/>
<path class="st6" d="M180.7,190.4c6.1-3.5,11.3-8.3,17-12.4c1.6-1.2,3.3-2.2,5-3.2c1-0.6,0.1-2.1-0.9-1.6c-6.2,3.4-11.3,8.3-17,12.4
	c-1.6,1.2-3.3,2.2-5,3.2C178.8,189.4,179.7,191,180.7,190.4z"/>
<path class="st0" d="M208.3,169.8c-0.3-1.5,0.2-3,0.6-4.4c0.5-1.5,1-3.1,1.1-4.7c0.1-1.1-1.5-1.2-1.8-0.2c-1.6,5.4-2.3,11-2,16.7
	c0,0.4,0.3,0.8,0.7,0.9c0.4,0.1,0.8-0.1,1-0.4c2.4-5.5,4-11.4,4.7-17.4c0-0.5-0.4-0.9-0.9-0.9c-0.5,0-0.9,0.4-0.9,0.9
	c-0.7,5.7-2.2,11.2-4.5,16.5l1.7,0.5c-0.2-5.5,0.4-10.9,2-16.2l-1.8-0.2c-0.1,1.6-0.7,3.1-1.2,4.6c-0.5,1.6-0.8,3.2-0.5,4.9
	c0.1,0.5,0.6,0.8,1.1,0.6C208.2,170.8,208.5,170.3,208.3,169.8L208.3,169.8z"/>
<path class="st0" d="M208.6,161.2c0.2,2.2,0.1,4.3-0.1,6.5c-0.1,0.8-0.3,1.7-0.5,2.5c-0.1,0.3-0.4,1.1-0.4,1.4
	c0.1,0.4-0.2,0,0.1-0.1c0.3-0.1,1.3-0.6,0.4-0.3c-0.6,0.2-1.2,0.4-1.8,0.7c-1,0.4-2,0.9-2.9,1.3c-1.9,1-3.8,2.2-5.6,3.3
	c-5,3.1-0.4,11,4.6,7.9c2.1-1.4,4.3-2.6,6.5-3.8c2.3-1.1,4.7-1.6,6.2-4c1.3-1.9,1.7-4.4,2-6.7c0.4-2.9,0.6-5.8,0.4-8.8
	c-0.2-2.5-2-4.6-4.6-4.6C210.8,156.6,208.3,158.7,208.6,161.2L208.6,161.2z"/>
<path class="st0" d="M206,161.6c-2.9,4.9-7.1,9-12.1,11.8c-4.7,2.7-0.5,9.9,4.2,7.2c6.2-3.6,11.4-8.7,15.1-14.8
	C216,161.1,208.8,156.9,206,161.6L206,161.6z"/>
<path class="st0" d="M203.5,163.9c-2.5,2-5.1,4-7.2,6.4c-1.1,1.2-2,2.5-2.9,3.8c-0.3,0.4-0.6,0.8-0.9,1.2c-0.2,0.2-0.4,0.3-0.6,0.5
	l4.7,6.1l3.1-4.3c1.2-1.7,0.4-4.3-1.1-5.4c-1.6-1.2-4-1.2-5.5,0.3c-3.5,3.7-7,7.5-11.1,10.5l5.1,6.6c2-2.4,4.3-4.7,6.8-6.6
	c1.8-1.4,2.8-3.6,1.5-5.7c-1-1.8-3.9-2.9-5.7-1.5c-3.1,2.3-6,5-8.5,7.9c-1.3,1.6-1.7,3.8-0.3,5.5c1.2,1.5,3.7,2.3,5.4,1.1
	c4.7-3.4,8.8-7.5,12.8-11.8l-6.6-5.1l-3.1,4.3c-2.2,3,1.4,7.2,4.7,6.1c3.6-1.2,5.3-3.9,7.5-6.8c2.2-2.8,5.1-5,7.8-7.2
	c1.8-1.4,1.5-4.5,0-5.9C207.6,162.1,205.2,162.5,203.5,163.9L203.5,163.9z"/>
<path class="st0" d="M197,180.3c-3.7-0.1-6.6,1.9-9.3,4.2c-1.2,1-2.4,1.9-3.8,2.7c-0.7,0.4-1.4,0.8-2.2,1.1
	c-0.3,0.1-0.6,0.3-0.9,0.4c-0.4,0.2-1.1,0.1-0.5,0.4l1.5,0.8c-0.1,1.5,0,1.9,0.3,1.2c0.1-0.2,0.3-0.5,0.4-0.7
	c0.4-0.5,0.8-1.1,1.1-1.6l2.3-3.2c1-1.5,0.3-3.6-1.2-4.5c-1.6-1-3.5-0.3-4.5,1.2c-1.7,2.4-4.6,5.4-4.8,8.4c-0.1,3.6,3.3,5.7,6.5,4.6
	c2.9-1,5.6-2.5,8-4.3c2-1.5,4.2-4.2,7-4.1C201.2,187,201.2,180.5,197,180.3L197,180.3z"/>
<path class="st0" d="M175.1,187.6c-1.7,1.8-3.4,3.6-5.2,5.3c-0.8,0.8-1.6,1.6-2.4,2.3c-0.6,0.6-1.9,2.3-2.7,2.3l1.7,4
	c1.6-1.8,3.4-3.8,5.6-4.7c1.1-0.4,2.3-0.7,3.4-0.7c0.6-0.1,1.3-0.1,1.9-0.1h0.6c0.8,0.1,0.9,0,0.1-0.2l-0.7-1.7l0,0.4l0.7-1.7
	c-0.6,0.8-2.7,1.5-3.6,2l-4,2.1c-1.2,0.7-2.5,1.4-3.8,1.9c-0.6,0.3-1.2,0.5-1.8,0.7c-0.4,0.1-0.8,0.2-1.2,0.3
	c-0.8-0.1-0.8,0.1-0.2,0.5l0.4,2.9l-0.1,0.1c2.9-1,1.6-5.5-1.3-4.6c-1.1,0.4-2.2,1-2.7,2.1c-0.5,0.9-0.3,2.1,0.4,2.9
	c1.2,1.6,3.7,1,5.4,0.6c2-0.5,4-1.5,5.8-2.5c1.9-1,3.8-2.1,5.8-3.1c1.6-0.8,4-1.6,4.8-3.3c0.7-1.7-0.5-3.5-2.2-3.9
	c-1.9-0.5-4.3-0.1-6.2,0.2c-4.4,0.7-7.7,3.4-10.5,6.7c-1.3,1.5-0.5,4.1,1.7,4c3-0.1,5.1-2.7,7.1-4.6c2.3-2.2,4.5-4.4,6.7-6.7
	C180.5,188.8,177.1,185.4,175.1,187.6L175.1,187.6z"/>
<polygon class="st7" points="125,224 213,156 213,200 275.5,200 "/>
<polygon class="st0" points="209,16.3 479,16.3 479,198.5 209,201.5 "/>
<image style="overflow:visible;" width="2192" height="1422" xlink:href="../../../../../Desktop/Screen Shot 2020-10-06 at 8.29.18 PM.png"  transform="matrix(0.1223 0 0 0.1275 209.9403 16.26)">
</image>
</svg>
